<?xml version="1.0" encoding="UTF-8" standalone="no"?>
<!DOCTYPE svg PUBLIC "-//W3C//DTD SVG 1.1//EN"
 "http://www.w3.org/Graphics/SVG/1.1/DTD/svg11.dtd">
<!-- Generated by graphviz version 2.40.1 (20161225.0304)
 -->
<!-- Title: %3 Pages: 1 -->
<svg width="266pt" height="44pt"
 viewBox="0.00 0.00 266.20 44.00" xmlns="http://www.w3.org/2000/svg" xmlns:xlink="http://www.w3.org/1999/xlink">
<g id="graph0" class="graph" transform="scale(1 1) rotate(0) translate(4 40)">
<title>%3</title>
<polygon fill="#ffffff" stroke="transparent" points="-4,4 -4,-40 262.2031,-40 262.2031,4 -4,4"/>
<!-- Field -->
<g id="node1" class="node">
<title>Field</title>
<polygon fill="none" stroke="#000000" points="258.2031,-36 203.2031,-36 203.2031,0 258.2031,0 258.2031,-36"/>
<polyline fill="none" stroke="#000000" points="203.7031,-1 258.7031,-1 "/>
<text text-anchor="start" x="209.8574" y="-20.4" font-family="Helvetica,sans-Serif" font-size="12.00" fill="#000000">protocol</text>
<text text-anchor="start" x="218.1982" y="-8.4" font-family="Helvetica,sans-Serif" font-size="12.00" fill="#000000">Field</text>
</g>
<!-- Fraction&lt;T: IntegralDomain&gt; -->
<g id="node2" class="node">
<title>Fraction&lt;T: IntegralDomain&gt;</title>
<polygon fill="none" stroke="#000000" points="167.6099,-36 -.2036,-36 -.2036,0 167.6099,0 167.6099,-36"/>
<text text-anchor="middle" x="83.7031" y="-14.4" font-family="Helvetica,sans-Serif" font-size="12.00" fill="#000000">Fraction&lt;T: IntegralDomain&gt;</text>
</g>
<!-- Fraction&lt;T: IntegralDomain&gt;&#45;&gt;Field -->
<g id="edge1" class="edge">
<title>Fraction&lt;T: IntegralDomain&gt;&#45;&gt;Field</title>
<path fill="none" stroke="#000000" stroke-dasharray="5,2" d="M167.5391,-18C175.9589,-18 184.3787,-18 192.7985,-18"/>
<polygon fill="none" stroke="#000000" points="193.0689,-21.5001 203.0688,-18 193.0688,-14.5001 193.0689,-21.5001"/>
</g>
</g>
</svg>
