<?xml version="1.0" encoding="UTF-8" standalone="no"?>
<!DOCTYPE svg PUBLIC "-//W3C//DTD SVG 1.1//EN"
 "http://www.w3.org/Graphics/SVG/1.1/DTD/svg11.dtd">
<!-- Generated by graphviz version 2.40.1 (20161225.0304)
 -->
<!-- Title: %3 Pages: 1 -->
<svg width="260pt" height="86pt"
 viewBox="0.00 0.00 260.00 86.00" xmlns="http://www.w3.org/2000/svg" xmlns:xlink="http://www.w3.org/1999/xlink">
<g id="graph0" class="graph" transform="scale(1 1) rotate(0) translate(4 82)">
<title>%3</title>
<polygon fill="#ffffff" stroke="transparent" points="-4,4 -4,-82 256,-82 256,4 -4,4"/>
<!-- Field -->
<g id="node1" class="node">
<title>Field</title>
<polygon fill="none" stroke="#000000" points="252,-57 197,-57 197,-21 252,-21 252,-57"/>
<polyline fill="none" stroke="#000000" points="197.5,-22 252.5,-22 "/>
<text text-anchor="start" x="203.6543" y="-41.4" font-family="Helvetica,sans-Serif" font-size="12.00" fill="#000000">protocol</text>
<text text-anchor="start" x="211.9951" y="-29.4" font-family="Helvetica,sans-Serif" font-size="12.00" fill="#000000">Field</text>
</g>
<!-- Fraction&lt;T: IntegralDomain&gt; -->
<g id="node2" class="node">
<title>Fraction&lt;T: IntegralDomain&gt;</title>
<polygon fill="none" stroke="#000000" points="161,-78 0,-78 0,0 161,0 161,-78"/>
<polyline fill="none" stroke="#000000" points=".5,-56 161.5,-56 "/>
<text text-anchor="start" x="5.2969" y="-63.4" font-family="Helvetica,sans-Serif" font-size="12.00" fill="#000000">Fraction&lt;T: IntegralDomain&gt;</text>
<polyline fill="none" stroke="#000000" points=".5,-22 161.5,-22 "/>
<text text-anchor="start" x="5.5" y="-41.4" font-family="Helvetica,sans-Serif" font-size="12.00" fill="#000000">numerator: T</text>
<text text-anchor="start" x="5.5" y="-29.4" font-family="Helvetica,sans-Serif" font-size="12.00" fill="#000000">denominator: T</text>
<polyline fill="none" stroke="#000000" points=".5,0 161.5,0 "/>
<text text-anchor="start" x="5.5" y="-7.4" font-family="Helvetica,sans-Serif" font-size="12.00" fill="#000000">init(T, T)</text>
</g>
<!-- Fraction&lt;T: IntegralDomain&gt;&#45;&gt;Field -->
<g id="edge1" class="edge">
<title>Fraction&lt;T: IntegralDomain&gt;&#45;&gt;Field</title>
<path fill="none" stroke="#000000" stroke-dasharray="5,2" d="M161.2188,-39C169.7469,-39 178.275,-39 186.8032,-39"/>
<polygon fill="none" stroke="#000000" points="186.8145,-42.5001 196.8145,-39 186.8144,-35.5001 186.8145,-42.5001"/>
</g>
</g>
</svg>
