<?xml version="1.0" encoding="UTF-8" standalone="no"?>
<!DOCTYPE svg PUBLIC "-//W3C//DTD SVG 1.1//EN"
 "http://www.w3.org/Graphics/SVG/1.1/DTD/svg11.dtd">
<!-- Generated by graphviz version 2.40.1 (20161225.0304)
 -->
<!-- Title: %3 Pages: 1 -->
<svg width="260pt" height="44pt"
 viewBox="0.00 0.00 260.00 44.00" xmlns="http://www.w3.org/2000/svg" xmlns:xlink="http://www.w3.org/1999/xlink">
<g id="graph0" class="graph" transform="scale(1 1) rotate(0) translate(4 40)">
<title>%3</title>
<polygon fill="#ffffff" stroke="transparent" points="-4,4 -4,-40 256,-40 256,4 -4,4"/>
<!-- Fraction&lt;T: IntegralDomain&gt; -->
<g id="node1" class="node">
<title>Fraction&lt;T: IntegralDomain&gt;</title>
<polygon fill="none" stroke="#000000" points="161,-36 0,-36 0,0 161,0 161,-36"/>
<polyline fill="none" stroke="#000000" points=".5,-1 161.5,-1 "/>
<text text-anchor="start" x="66.3311" y="-20.4" font-family="Helvetica,sans-Serif" font-size="12.00" fill="#000000">struct</text>
<text text-anchor="start" x="5.2969" y="-8.4" font-family="Helvetica,sans-Serif" font-size="12.00" fill="#000000">Fraction&lt;T: IntegralDomain&gt;</text>
</g>
<!-- Field -->
<g id="node2" class="node">
<title>Field</title>
<polygon fill="none" stroke="#000000" points="252,-36 197,-36 197,0 252,0 252,-36"/>
<polyline fill="none" stroke="#000000" points="197.5,-1 252.5,-1 "/>
<text text-anchor="start" x="203.6543" y="-20.4" font-family="Helvetica,sans-Serif" font-size="12.00" fill="#000000">protocol</text>
<text text-anchor="start" x="211.9951" y="-8.4" font-family="Helvetica,sans-Serif" font-size="12.00" fill="#000000">Field</text>
</g>
<!-- Fraction&lt;T: IntegralDomain&gt;&#45;&gt;Field -->
<g id="edge1" class="edge">
<title>Fraction&lt;T: IntegralDomain&gt;&#45;&gt;Field</title>
<path fill="none" stroke="#000000" stroke-dasharray="5,2" d="M161.2188,-18C169.7469,-18 178.275,-18 186.8032,-18"/>
<polygon fill="none" stroke="#000000" points="186.8145,-21.5001 196.8145,-18 186.8144,-14.5001 186.8145,-21.5001"/>
</g>
</g>
</svg>
