<?xml version="1.0" encoding="UTF-8" standalone="no"?>
<!DOCTYPE svg PUBLIC "-//W3C//DTD SVG 1.1//EN"
 "http://www.w3.org/Graphics/SVG/1.1/DTD/svg11.dtd">
<!-- Generated by graphviz version 2.40.1 (20161225.0304)
 -->
<!-- Title: %3 Pages: 1 -->
<svg width="788pt" height="548pt"
 viewBox="0.00 0.00 788.06 548.00" xmlns="http://www.w3.org/2000/svg" xmlns:xlink="http://www.w3.org/1999/xlink">
<g id="graph0" class="graph" transform="scale(1 1) rotate(0) translate(4 544)">
<title>%3</title>
<polygon fill="#ffffff" stroke="transparent" points="-4,4 -4,-544 784.0586,-544 784.0586,4 -4,4"/>
<!-- Pair&lt;T: AbelianGroup&gt; -->
<g id="node1" class="node">
<title>Pair&lt;T: AbelianGroup&gt;</title>
<polygon fill="none" stroke="#000000" points="496.9563,-324 360.4558,-324 360.4558,-288 496.9563,-288 496.9563,-324"/>
<text text-anchor="middle" x="428.7061" y="-302.4" font-family="Helvetica,sans-Serif" font-size="12.00" fill="#000000">Pair&lt;T: AbelianGroup&gt;</text>
</g>
<!-- Pair&lt;T: Group&gt; -->
<g id="node2" class="node">
<title>Pair&lt;T: Group&gt;</title>
<polygon fill="none" stroke="#000000" points="477.5818,-396 379.8303,-396 379.8303,-360 477.5818,-360 477.5818,-396"/>
<text text-anchor="middle" x="428.7061" y="-374.4" font-family="Helvetica,sans-Serif" font-size="12.00" fill="#000000">Pair&lt;T: Group&gt;</text>
</g>
<!-- Pair&lt;T: AbelianGroup&gt;&#45;&gt;Pair&lt;T: Group&gt; -->
<g id="edge1" class="edge">
<title>Pair&lt;T: AbelianGroup&gt;&#45;&gt;Pair&lt;T: Group&gt;</title>
<path fill="none" stroke="#000000" d="M428.7061,-324.1686C428.7061,-331.869 428.7061,-341.0257 428.7061,-349.5834"/>
<polygon fill="none" stroke="#000000" points="425.2062,-349.5867 428.7061,-359.5867 432.2062,-349.5868 425.2062,-349.5867"/>
</g>
<!-- AbelianGroup -->
<g id="node14" class="node">
<title>AbelianGroup</title>
<polygon fill="none" stroke="#000000" points="622.5897,-324 532.8224,-324 532.8224,-288 622.5897,-288 622.5897,-324"/>
<text text-anchor="middle" x="577.7061" y="-302.4" font-family="Helvetica,sans-Serif" font-size="12.00" fill="#000000">AbelianGroup</text>
</g>
<!-- Pair&lt;T: AbelianGroup&gt;&#45;&gt;AbelianGroup -->
<g id="edge14" class="edge">
<title>Pair&lt;T: AbelianGroup&gt;&#45;&gt;AbelianGroup</title>
<path fill="none" stroke="#000000" stroke-dasharray="5,2" d="M497.0947,-306C505.6951,-306 514.2955,-306 522.8959,-306"/>
<polygon fill="none" stroke="#000000" points="522.992,-309.5001 532.992,-306 522.9919,-302.5001 522.992,-309.5001"/>
</g>
<!-- Pair&lt;T: CommutativeMonoid&gt; -->
<g id="node3" class="node">
<title>Pair&lt;T: CommutativeMonoid&gt;</title>
<polygon fill="none" stroke="#000000" points="515.7744,-468 341.6377,-468 341.6377,-432 515.7744,-432 515.7744,-468"/>
<text text-anchor="middle" x="428.7061" y="-446.4" font-family="Helvetica,sans-Serif" font-size="12.00" fill="#000000">Pair&lt;T: CommutativeMonoid&gt;</text>
</g>
<!-- Pair&lt;T: Group&gt;&#45;&gt;Pair&lt;T: CommutativeMonoid&gt; -->
<g id="edge2" class="edge">
<title>Pair&lt;T: Group&gt;&#45;&gt;Pair&lt;T: CommutativeMonoid&gt;</title>
<path fill="none" stroke="#000000" d="M428.7061,-396.1686C428.7061,-403.869 428.7061,-413.0257 428.7061,-421.5834"/>
<polygon fill="none" stroke="#000000" points="425.2062,-421.5867 428.7061,-431.5867 432.2062,-421.5868 425.2062,-421.5867"/>
</g>
<!-- Group -->
<g id="node13" class="node">
<title>Group</title>
<polygon fill="none" stroke="#000000" points="567.7061,-396 513.7061,-396 513.7061,-360 567.7061,-360 567.7061,-396"/>
<text text-anchor="middle" x="540.7061" y="-374.4" font-family="Helvetica,sans-Serif" font-size="12.00" fill="#000000">Group</text>
</g>
<!-- Pair&lt;T: Group&gt;&#45;&gt;Group -->
<g id="edge13" class="edge">
<title>Pair&lt;T: Group&gt;&#45;&gt;Group</title>
<path fill="none" stroke="#000000" stroke-dasharray="5,2" d="M477.7061,-378C486.3142,-378 494.9224,-378 503.5305,-378"/>
<polygon fill="none" stroke="#000000" points="503.6358,-381.5001 513.6357,-378 503.6357,-374.5001 503.6358,-381.5001"/>
</g>
<!-- Pair&lt;T: Monoid&gt; -->
<g id="node4" class="node">
<title>Pair&lt;T: Monoid&gt;</title>
<polygon fill="none" stroke="#000000" points="480.5876,-540 376.8245,-540 376.8245,-504 480.5876,-504 480.5876,-540"/>
<text text-anchor="middle" x="428.7061" y="-518.4" font-family="Helvetica,sans-Serif" font-size="12.00" fill="#000000">Pair&lt;T: Monoid&gt;</text>
</g>
<!-- Pair&lt;T: CommutativeMonoid&gt;&#45;&gt;Pair&lt;T: Monoid&gt; -->
<g id="edge3" class="edge">
<title>Pair&lt;T: CommutativeMonoid&gt;&#45;&gt;Pair&lt;T: Monoid&gt;</title>
<path fill="none" stroke="#000000" d="M428.7061,-468.1686C428.7061,-475.869 428.7061,-485.0257 428.7061,-493.5834"/>
<polygon fill="none" stroke="#000000" points="425.2062,-493.5867 428.7061,-503.5867 432.2062,-493.5868 425.2062,-493.5867"/>
</g>
<!-- CommutativeMonoid -->
<g id="node12" class="node">
<title>CommutativeMonoid</title>
<polygon fill="none" stroke="#000000" points="677.751,-468 551.6611,-468 551.6611,-432 677.751,-432 677.751,-468"/>
<text text-anchor="middle" x="614.7061" y="-446.4" font-family="Helvetica,sans-Serif" font-size="12.00" fill="#000000">CommutativeMonoid</text>
</g>
<!-- Pair&lt;T: CommutativeMonoid&gt;&#45;&gt;CommutativeMonoid -->
<g id="edge12" class="edge">
<title>Pair&lt;T: CommutativeMonoid&gt;&#45;&gt;CommutativeMonoid</title>
<path fill="none" stroke="#000000" stroke-dasharray="5,2" d="M515.8936,-450C524.3089,-450 532.7242,-450 541.1395,-450"/>
<polygon fill="none" stroke="#000000" points="541.4043,-453.5001 551.4043,-450 541.4043,-446.5001 541.4043,-453.5001"/>
</g>
<!-- Monoid -->
<g id="node11" class="node">
<title>Monoid</title>
<polygon fill="none" stroke="#000000" points="571.5646,-540 515.8475,-540 515.8475,-504 571.5646,-504 571.5646,-540"/>
<text text-anchor="middle" x="543.7061" y="-518.4" font-family="Helvetica,sans-Serif" font-size="12.00" fill="#000000">Monoid</text>
</g>
<!-- Pair&lt;T: Monoid&gt;&#45;&gt;Monoid -->
<g id="edge11" class="edge">
<title>Pair&lt;T: Monoid&gt;&#45;&gt;Monoid</title>
<path fill="none" stroke="#000000" stroke-dasharray="5,2" d="M480.8154,-522C489.0824,-522 497.3493,-522 505.6162,-522"/>
<polygon fill="none" stroke="#000000" points="505.7001,-525.5001 515.7001,-522 505.7,-518.5001 505.7001,-525.5001"/>
</g>
<!-- Pair&lt;T: TriviallyInvolutiveRing&gt; -->
<g id="node5" class="node">
<title>Pair&lt;T: TriviallyInvolutiveRing&gt;</title>
<polygon fill="none" stroke="#000000" points="179.6186,-180 -.2065,-180 -.2065,-144 179.6186,-144 179.6186,-180"/>
<text text-anchor="middle" x="89.7061" y="-158.4" font-family="Helvetica,sans-Serif" font-size="12.00" fill="#000000">Pair&lt;T: TriviallyInvolutiveRing&gt;</text>
</g>
<!-- Pair&lt;T: InvolutiveRing&gt; -->
<g id="node6" class="node">
<title>Pair&lt;T: InvolutiveRing&gt;</title>
<polygon fill="none" stroke="#000000" points="347.6051,-252 207.807,-252 207.807,-216 347.6051,-216 347.6051,-252"/>
<text text-anchor="middle" x="277.7061" y="-230.4" font-family="Helvetica,sans-Serif" font-size="12.00" fill="#000000">Pair&lt;T: InvolutiveRing&gt;</text>
</g>
<!-- Pair&lt;T: TriviallyInvolutiveRing&gt;&#45;&gt;Pair&lt;T: InvolutiveRing&gt; -->
<g id="edge4" class="edge">
<title>Pair&lt;T: TriviallyInvolutiveRing&gt;&#45;&gt;Pair&lt;T: InvolutiveRing&gt;</title>
<path fill="none" stroke="#000000" d="M137.1464,-180.1686C162.6255,-189.9266 194.2104,-202.023 220.9817,-212.2758"/>
<polygon fill="none" stroke="#000000" points="220.0165,-215.654 230.6069,-215.962 222.5201,-209.117 220.0165,-215.654"/>
</g>
<!-- CommutativeRing -->
<g id="node18" class="node">
<title>CommutativeRing</title>
<polygon fill="none" stroke="#000000" points="326.5738,-180 214.8383,-180 214.8383,-144 326.5738,-144 326.5738,-180"/>
<text text-anchor="middle" x="270.7061" y="-158.4" font-family="Helvetica,sans-Serif" font-size="12.00" fill="#000000">CommutativeRing</text>
</g>
<!-- Pair&lt;T: TriviallyInvolutiveRing&gt;&#45;&gt;CommutativeRing -->
<g id="edge18" class="edge">
<title>Pair&lt;T: TriviallyInvolutiveRing&gt;&#45;&gt;CommutativeRing</title>
<path fill="none" stroke="#000000" stroke-dasharray="5,2" d="M179.499,-162C187.8576,-162 196.2162,-162 204.5748,-162"/>
<polygon fill="none" stroke="#000000" points="204.7705,-165.5001 214.7705,-162 204.7705,-158.5001 204.7705,-165.5001"/>
</g>
<!-- Pair&lt;T: InvolutiveRing&gt;&#45;&gt;Pair&lt;T: AbelianGroup&gt; -->
<g id="edge5" class="edge">
<title>Pair&lt;T: InvolutiveRing&gt;&#45;&gt;Pair&lt;T: AbelianGroup&gt;</title>
<path fill="none" stroke="#000000" d="M315.8097,-252.1686C335.8256,-261.7126 360.5328,-273.4935 381.7255,-283.5987"/>
<polygon fill="none" stroke="#000000" points="380.3436,-286.8172 390.8764,-287.962 383.3564,-280.4987 380.3436,-286.8172"/>
</g>
<!-- InvolutiveRing -->
<g id="node15" class="node">
<title>InvolutiveRing</title>
<polygon fill="none" stroke="#000000" points="474.5818,-252 382.8303,-252 382.8303,-216 474.5818,-216 474.5818,-252"/>
<text text-anchor="middle" x="428.7061" y="-230.4" font-family="Helvetica,sans-Serif" font-size="12.00" fill="#000000">InvolutiveRing</text>
</g>
<!-- Pair&lt;T: InvolutiveRing&gt;&#45;&gt;InvolutiveRing -->
<g id="edge15" class="edge">
<title>Pair&lt;T: InvolutiveRing&gt;&#45;&gt;InvolutiveRing</title>
<path fill="none" stroke="#000000" stroke-dasharray="5,2" d="M347.6025,-234C355.9361,-234 364.2697,-234 372.6034,-234"/>
<polygon fill="none" stroke="#000000" points="372.7686,-237.5001 382.7685,-234 372.7685,-230.5001 372.7686,-237.5001"/>
</g>
<!-- Pair&lt;T: NormedSpace&gt; -->
<g id="node7" class="node">
<title>Pair&lt;T: NormedSpace&gt;</title>
<polygon fill="none" stroke="#000000" points="650.9348,-252 510.4773,-252 510.4773,-216 650.9348,-216 650.9348,-252"/>
<text text-anchor="middle" x="580.7061" y="-230.4" font-family="Helvetica,sans-Serif" font-size="12.00" fill="#000000">Pair&lt;T: NormedSpace&gt;</text>
</g>
<!-- Pair&lt;T: NormedSpace&gt;&#45;&gt;Pair&lt;T: AbelianGroup&gt; -->
<g id="edge6" class="edge">
<title>Pair&lt;T: NormedSpace&gt;&#45;&gt;Pair&lt;T: AbelianGroup&gt;</title>
<path fill="none" stroke="#000000" d="M542.35,-252.1686C522.2016,-261.7126 497.3308,-273.4935 475.9978,-283.5987"/>
<polygon fill="none" stroke="#000000" points="474.3253,-280.518 466.7863,-287.962 477.322,-286.8442 474.3253,-280.518"/>
</g>
<!-- NormedSpace -->
<g id="node20" class="node">
<title>NormedSpace</title>
<polygon fill="none" stroke="#000000" points="779.9116,-252 687.5005,-252 687.5005,-216 779.9116,-216 779.9116,-252"/>
<text text-anchor="middle" x="733.7061" y="-230.4" font-family="Helvetica,sans-Serif" font-size="12.00" fill="#000000">NormedSpace</text>
</g>
<!-- Pair&lt;T: NormedSpace&gt;&#45;&gt;NormedSpace -->
<g id="edge20" class="edge">
<title>Pair&lt;T: NormedSpace&gt;&#45;&gt;NormedSpace</title>
<path fill="none" stroke="#000000" stroke-dasharray="5,2" d="M651.2295,-234C659.8745,-234 668.5195,-234 677.1645,-234"/>
<polygon fill="none" stroke="#000000" points="677.313,-237.5001 687.313,-234 677.313,-230.5001 677.313,-237.5001"/>
</g>
<!-- Pair&lt;T: DivisionRing &amp; InvolutiveRing&gt; -->
<g id="node8" class="node">
<title>Pair&lt;T: DivisionRing &amp; InvolutiveRing&gt;</title>
<polygon fill="none" stroke="#000000" points="523.9679,-108 303.4442,-108 303.4442,-72 523.9679,-72 523.9679,-108"/>
<text text-anchor="middle" x="413.7061" y="-86.4" font-family="Helvetica,sans-Serif" font-size="12.00" fill="#000000">Pair&lt;T: DivisionRing &amp; InvolutiveRing&gt;</text>
</g>
<!-- Pair&lt;T: UnitalRing &amp; InvolutiveRing&gt; -->
<g id="node9" class="node">
<title>Pair&lt;T: UnitalRing &amp; InvolutiveRing&gt;</title>
<polygon fill="none" stroke="#000000" points="571.6362,-180 361.7759,-180 361.7759,-144 571.6362,-144 571.6362,-180"/>
<text text-anchor="middle" x="466.7061" y="-158.4" font-family="Helvetica,sans-Serif" font-size="12.00" fill="#000000">Pair&lt;T: UnitalRing &amp; InvolutiveRing&gt;</text>
</g>
<!-- Pair&lt;T: DivisionRing &amp; InvolutiveRing&gt;&#45;&gt;Pair&lt;T: UnitalRing &amp; InvolutiveRing&gt; -->
<g id="edge7" class="edge">
<title>Pair&lt;T: DivisionRing &amp; InvolutiveRing&gt;&#45;&gt;Pair&lt;T: UnitalRing &amp; InvolutiveRing&gt;</title>
<path fill="none" stroke="#000000" d="M427.0802,-108.1686C433.1223,-116.3768 440.3823,-126.2394 447.0281,-135.2677"/>
<polygon fill="none" stroke="#000000" points="444.4049,-137.6082 453.1518,-143.5867 450.0423,-133.4585 444.4049,-137.6082"/>
</g>
<!-- DivisionRing -->
<g id="node17" class="node">
<title>DivisionRing</title>
<polygon fill="none" stroke="#000000" points="642.898,-108 560.5141,-108 560.5141,-72 642.898,-72 642.898,-108"/>
<text text-anchor="middle" x="601.7061" y="-86.4" font-family="Helvetica,sans-Serif" font-size="12.00" fill="#000000">DivisionRing</text>
</g>
<!-- Pair&lt;T: DivisionRing &amp; InvolutiveRing&gt;&#45;&gt;DivisionRing -->
<g id="edge17" class="edge">
<title>Pair&lt;T: DivisionRing &amp; InvolutiveRing&gt;&#45;&gt;DivisionRing</title>
<path fill="none" stroke="#000000" stroke-dasharray="5,2" d="M524.2295,-90C532.858,-90 541.4864,-90 550.1149,-90"/>
<polygon fill="none" stroke="#000000" points="550.244,-93.5001 560.244,-90 550.244,-86.5001 550.244,-93.5001"/>
</g>
<!-- Pair&lt;T: UnitalRing &amp; InvolutiveRing&gt;&#45;&gt;Pair&lt;T: InvolutiveRing&gt; -->
<g id="edge8" class="edge">
<title>Pair&lt;T: UnitalRing &amp; InvolutiveRing&gt;&#45;&gt;Pair&lt;T: InvolutiveRing&gt;</title>
<path fill="none" stroke="#000000" d="M419.0134,-180.1686C393.3987,-189.9266 361.6458,-202.023 334.7321,-212.2758"/>
<polygon fill="none" stroke="#000000" points="333.1547,-209.1313 325.0558,-215.962 335.6467,-215.6727 333.1547,-209.1313"/>
</g>
<!-- UnitalRing -->
<g id="node16" class="node">
<title>UnitalRing</title>
<polygon fill="none" stroke="#000000" points="678.5663,-180 606.8458,-180 606.8458,-144 678.5663,-144 678.5663,-180"/>
<text text-anchor="middle" x="642.7061" y="-158.4" font-family="Helvetica,sans-Serif" font-size="12.00" fill="#000000">UnitalRing</text>
</g>
<!-- Pair&lt;T: UnitalRing &amp; InvolutiveRing&gt;&#45;&gt;UnitalRing -->
<g id="edge16" class="edge">
<title>Pair&lt;T: UnitalRing &amp; InvolutiveRing&gt;&#45;&gt;UnitalRing</title>
<path fill="none" stroke="#000000" stroke-dasharray="5,2" d="M571.5498,-162C579.9152,-162 588.2806,-162 596.646,-162"/>
<polygon fill="none" stroke="#000000" points="596.85,-165.5001 606.85,-162 596.8499,-158.5001 596.85,-165.5001"/>
</g>
<!-- Pair&lt;T: Field &amp; TriviallyInvolutiveRing&gt; -->
<g id="node10" class="node">
<title>Pair&lt;T: Field &amp; TriviallyInvolutiveRing&gt;</title>
<polygon fill="none" stroke="#000000" points="387.7998,-36 167.6123,-36 167.6123,0 387.7998,0 387.7998,-36"/>
<text text-anchor="middle" x="277.7061" y="-14.4" font-family="Helvetica,sans-Serif" font-size="12.00" fill="#000000">Pair&lt;T: Field &amp; TriviallyInvolutiveRing&gt;</text>
</g>
<!-- Pair&lt;T: Field &amp; TriviallyInvolutiveRing&gt;&#45;&gt;Pair&lt;T: TriviallyInvolutiveRing&gt; -->
<g id="edge9" class="edge">
<title>Pair&lt;T: Field &amp; TriviallyInvolutiveRing&gt;&#45;&gt;Pair&lt;T: TriviallyInvolutiveRing&gt;</title>
<path fill="none" stroke="#000000" d="M253.8957,-36.2377C220.2758,-61.9892 158.8248,-109.058 121.3837,-137.7363"/>
<polygon fill="none" stroke="#000000" points="119.1336,-135.051 113.3231,-143.9104 123.3901,-140.6082 119.1336,-135.051"/>
</g>
<!-- Pair&lt;T: Field &amp; TriviallyInvolutiveRing&gt;&#45;&gt;Pair&lt;T: DivisionRing &amp; InvolutiveRing&gt; -->
<g id="edge10" class="edge">
<title>Pair&lt;T: Field &amp; TriviallyInvolutiveRing&gt;&#45;&gt;Pair&lt;T: DivisionRing &amp; InvolutiveRing&gt;</title>
<path fill="none" stroke="#000000" d="M312.0246,-36.1686C329.742,-45.5484 351.5405,-57.0888 370.4045,-67.0756"/>
<polygon fill="none" stroke="#000000" points="368.923,-70.2515 379.3985,-71.8372 372.1982,-64.065 368.923,-70.2515"/>
</g>
<!-- Field -->
<g id="node19" class="node">
<title>Field</title>
<polygon fill="none" stroke="#000000" points="477.7061,-36 423.7061,-36 423.7061,0 477.7061,0 477.7061,-36"/>
<text text-anchor="middle" x="450.7061" y="-14.4" font-family="Helvetica,sans-Serif" font-size="12.00" fill="#000000">Field</text>
</g>
<!-- Pair&lt;T: Field &amp; TriviallyInvolutiveRing&gt;&#45;&gt;Field -->
<g id="edge19" class="edge">
<title>Pair&lt;T: Field &amp; TriviallyInvolutiveRing&gt;&#45;&gt;Field</title>
<path fill="none" stroke="#000000" stroke-dasharray="5,2" d="M387.8584,-18C396.4457,-18 405.0331,-18 413.6204,-18"/>
<polygon fill="none" stroke="#000000" points="413.7012,-21.5001 423.7012,-18 413.7012,-14.5001 413.7012,-21.5001"/>
</g>
</g>
</svg>
