<?xml version="1.0" encoding="UTF-8" standalone="no"?>
<!DOCTYPE svg PUBLIC "-//W3C//DTD SVG 1.1//EN"
 "http://www.w3.org/Graphics/SVG/1.1/DTD/svg11.dtd">
<!-- Generated by graphviz version 2.40.1 (20161225.0304)
 -->
<!-- Title: %3 Pages: 1 -->
<svg width="759pt" height="688pt"
 viewBox="0.00 0.00 758.69 688.00" xmlns="http://www.w3.org/2000/svg" xmlns:xlink="http://www.w3.org/1999/xlink">
<g id="graph0" class="graph" transform="scale(1 1) rotate(0) translate(4 684)">
<title>%3</title>
<polygon fill="#ffffff" stroke="transparent" points="-4,4 -4,-684 754.6865,-684 754.6865,4 -4,4"/>
<!-- Monoid -->
<g id="node1" class="node">
<title>Monoid</title>
<polygon fill="none" stroke="#000000" points="515.1865,-659 460.1865,-659 460.1865,-623 515.1865,-623 515.1865,-659"/>
<polyline fill="none" stroke="#000000" points="460.6865,-624 515.6865,-624 "/>
<text text-anchor="start" x="466.8408" y="-643.4" font-family="Helvetica,sans-Serif" font-size="12.00" fill="#000000">protocol</text>
<text text-anchor="start" x="468.5078" y="-631.4" font-family="Helvetica,sans-Serif" font-size="12.00" fill="#000000">Monoid</text>
</g>
<!-- CommutativeMonoid -->
<g id="node2" class="node">
<title>CommutativeMonoid</title>
<polygon fill="none" stroke="#000000" points="750.6865,-566 630.6865,-566 630.6865,-530 750.6865,-530 750.6865,-566"/>
<polyline fill="none" stroke="#000000" points="630.6865,-531 750.6865,-531 "/>
<text text-anchor="start" x="669.3408" y="-550.4" font-family="Helvetica,sans-Serif" font-size="12.00" fill="#000000">protocol</text>
<text text-anchor="start" x="635.6641" y="-538.4" font-family="Helvetica,sans-Serif" font-size="12.00" fill="#000000">CommutativeMonoid</text>
</g>
<!-- Group -->
<g id="node3" class="node">
<title>Group</title>
<polygon fill="none" stroke="#000000" points="384.1865,-566 329.1865,-566 329.1865,-530 384.1865,-530 384.1865,-566"/>
<polyline fill="none" stroke="#000000" points="329.6865,-531 384.6865,-531 "/>
<text text-anchor="start" x="335.8408" y="-550.4" font-family="Helvetica,sans-Serif" font-size="12.00" fill="#000000">protocol</text>
<text text-anchor="start" x="340.5107" y="-538.4" font-family="Helvetica,sans-Serif" font-size="12.00" fill="#000000">Group</text>
</g>
<!-- AbelianGroup -->
<g id="node4" class="node">
<title>AbelianGroup</title>
<polygon fill="none" stroke="#000000" points="563.1865,-494 480.1865,-494 480.1865,-458 563.1865,-458 563.1865,-494"/>
<polyline fill="none" stroke="#000000" points="480.6865,-459 563.6865,-459 "/>
<text text-anchor="start" x="500.8408" y="-478.4" font-family="Helvetica,sans-Serif" font-size="12.00" fill="#000000">protocol</text>
<text text-anchor="start" x="485.4951" y="-466.4" font-family="Helvetica,sans-Serif" font-size="12.00" fill="#000000">AbelianGroup</text>
</g>
<!-- InvolutiveRing -->
<g id="node5" class="node">
<title>InvolutiveRing</title>
<polygon fill="none" stroke="#000000" points="566.1865,-422 481.1865,-422 481.1865,-386 566.1865,-386 566.1865,-422"/>
<polyline fill="none" stroke="#000000" points="481.6865,-387 566.6865,-387 "/>
<text text-anchor="start" x="502.8408" y="-406.4" font-family="Helvetica,sans-Serif" font-size="12.00" fill="#000000">protocol</text>
<text text-anchor="start" x="486.499" y="-394.4" font-family="Helvetica,sans-Serif" font-size="12.00" fill="#000000">InvolutiveRing</text>
</g>
<!-- Unital -->
<g id="node6" class="node">
<title>Unital</title>
<polygon fill="none" stroke="#000000" points="403.1865,-346 348.1865,-346 348.1865,-310 403.1865,-310 403.1865,-346"/>
<polyline fill="none" stroke="#000000" points="348.6865,-311 403.6865,-311 "/>
<text text-anchor="start" x="354.8408" y="-330.4" font-family="Helvetica,sans-Serif" font-size="12.00" fill="#000000">protocol</text>
<text text-anchor="start" x="360.8467" y="-318.4" font-family="Helvetica,sans-Serif" font-size="12.00" fill="#000000">Unital</text>
</g>
<!-- DivisionRing -->
<g id="node7" class="node">
<title>DivisionRing</title>
<polygon fill="none" stroke="#000000" points="441.6865,-265 365.6865,-265 365.6865,-229 441.6865,-229 441.6865,-265"/>
<polyline fill="none" stroke="#000000" points="365.6865,-230 441.6865,-230 "/>
<text text-anchor="start" x="382.3408" y="-249.4" font-family="Helvetica,sans-Serif" font-size="12.00" fill="#000000">protocol</text>
<text text-anchor="start" x="370.3408" y="-237.4" font-family="Helvetica,sans-Serif" font-size="12.00" fill="#000000">DivisionRing</text>
</g>
<!-- Commutative -->
<g id="node8" class="node">
<title>Commutative</title>
<polygon fill="none" stroke="#000000" points="734.6865,-346 654.6865,-346 654.6865,-310 734.6865,-310 734.6865,-346"/>
<polyline fill="none" stroke="#000000" points="654.6865,-311 734.6865,-311 "/>
<text text-anchor="start" x="673.3408" y="-330.4" font-family="Helvetica,sans-Serif" font-size="12.00" fill="#000000">protocol</text>
<text text-anchor="start" x="659.3428" y="-318.4" font-family="Helvetica,sans-Serif" font-size="12.00" fill="#000000">Commutative</text>
</g>
<!-- Field -->
<g id="node9" class="node">
<title>Field</title>
<polygon fill="none" stroke="#000000" points="730.1865,-188 675.1865,-188 675.1865,-152 730.1865,-152 730.1865,-188"/>
<polyline fill="none" stroke="#000000" points="675.6865,-153 730.6865,-153 "/>
<text text-anchor="start" x="681.8408" y="-172.4" font-family="Helvetica,sans-Serif" font-size="12.00" fill="#000000">protocol</text>
<text text-anchor="start" x="690.1816" y="-160.4" font-family="Helvetica,sans-Serif" font-size="12.00" fill="#000000">Field</text>
</g>
<!-- NormedSpace -->
<g id="node10" class="node">
<title>NormedSpace</title>
<polygon fill="none" stroke="#000000" points="382.6865,-188 296.6865,-188 296.6865,-152 382.6865,-152 382.6865,-188"/>
<polyline fill="none" stroke="#000000" points="296.6865,-153 382.6865,-153 "/>
<text text-anchor="start" x="318.3408" y="-172.4" font-family="Helvetica,sans-Serif" font-size="12.00" fill="#000000">protocol</text>
<text text-anchor="start" x="301.334" y="-160.4" font-family="Helvetica,sans-Serif" font-size="12.00" fill="#000000">NormedSpace</text>
</g>
<!-- Pair&lt;T: Monoid&gt; -->
<g id="node11" class="node">
<title>Pair&lt;T: Monoid&gt;</title>
<polygon fill="none" stroke="#000000" points="424.1865,-680 327.1865,-680 327.1865,-602 424.1865,-602 424.1865,-680"/>
<polyline fill="none" stroke="#000000" points="327.6865,-658 424.6865,-658 "/>
<text text-anchor="start" x="332.4961" y="-665.4" font-family="Helvetica,sans-Serif" font-size="12.00" fill="#000000">Pair&lt;T: Monoid&gt;</text>
<polyline fill="none" stroke="#000000" points="327.6865,-624 424.6865,-624 "/>
<text text-anchor="start" x="332.6865" y="-643.4" font-family="Helvetica,sans-Serif" font-size="12.00" fill="#000000">re: T</text>
<text text-anchor="start" x="332.6865" y="-631.4" font-family="Helvetica,sans-Serif" font-size="12.00" fill="#000000">im: T</text>
<polyline fill="none" stroke="#000000" points="327.6865,-602 424.6865,-602 "/>
<text text-anchor="start" x="332.6865" y="-609.4" font-family="Helvetica,sans-Serif" font-size="12.00" fill="#000000">init(T, T)</text>
</g>
<!-- Pair&lt;T: Monoid&gt;&#45;&gt;Monoid -->
<g id="edge18" class="edge">
<title>Pair&lt;T: Monoid&gt;&#45;&gt;Monoid</title>
<path fill="none" stroke="#000000" stroke-dasharray="5,2" d="M424.249,-641C432.7982,-641 441.3474,-641 449.8966,-641"/>
<polygon fill="none" stroke="#000000" points="449.9327,-644.5001 459.9326,-641 449.9326,-637.5001 449.9327,-644.5001"/>
</g>
<!-- Pair&lt;T: InvolutiveRing &amp; Unital&gt; -->
<g id="node12" class="node">
<title>Pair&lt;T: InvolutiveRing &amp; Unital&gt;</title>
<polygon fill="none" stroke="#000000" points="311.6865,-350 133.6865,-350 133.6865,-306 311.6865,-306 311.6865,-350"/>
<polyline fill="none" stroke="#000000" points="133.6865,-328 311.6865,-328 "/>
<text text-anchor="start" x="138.3115" y="-335.4" font-family="Helvetica,sans-Serif" font-size="12.00" fill="#000000">Pair&lt;T: InvolutiveRing &amp; Unital&gt;</text>
<polyline fill="none" stroke="#000000" points="133.6865,-306 311.6865,-306 "/>
<text text-anchor="start" x="138.6865" y="-314.4" font-family="Helvetica,sans-Serif" text-decoration="underline" font-size="12.00" fill="#000000">symbol: Pair</text>
</g>
<!-- Pair&lt;T: InvolutiveRing &amp; Unital&gt;&#45;&gt;Unital -->
<g id="edge23" class="edge">
<title>Pair&lt;T: InvolutiveRing &amp; Unital&gt;&#45;&gt;Unital</title>
<path fill="none" stroke="#000000" stroke-dasharray="5,2" d="M311.7373,-328C320.3555,-328 328.9736,-328 337.5918,-328"/>
<polygon fill="none" stroke="#000000" points="337.7088,-331.5001 347.7087,-328 337.7087,-324.5001 337.7088,-331.5001"/>
</g>
<!-- Pair&lt;T: InvolutiveRing&gt; -->
<g id="node19" class="node">
<title>Pair&lt;T: InvolutiveRing&gt;</title>
<polygon fill="none" stroke="#000000" points="445.5855,-422 305.7875,-422 305.7875,-386 445.5855,-386 445.5855,-422"/>
<text text-anchor="middle" x="375.6865" y="-400.4" font-family="Helvetica,sans-Serif" font-size="12.00" fill="#000000">Pair&lt;T: InvolutiveRing&gt;</text>
</g>
<!-- Pair&lt;T: InvolutiveRing &amp; Unital&gt;&#45;&gt;Pair&lt;T: InvolutiveRing&gt; -->
<g id="edge9" class="edge">
<title>Pair&lt;T: InvolutiveRing &amp; Unital&gt;&#45;&gt;Pair&lt;T: InvolutiveRing&gt;</title>
<path fill="none" stroke="#000000" d="M267.3518,-350.1867C286.997,-359.9451 310.0512,-371.3968 329.8309,-381.2221"/>
<polygon fill="none" stroke="#000000" points="328.4426,-384.4404 338.9556,-385.7546 331.5567,-378.1712 328.4426,-384.4404"/>
</g>
<!-- Pair&lt;T: DivisionRing &amp; InvolutiveRing&gt; -->
<g id="node13" class="node">
<title>Pair&lt;T: DivisionRing &amp; InvolutiveRing&gt;</title>
<polygon fill="none" stroke="#000000" points="329.6865,-270 115.6865,-270 115.6865,-224 329.6865,-224 329.6865,-270"/>
<polyline fill="none" stroke="#000000" points="115.6865,-248 329.6865,-248 "/>
<text text-anchor="start" x="120.3057" y="-255.4" font-family="Helvetica,sans-Serif" font-size="12.00" fill="#000000">Pair&lt;T: DivisionRing &amp; InvolutiveRing&gt;</text>
<polyline fill="none" stroke="#000000" points="115.6865,-224 329.6865,-224 "/>
<text text-anchor="start" x="120.6865" y="-234.4" font-family="Helvetica,sans-Serif" text-decoration="underline" font-size="12.00" fill="#000000">/(Pair, T) → Pair</text>
</g>
<!-- Pair&lt;T: DivisionRing &amp; InvolutiveRing&gt;&#45;&gt;DivisionRing -->
<g id="edge24" class="edge">
<title>Pair&lt;T: DivisionRing &amp; InvolutiveRing&gt;&#45;&gt;DivisionRing</title>
<path fill="none" stroke="#000000" stroke-dasharray="5,2" d="M329.8018,-247C338.376,-247 346.9501,-247 355.5243,-247"/>
<polygon fill="none" stroke="#000000" points="355.5897,-250.5001 365.5897,-247 355.5897,-243.5001 355.5897,-250.5001"/>
</g>
<!-- Pair&lt;T: DivisionRing &amp; InvolutiveRing&gt;&#45;&gt;Pair&lt;T: InvolutiveRing &amp; Unital&gt; -->
<g id="edge8" class="edge">
<title>Pair&lt;T: DivisionRing &amp; InvolutiveRing&gt;&#45;&gt;Pair&lt;T: InvolutiveRing &amp; Unital&gt;</title>
<path fill="none" stroke="#000000" d="M222.6865,-270.4286C222.6865,-278.2474 222.6865,-287.1054 222.6865,-295.4879"/>
<polygon fill="none" stroke="#000000" points="219.1866,-295.7374 222.6865,-305.7375 226.1866,-295.7375 219.1866,-295.7374"/>
</g>
<!-- Pair&lt;Complex&gt; -->
<g id="node14" class="node">
<title>Pair&lt;Complex&gt;</title>
<polygon fill="none" stroke="#000000" points="316.1865,-44 111.1865,-44 111.1865,0 316.1865,0 316.1865,-44"/>
<polyline fill="none" stroke="#000000" points="111.6865,-22 316.6865,-22 "/>
<text text-anchor="start" x="172.834" y="-29.4" font-family="Helvetica,sans-Serif" font-size="12.00" fill="#000000">Pair&lt;Complex&gt;</text>
<polyline fill="none" stroke="#000000" points="111.6865,0 316.6865,0 "/>
<text text-anchor="start" x="116.6865" y="-7.4" font-family="Helvetica,sans-Serif" font-size="12.00" fill="#000000">init(Double, Double, Double, Double)</text>
</g>
<!-- Pair&lt;T: Field &amp; NormedSpace&gt; -->
<g id="node20" class="node">
<title>Pair&lt;T: Field &amp; NormedSpace&gt;</title>
<polygon fill="none" stroke="#000000" points="260.5971,-188 78.7759,-188 78.7759,-152 260.5971,-152 260.5971,-188"/>
<text text-anchor="middle" x="169.6865" y="-166.4" font-family="Helvetica,sans-Serif" font-size="12.00" fill="#000000">Pair&lt;T: Field &amp; NormedSpace&gt;</text>
</g>
<!-- Pair&lt;Complex&gt;&#45;&gt;Pair&lt;T: Field &amp; NormedSpace&gt; -->
<g id="edge13" class="edge">
<title>Pair&lt;Complex&gt;&#45;&gt;Pair&lt;T: Field &amp; NormedSpace&gt;</title>
<path fill="none" stroke="#000000" d="M207.0993,-44.1571C199.3273,-70.2992 186.3981,-113.7884 177.9584,-142.1763"/>
<polygon fill="none" stroke="#000000" points="174.565,-141.3089 175.0701,-151.8916 181.2747,-143.3037 174.565,-141.3089"/>
</g>
<!-- Complex -->
<g id="node23" class="node">
<title>Complex</title>
<polygon fill="none" stroke="#000000" points="288.5371,-116 224.8359,-116 224.8359,-80 288.5371,-80 288.5371,-116"/>
<text text-anchor="middle" x="256.6865" y="-94.4" font-family="Helvetica,sans-Serif" font-size="12.00" fill="#000000">Complex</text>
</g>
<!-- Pair&lt;Complex&gt;&#45;&gt;Complex -->
<g id="edge17" class="edge">
<title>Pair&lt;Complex&gt;&#45;&gt;Complex</title>
<path fill="none" stroke="#000000" stroke-dasharray="5,2" d="M226.3554,-44.3914C231.0128,-52.6231 236.3393,-62.0375 241.2157,-70.6562"/>
<polygon fill="#000000" stroke="#000000" points="246.2774,-79.6025 237.4364,-73.115 243.8152,-75.2508 241.353,-70.899 241.353,-70.899 241.353,-70.899 243.8152,-75.2508 245.2696,-68.683 246.2774,-79.6025 246.2774,-79.6025"/>
</g>
<!-- Pair&lt;T: AbelianGroup&gt; -->
<g id="node15" class="node">
<title>Pair&lt;T: AbelianGroup&gt;</title>
<polygon fill="none" stroke="#000000" points="443.9368,-494 307.4363,-494 307.4363,-458 443.9368,-458 443.9368,-494"/>
<text text-anchor="middle" x="375.6865" y="-472.4" font-family="Helvetica,sans-Serif" font-size="12.00" fill="#000000">Pair&lt;T: AbelianGroup&gt;</text>
</g>
<!-- Pair&lt;T: AbelianGroup&gt;&#45;&gt;AbelianGroup -->
<g id="edge21" class="edge">
<title>Pair&lt;T: AbelianGroup&gt;&#45;&gt;AbelianGroup</title>
<path fill="none" stroke="#000000" stroke-dasharray="5,2" d="M444.124,-476C452.7621,-476 461.4001,-476 470.0382,-476"/>
<polygon fill="none" stroke="#000000" points="470.1785,-479.5001 480.1785,-476 470.1784,-472.5001 470.1785,-479.5001"/>
</g>
<!-- Pair&lt;T: Group&gt; -->
<g id="node16" class="node">
<title>Pair&lt;T: Group&gt;</title>
<polygon fill="none" stroke="#000000" points="293.5622,-566 195.8108,-566 195.8108,-530 293.5622,-530 293.5622,-566"/>
<text text-anchor="middle" x="244.6865" y="-544.4" font-family="Helvetica,sans-Serif" font-size="12.00" fill="#000000">Pair&lt;T: Group&gt;</text>
</g>
<!-- Pair&lt;T: AbelianGroup&gt;&#45;&gt;Pair&lt;T: Group&gt; -->
<g id="edge1" class="edge">
<title>Pair&lt;T: AbelianGroup&gt;&#45;&gt;Pair&lt;T: Group&gt;</title>
<path fill="none" stroke="#000000" d="M342.6297,-494.1686C325.7188,-503.4632 304.948,-514.8792 286.8924,-524.8029"/>
<polygon fill="none" stroke="#000000" points="284.8105,-521.9532 277.7328,-529.8372 288.1822,-528.0878 284.8105,-521.9532"/>
</g>
<!-- Pair&lt;T: CommutativeMonoid&gt; -->
<g id="node17" class="node">
<title>Pair&lt;T: CommutativeMonoid&gt;</title>
<polygon fill="none" stroke="#000000" points="594.7549,-566 420.6182,-566 420.6182,-530 594.7549,-530 594.7549,-566"/>
<text text-anchor="middle" x="507.6865" y="-544.4" font-family="Helvetica,sans-Serif" font-size="12.00" fill="#000000">Pair&lt;T: CommutativeMonoid&gt;</text>
</g>
<!-- Pair&lt;T: AbelianGroup&gt;&#45;&gt;Pair&lt;T: CommutativeMonoid&gt; -->
<g id="edge2" class="edge">
<title>Pair&lt;T: AbelianGroup&gt;&#45;&gt;Pair&lt;T: CommutativeMonoid&gt;</title>
<path fill="none" stroke="#000000" d="M408.9957,-494.1686C426.1138,-503.5058 447.1571,-514.984 465.4087,-524.9394"/>
<polygon fill="none" stroke="#000000" points="463.933,-528.1212 474.388,-529.8372 467.285,-521.976 463.933,-528.1212"/>
</g>
<!-- Pair&lt;T: Group&gt;&#45;&gt;Group -->
<g id="edge20" class="edge">
<title>Pair&lt;T: Group&gt;&#45;&gt;Group</title>
<path fill="none" stroke="#000000" stroke-dasharray="5,2" d="M293.6865,-548C302.0845,-548 310.4824,-548 318.8804,-548"/>
<polygon fill="none" stroke="#000000" points="319.1241,-551.5001 329.124,-548 319.124,-544.5001 319.1241,-551.5001"/>
</g>
<!-- Pair&lt;T: Group&gt;&#45;&gt;Pair&lt;T: Monoid&gt; -->
<g id="edge3" class="edge">
<title>Pair&lt;T: Group&gt;&#45;&gt;Pair&lt;T: Monoid&gt;</title>
<path fill="none" stroke="#000000" d="M270.2556,-566.1521C284.1412,-576.0098 301.8984,-588.6161 318.8648,-600.6609"/>
<polygon fill="none" stroke="#000000" points="316.9296,-603.5794 327.1098,-606.5143 320.9818,-597.8715 316.9296,-603.5794"/>
</g>
<!-- Pair&lt;T: CommutativeMonoid&gt;&#45;&gt;CommutativeMonoid -->
<g id="edge19" class="edge">
<title>Pair&lt;T: CommutativeMonoid&gt;&#45;&gt;CommutativeMonoid</title>
<path fill="none" stroke="#000000" stroke-dasharray="5,2" d="M594.8975,-548C603.3213,-548 611.7451,-548 620.169,-548"/>
<polygon fill="none" stroke="#000000" points="620.4442,-551.5001 630.4442,-548 620.4441,-544.5001 620.4442,-551.5001"/>
</g>
<!-- Pair&lt;T: CommutativeMonoid&gt;&#45;&gt;Pair&lt;T: Monoid&gt; -->
<g id="edge4" class="edge">
<title>Pair&lt;T: CommutativeMonoid&gt;&#45;&gt;Pair&lt;T: Monoid&gt;</title>
<path fill="none" stroke="#000000" d="M481.9222,-566.1521C467.8662,-576.0552 449.8729,-588.7323 432.7057,-600.8274"/>
<polygon fill="none" stroke="#000000" points="430.5243,-598.0828 424.3654,-606.7036 434.556,-603.8052 430.5243,-598.0828"/>
</g>
<!-- Pair&lt;T: TriviallyInvolutiveRing&gt; -->
<g id="node18" class="node">
<title>Pair&lt;T: TriviallyInvolutiveRing&gt;</title>
<polygon fill="none" stroke="#000000" points="618.5991,-346 438.7739,-346 438.7739,-310 618.5991,-310 618.5991,-346"/>
<text text-anchor="middle" x="528.6865" y="-324.4" font-family="Helvetica,sans-Serif" font-size="12.00" fill="#000000">Pair&lt;T: TriviallyInvolutiveRing&gt;</text>
</g>
<!-- Pair&lt;T: TriviallyInvolutiveRing&gt;&#45;&gt;Commutative -->
<g id="edge25" class="edge">
<title>Pair&lt;T: TriviallyInvolutiveRing&gt;&#45;&gt;Commutative</title>
<path fill="none" stroke="#000000" stroke-dasharray="5,2" d="M618.4951,-328C627.1231,-328 635.751,-328 644.379,-328"/>
<polygon fill="none" stroke="#000000" points="644.5075,-331.5001 654.5075,-328 644.5074,-324.5001 644.5075,-331.5001"/>
</g>
<!-- Pair&lt;T: TriviallyInvolutiveRing&gt;&#45;&gt;Pair&lt;T: InvolutiveRing&gt; -->
<g id="edge5" class="edge">
<title>Pair&lt;T: TriviallyInvolutiveRing&gt;&#45;&gt;Pair&lt;T: InvolutiveRing&gt;</title>
<path fill="none" stroke="#000000" d="M492.4277,-346.0109C471.0693,-356.6203 443.8605,-370.1358 421.0846,-381.4493"/>
<polygon fill="none" stroke="#000000" points="419.3488,-378.4035 411.9499,-385.9868 422.463,-384.6726 419.3488,-378.4035"/>
</g>
<!-- Pair&lt;T: InvolutiveRing&gt;&#45;&gt;InvolutiveRing -->
<g id="edge22" class="edge">
<title>Pair&lt;T: InvolutiveRing&gt;&#45;&gt;InvolutiveRing</title>
<path fill="none" stroke="#000000" stroke-dasharray="5,2" d="M445.6396,-404C454.0204,-404 462.4012,-404 470.7819,-404"/>
<polygon fill="none" stroke="#000000" points="471.0047,-407.5001 481.0046,-404 471.0046,-400.5001 471.0047,-407.5001"/>
</g>
<!-- Pair&lt;T: InvolutiveRing&gt;&#45;&gt;Pair&lt;T: AbelianGroup&gt; -->
<g id="edge6" class="edge">
<title>Pair&lt;T: InvolutiveRing&gt;&#45;&gt;Pair&lt;T: AbelianGroup&gt;</title>
<path fill="none" stroke="#000000" d="M375.6865,-422.1686C375.6865,-429.869 375.6865,-439.0257 375.6865,-447.5834"/>
<polygon fill="none" stroke="#000000" points="372.1866,-447.5867 375.6865,-457.5867 379.1866,-447.5868 372.1866,-447.5867"/>
</g>
<!-- Pair&lt;T: Field &amp; NormedSpace&gt;&#45;&gt;NormedSpace -->
<g id="edge27" class="edge">
<title>Pair&lt;T: Field &amp; NormedSpace&gt;&#45;&gt;NormedSpace</title>
<path fill="none" stroke="#000000" stroke-dasharray="5,2" d="M260.6631,-170C269.242,-170 277.8208,-170 286.3997,-170"/>
<polygon fill="none" stroke="#000000" points="286.4706,-173.5001 296.4706,-170 286.4705,-166.5001 286.4706,-173.5001"/>
</g>
<!-- Pair&lt;T: Field &amp; NormedSpace&gt;&#45;&gt;Pair&lt;T: DivisionRing &amp; InvolutiveRing&gt; -->
<g id="edge7" class="edge">
<title>Pair&lt;T: Field &amp; NormedSpace&gt;&#45;&gt;Pair&lt;T: DivisionRing &amp; InvolutiveRing&gt;</title>
<path fill="none" stroke="#000000" d="M182.2468,-188.2479C187.8715,-196.4198 194.6676,-206.2933 201.0698,-215.5946"/>
<polygon fill="none" stroke="#000000" points="198.2408,-217.6576 206.7938,-223.9105 204.0069,-213.6887 198.2408,-217.6576"/>
</g>
<!-- Pair&lt;Double&gt; -->
<g id="node21" class="node">
<title>Pair&lt;Double&gt;</title>
<polygon fill="none" stroke="#000000" points="413.5702,-116 323.8029,-116 323.8029,-80 413.5702,-80 413.5702,-116"/>
<text text-anchor="middle" x="368.6865" y="-94.4" font-family="Helvetica,sans-Serif" font-size="12.00" fill="#000000">Pair&lt;Double&gt;</text>
</g>
<!-- Pair&lt;Double&gt;&#45;&gt;Pair&lt;T: Field &amp; NormedSpace&gt; -->
<g id="edge14" class="edge">
<title>Pair&lt;Double&gt;&#45;&gt;Pair&lt;T: Field &amp; NormedSpace&gt;</title>
<path fill="none" stroke="#000000" d="M323.5303,-114.3379C295.5919,-124.4463 259.4075,-137.5381 229.1509,-148.4853"/>
<polygon fill="none" stroke="#000000" points="227.7662,-145.2641 219.5535,-151.9577 230.1478,-151.8466 227.7662,-145.2641"/>
</g>
<!-- Pair&lt;T: Field &amp; TriviallyInvolutiveRing&gt; -->
<g id="node22" class="node">
<title>Pair&lt;T: Field &amp; TriviallyInvolutiveRing&gt;</title>
<polygon fill="none" stroke="#000000" points="638.7803,-188 418.5928,-188 418.5928,-152 638.7803,-152 638.7803,-188"/>
<text text-anchor="middle" x="528.6865" y="-166.4" font-family="Helvetica,sans-Serif" font-size="12.00" fill="#000000">Pair&lt;T: Field &amp; TriviallyInvolutiveRing&gt;</text>
</g>
<!-- Pair&lt;Double&gt;&#45;&gt;Pair&lt;T: Field &amp; TriviallyInvolutiveRing&gt; -->
<g id="edge10" class="edge">
<title>Pair&lt;Double&gt;&#45;&gt;Pair&lt;T: Field &amp; TriviallyInvolutiveRing&gt;</title>
<path fill="none" stroke="#000000" d="M409.0613,-116.1686C430.3652,-125.7554 456.6848,-137.5992 479.2076,-147.7345"/>
<polygon fill="none" stroke="#000000" points="478.0466,-151.05 488.6021,-151.962 480.9192,-144.6666 478.0466,-151.05"/>
</g>
<!-- Pair&lt;T: Field &amp; TriviallyInvolutiveRing&gt;&#45;&gt;Field -->
<g id="edge26" class="edge">
<title>Pair&lt;T: Field &amp; TriviallyInvolutiveRing&gt;&#45;&gt;Field</title>
<path fill="none" stroke="#000000" stroke-dasharray="5,2" d="M638.7959,-170C647.4062,-170 656.0164,-170 664.6267,-170"/>
<polygon fill="none" stroke="#000000" points="664.7344,-173.5001 674.7344,-170 664.7343,-166.5001 664.7344,-173.5001"/>
</g>
<!-- Pair&lt;T: Field &amp; TriviallyInvolutiveRing&gt;&#45;&gt;Pair&lt;T: DivisionRing &amp; InvolutiveRing&gt; -->
<g id="edge11" class="edge">
<title>Pair&lt;T: Field &amp; TriviallyInvolutiveRing&gt;&#45;&gt;Pair&lt;T: DivisionRing &amp; InvolutiveRing&gt;</title>
<path fill="none" stroke="#000000" d="M456.9431,-188.0531C417.364,-198.0125 367.565,-210.5436 324.0701,-221.4884"/>
<polygon fill="none" stroke="#000000" points="323.1604,-218.1082 314.3168,-223.9427 324.8686,-224.8965 323.1604,-218.1082"/>
</g>
<!-- Pair&lt;T: Field &amp; TriviallyInvolutiveRing&gt;&#45;&gt;Pair&lt;T: TriviallyInvolutiveRing&gt; -->
<g id="edge12" class="edge">
<title>Pair&lt;T: Field &amp; TriviallyInvolutiveRing&gt;&#45;&gt;Pair&lt;T: TriviallyInvolutiveRing&gt;</title>
<path fill="none" stroke="#000000" d="M528.6865,-188.1246C528.6865,-215.3612 528.6865,-267.093 528.6865,-299.4377"/>
<polygon fill="none" stroke="#000000" points="525.1866,-299.6001 528.6865,-309.6001 532.1866,-299.6001 525.1866,-299.6001"/>
</g>
<!-- Complex&#45;&gt;Pair&lt;Double&gt; -->
<g id="edge15" class="edge">
<title>Complex&#45;&gt;Pair&lt;Double&gt;</title>
<path fill="none" stroke="#000000" d="M298.8395,-98C303.8121,-98 308.7847,-98 313.7572,-98"/>
<polygon fill="none" stroke="#000000" points="298.6241,-94.5001 288.624,-98 298.624,-101.5001 298.6241,-94.5001"/>
<polygon fill="none" stroke="#000000" points="313.9641,-101.5001 323.9641,-98 313.9641,-94.5001 313.9641,-101.5001"/>
</g>
<!-- Quaternion -->
<g id="node24" class="node">
<title>Quaternion</title>
<polygon fill="none" stroke="#000000" points="75.5605,-40 -.1875,-40 -.1875,-4 75.5605,-4 75.5605,-40"/>
<text text-anchor="middle" x="37.6865" y="-18.4" font-family="Helvetica,sans-Serif" font-size="12.00" fill="#000000">Quaternion</text>
</g>
<!-- Quaternion&#45;&gt;Pair&lt;Complex&gt; -->
<g id="edge16" class="edge">
<title>Quaternion&#45;&gt;Pair&lt;Complex&gt;</title>
<path fill="none" stroke="#000000" d="M85.519,-22C90.7203,-22 95.9216,-22 101.1229,-22"/>
<polygon fill="none" stroke="#000000" points="85.4991,-18.5001 75.499,-22 85.499,-25.5001 85.4991,-18.5001"/>
<polygon fill="none" stroke="#000000" points="101.1255,-25.5001 111.1255,-22 101.1255,-18.5001 101.1255,-25.5001"/>
</g>
</g>
</svg>
