<?xml version="1.0" encoding="UTF-8" standalone="no"?>
<!DOCTYPE svg PUBLIC "-//W3C//DTD SVG 1.1//EN"
 "http://www.w3.org/Graphics/SVG/1.1/DTD/svg11.dtd">
<!-- Generated by graphviz version 2.40.1 (20161225.0304)
 -->
<!-- Title: %3 Pages: 1 -->
<svg width="838pt" height="688pt"
 viewBox="0.00 0.00 837.69 688.00" xmlns="http://www.w3.org/2000/svg" xmlns:xlink="http://www.w3.org/1999/xlink">
<g id="graph0" class="graph" transform="scale(1 1) rotate(0) translate(4 684)">
<title>%3</title>
<polygon fill="#ffffff" stroke="transparent" points="-4,4 -4,-684 833.6865,-684 833.6865,4 -4,4"/>
<!-- Monoid -->
<g id="node1" class="node">
<title>Monoid</title>
<polygon fill="none" stroke="#000000" points="594.1865,-659 539.1865,-659 539.1865,-623 594.1865,-623 594.1865,-659"/>
<polyline fill="none" stroke="#000000" points="539.6865,-624 594.6865,-624 "/>
<text text-anchor="start" x="545.8408" y="-643.4" font-family="Helvetica,sans-Serif" font-size="12.00" fill="#000000">protocol</text>
<text text-anchor="start" x="547.5078" y="-631.4" font-family="Helvetica,sans-Serif" font-size="12.00" fill="#000000">Monoid</text>
</g>
<!-- CommutativeMonoid -->
<g id="node2" class="node">
<title>CommutativeMonoid</title>
<polygon fill="none" stroke="#000000" points="829.6865,-566 709.6865,-566 709.6865,-530 829.6865,-530 829.6865,-566"/>
<polyline fill="none" stroke="#000000" points="709.6865,-531 829.6865,-531 "/>
<text text-anchor="start" x="748.3408" y="-550.4" font-family="Helvetica,sans-Serif" font-size="12.00" fill="#000000">protocol</text>
<text text-anchor="start" x="714.6641" y="-538.4" font-family="Helvetica,sans-Serif" font-size="12.00" fill="#000000">CommutativeMonoid</text>
</g>
<!-- Group -->
<g id="node3" class="node">
<title>Group</title>
<polygon fill="none" stroke="#000000" points="463.1865,-566 408.1865,-566 408.1865,-530 463.1865,-530 463.1865,-566"/>
<polyline fill="none" stroke="#000000" points="408.6865,-531 463.6865,-531 "/>
<text text-anchor="start" x="414.8408" y="-550.4" font-family="Helvetica,sans-Serif" font-size="12.00" fill="#000000">protocol</text>
<text text-anchor="start" x="419.5107" y="-538.4" font-family="Helvetica,sans-Serif" font-size="12.00" fill="#000000">Group</text>
</g>
<!-- AbelianGroup -->
<g id="node4" class="node">
<title>AbelianGroup</title>
<polygon fill="none" stroke="#000000" points="642.1865,-494 559.1865,-494 559.1865,-458 642.1865,-458 642.1865,-494"/>
<polyline fill="none" stroke="#000000" points="559.6865,-459 642.6865,-459 "/>
<text text-anchor="start" x="579.8408" y="-478.4" font-family="Helvetica,sans-Serif" font-size="12.00" fill="#000000">protocol</text>
<text text-anchor="start" x="564.4951" y="-466.4" font-family="Helvetica,sans-Serif" font-size="12.00" fill="#000000">AbelianGroup</text>
</g>
<!-- InvolutiveRing -->
<g id="node5" class="node">
<title>InvolutiveRing</title>
<polygon fill="none" stroke="#000000" points="497.1865,-422 412.1865,-422 412.1865,-386 497.1865,-386 497.1865,-422"/>
<polyline fill="none" stroke="#000000" points="412.6865,-387 497.6865,-387 "/>
<text text-anchor="start" x="433.8408" y="-406.4" font-family="Helvetica,sans-Serif" font-size="12.00" fill="#000000">protocol</text>
<text text-anchor="start" x="417.499" y="-394.4" font-family="Helvetica,sans-Serif" font-size="12.00" fill="#000000">InvolutiveRing</text>
</g>
<!-- Unital -->
<g id="node6" class="node">
<title>Unital</title>
<polygon fill="none" stroke="#000000" points="334.1865,-346 279.1865,-346 279.1865,-310 334.1865,-310 334.1865,-346"/>
<polyline fill="none" stroke="#000000" points="279.6865,-311 334.6865,-311 "/>
<text text-anchor="start" x="285.8408" y="-330.4" font-family="Helvetica,sans-Serif" font-size="12.00" fill="#000000">protocol</text>
<text text-anchor="start" x="291.8467" y="-318.4" font-family="Helvetica,sans-Serif" font-size="12.00" fill="#000000">Unital</text>
</g>
<!-- DivisionRing -->
<g id="node7" class="node">
<title>DivisionRing</title>
<polygon fill="none" stroke="#000000" points="388.6865,-265 312.6865,-265 312.6865,-229 388.6865,-229 388.6865,-265"/>
<polyline fill="none" stroke="#000000" points="312.6865,-230 388.6865,-230 "/>
<text text-anchor="start" x="329.3408" y="-249.4" font-family="Helvetica,sans-Serif" font-size="12.00" fill="#000000">protocol</text>
<text text-anchor="start" x="317.3408" y="-237.4" font-family="Helvetica,sans-Serif" font-size="12.00" fill="#000000">DivisionRing</text>
</g>
<!-- Commutative -->
<g id="node8" class="node">
<title>Commutative</title>
<polygon fill="none" stroke="#000000" points="665.6865,-346 585.6865,-346 585.6865,-310 665.6865,-310 665.6865,-346"/>
<polyline fill="none" stroke="#000000" points="585.6865,-311 665.6865,-311 "/>
<text text-anchor="start" x="604.3408" y="-330.4" font-family="Helvetica,sans-Serif" font-size="12.00" fill="#000000">protocol</text>
<text text-anchor="start" x="590.3428" y="-318.4" font-family="Helvetica,sans-Serif" font-size="12.00" fill="#000000">Commutative</text>
</g>
<!-- Field -->
<g id="node9" class="node">
<title>Field</title>
<polygon fill="none" stroke="#000000" points="570.1865,-188 515.1865,-188 515.1865,-152 570.1865,-152 570.1865,-188"/>
<polyline fill="none" stroke="#000000" points="515.6865,-153 570.6865,-153 "/>
<text text-anchor="start" x="521.8408" y="-172.4" font-family="Helvetica,sans-Serif" font-size="12.00" fill="#000000">protocol</text>
<text text-anchor="start" x="530.1816" y="-160.4" font-family="Helvetica,sans-Serif" font-size="12.00" fill="#000000">Field</text>
</g>
<!-- NormedSpace -->
<g id="node10" class="node">
<title>NormedSpace</title>
<polygon fill="none" stroke="#000000" points="795.6865,-422 709.6865,-422 709.6865,-386 795.6865,-386 795.6865,-422"/>
<polyline fill="none" stroke="#000000" points="709.6865,-387 795.6865,-387 "/>
<text text-anchor="start" x="731.3408" y="-406.4" font-family="Helvetica,sans-Serif" font-size="12.00" fill="#000000">protocol</text>
<text text-anchor="start" x="714.334" y="-394.4" font-family="Helvetica,sans-Serif" font-size="12.00" fill="#000000">NormedSpace</text>
</g>
<!-- Pair&lt;T: Monoid&gt; -->
<g id="node11" class="node">
<title>Pair&lt;T: Monoid&gt;</title>
<polygon fill="none" stroke="#000000" points="503.1865,-680 406.1865,-680 406.1865,-602 503.1865,-602 503.1865,-680"/>
<polyline fill="none" stroke="#000000" points="406.6865,-658 503.6865,-658 "/>
<text text-anchor="start" x="411.4961" y="-665.4" font-family="Helvetica,sans-Serif" font-size="12.00" fill="#000000">Pair&lt;T: Monoid&gt;</text>
<polyline fill="none" stroke="#000000" points="406.6865,-624 503.6865,-624 "/>
<text text-anchor="start" x="411.6865" y="-643.4" font-family="Helvetica,sans-Serif" font-size="12.00" fill="#000000">re: T</text>
<text text-anchor="start" x="411.6865" y="-631.4" font-family="Helvetica,sans-Serif" font-size="12.00" fill="#000000">im: T</text>
<polyline fill="none" stroke="#000000" points="406.6865,-602 503.6865,-602 "/>
<text text-anchor="start" x="411.6865" y="-609.4" font-family="Helvetica,sans-Serif" font-size="12.00" fill="#000000">init(T, T)</text>
</g>
<!-- Pair&lt;T: Monoid&gt;&#45;&gt;Monoid -->
<g id="edge17" class="edge">
<title>Pair&lt;T: Monoid&gt;&#45;&gt;Monoid</title>
<path fill="none" stroke="#000000" stroke-dasharray="5,2" d="M503.249,-641C511.7982,-641 520.3474,-641 528.8966,-641"/>
<polygon fill="none" stroke="#000000" points="528.9327,-644.5001 538.9326,-641 528.9326,-637.5001 528.9327,-644.5001"/>
</g>
<!-- Pair&lt;T: InvolutiveRing &amp; Unital&gt; -->
<g id="node12" class="node">
<title>Pair&lt;T: InvolutiveRing &amp; Unital&gt;</title>
<polygon fill="none" stroke="#000000" points="242.6865,-350 64.6865,-350 64.6865,-306 242.6865,-306 242.6865,-350"/>
<polyline fill="none" stroke="#000000" points="64.6865,-328 242.6865,-328 "/>
<text text-anchor="start" x="69.3115" y="-335.4" font-family="Helvetica,sans-Serif" font-size="12.00" fill="#000000">Pair&lt;T: InvolutiveRing &amp; Unital&gt;</text>
<polyline fill="none" stroke="#000000" points="64.6865,-306 242.6865,-306 "/>
<text text-anchor="start" x="69.6865" y="-314.4" font-family="Helvetica,sans-Serif" text-decoration="underline" font-size="12.00" fill="#000000">symbol: Pair</text>
</g>
<!-- Pair&lt;T: InvolutiveRing &amp; Unital&gt;&#45;&gt;Unital -->
<g id="edge22" class="edge">
<title>Pair&lt;T: InvolutiveRing &amp; Unital&gt;&#45;&gt;Unital</title>
<path fill="none" stroke="#000000" stroke-dasharray="5,2" d="M242.7373,-328C251.3555,-328 259.9736,-328 268.5918,-328"/>
<polygon fill="none" stroke="#000000" points="268.7088,-331.5001 278.7087,-328 268.7087,-324.5001 268.7088,-331.5001"/>
</g>
<!-- Pair&lt;T: InvolutiveRing&gt; -->
<g id="node19" class="node">
<title>Pair&lt;T: InvolutiveRing&gt;</title>
<polygon fill="none" stroke="#000000" points="376.5855,-422 236.7875,-422 236.7875,-386 376.5855,-386 376.5855,-422"/>
<text text-anchor="middle" x="306.6865" y="-400.4" font-family="Helvetica,sans-Serif" font-size="12.00" fill="#000000">Pair&lt;T: InvolutiveRing&gt;</text>
</g>
<!-- Pair&lt;T: InvolutiveRing &amp; Unital&gt;&#45;&gt;Pair&lt;T: InvolutiveRing&gt; -->
<g id="edge10" class="edge">
<title>Pair&lt;T: InvolutiveRing &amp; Unital&gt;&#45;&gt;Pair&lt;T: InvolutiveRing&gt;</title>
<path fill="none" stroke="#000000" d="M198.3518,-350.1867C217.997,-359.9451 241.0512,-371.3968 260.8309,-381.2221"/>
<polygon fill="none" stroke="#000000" points="259.4426,-384.4404 269.9556,-385.7546 262.5567,-378.1712 259.4426,-384.4404"/>
</g>
<!-- Pair&lt;T: DivisionRing &amp; InvolutiveRing&gt; -->
<g id="node13" class="node">
<title>Pair&lt;T: DivisionRing &amp; InvolutiveRing&gt;</title>
<polygon fill="none" stroke="#000000" points="276.6865,-270 62.6865,-270 62.6865,-224 276.6865,-224 276.6865,-270"/>
<polyline fill="none" stroke="#000000" points="62.6865,-248 276.6865,-248 "/>
<text text-anchor="start" x="67.3057" y="-255.4" font-family="Helvetica,sans-Serif" font-size="12.00" fill="#000000">Pair&lt;T: DivisionRing &amp; InvolutiveRing&gt;</text>
<polyline fill="none" stroke="#000000" points="62.6865,-224 276.6865,-224 "/>
<text text-anchor="start" x="67.6865" y="-234.4" font-family="Helvetica,sans-Serif" text-decoration="underline" font-size="12.00" fill="#000000">/(Pair, T) → Pair</text>
</g>
<!-- Pair&lt;T: DivisionRing &amp; InvolutiveRing&gt;&#45;&gt;DivisionRing -->
<g id="edge23" class="edge">
<title>Pair&lt;T: DivisionRing &amp; InvolutiveRing&gt;&#45;&gt;DivisionRing</title>
<path fill="none" stroke="#000000" stroke-dasharray="5,2" d="M276.8018,-247C285.376,-247 293.9501,-247 302.5243,-247"/>
<polygon fill="none" stroke="#000000" points="302.5897,-250.5001 312.5897,-247 302.5897,-243.5001 302.5897,-250.5001"/>
</g>
<!-- Pair&lt;T: DivisionRing &amp; InvolutiveRing&gt;&#45;&gt;Pair&lt;T: InvolutiveRing &amp; Unital&gt; -->
<g id="edge9" class="edge">
<title>Pair&lt;T: DivisionRing &amp; InvolutiveRing&gt;&#45;&gt;Pair&lt;T: InvolutiveRing &amp; Unital&gt;</title>
<path fill="none" stroke="#000000" d="M165.0587,-270.4286C163.497,-278.3343 161.7256,-287.3023 160.0535,-295.7671"/>
<polygon fill="none" stroke="#000000" points="156.5883,-295.2488 158.0841,-305.7375 163.4557,-296.6053 156.5883,-295.2488"/>
</g>
<!-- Pair&lt;Complex&gt; -->
<g id="node14" class="node">
<title>Pair&lt;Complex&gt;</title>
<polygon fill="none" stroke="#000000" points="316.1865,-44 111.1865,-44 111.1865,0 316.1865,0 316.1865,-44"/>
<polyline fill="none" stroke="#000000" points="111.6865,-22 316.6865,-22 "/>
<text text-anchor="start" x="172.834" y="-29.4" font-family="Helvetica,sans-Serif" font-size="12.00" fill="#000000">Pair&lt;Complex&gt;</text>
<polyline fill="none" stroke="#000000" points="111.6865,0 316.6865,0 "/>
<text text-anchor="start" x="116.6865" y="-7.4" font-family="Helvetica,sans-Serif" font-size="12.00" fill="#000000">init(Double, Double, Double, Double)</text>
</g>
<!-- Pair&lt;Complex&gt;&#45;&gt;Pair&lt;T: DivisionRing &amp; InvolutiveRing&gt; -->
<g id="edge8" class="edge">
<title>Pair&lt;Complex&gt;&#45;&gt;Pair&lt;T: DivisionRing &amp; InvolutiveRing&gt;</title>
<path fill="none" stroke="#000000" d="M209.3068,-44.3964C201.5265,-84.1819 185.2613,-167.3562 176.1768,-213.8109"/>
<polygon fill="none" stroke="#000000" points="172.73,-213.2004 174.2456,-223.6863 179.5999,-214.5439 172.73,-213.2004"/>
</g>
<!-- Complex -->
<g id="node23" class="node">
<title>Complex</title>
<polygon fill="none" stroke="#000000" points="288.5371,-116 224.8359,-116 224.8359,-80 288.5371,-80 288.5371,-116"/>
<text text-anchor="middle" x="256.6865" y="-94.4" font-family="Helvetica,sans-Serif" font-size="12.00" fill="#000000">Complex</text>
</g>
<!-- Pair&lt;Complex&gt;&#45;&gt;Complex -->
<g id="edge16" class="edge">
<title>Pair&lt;Complex&gt;&#45;&gt;Complex</title>
<path fill="none" stroke="#000000" stroke-dasharray="5,2" d="M226.3554,-44.3914C231.0128,-52.6231 236.3393,-62.0375 241.2157,-70.6562"/>
<polygon fill="#000000" stroke="#000000" points="246.2774,-79.6025 237.4364,-73.115 243.8152,-75.2508 241.353,-70.899 241.353,-70.899 241.353,-70.899 243.8152,-75.2508 245.2696,-68.683 246.2774,-79.6025 246.2774,-79.6025"/>
</g>
<!-- Pair&lt;T: AbelianGroup&gt; -->
<g id="node15" class="node">
<title>Pair&lt;T: AbelianGroup&gt;</title>
<polygon fill="none" stroke="#000000" points="522.9368,-494 386.4363,-494 386.4363,-458 522.9368,-458 522.9368,-494"/>
<text text-anchor="middle" x="454.6865" y="-472.4" font-family="Helvetica,sans-Serif" font-size="12.00" fill="#000000">Pair&lt;T: AbelianGroup&gt;</text>
</g>
<!-- Pair&lt;T: AbelianGroup&gt;&#45;&gt;AbelianGroup -->
<g id="edge20" class="edge">
<title>Pair&lt;T: AbelianGroup&gt;&#45;&gt;AbelianGroup</title>
<path fill="none" stroke="#000000" stroke-dasharray="5,2" d="M523.124,-476C531.7621,-476 540.4001,-476 549.0382,-476"/>
<polygon fill="none" stroke="#000000" points="549.1785,-479.5001 559.1785,-476 549.1784,-472.5001 549.1785,-479.5001"/>
</g>
<!-- Pair&lt;T: Group&gt; -->
<g id="node16" class="node">
<title>Pair&lt;T: Group&gt;</title>
<polygon fill="none" stroke="#000000" points="372.5622,-566 274.8108,-566 274.8108,-530 372.5622,-530 372.5622,-566"/>
<text text-anchor="middle" x="323.6865" y="-544.4" font-family="Helvetica,sans-Serif" font-size="12.00" fill="#000000">Pair&lt;T: Group&gt;</text>
</g>
<!-- Pair&lt;T: AbelianGroup&gt;&#45;&gt;Pair&lt;T: Group&gt; -->
<g id="edge1" class="edge">
<title>Pair&lt;T: AbelianGroup&gt;&#45;&gt;Pair&lt;T: Group&gt;</title>
<path fill="none" stroke="#000000" d="M421.6297,-494.1686C404.7188,-503.4632 383.948,-514.8792 365.8924,-524.8029"/>
<polygon fill="none" stroke="#000000" points="363.8105,-521.9532 356.7328,-529.8372 367.1822,-528.0878 363.8105,-521.9532"/>
</g>
<!-- Pair&lt;T: CommutativeMonoid&gt; -->
<g id="node17" class="node">
<title>Pair&lt;T: CommutativeMonoid&gt;</title>
<polygon fill="none" stroke="#000000" points="673.7549,-566 499.6182,-566 499.6182,-530 673.7549,-530 673.7549,-566"/>
<text text-anchor="middle" x="586.6865" y="-544.4" font-family="Helvetica,sans-Serif" font-size="12.00" fill="#000000">Pair&lt;T: CommutativeMonoid&gt;</text>
</g>
<!-- Pair&lt;T: AbelianGroup&gt;&#45;&gt;Pair&lt;T: CommutativeMonoid&gt; -->
<g id="edge2" class="edge">
<title>Pair&lt;T: AbelianGroup&gt;&#45;&gt;Pair&lt;T: CommutativeMonoid&gt;</title>
<path fill="none" stroke="#000000" d="M487.9957,-494.1686C505.1138,-503.5058 526.1571,-514.984 544.4087,-524.9394"/>
<polygon fill="none" stroke="#000000" points="542.933,-528.1212 553.388,-529.8372 546.285,-521.976 542.933,-528.1212"/>
</g>
<!-- Pair&lt;T: Group&gt;&#45;&gt;Group -->
<g id="edge19" class="edge">
<title>Pair&lt;T: Group&gt;&#45;&gt;Group</title>
<path fill="none" stroke="#000000" stroke-dasharray="5,2" d="M372.6865,-548C381.0845,-548 389.4824,-548 397.8804,-548"/>
<polygon fill="none" stroke="#000000" points="398.1241,-551.5001 408.124,-548 398.124,-544.5001 398.1241,-551.5001"/>
</g>
<!-- Pair&lt;T: Group&gt;&#45;&gt;Pair&lt;T: Monoid&gt; -->
<g id="edge3" class="edge">
<title>Pair&lt;T: Group&gt;&#45;&gt;Pair&lt;T: Monoid&gt;</title>
<path fill="none" stroke="#000000" d="M349.2556,-566.1521C363.1412,-576.0098 380.8984,-588.6161 397.8648,-600.6609"/>
<polygon fill="none" stroke="#000000" points="395.9296,-603.5794 406.1098,-606.5143 399.9818,-597.8715 395.9296,-603.5794"/>
</g>
<!-- Pair&lt;T: CommutativeMonoid&gt;&#45;&gt;CommutativeMonoid -->
<g id="edge18" class="edge">
<title>Pair&lt;T: CommutativeMonoid&gt;&#45;&gt;CommutativeMonoid</title>
<path fill="none" stroke="#000000" stroke-dasharray="5,2" d="M673.8975,-548C682.3213,-548 690.7451,-548 699.169,-548"/>
<polygon fill="none" stroke="#000000" points="699.4442,-551.5001 709.4442,-548 699.4441,-544.5001 699.4442,-551.5001"/>
</g>
<!-- Pair&lt;T: CommutativeMonoid&gt;&#45;&gt;Pair&lt;T: Monoid&gt; -->
<g id="edge4" class="edge">
<title>Pair&lt;T: CommutativeMonoid&gt;&#45;&gt;Pair&lt;T: Monoid&gt;</title>
<path fill="none" stroke="#000000" d="M560.9222,-566.1521C546.8662,-576.0552 528.8729,-588.7323 511.7057,-600.8274"/>
<polygon fill="none" stroke="#000000" points="509.5243,-598.0828 503.3654,-606.7036 513.556,-603.8052 509.5243,-598.0828"/>
</g>
<!-- Pair&lt;T: TriviallyInvolutiveRing&gt; -->
<g id="node18" class="node">
<title>Pair&lt;T: TriviallyInvolutiveRing&gt;</title>
<polygon fill="none" stroke="#000000" points="549.5991,-346 369.7739,-346 369.7739,-310 549.5991,-310 549.5991,-346"/>
<text text-anchor="middle" x="459.6865" y="-324.4" font-family="Helvetica,sans-Serif" font-size="12.00" fill="#000000">Pair&lt;T: TriviallyInvolutiveRing&gt;</text>
</g>
<!-- Pair&lt;T: TriviallyInvolutiveRing&gt;&#45;&gt;Commutative -->
<g id="edge24" class="edge">
<title>Pair&lt;T: TriviallyInvolutiveRing&gt;&#45;&gt;Commutative</title>
<path fill="none" stroke="#000000" stroke-dasharray="5,2" d="M549.4951,-328C558.1231,-328 566.751,-328 575.379,-328"/>
<polygon fill="none" stroke="#000000" points="575.5075,-331.5001 585.5075,-328 575.5074,-324.5001 575.5075,-331.5001"/>
</g>
<!-- Pair&lt;T: TriviallyInvolutiveRing&gt;&#45;&gt;Pair&lt;T: InvolutiveRing&gt; -->
<g id="edge5" class="edge">
<title>Pair&lt;T: TriviallyInvolutiveRing&gt;&#45;&gt;Pair&lt;T: InvolutiveRing&gt;</title>
<path fill="none" stroke="#000000" d="M423.4277,-346.0109C402.0693,-356.6203 374.8605,-370.1358 352.0846,-381.4493"/>
<polygon fill="none" stroke="#000000" points="350.3488,-378.4035 342.9499,-385.9868 353.463,-384.6726 350.3488,-378.4035"/>
</g>
<!-- Pair&lt;T: InvolutiveRing&gt;&#45;&gt;InvolutiveRing -->
<g id="edge21" class="edge">
<title>Pair&lt;T: InvolutiveRing&gt;&#45;&gt;InvolutiveRing</title>
<path fill="none" stroke="#000000" stroke-dasharray="5,2" d="M376.6396,-404C385.0204,-404 393.4012,-404 401.7819,-404"/>
<polygon fill="none" stroke="#000000" points="402.0047,-407.5001 412.0046,-404 402.0046,-400.5001 402.0047,-407.5001"/>
</g>
<!-- Pair&lt;T: InvolutiveRing&gt;&#45;&gt;Pair&lt;T: AbelianGroup&gt; -->
<g id="edge6" class="edge">
<title>Pair&lt;T: InvolutiveRing&gt;&#45;&gt;Pair&lt;T: AbelianGroup&gt;</title>
<path fill="none" stroke="#000000" d="M344.0332,-422.1686C363.5634,-431.6698 387.6506,-443.3879 408.3597,-453.4626"/>
<polygon fill="none" stroke="#000000" points="407.0849,-456.7346 417.6084,-457.962 410.1472,-450.44 407.0849,-456.7346"/>
</g>
<!-- Pair&lt;T: NormedSpace&gt; -->
<g id="node20" class="node">
<title>Pair&lt;T: NormedSpace&gt;</title>
<polygon fill="none" stroke="#000000" points="673.9153,-422 533.4577,-422 533.4577,-386 673.9153,-386 673.9153,-422"/>
<text text-anchor="middle" x="603.6865" y="-400.4" font-family="Helvetica,sans-Serif" font-size="12.00" fill="#000000">Pair&lt;T: NormedSpace&gt;</text>
</g>
<!-- Pair&lt;T: NormedSpace&gt;&#45;&gt;NormedSpace -->
<g id="edge26" class="edge">
<title>Pair&lt;T: NormedSpace&gt;&#45;&gt;NormedSpace</title>
<path fill="none" stroke="#000000" stroke-dasharray="5,2" d="M674.1123,-404C682.477,-404 690.8416,-404 699.2063,-404"/>
<polygon fill="none" stroke="#000000" points="699.4094,-407.5001 709.4093,-404 699.4093,-400.5001 699.4094,-407.5001"/>
</g>
<!-- Pair&lt;T: NormedSpace&gt;&#45;&gt;Pair&lt;T: AbelianGroup&gt; -->
<g id="edge7" class="edge">
<title>Pair&lt;T: NormedSpace&gt;&#45;&gt;Pair&lt;T: AbelianGroup&gt;</title>
<path fill="none" stroke="#000000" d="M566.0875,-422.1686C546.3368,-431.7126 521.9569,-443.4935 501.0449,-453.5987"/>
<polygon fill="none" stroke="#000000" points="499.4962,-450.4597 492.0151,-457.962 502.5419,-456.7624 499.4962,-450.4597"/>
</g>
<!-- Pair&lt;Double&gt; -->
<g id="node21" class="node">
<title>Pair&lt;Double&gt;</title>
<polygon fill="none" stroke="#000000" points="413.5702,-116 323.8029,-116 323.8029,-80 413.5702,-80 413.5702,-116"/>
<text text-anchor="middle" x="368.6865" y="-94.4" font-family="Helvetica,sans-Serif" font-size="12.00" fill="#000000">Pair&lt;Double&gt;</text>
</g>
<!-- Pair&lt;T: Field &amp; TriviallyInvolutiveRing&gt; -->
<g id="node22" class="node">
<title>Pair&lt;T: Field &amp; TriviallyInvolutiveRing&gt;</title>
<polygon fill="none" stroke="#000000" points="478.7803,-188 258.5928,-188 258.5928,-152 478.7803,-152 478.7803,-188"/>
<text text-anchor="middle" x="368.6865" y="-166.4" font-family="Helvetica,sans-Serif" font-size="12.00" fill="#000000">Pair&lt;T: Field &amp; TriviallyInvolutiveRing&gt;</text>
</g>
<!-- Pair&lt;Double&gt;&#45;&gt;Pair&lt;T: Field &amp; TriviallyInvolutiveRing&gt; -->
<g id="edge11" class="edge">
<title>Pair&lt;Double&gt;&#45;&gt;Pair&lt;T: Field &amp; TriviallyInvolutiveRing&gt;</title>
<path fill="none" stroke="#000000" d="M368.6865,-116.1686C368.6865,-123.869 368.6865,-133.0257 368.6865,-141.5834"/>
<polygon fill="none" stroke="#000000" points="365.1866,-141.5867 368.6865,-151.5867 372.1866,-141.5868 365.1866,-141.5867"/>
</g>
<!-- Pair&lt;T: Field &amp; TriviallyInvolutiveRing&gt;&#45;&gt;Field -->
<g id="edge25" class="edge">
<title>Pair&lt;T: Field &amp; TriviallyInvolutiveRing&gt;&#45;&gt;Field</title>
<path fill="none" stroke="#000000" stroke-dasharray="5,2" d="M478.7959,-170C487.4062,-170 496.0164,-170 504.6267,-170"/>
<polygon fill="none" stroke="#000000" points="504.7344,-173.5001 514.7344,-170 504.7343,-166.5001 504.7344,-173.5001"/>
</g>
<!-- Pair&lt;T: Field &amp; TriviallyInvolutiveRing&gt;&#45;&gt;Pair&lt;T: DivisionRing &amp; InvolutiveRing&gt; -->
<g id="edge12" class="edge">
<title>Pair&lt;T: Field &amp; TriviallyInvolutiveRing&gt;&#45;&gt;Pair&lt;T: DivisionRing &amp; InvolutiveRing&gt;</title>
<path fill="none" stroke="#000000" d="M322.0299,-188.0531C297.2639,-197.6359 266.3447,-209.5996 238.8449,-220.2402"/>
<polygon fill="none" stroke="#000000" points="237.3393,-217.0698 229.2762,-223.9427 239.8654,-223.5982 237.3393,-217.0698"/>
</g>
<!-- Pair&lt;T: Field &amp; TriviallyInvolutiveRing&gt;&#45;&gt;Pair&lt;T: TriviallyInvolutiveRing&gt; -->
<g id="edge13" class="edge">
<title>Pair&lt;T: Field &amp; TriviallyInvolutiveRing&gt;&#45;&gt;Pair&lt;T: TriviallyInvolutiveRing&gt;</title>
<path fill="none" stroke="#000000" d="M382.3651,-188.0615C389.9104,-198.3532 399.2323,-211.628 406.6865,-224 421.9228,-249.2882 436.9823,-279.4758 447.1317,-300.7964"/>
<polygon fill="none" stroke="#000000" points="444.0022,-302.3662 451.4324,-309.919 450.3339,-299.3812 444.0022,-302.3662"/>
</g>
<!-- Complex&#45;&gt;Pair&lt;Double&gt; -->
<g id="edge14" class="edge">
<title>Complex&#45;&gt;Pair&lt;Double&gt;</title>
<path fill="none" stroke="#000000" d="M298.8395,-98C303.8121,-98 308.7847,-98 313.7572,-98"/>
<polygon fill="none" stroke="#000000" points="298.6241,-94.5001 288.624,-98 298.624,-101.5001 298.6241,-94.5001"/>
<polygon fill="none" stroke="#000000" points="313.9641,-101.5001 323.9641,-98 313.9641,-94.5001 313.9641,-101.5001"/>
</g>
<!-- Quaternion -->
<g id="node24" class="node">
<title>Quaternion</title>
<polygon fill="none" stroke="#000000" points="75.5605,-40 -.1875,-40 -.1875,-4 75.5605,-4 75.5605,-40"/>
<text text-anchor="middle" x="37.6865" y="-18.4" font-family="Helvetica,sans-Serif" font-size="12.00" fill="#000000">Quaternion</text>
</g>
<!-- Quaternion&#45;&gt;Pair&lt;Complex&gt; -->
<g id="edge15" class="edge">
<title>Quaternion&#45;&gt;Pair&lt;Complex&gt;</title>
<path fill="none" stroke="#000000" d="M85.519,-22C90.7203,-22 95.9216,-22 101.1229,-22"/>
<polygon fill="none" stroke="#000000" points="85.4991,-18.5001 75.499,-22 85.499,-25.5001 85.4991,-18.5001"/>
<polygon fill="none" stroke="#000000" points="101.1255,-25.5001 111.1255,-22 101.1255,-18.5001 101.1255,-25.5001"/>
</g>
</g>
</svg>
