<?xml version="1.0" encoding="UTF-8" standalone="no"?>
<!DOCTYPE svg PUBLIC "-//W3C//DTD SVG 1.1//EN"
 "http://www.w3.org/Graphics/SVG/1.1/DTD/svg11.dtd">
<!-- Generated by graphviz version 2.40.1 (20161225.0304)
 -->
<!-- Pages: 1 -->
<svg width="770pt" height="688pt"
 viewBox="0.00 0.00 769.71 688.00" xmlns="http://www.w3.org/2000/svg" xmlns:xlink="http://www.w3.org/1999/xlink">
<g id="graph0" class="graph" transform="scale(1 1) rotate(0) translate(4 684)">
<polygon fill="#ffffff" stroke="transparent" points="-4,4 -4,-684 765.709,-684 765.709,4 -4,4"/>
<!-- Monoid -->
<g id="node1" class="node">
<title>Monoid</title>
<polygon fill="none" stroke="#000000" points="522.8787,-659 464.4943,-659 464.4943,-623 522.8787,-623 522.8787,-659"/>
<text text-anchor="start" x="472.3408" y="-643.4" font-family="Helvetica,sans" font-size="12.00" fill="#000000">protocol</text>
<text text-anchor="start" x="474.0078" y="-631.4" font-family="Helvetica,sans" font-size="12.00" fill="#000000">Monoid</text>
</g>
<!-- CommutativeMonoid -->
<g id="node2" class="node">
<title>CommutativeMonoid</title>
<polygon fill="none" stroke="#000000" points="761.7315,-566 635.6416,-566 635.6416,-530 761.7315,-530 761.7315,-566"/>
<text text-anchor="start" x="677.3408" y="-550.4" font-family="Helvetica,sans" font-size="12.00" fill="#000000">protocol</text>
<text text-anchor="start" x="643.6641" y="-538.4" font-family="Helvetica,sans" font-size="12.00" fill="#000000">CommutativeMonoid</text>
</g>
<!-- Group -->
<g id="node3" class="node">
<title>Group</title>
<polygon fill="none" stroke="#000000" points="389.8787,-566 331.4943,-566 331.4943,-530 389.8787,-530 389.8787,-566"/>
<text text-anchor="start" x="339.3408" y="-550.4" font-family="Helvetica,sans" font-size="12.00" fill="#000000">protocol</text>
<text text-anchor="start" x="344.0107" y="-538.4" font-family="Helvetica,sans" font-size="12.00" fill="#000000">Group</text>
</g>
<!-- AbelianGroup -->
<g id="node4" class="node">
<title>AbelianGroup</title>
<polygon fill="none" stroke="#000000" points="573.5702,-494 483.8029,-494 483.8029,-458 573.5702,-458 573.5702,-494"/>
<text text-anchor="start" x="507.3408" y="-478.4" font-family="Helvetica,sans" font-size="12.00" fill="#000000">protocol</text>
<text text-anchor="start" x="491.9951" y="-466.4" font-family="Helvetica,sans" font-size="12.00" fill="#000000">AbelianGroup</text>
</g>
<!-- InvolutiveRing -->
<g id="node5" class="node">
<title>InvolutiveRing</title>
<polygon fill="none" stroke="#000000" points="576.5623,-422 484.8108,-422 484.8108,-386 576.5623,-386 576.5623,-422"/>
<text text-anchor="start" x="509.3408" y="-406.4" font-family="Helvetica,sans" font-size="12.00" fill="#000000">protocol</text>
<text text-anchor="start" x="492.999" y="-394.4" font-family="Helvetica,sans" font-size="12.00" fill="#000000">InvolutiveRing</text>
</g>
<!-- Unital -->
<g id="node6" class="node">
<title>Unital</title>
<polygon fill="none" stroke="#000000" points="408.8787,-346 350.4943,-346 350.4943,-310 408.8787,-310 408.8787,-346"/>
<text text-anchor="start" x="358.3408" y="-330.4" font-family="Helvetica,sans" font-size="12.00" fill="#000000">protocol</text>
<text text-anchor="start" x="364.3467" y="-318.4" font-family="Helvetica,sans" font-size="12.00" fill="#000000">Unital</text>
</g>
<!-- DivisionRing -->
<g id="node7" class="node">
<title>DivisionRing</title>
<polygon fill="none" stroke="#000000" points="450.8785,-265 368.4945,-265 368.4945,-229 450.8785,-229 450.8785,-265"/>
<text text-anchor="start" x="388.3408" y="-249.4" font-family="Helvetica,sans" font-size="12.00" fill="#000000">protocol</text>
<text text-anchor="start" x="376.3408" y="-237.4" font-family="Helvetica,sans" font-size="12.00" fill="#000000">DivisionRing</text>
</g>
<!-- Commutative -->
<g id="node8" class="node">
<title>Commutative</title>
<polygon fill="none" stroke="#000000" points="746.8746,-346 660.4985,-346 660.4985,-310 746.8746,-310 746.8746,-346"/>
<text text-anchor="start" x="682.3408" y="-330.4" font-family="Helvetica,sans" font-size="12.00" fill="#000000">protocol</text>
<text text-anchor="start" x="668.3428" y="-318.4" font-family="Helvetica,sans" font-size="12.00" fill="#000000">Commutative</text>
</g>
<!-- Field -->
<g id="node9" class="node">
<title>Field</title>
<polygon fill="none" stroke="#000000" points="738.8787,-188 680.4943,-188 680.4943,-152 738.8787,-152 738.8787,-188"/>
<text text-anchor="start" x="688.3408" y="-172.4" font-family="Helvetica,sans" font-size="12.00" fill="#000000">protocol</text>
<text text-anchor="start" x="696.6816" y="-160.4" font-family="Helvetica,sans" font-size="12.00" fill="#000000">Field</text>
</g>
<!-- NormedSpace -->
<g id="node10" class="node">
<title>NormedSpace</title>
<polygon fill="none" stroke="#000000" points="388.8921,-188 296.481,-188 296.481,-152 388.8921,-152 388.8921,-188"/>
<text text-anchor="start" x="321.3408" y="-172.4" font-family="Helvetica,sans" font-size="12.00" fill="#000000">protocol</text>
<text text-anchor="start" x="304.334" y="-160.4" font-family="Helvetica,sans" font-size="12.00" fill="#000000">NormedSpace</text>
</g>
<!-- Pair&lt;T: Monoid&gt; -->
<g id="node11" class="node">
<title>Pair&lt;T: Monoid&gt;</title>
<polygon fill="none" stroke="#000000" points="428.1865,-680 331.1865,-680 331.1865,-602 428.1865,-602 428.1865,-680"/>
<polyline fill="none" stroke="#000000" points="331.6865,-658 428.6865,-658 "/>
<text text-anchor="start" x="336.4961" y="-665.4" font-family="Helvetica,sans" font-size="12.00" fill="#000000">Pair&lt;T: Monoid&gt;</text>
<polyline fill="none" stroke="#000000" points="331.6865,-624 428.6865,-624 "/>
<text text-anchor="start" x="336.6865" y="-643.4" font-family="Helvetica,sans" font-size="12.00" fill="#000000">re: T</text>
<text text-anchor="start" x="336.6865" y="-631.4" font-family="Helvetica,sans" font-size="12.00" fill="#000000">im: T</text>
<polyline fill="none" stroke="#000000" points="331.6865,-602 428.6865,-602 "/>
<text text-anchor="start" x="336.6865" y="-609.4" font-family="Helvetica,sans" font-size="12.00" fill="#000000">init(T, T)</text>
</g>
<!-- Pair&lt;T: Monoid&gt;&#45;&gt;Monoid -->
<g id="edge18" class="edge">
<title>Pair&lt;T: Monoid&gt;&#45;&gt;Monoid</title>
<path fill="none" stroke="#000000" stroke-dasharray="5,2" d="M428.2256,-641C436.8637,-641 445.5018,-641 454.1399,-641"/>
<polygon fill="none" stroke="#000000" points="454.2803,-644.5001 464.2802,-641 454.2802,-637.5001 454.2803,-644.5001"/>
</g>
<!-- Pair&lt;T: InvolutiveRing &amp; Unital&gt; -->
<g id="node12" class="node">
<title>Pair&lt;T: InvolutiveRing &amp; Unital&gt;</title>
<polygon fill="none" stroke="#000000" points="314.6865,-350 136.6865,-350 136.6865,-306 314.6865,-306 314.6865,-350"/>
<polyline fill="none" stroke="#000000" points="136.6865,-328 314.6865,-328 "/>
<text text-anchor="start" x="141.3115" y="-335.4" font-family="Helvetica,sans" font-size="12.00" fill="#000000">Pair&lt;T: InvolutiveRing &amp; Unital&gt;</text>
<polyline fill="none" stroke="#000000" points="136.6865,-306 314.6865,-306 "/>
<text text-anchor="start" x="141.6865" y="-314.4" font-family="Helvetica,sans" text-decoration="underline" font-size="12.00" fill="#000000">symbol: Pair</text>
</g>
<!-- Pair&lt;T: InvolutiveRing &amp; Unital&gt;&#45;&gt;Unital -->
<g id="edge23" class="edge">
<title>Pair&lt;T: InvolutiveRing &amp; Unital&gt;&#45;&gt;Unital</title>
<path fill="none" stroke="#000000" stroke-dasharray="5,2" d="M314.7178,-328C323.1376,-328 331.5574,-328 339.9772,-328"/>
<polygon fill="none" stroke="#000000" points="340.2476,-331.5001 350.2476,-328 340.2475,-324.5001 340.2476,-331.5001"/>
</g>
<!-- Pair&lt;T: InvolutiveRing&gt; -->
<g id="node19" class="node">
<title>Pair&lt;T: InvolutiveRing&gt;</title>
<polygon fill="none" stroke="#000000" points="449.5855,-422 309.7875,-422 309.7875,-386 449.5855,-386 449.5855,-422"/>
<text text-anchor="middle" x="379.6865" y="-400.4" font-family="Helvetica,sans" font-size="12.00" fill="#000000">Pair&lt;T: InvolutiveRing&gt;</text>
</g>
<!-- Pair&lt;T: InvolutiveRing &amp; Unital&gt;&#45;&gt;Pair&lt;T: InvolutiveRing&gt; -->
<g id="edge9" class="edge">
<title>Pair&lt;T: InvolutiveRing &amp; Unital&gt;&#45;&gt;Pair&lt;T: InvolutiveRing&gt;</title>
<path fill="none" stroke="#000000" d="M270.6437,-350.1867C290.4939,-359.9829 313.8021,-371.4856 333.7626,-381.3362"/>
<polygon fill="none" stroke="#000000" points="332.4507,-384.5918 342.9671,-385.8787 335.5486,-378.3146 332.4507,-384.5918"/>
</g>
<!-- Pair&lt;T: DivisionRing &amp; InvolutiveRing&gt; -->
<g id="node13" class="node">
<title>Pair&lt;T: DivisionRing &amp; InvolutiveRing&gt;</title>
<polygon fill="none" stroke="#000000" points="332.6865,-270 118.6865,-270 118.6865,-224 332.6865,-224 332.6865,-270"/>
<polyline fill="none" stroke="#000000" points="118.6865,-248 332.6865,-248 "/>
<text text-anchor="start" x="123.3057" y="-255.4" font-family="Helvetica,sans" font-size="12.00" fill="#000000">Pair&lt;T: DivisionRing &amp; InvolutiveRing&gt;</text>
<polyline fill="none" stroke="#000000" points="118.6865,-224 332.6865,-224 "/>
<text text-anchor="start" x="123.6865" y="-234.4" font-family="Helvetica,sans" text-decoration="underline" font-size="12.00" fill="#000000">/(Pair, T) → Pair</text>
</g>
<!-- Pair&lt;T: DivisionRing &amp; InvolutiveRing&gt;&#45;&gt;DivisionRing -->
<g id="edge24" class="edge">
<title>Pair&lt;T: DivisionRing &amp; InvolutiveRing&gt;&#45;&gt;DivisionRing</title>
<path fill="none" stroke="#000000" stroke-dasharray="5,2" d="M332.7803,-247C341.1809,-247 349.5816,-247 357.9823,-247"/>
<polygon fill="none" stroke="#000000" points="358.2293,-250.5001 368.2292,-247 358.2292,-243.5001 358.2293,-250.5001"/>
</g>
<!-- Pair&lt;T: DivisionRing &amp; InvolutiveRing&gt;&#45;&gt;Pair&lt;T: InvolutiveRing &amp; Unital&gt; -->
<g id="edge8" class="edge">
<title>Pair&lt;T: DivisionRing &amp; InvolutiveRing&gt;&#45;&gt;Pair&lt;T: InvolutiveRing &amp; Unital&gt;</title>
<path fill="none" stroke="#000000" d="M225.6865,-270.4286C225.6865,-278.2474 225.6865,-287.1054 225.6865,-295.4879"/>
<polygon fill="none" stroke="#000000" points="222.1866,-295.7374 225.6865,-305.7375 229.1866,-295.7375 222.1866,-295.7374"/>
</g>
<!-- Pair&lt;Complex&gt; -->
<g id="node14" class="node">
<title>Pair&lt;Complex&gt;</title>
<polygon fill="none" stroke="#000000" points="316.1865,-44 111.1865,-44 111.1865,0 316.1865,0 316.1865,-44"/>
<polyline fill="none" stroke="#000000" points="111.6865,-22 316.6865,-22 "/>
<text text-anchor="start" x="172.834" y="-29.4" font-family="Helvetica,sans" font-size="12.00" fill="#000000">Pair&lt;Complex&gt;</text>
<polyline fill="none" stroke="#000000" points="111.6865,0 316.6865,0 "/>
<text text-anchor="start" x="116.6865" y="-7.4" font-family="Helvetica,sans" font-size="12.00" fill="#000000">init(Double, Double, Double, Double)</text>
</g>
<!-- Pair&lt;T: Field &amp; NormedSpace&gt; -->
<g id="node20" class="node">
<title>Pair&lt;T: Field &amp; NormedSpace&gt;</title>
<polygon fill="none" stroke="#000000" points="260.5971,-188 78.7759,-188 78.7759,-152 260.5971,-152 260.5971,-188"/>
<text text-anchor="middle" x="169.6865" y="-166.4" font-family="Helvetica,sans" font-size="12.00" fill="#000000">Pair&lt;T: Field &amp; NormedSpace&gt;</text>
</g>
<!-- Pair&lt;Complex&gt;&#45;&gt;Pair&lt;T: Field &amp; NormedSpace&gt; -->
<g id="edge13" class="edge">
<title>Pair&lt;Complex&gt;&#45;&gt;Pair&lt;T: Field &amp; NormedSpace&gt;</title>
<path fill="none" stroke="#000000" d="M207.0993,-44.1571C199.3273,-70.2992 186.3981,-113.7884 177.9584,-142.1763"/>
<polygon fill="none" stroke="#000000" points="174.565,-141.3089 175.0701,-151.8916 181.2747,-143.3037 174.565,-141.3089"/>
</g>
<!-- Complex -->
<g id="node23" class="node">
<title>Complex</title>
<polygon fill="none" stroke="#000000" points="288.5371,-116 224.8359,-116 224.8359,-80 288.5371,-80 288.5371,-116"/>
<text text-anchor="middle" x="256.6865" y="-94.4" font-family="Helvetica,sans" font-size="12.00" fill="#000000">Complex</text>
</g>
<!-- Pair&lt;Complex&gt;&#45;&gt;Complex -->
<g id="edge17" class="edge">
<title>Pair&lt;Complex&gt;&#45;&gt;Complex</title>
<path fill="none" stroke="#000000" stroke-dasharray="5,2" d="M226.3554,-44.3914C231.0128,-52.6231 236.3393,-62.0375 241.2157,-70.6562"/>
<polygon fill="#000000" stroke="#000000" points="246.2774,-79.6025 237.4364,-73.115 243.8152,-75.2508 241.353,-70.899 241.353,-70.899 241.353,-70.899 243.8152,-75.2508 245.2696,-68.683 246.2774,-79.6025 246.2774,-79.6025"/>
</g>
<!-- Pair&lt;T: AbelianGroup&gt; -->
<g id="node15" class="node">
<title>Pair&lt;T: AbelianGroup&gt;</title>
<polygon fill="none" stroke="#000000" points="447.9368,-494 311.4363,-494 311.4363,-458 447.9368,-458 447.9368,-494"/>
<text text-anchor="middle" x="379.6865" y="-472.4" font-family="Helvetica,sans" font-size="12.00" fill="#000000">Pair&lt;T: AbelianGroup&gt;</text>
</g>
<!-- Pair&lt;T: AbelianGroup&gt;&#45;&gt;AbelianGroup -->
<g id="edge21" class="edge">
<title>Pair&lt;T: AbelianGroup&gt;&#45;&gt;AbelianGroup</title>
<path fill="none" stroke="#000000" stroke-dasharray="5,2" d="M448.0752,-476C456.6756,-476 465.276,-476 473.8763,-476"/>
<polygon fill="none" stroke="#000000" points="473.9725,-479.5001 483.9724,-476 473.9724,-472.5001 473.9725,-479.5001"/>
</g>
<!-- Pair&lt;T: Group&gt; -->
<g id="node16" class="node">
<title>Pair&lt;T: Group&gt;</title>
<polygon fill="none" stroke="#000000" points="295.5622,-566 197.8108,-566 197.8108,-530 295.5622,-530 295.5622,-566"/>
<text text-anchor="middle" x="246.6865" y="-544.4" font-family="Helvetica,sans" font-size="12.00" fill="#000000">Pair&lt;T: Group&gt;</text>
</g>
<!-- Pair&lt;T: AbelianGroup&gt;&#45;&gt;Pair&lt;T: Group&gt; -->
<g id="edge1" class="edge">
<title>Pair&lt;T: AbelianGroup&gt;&#45;&gt;Pair&lt;T: Group&gt;</title>
<path fill="none" stroke="#000000" d="M346.125,-494.1686C328.7985,-503.5484 307.4808,-515.0888 289.0329,-525.0756"/>
<polygon fill="none" stroke="#000000" points="287.3651,-521.9985 280.2373,-529.8372 290.6977,-528.1543 287.3651,-521.9985"/>
</g>
<!-- Pair&lt;T: CommutativeMonoid&gt; -->
<g id="node17" class="node">
<title>Pair&lt;T: CommutativeMonoid&gt;</title>
<polygon fill="none" stroke="#000000" points="599.7549,-566 425.6182,-566 425.6182,-530 599.7549,-530 599.7549,-566"/>
<text text-anchor="middle" x="512.6865" y="-544.4" font-family="Helvetica,sans" font-size="12.00" fill="#000000">Pair&lt;T: CommutativeMonoid&gt;</text>
</g>
<!-- Pair&lt;T: AbelianGroup&gt;&#45;&gt;Pair&lt;T: CommutativeMonoid&gt; -->
<g id="edge2" class="edge">
<title>Pair&lt;T: AbelianGroup&gt;&#45;&gt;Pair&lt;T: CommutativeMonoid&gt;</title>
<path fill="none" stroke="#000000" d="M413.248,-494.1686C430.5746,-503.5484 451.8923,-515.0888 470.3401,-525.0756"/>
<polygon fill="none" stroke="#000000" points="468.6754,-528.1543 479.1357,-529.8372 472.0079,-521.9985 468.6754,-528.1543"/>
</g>
<!-- Pair&lt;T: Group&gt;&#45;&gt;Group -->
<g id="edge20" class="edge">
<title>Pair&lt;T: Group&gt;&#45;&gt;Group</title>
<path fill="none" stroke="#000000" stroke-dasharray="5,2" d="M295.6709,-548C304.2502,-548 312.8296,-548 321.4089,-548"/>
<polygon fill="none" stroke="#000000" points="321.4803,-551.5001 331.4803,-548 321.4803,-544.5001 321.4803,-551.5001"/>
</g>
<!-- Pair&lt;T: Group&gt;&#45;&gt;Pair&lt;T: Monoid&gt; -->
<g id="edge3" class="edge">
<title>Pair&lt;T: Group&gt;&#45;&gt;Pair&lt;T: Monoid&gt;</title>
<path fill="none" stroke="#000000" d="M272.646,-566.1521C286.9385,-576.1461 305.2711,-588.9651 322.7113,-601.1602"/>
<polygon fill="none" stroke="#000000" points="320.9786,-604.2194 331.1795,-607.0815 324.9899,-598.4827 320.9786,-604.2194"/>
</g>
<!-- Pair&lt;T: CommutativeMonoid&gt;&#45;&gt;CommutativeMonoid -->
<g id="edge19" class="edge">
<title>Pair&lt;T: CommutativeMonoid&gt;&#45;&gt;CommutativeMonoid</title>
<path fill="none" stroke="#000000" stroke-dasharray="5,2" d="M599.874,-548C608.2893,-548 616.7046,-548 625.1199,-548"/>
<polygon fill="none" stroke="#000000" points="625.3848,-551.5001 635.3848,-548 625.3847,-544.5001 625.3848,-551.5001"/>
</g>
<!-- Pair&lt;T: CommutativeMonoid&gt;&#45;&gt;Pair&lt;T: Monoid&gt; -->
<g id="edge4" class="edge">
<title>Pair&lt;T: CommutativeMonoid&gt;&#45;&gt;Pair&lt;T: Monoid&gt;</title>
<path fill="none" stroke="#000000" d="M486.7271,-566.1521C472.4346,-576.1461 454.102,-588.9651 436.6618,-601.1602"/>
<polygon fill="none" stroke="#000000" points="434.3831,-598.4827 428.1936,-607.0815 438.3945,-604.2194 434.3831,-598.4827"/>
</g>
<!-- Pair&lt;T: TriviallyInvolutiveRing&gt; -->
<g id="node18" class="node">
<title>Pair&lt;T: TriviallyInvolutiveRing&gt;</title>
<polygon fill="none" stroke="#000000" points="624.5991,-346 444.7739,-346 444.7739,-310 624.5991,-310 624.5991,-346"/>
<text text-anchor="middle" x="534.6865" y="-324.4" font-family="Helvetica,sans" font-size="12.00" fill="#000000">Pair&lt;T: TriviallyInvolutiveRing&gt;</text>
</g>
<!-- Pair&lt;T: TriviallyInvolutiveRing&gt;&#45;&gt;Commutative -->
<g id="edge25" class="edge">
<title>Pair&lt;T: TriviallyInvolutiveRing&gt;&#45;&gt;Commutative</title>
<path fill="none" stroke="#000000" stroke-dasharray="5,2" d="M624.4678,-328C633.0679,-328 641.6679,-328 650.268,-328"/>
<polygon fill="none" stroke="#000000" points="650.3638,-331.5001 660.3638,-328 650.3637,-324.5001 650.3638,-331.5001"/>
</g>
<!-- Pair&lt;T: TriviallyInvolutiveRing&gt;&#45;&gt;Pair&lt;T: InvolutiveRing&gt; -->
<g id="edge5" class="edge">
<title>Pair&lt;T: TriviallyInvolutiveRing&gt;&#45;&gt;Pair&lt;T: InvolutiveRing&gt;</title>
<path fill="none" stroke="#000000" d="M497.9537,-346.0109C476.3161,-356.6203 448.7517,-370.1358 425.6781,-381.4493"/>
<polygon fill="none" stroke="#000000" points="423.8618,-378.4417 416.424,-385.9868 426.9436,-384.7268 423.8618,-378.4417"/>
</g>
<!-- Pair&lt;T: InvolutiveRing&gt;&#45;&gt;InvolutiveRing -->
<g id="edge22" class="edge">
<title>Pair&lt;T: InvolutiveRing&gt;&#45;&gt;InvolutiveRing</title>
<path fill="none" stroke="#000000" stroke-dasharray="5,2" d="M449.583,-404C457.9166,-404 466.2502,-404 474.5838,-404"/>
<polygon fill="none" stroke="#000000" points="474.749,-407.5001 484.749,-404 474.749,-400.5001 474.749,-407.5001"/>
</g>
<!-- Pair&lt;T: InvolutiveRing&gt;&#45;&gt;Pair&lt;T: AbelianGroup&gt; -->
<g id="edge6" class="edge">
<title>Pair&lt;T: InvolutiveRing&gt;&#45;&gt;Pair&lt;T: AbelianGroup&gt;</title>
<path fill="none" stroke="#000000" d="M379.6865,-422.1686C379.6865,-429.869 379.6865,-439.0257 379.6865,-447.5834"/>
<polygon fill="none" stroke="#000000" points="376.1866,-447.5867 379.6865,-457.5867 383.1866,-447.5868 376.1866,-447.5867"/>
</g>
<!-- Pair&lt;T: Field &amp; NormedSpace&gt;&#45;&gt;NormedSpace -->
<g id="edge27" class="edge">
<title>Pair&lt;T: Field &amp; NormedSpace&gt;&#45;&gt;NormedSpace</title>
<path fill="none" stroke="#000000" stroke-dasharray="5,2" d="M260.5791,-170C269.1086,-170 277.638,-170 286.1675,-170"/>
<polygon fill="none" stroke="#000000" points="286.1804,-173.5001 296.1804,-170 286.1803,-166.5001 286.1804,-173.5001"/>
</g>
<!-- Pair&lt;T: Field &amp; NormedSpace&gt;&#45;&gt;Pair&lt;T: DivisionRing &amp; InvolutiveRing&gt; -->
<g id="edge7" class="edge">
<title>Pair&lt;T: Field &amp; NormedSpace&gt;&#45;&gt;Pair&lt;T: DivisionRing &amp; InvolutiveRing&gt;</title>
<path fill="none" stroke="#000000" d="M182.9577,-188.2479C188.9009,-196.4198 196.0817,-206.2933 202.8462,-215.5946"/>
<polygon fill="none" stroke="#000000" points="200.1818,-217.8817 208.8942,-223.9105 205.843,-213.7645 200.1818,-217.8817"/>
</g>
<!-- Pair&lt;Double&gt; -->
<g id="node21" class="node">
<title>Pair&lt;Double&gt;</title>
<polygon fill="none" stroke="#000000" points="413.5702,-116 323.8029,-116 323.8029,-80 413.5702,-80 413.5702,-116"/>
<text text-anchor="middle" x="368.6865" y="-94.4" font-family="Helvetica,sans" font-size="12.00" fill="#000000">Pair&lt;Double&gt;</text>
</g>
<!-- Pair&lt;Double&gt;&#45;&gt;Pair&lt;T: Field &amp; NormedSpace&gt; -->
<g id="edge14" class="edge">
<title>Pair&lt;Double&gt;&#45;&gt;Pair&lt;T: Field &amp; NormedSpace&gt;</title>
<path fill="none" stroke="#000000" d="M323.5303,-114.3379C295.5919,-124.4463 259.4075,-137.5381 229.1509,-148.4853"/>
<polygon fill="none" stroke="#000000" points="227.7662,-145.2641 219.5535,-151.9577 230.1478,-151.8466 227.7662,-145.2641"/>
</g>
<!-- Pair&lt;T: Field &amp; TriviallyInvolutiveRing&gt; -->
<g id="node22" class="node">
<title>Pair&lt;T: Field &amp; TriviallyInvolutiveRing&gt;</title>
<polygon fill="none" stroke="#000000" points="644.7803,-188 424.5928,-188 424.5928,-152 644.7803,-152 644.7803,-188"/>
<text text-anchor="middle" x="534.6865" y="-166.4" font-family="Helvetica,sans" font-size="12.00" fill="#000000">Pair&lt;T: Field &amp; TriviallyInvolutiveRing&gt;</text>
</g>
<!-- Pair&lt;Double&gt;&#45;&gt;Pair&lt;T: Field &amp; TriviallyInvolutiveRing&gt; -->
<g id="edge10" class="edge">
<title>Pair&lt;Double&gt;&#45;&gt;Pair&lt;T: Field &amp; TriviallyInvolutiveRing&gt;</title>
<path fill="none" stroke="#000000" d="M410.5753,-116.1686C432.7769,-125.7982 460.2287,-137.705 483.6649,-147.8701"/>
<polygon fill="none" stroke="#000000" points="482.532,-151.1938 493.0989,-151.962 485.3174,-144.7718 482.532,-151.1938"/>
</g>
<!-- Pair&lt;T: Field &amp; TriviallyInvolutiveRing&gt;&#45;&gt;Field -->
<g id="edge26" class="edge">
<title>Pair&lt;T: Field &amp; TriviallyInvolutiveRing&gt;&#45;&gt;Field</title>
<path fill="none" stroke="#000000" stroke-dasharray="5,2" d="M644.7451,-170C653.1614,-170 661.5777,-170 669.9939,-170"/>
<polygon fill="none" stroke="#000000" points="670.26,-173.5001 680.2599,-170 670.2599,-166.5001 670.26,-173.5001"/>
</g>
<!-- Pair&lt;T: Field &amp; TriviallyInvolutiveRing&gt;&#45;&gt;Pair&lt;T: DivisionRing &amp; InvolutiveRing&gt; -->
<g id="edge11" class="edge">
<title>Pair&lt;T: Field &amp; TriviallyInvolutiveRing&gt;&#45;&gt;Pair&lt;T: DivisionRing &amp; InvolutiveRing&gt;</title>
<path fill="none" stroke="#000000" d="M462.2398,-188.0531C422.2726,-198.0125 371.9854,-210.5436 328.0641,-221.4884"/>
<polygon fill="none" stroke="#000000" points="327.0721,-218.1285 318.2152,-223.9427 328.7648,-224.9208 327.0721,-218.1285"/>
</g>
<!-- Pair&lt;T: Field &amp; TriviallyInvolutiveRing&gt;&#45;&gt;Pair&lt;T: TriviallyInvolutiveRing&gt; -->
<g id="edge12" class="edge">
<title>Pair&lt;T: Field &amp; TriviallyInvolutiveRing&gt;&#45;&gt;Pair&lt;T: TriviallyInvolutiveRing&gt;</title>
<path fill="none" stroke="#000000" d="M534.6865,-188.1246C534.6865,-215.3612 534.6865,-267.093 534.6865,-299.4377"/>
<polygon fill="none" stroke="#000000" points="531.1866,-299.6001 534.6865,-309.6001 538.1866,-299.6001 531.1866,-299.6001"/>
</g>
<!-- Complex&#45;&gt;Pair&lt;Double&gt; -->
<g id="edge15" class="edge">
<title>Complex&#45;&gt;Pair&lt;Double&gt;</title>
<path fill="none" stroke="#000000" d="M298.8395,-98C303.8121,-98 308.7847,-98 313.7572,-98"/>
<polygon fill="none" stroke="#000000" points="298.6241,-94.5001 288.624,-98 298.624,-101.5001 298.6241,-94.5001"/>
<polygon fill="none" stroke="#000000" points="313.9641,-101.5001 323.9641,-98 313.9641,-94.5001 313.9641,-101.5001"/>
</g>
<!-- Quaternion -->
<g id="node24" class="node">
<title>Quaternion</title>
<polygon fill="none" stroke="#000000" points="75.5605,-40 -.1875,-40 -.1875,-4 75.5605,-4 75.5605,-40"/>
<text text-anchor="middle" x="37.6865" y="-18.4" font-family="Helvetica,sans" font-size="12.00" fill="#000000">Quaternion</text>
</g>
<!-- Quaternion&#45;&gt;Pair&lt;Complex&gt; -->
<g id="edge16" class="edge">
<title>Quaternion&#45;&gt;Pair&lt;Complex&gt;</title>
<path fill="none" stroke="#000000" d="M85.519,-22C90.7203,-22 95.9216,-22 101.1229,-22"/>
<polygon fill="none" stroke="#000000" points="85.4991,-18.5001 75.499,-22 85.499,-25.5001 85.4991,-18.5001"/>
<polygon fill="none" stroke="#000000" points="101.1255,-25.5001 111.1255,-22 101.1255,-18.5001 101.1255,-25.5001"/>
</g>
</g>
</svg>
