<?xml version="1.0" encoding="UTF-8" standalone="no"?>
<!DOCTYPE svg PUBLIC "-//W3C//DTD SVG 1.1//EN"
 "http://www.w3.org/Graphics/SVG/1.1/DTD/svg11.dtd">
<!-- Generated by graphviz version 2.40.1 (20161225.0304)
 -->
<!-- Title: %3 Pages: 1 -->
<svg width="779pt" height="548pt"
 viewBox="0.00 0.00 779.38 548.00" xmlns="http://www.w3.org/2000/svg" xmlns:xlink="http://www.w3.org/1999/xlink">
<g id="graph0" class="graph" transform="scale(1 1) rotate(0) translate(4 544)">
<title>%3</title>
<polygon fill="#ffffff" stroke="transparent" points="-4,4 -4,-544 775.3809,-544 775.3809,4 -4,4"/>
<!-- Monoid -->
<g id="node1" class="node">
<title>Monoid</title>
<polygon fill="none" stroke="#000000" points="538.8809,-540 483.8809,-540 483.8809,-504 538.8809,-504 538.8809,-540"/>
<polyline fill="none" stroke="#000000" points="484.3809,-505 539.3809,-505 "/>
<text text-anchor="start" x="490.5352" y="-524.4" font-family="Helvetica,sans-Serif" font-size="12.00" fill="#000000">protocol</text>
<text text-anchor="start" x="492.2021" y="-512.4" font-family="Helvetica,sans-Serif" font-size="12.00" fill="#000000">Monoid</text>
</g>
<!-- CommutativeMonoid -->
<g id="node2" class="node">
<title>CommutativeMonoid</title>
<polygon fill="none" stroke="#000000" points="771.3809,-468 651.3809,-468 651.3809,-432 771.3809,-432 771.3809,-468"/>
<polyline fill="none" stroke="#000000" points="651.3809,-433 771.3809,-433 "/>
<text text-anchor="start" x="690.0352" y="-452.4" font-family="Helvetica,sans-Serif" font-size="12.00" fill="#000000">protocol</text>
<text text-anchor="start" x="656.3584" y="-440.4" font-family="Helvetica,sans-Serif" font-size="12.00" fill="#000000">CommutativeMonoid</text>
</g>
<!-- Group -->
<g id="node3" class="node">
<title>Group</title>
<polygon fill="none" stroke="#000000" points="404.8809,-468 349.8809,-468 349.8809,-432 404.8809,-432 404.8809,-468"/>
<polyline fill="none" stroke="#000000" points="350.3809,-433 405.3809,-433 "/>
<text text-anchor="start" x="356.5352" y="-452.4" font-family="Helvetica,sans-Serif" font-size="12.00" fill="#000000">protocol</text>
<text text-anchor="start" x="361.2051" y="-440.4" font-family="Helvetica,sans-Serif" font-size="12.00" fill="#000000">Group</text>
</g>
<!-- AbelianGroup -->
<g id="node4" class="node">
<title>AbelianGroup</title>
<polygon fill="none" stroke="#000000" points="583.8809,-396 500.8809,-396 500.8809,-360 583.8809,-360 583.8809,-396"/>
<polyline fill="none" stroke="#000000" points="501.3809,-361 584.3809,-361 "/>
<text text-anchor="start" x="521.5352" y="-380.4" font-family="Helvetica,sans-Serif" font-size="12.00" fill="#000000">protocol</text>
<text text-anchor="start" x="506.1895" y="-368.4" font-family="Helvetica,sans-Serif" font-size="12.00" fill="#000000">AbelianGroup</text>
</g>
<!-- InvolutiveRing -->
<g id="node5" class="node">
<title>InvolutiveRing</title>
<polygon fill="none" stroke="#000000" points="438.8809,-324 353.8809,-324 353.8809,-288 438.8809,-288 438.8809,-324"/>
<polyline fill="none" stroke="#000000" points="354.3809,-289 439.3809,-289 "/>
<text text-anchor="start" x="375.5352" y="-308.4" font-family="Helvetica,sans-Serif" font-size="12.00" fill="#000000">protocol</text>
<text text-anchor="start" x="359.1934" y="-296.4" font-family="Helvetica,sans-Serif" font-size="12.00" fill="#000000">InvolutiveRing</text>
</g>
<!-- Unital -->
<g id="node6" class="node">
<title>Unital</title>
<polygon fill="none" stroke="#000000" points="277.8809,-252 222.8809,-252 222.8809,-216 277.8809,-216 277.8809,-252"/>
<polyline fill="none" stroke="#000000" points="223.3809,-217 278.3809,-217 "/>
<text text-anchor="start" x="229.5352" y="-236.4" font-family="Helvetica,sans-Serif" font-size="12.00" fill="#000000">protocol</text>
<text text-anchor="start" x="235.541" y="-224.4" font-family="Helvetica,sans-Serif" font-size="12.00" fill="#000000">Unital</text>
</g>
<!-- DivisionRing -->
<g id="node7" class="node">
<title>DivisionRing</title>
<polygon fill="none" stroke="#000000" points="332.3809,-180 256.3809,-180 256.3809,-144 332.3809,-144 332.3809,-180"/>
<polyline fill="none" stroke="#000000" points="256.3809,-145 332.3809,-145 "/>
<text text-anchor="start" x="273.0352" y="-164.4" font-family="Helvetica,sans-Serif" font-size="12.00" fill="#000000">protocol</text>
<text text-anchor="start" x="261.0352" y="-152.4" font-family="Helvetica,sans-Serif" font-size="12.00" fill="#000000">DivisionRing</text>
</g>
<!-- Commutative -->
<g id="node8" class="node">
<title>Commutative</title>
<polygon fill="none" stroke="#000000" points="609.3809,-252 529.3809,-252 529.3809,-216 609.3809,-216 609.3809,-252"/>
<polyline fill="none" stroke="#000000" points="529.3809,-217 609.3809,-217 "/>
<text text-anchor="start" x="548.0352" y="-236.4" font-family="Helvetica,sans-Serif" font-size="12.00" fill="#000000">protocol</text>
<text text-anchor="start" x="534.0371" y="-224.4" font-family="Helvetica,sans-Serif" font-size="12.00" fill="#000000">Commutative</text>
</g>
<!-- Field -->
<g id="node9" class="node">
<title>Field</title>
<polygon fill="none" stroke="#000000" points="541.8809,-108 486.8809,-108 486.8809,-72 541.8809,-72 541.8809,-108"/>
<polyline fill="none" stroke="#000000" points="487.3809,-73 542.3809,-73 "/>
<text text-anchor="start" x="493.5352" y="-92.4" font-family="Helvetica,sans-Serif" font-size="12.00" fill="#000000">protocol</text>
<text text-anchor="start" x="501.876" y="-80.4" font-family="Helvetica,sans-Serif" font-size="12.00" fill="#000000">Field</text>
</g>
<!-- NormedSpace -->
<g id="node10" class="node">
<title>NormedSpace</title>
<polygon fill="none" stroke="#000000" points="737.3809,-324 651.3809,-324 651.3809,-288 737.3809,-288 737.3809,-324"/>
<polyline fill="none" stroke="#000000" points="651.3809,-289 737.3809,-289 "/>
<text text-anchor="start" x="673.0352" y="-308.4" font-family="Helvetica,sans-Serif" font-size="12.00" fill="#000000">protocol</text>
<text text-anchor="start" x="656.0283" y="-296.4" font-family="Helvetica,sans-Serif" font-size="12.00" fill="#000000">NormedSpace</text>
</g>
<!-- Pair&lt;T: AbelianGroup&gt; -->
<g id="node11" class="node">
<title>Pair&lt;T: AbelianGroup&gt;</title>
<polygon fill="none" stroke="#000000" points="464.6311,-396 328.1306,-396 328.1306,-360 464.6311,-360 464.6311,-396"/>
<text text-anchor="middle" x="396.3809" y="-374.4" font-family="Helvetica,sans-Serif" font-size="12.00" fill="#000000">Pair&lt;T: AbelianGroup&gt;</text>
</g>
<!-- Pair&lt;T: AbelianGroup&gt;&#45;&gt;AbelianGroup -->
<g id="edge17" class="edge">
<title>Pair&lt;T: AbelianGroup&gt;&#45;&gt;AbelianGroup</title>
<path fill="none" stroke="#000000" stroke-dasharray="5,2" d="M464.8184,-378C473.4564,-378 482.0944,-378 490.7325,-378"/>
<polygon fill="none" stroke="#000000" points="490.8728,-381.5001 500.8728,-378 490.8728,-374.5001 490.8728,-381.5001"/>
</g>
<!-- Pair&lt;T: Group&gt; -->
<g id="node12" class="node">
<title>Pair&lt;T: Group&gt;</title>
<polygon fill="none" stroke="#000000" points="314.2566,-468 216.5051,-468 216.5051,-432 314.2566,-432 314.2566,-468"/>
<text text-anchor="middle" x="265.3809" y="-446.4" font-family="Helvetica,sans-Serif" font-size="12.00" fill="#000000">Pair&lt;T: Group&gt;</text>
</g>
<!-- Pair&lt;T: AbelianGroup&gt;&#45;&gt;Pair&lt;T: Group&gt; -->
<g id="edge1" class="edge">
<title>Pair&lt;T: AbelianGroup&gt;&#45;&gt;Pair&lt;T: Group&gt;</title>
<path fill="none" stroke="#000000" d="M363.324,-396.1686C346.4132,-405.4632 325.6423,-416.8792 307.5867,-426.8029"/>
<polygon fill="none" stroke="#000000" points="305.5049,-423.9532 298.4271,-431.8372 308.8765,-430.0878 305.5049,-423.9532"/>
</g>
<!-- Pair&lt;T: CommutativeMonoid&gt; -->
<g id="node13" class="node">
<title>Pair&lt;T: CommutativeMonoid&gt;</title>
<polygon fill="none" stroke="#000000" points="615.4492,-468 441.3125,-468 441.3125,-432 615.4492,-432 615.4492,-468"/>
<text text-anchor="middle" x="528.3809" y="-446.4" font-family="Helvetica,sans-Serif" font-size="12.00" fill="#000000">Pair&lt;T: CommutativeMonoid&gt;</text>
</g>
<!-- Pair&lt;T: AbelianGroup&gt;&#45;&gt;Pair&lt;T: CommutativeMonoid&gt; -->
<g id="edge2" class="edge">
<title>Pair&lt;T: AbelianGroup&gt;&#45;&gt;Pair&lt;T: CommutativeMonoid&gt;</title>
<path fill="none" stroke="#000000" d="M429.69,-396.1686C446.8081,-405.5058 467.8515,-416.984 486.103,-426.9394"/>
<polygon fill="none" stroke="#000000" points="484.6274,-430.1212 495.0823,-431.8372 487.9794,-423.976 484.6274,-430.1212"/>
</g>
<!-- Pair&lt;T: Group&gt;&#45;&gt;Group -->
<g id="edge16" class="edge">
<title>Pair&lt;T: Group&gt;&#45;&gt;Group</title>
<path fill="none" stroke="#000000" stroke-dasharray="5,2" d="M314.3809,-450C322.7788,-450 331.1768,-450 339.5747,-450"/>
<polygon fill="none" stroke="#000000" points="339.8184,-453.5001 349.8184,-450 339.8183,-446.5001 339.8184,-453.5001"/>
</g>
<!-- Pair&lt;T: Monoid&gt; -->
<g id="node14" class="node">
<title>Pair&lt;T: Monoid&gt;</title>
<polygon fill="none" stroke="#000000" points="448.2624,-540 344.4993,-540 344.4993,-504 448.2624,-504 448.2624,-540"/>
<text text-anchor="middle" x="396.3809" y="-518.4" font-family="Helvetica,sans-Serif" font-size="12.00" fill="#000000">Pair&lt;T: Monoid&gt;</text>
</g>
<!-- Pair&lt;T: Group&gt;&#45;&gt;Pair&lt;T: Monoid&gt; -->
<g id="edge3" class="edge">
<title>Pair&lt;T: Group&gt;&#45;&gt;Pair&lt;T: Monoid&gt;</title>
<path fill="none" stroke="#000000" d="M298.4377,-468.1686C315.3485,-477.4632 336.1194,-488.8792 354.175,-498.8029"/>
<polygon fill="none" stroke="#000000" points="352.8852,-502.0878 363.3346,-503.8372 356.2569,-495.9532 352.8852,-502.0878"/>
</g>
<!-- Pair&lt;T: CommutativeMonoid&gt;&#45;&gt;CommutativeMonoid -->
<g id="edge15" class="edge">
<title>Pair&lt;T: CommutativeMonoid&gt;&#45;&gt;CommutativeMonoid</title>
<path fill="none" stroke="#000000" stroke-dasharray="5,2" d="M615.5918,-450C624.0156,-450 632.4395,-450 640.8633,-450"/>
<polygon fill="none" stroke="#000000" points="641.1386,-453.5001 651.1385,-450 641.1385,-446.5001 641.1386,-453.5001"/>
</g>
<!-- Pair&lt;T: CommutativeMonoid&gt;&#45;&gt;Pair&lt;T: Monoid&gt; -->
<g id="edge4" class="edge">
<title>Pair&lt;T: CommutativeMonoid&gt;&#45;&gt;Pair&lt;T: Monoid&gt;</title>
<path fill="none" stroke="#000000" d="M495.0717,-468.1686C477.9536,-477.5058 456.9103,-488.984 438.6587,-498.9394"/>
<polygon fill="none" stroke="#000000" points="436.7823,-495.976 429.6794,-503.8372 440.1343,-502.1212 436.7823,-495.976"/>
</g>
<!-- Pair&lt;T: Monoid&gt;&#45;&gt;Monoid -->
<g id="edge14" class="edge">
<title>Pair&lt;T: Monoid&gt;&#45;&gt;Monoid</title>
<path fill="none" stroke="#000000" stroke-dasharray="5,2" d="M448.4902,-522C456.8736,-522 465.257,-522 473.6403,-522"/>
<polygon fill="none" stroke="#000000" points="473.8662,-525.5001 483.8662,-522 473.8662,-518.5001 473.8662,-525.5001"/>
</g>
<!-- Pair&lt;T: TriviallyInvolutiveRing&gt; -->
<g id="node15" class="node">
<title>Pair&lt;T: TriviallyInvolutiveRing&gt;</title>
<polygon fill="none" stroke="#000000" points="493.2934,-252 313.4683,-252 313.4683,-216 493.2934,-216 493.2934,-252"/>
<text text-anchor="middle" x="403.3809" y="-230.4" font-family="Helvetica,sans-Serif" font-size="12.00" fill="#000000">Pair&lt;T: TriviallyInvolutiveRing&gt;</text>
</g>
<!-- Pair&lt;T: TriviallyInvolutiveRing&gt;&#45;&gt;Commutative -->
<g id="edge21" class="edge">
<title>Pair&lt;T: TriviallyInvolutiveRing&gt;&#45;&gt;Commutative</title>
<path fill="none" stroke="#000000" stroke-dasharray="5,2" d="M493.1895,-234C501.8174,-234 510.4454,-234 519.0733,-234"/>
<polygon fill="none" stroke="#000000" points="519.2018,-237.5001 529.2018,-234 519.2018,-230.5001 519.2018,-237.5001"/>
</g>
<!-- Pair&lt;T: InvolutiveRing&gt; -->
<g id="node16" class="node">
<title>Pair&lt;T: InvolutiveRing&gt;</title>
<polygon fill="none" stroke="#000000" points="318.2799,-324 178.4819,-324 178.4819,-288 318.2799,-288 318.2799,-324"/>
<text text-anchor="middle" x="248.3809" y="-302.4" font-family="Helvetica,sans-Serif" font-size="12.00" fill="#000000">Pair&lt;T: InvolutiveRing&gt;</text>
</g>
<!-- Pair&lt;T: TriviallyInvolutiveRing&gt;&#45;&gt;Pair&lt;T: InvolutiveRing&gt; -->
<g id="edge5" class="edge">
<title>Pair&lt;T: TriviallyInvolutiveRing&gt;&#45;&gt;Pair&lt;T: InvolutiveRing&gt;</title>
<path fill="none" stroke="#000000" d="M364.2678,-252.1686C343.6296,-261.7554 318.1325,-273.5992 296.3135,-283.7345"/>
<polygon fill="none" stroke="#000000" points="294.8074,-280.5749 287.2126,-287.962 297.7565,-286.9234 294.8074,-280.5749"/>
</g>
<!-- Pair&lt;T: InvolutiveRing&gt;&#45;&gt;InvolutiveRing -->
<g id="edge18" class="edge">
<title>Pair&lt;T: InvolutiveRing&gt;&#45;&gt;InvolutiveRing</title>
<path fill="none" stroke="#000000" stroke-dasharray="5,2" d="M318.334,-306C326.7148,-306 335.0955,-306 343.4763,-306"/>
<polygon fill="none" stroke="#000000" points="343.699,-309.5001 353.699,-306 343.6989,-302.5001 343.699,-309.5001"/>
</g>
<!-- Pair&lt;T: InvolutiveRing&gt;&#45;&gt;Pair&lt;T: AbelianGroup&gt; -->
<g id="edge6" class="edge">
<title>Pair&lt;T: InvolutiveRing&gt;&#45;&gt;Pair&lt;T: AbelianGroup&gt;</title>
<path fill="none" stroke="#000000" d="M285.7275,-324.1686C305.2577,-333.6698 329.3449,-345.3879 350.054,-355.4626"/>
<polygon fill="none" stroke="#000000" points="348.7793,-358.7346 359.3028,-359.962 351.8416,-352.44 348.7793,-358.7346"/>
</g>
<!-- Pair&lt;T: NormedSpace&gt; -->
<g id="node17" class="node">
<title>Pair&lt;T: NormedSpace&gt;</title>
<polygon fill="none" stroke="#000000" points="615.6096,-324 475.1521,-324 475.1521,-288 615.6096,-288 615.6096,-324"/>
<text text-anchor="middle" x="545.3809" y="-302.4" font-family="Helvetica,sans-Serif" font-size="12.00" fill="#000000">Pair&lt;T: NormedSpace&gt;</text>
</g>
<!-- Pair&lt;T: NormedSpace&gt;&#45;&gt;NormedSpace -->
<g id="edge23" class="edge">
<title>Pair&lt;T: NormedSpace&gt;&#45;&gt;NormedSpace</title>
<path fill="none" stroke="#000000" stroke-dasharray="5,2" d="M615.8066,-306C624.1713,-306 632.536,-306 640.9006,-306"/>
<polygon fill="none" stroke="#000000" points="641.1037,-309.5001 651.1037,-306 641.1036,-302.5001 641.1037,-309.5001"/>
</g>
<!-- Pair&lt;T: NormedSpace&gt;&#45;&gt;Pair&lt;T: AbelianGroup&gt; -->
<g id="edge7" class="edge">
<title>Pair&lt;T: NormedSpace&gt;&#45;&gt;Pair&lt;T: AbelianGroup&gt;</title>
<path fill="none" stroke="#000000" d="M507.7819,-324.1686C488.0311,-333.7126 463.6512,-345.4935 442.7392,-355.5987"/>
<polygon fill="none" stroke="#000000" points="441.1905,-352.4597 433.7095,-359.962 444.2362,-358.7624 441.1905,-352.4597"/>
</g>
<!-- Quaternion -->
<g id="node18" class="node">
<title>Quaternion</title>
<polygon fill="none" stroke="#000000" points="148.2548,-108 72.5069,-108 72.5069,-72 148.2548,-72 148.2548,-108"/>
<text text-anchor="middle" x="110.3809" y="-86.4" font-family="Helvetica,sans-Serif" font-size="12.00" fill="#000000">Quaternion</text>
</g>
<!-- Pair&lt;T: DivisionRing &amp; InvolutiveRing&gt; -->
<g id="node19" class="node">
<title>Pair&lt;T: DivisionRing &amp; InvolutiveRing&gt;</title>
<polygon fill="none" stroke="#000000" points="220.6427,-180 .119,-180 .119,-144 220.6427,-144 220.6427,-180"/>
<text text-anchor="middle" x="110.3809" y="-158.4" font-family="Helvetica,sans-Serif" font-size="12.00" fill="#000000">Pair&lt;T: DivisionRing &amp; InvolutiveRing&gt;</text>
</g>
<!-- Quaternion&#45;&gt;Pair&lt;T: DivisionRing &amp; InvolutiveRing&gt; -->
<g id="edge8" class="edge">
<title>Quaternion&#45;&gt;Pair&lt;T: DivisionRing &amp; InvolutiveRing&gt;</title>
<path fill="none" stroke="#000000" d="M110.3809,-108.1686C110.3809,-115.869 110.3809,-125.0257 110.3809,-133.5834"/>
<polygon fill="none" stroke="#000000" points="106.881,-133.5867 110.3809,-143.5867 113.881,-133.5868 106.881,-133.5867"/>
</g>
<!-- Pair&lt;T: DivisionRing &amp; InvolutiveRing&gt;&#45;&gt;DivisionRing -->
<g id="edge20" class="edge">
<title>Pair&lt;T: DivisionRing &amp; InvolutiveRing&gt;&#45;&gt;DivisionRing</title>
<path fill="none" stroke="#000000" stroke-dasharray="5,2" d="M220.709,-162C229.0973,-162 237.4857,-162 245.8741,-162"/>
<polygon fill="none" stroke="#000000" points="246.1061,-165.5001 256.106,-162 246.106,-158.5001 246.1061,-165.5001"/>
</g>
<!-- Pair&lt;T: InvolutiveRing &amp; Unital&gt; -->
<g id="node20" class="node">
<title>Pair&lt;T: InvolutiveRing &amp; Unital&gt;</title>
<polygon fill="none" stroke="#000000" points="186.631,-252 2.1307,-252 2.1307,-216 186.631,-216 186.631,-252"/>
<text text-anchor="middle" x="94.3809" y="-230.4" font-family="Helvetica,sans-Serif" font-size="12.00" fill="#000000">Pair&lt;T: InvolutiveRing &amp; Unital&gt;</text>
</g>
<!-- Pair&lt;T: DivisionRing &amp; InvolutiveRing&gt;&#45;&gt;Pair&lt;T: InvolutiveRing &amp; Unital&gt; -->
<g id="edge9" class="edge">
<title>Pair&lt;T: DivisionRing &amp; InvolutiveRing&gt;&#45;&gt;Pair&lt;T: InvolutiveRing &amp; Unital&gt;</title>
<path fill="none" stroke="#000000" d="M106.3434,-180.1686C104.6322,-187.869 102.5974,-197.0257 100.6957,-205.5834"/>
<polygon fill="none" stroke="#000000" points="97.2254,-205.0656 98.4727,-215.5867 104.0587,-206.5841 97.2254,-205.0656"/>
</g>
<!-- Pair&lt;T: InvolutiveRing &amp; Unital&gt;&#45;&gt;Unital -->
<g id="edge19" class="edge">
<title>Pair&lt;T: InvolutiveRing &amp; Unital&gt;&#45;&gt;Unital</title>
<path fill="none" stroke="#000000" stroke-dasharray="5,2" d="M186.7012,-234C195.283,-234 203.8648,-234 212.4467,-234"/>
<polygon fill="none" stroke="#000000" points="212.521,-237.5001 222.521,-234 212.521,-230.5001 212.521,-237.5001"/>
</g>
<!-- Pair&lt;T: InvolutiveRing &amp; Unital&gt;&#45;&gt;Pair&lt;T: InvolutiveRing&gt; -->
<g id="edge10" class="edge">
<title>Pair&lt;T: InvolutiveRing &amp; Unital&gt;&#45;&gt;Pair&lt;T: InvolutiveRing&gt;</title>
<path fill="none" stroke="#000000" d="M133.2416,-252.1686C153.6551,-261.7126 178.8531,-273.4935 200.4669,-283.5987"/>
<polygon fill="none" stroke="#000000" points="199.2584,-286.8973 209.7996,-287.962 202.2231,-280.5561 199.2584,-286.8973"/>
</g>
<!-- Complex -->
<g id="node21" class="node">
<title>Complex</title>
<polygon fill="none" stroke="#000000" points="372.2314,-36 308.5303,-36 308.5303,0 372.2314,0 372.2314,-36"/>
<text text-anchor="middle" x="340.3809" y="-14.4" font-family="Helvetica,sans-Serif" font-size="12.00" fill="#000000">Complex</text>
</g>
<!-- Pair&lt;T: Field &amp; TriviallyInvolutiveRing&gt; -->
<g id="node22" class="node">
<title>Pair&lt;T: Field &amp; TriviallyInvolutiveRing&gt;</title>
<polygon fill="none" stroke="#000000" points="450.4746,-108 230.2871,-108 230.2871,-72 450.4746,-72 450.4746,-108"/>
<text text-anchor="middle" x="340.3809" y="-86.4" font-family="Helvetica,sans-Serif" font-size="12.00" fill="#000000">Pair&lt;T: Field &amp; TriviallyInvolutiveRing&gt;</text>
</g>
<!-- Complex&#45;&gt;Pair&lt;T: Field &amp; TriviallyInvolutiveRing&gt; -->
<g id="edge11" class="edge">
<title>Complex&#45;&gt;Pair&lt;T: Field &amp; TriviallyInvolutiveRing&gt;</title>
<path fill="none" stroke="#000000" d="M340.3809,-36.1686C340.3809,-43.869 340.3809,-53.0257 340.3809,-61.5834"/>
<polygon fill="none" stroke="#000000" points="336.881,-61.5867 340.3809,-71.5867 343.881,-61.5868 336.881,-61.5867"/>
</g>
<!-- Pair&lt;T: Field &amp; TriviallyInvolutiveRing&gt;&#45;&gt;Field -->
<g id="edge22" class="edge">
<title>Pair&lt;T: Field &amp; TriviallyInvolutiveRing&gt;&#45;&gt;Field</title>
<path fill="none" stroke="#000000" stroke-dasharray="5,2" d="M450.4902,-90C459.1005,-90 467.7108,-90 476.321,-90"/>
<polygon fill="none" stroke="#000000" points="476.4287,-93.5001 486.4287,-90 476.4287,-86.5001 476.4287,-93.5001"/>
</g>
<!-- Pair&lt;T: Field &amp; TriviallyInvolutiveRing&gt;&#45;&gt;Pair&lt;T: TriviallyInvolutiveRing&gt; -->
<g id="edge12" class="edge">
<title>Pair&lt;T: Field &amp; TriviallyInvolutiveRing&gt;&#45;&gt;Pair&lt;T: TriviallyInvolutiveRing&gt;</title>
<path fill="none" stroke="#000000" d="M348.3599,-108.2377C359.2001,-133.0154 378.6746,-177.5286 391.3085,-206.4061"/>
<polygon fill="none" stroke="#000000" points="388.2519,-208.1517 395.4667,-215.9104 394.665,-205.3459 388.2519,-208.1517"/>
</g>
<!-- Pair&lt;T: Field &amp; TriviallyInvolutiveRing&gt;&#45;&gt;Pair&lt;T: DivisionRing &amp; InvolutiveRing&gt; -->
<g id="edge13" class="edge">
<title>Pair&lt;T: Field &amp; TriviallyInvolutiveRing&gt;&#45;&gt;Pair&lt;T: DivisionRing &amp; InvolutiveRing&gt;</title>
<path fill="none" stroke="#000000" d="M282.639,-108.0757C250.7866,-118.0469 211.0659,-130.4812 177.7964,-140.896"/>
<polygon fill="none" stroke="#000000" points="176.6441,-137.5891 168.1465,-143.9169 178.7354,-144.2695 176.6441,-137.5891"/>
</g>
</g>
</svg>
