<?xml version="1.0" encoding="UTF-8" standalone="no"?>
<!DOCTYPE svg PUBLIC "-//W3C//DTD SVG 1.1//EN"
 "http://www.w3.org/Graphics/SVG/1.1/DTD/svg11.dtd">
<!-- Generated by graphviz version 2.40.1 (20161225.0304)
 -->
<!-- Title: %3 Pages: 1 -->
<svg width="845pt" height="490pt"
 viewBox="0.00 0.00 844.50 490.00" xmlns="http://www.w3.org/2000/svg" xmlns:xlink="http://www.w3.org/1999/xlink">
<g id="graph0" class="graph" transform="scale(1 1) rotate(0) translate(4 486)">
<title>%3</title>
<polygon fill="#ffffff" stroke="transparent" points="-4,4 -4,-486 840.5,-486 840.5,4 -4,4"/>
<!-- Monoid -->
<g id="node1" class="node">
<title>Monoid</title>
<polygon fill="none" stroke="#000000" points="700.5,-449 645.5,-449 645.5,-413 700.5,-413 700.5,-449"/>
<polyline fill="none" stroke="#000000" points="646,-414 701,-414 "/>
<text text-anchor="start" x="652.1543" y="-433.4" font-family="Helvetica,sans-Serif" font-size="12.00" fill="#000000">protocol</text>
<text text-anchor="start" x="653.8213" y="-421.4" font-family="Helvetica,sans-Serif" font-size="12.00" fill="#000000">Monoid</text>
</g>
<!-- Group -->
<g id="node2" class="node">
<title>Group</title>
<polygon fill="none" stroke="#000000" points="836.5,-344 781.5,-344 781.5,-308 836.5,-308 836.5,-344"/>
<polyline fill="none" stroke="#000000" points="782,-309 837,-309 "/>
<text text-anchor="start" x="788.1543" y="-328.4" font-family="Helvetica,sans-Serif" font-size="12.00" fill="#000000">protocol</text>
<text text-anchor="start" x="792.8242" y="-316.4" font-family="Helvetica,sans-Serif" font-size="12.00" fill="#000000">Group</text>
</g>
<!-- CommutativeMonoid -->
<g id="node3" class="node">
<title>CommutativeMonoid</title>
<polygon fill="none" stroke="#000000" points="524,-344 404,-344 404,-308 524,-308 524,-344"/>
<polyline fill="none" stroke="#000000" points="404,-309 524,-309 "/>
<text text-anchor="start" x="442.6543" y="-328.4" font-family="Helvetica,sans-Serif" font-size="12.00" fill="#000000">protocol</text>
<text text-anchor="start" x="408.9775" y="-316.4" font-family="Helvetica,sans-Serif" font-size="12.00" fill="#000000">CommutativeMonoid</text>
</g>
<!-- AbelianGroup -->
<g id="node4" class="node">
<title>AbelianGroup</title>
<polygon fill="none" stroke="#000000" points="809.5,-272 726.5,-272 726.5,-236 809.5,-236 809.5,-272"/>
<polyline fill="none" stroke="#000000" points="727,-237 810,-237 "/>
<text text-anchor="start" x="747.1543" y="-256.4" font-family="Helvetica,sans-Serif" font-size="12.00" fill="#000000">protocol</text>
<text text-anchor="start" x="731.8086" y="-244.4" font-family="Helvetica,sans-Serif" font-size="12.00" fill="#000000">AbelianGroup</text>
</g>
<!-- Semiring -->
<g id="node5" class="node">
<title>Semiring</title>
<polygon fill="none" stroke="#000000" points="429.5,-272 372.5,-272 372.5,-236 429.5,-236 429.5,-272"/>
<polyline fill="none" stroke="#000000" points="373,-237 430,-237 "/>
<text text-anchor="start" x="380.1543" y="-256.4" font-family="Helvetica,sans-Serif" font-size="12.00" fill="#000000">protocol</text>
<text text-anchor="start" x="377.8252" y="-244.4" font-family="Helvetica,sans-Serif" font-size="12.00" fill="#000000">Semiring</text>
</g>
<!-- Ring -->
<g id="node6" class="node">
<title>Ring</title>
<polygon fill="none" stroke="#000000" points="740.5,-200 685.5,-200 685.5,-164 740.5,-164 740.5,-200"/>
<polyline fill="none" stroke="#000000" points="686,-165 741,-165 "/>
<text text-anchor="start" x="692.1543" y="-184.4" font-family="Helvetica,sans-Serif" font-size="12.00" fill="#000000">protocol</text>
<text text-anchor="start" x="701.1602" y="-172.4" font-family="Helvetica,sans-Serif" font-size="12.00" fill="#000000">Ring</text>
</g>
<!-- Unital -->
<g id="node7" class="node">
<title>Unital</title>
<polygon fill="none" stroke="#000000" points="436.5,-200 381.5,-200 381.5,-164 436.5,-164 436.5,-200"/>
<polyline fill="none" stroke="#000000" points="382,-165 437,-165 "/>
<text text-anchor="start" x="388.1543" y="-184.4" font-family="Helvetica,sans-Serif" font-size="12.00" fill="#000000">protocol</text>
<text text-anchor="start" x="394.1602" y="-172.4" font-family="Helvetica,sans-Serif" font-size="12.00" fill="#000000">Unital</text>
</g>
<!-- IntegralDomain -->
<g id="node8" class="node">
<title>IntegralDomain</title>
<polygon fill="none" stroke="#000000" points="728.5,-123 637.5,-123 637.5,-87 728.5,-87 728.5,-123"/>
<polyline fill="none" stroke="#000000" points="638,-88 729,-88 "/>
<text text-anchor="start" x="662.1543" y="-107.4" font-family="Helvetica,sans-Serif" font-size="12.00" fill="#000000">protocol</text>
<text text-anchor="start" x="642.8125" y="-95.4" font-family="Helvetica,sans-Serif" font-size="12.00" fill="#000000">IntegralDomain</text>
</g>
<!-- EuclideanDomain -->
<g id="node9" class="node">
<title>EuclideanDomain</title>
<polygon fill="none" stroke="#000000" points="522,-41 418,-41 418,-5 522,-5 522,-41"/>
<polyline fill="none" stroke="#000000" points="418,-6 522,-6 "/>
<text text-anchor="start" x="448.6543" y="-25.4" font-family="Helvetica,sans-Serif" font-size="12.00" fill="#000000">protocol</text>
<text text-anchor="start" x="422.9727" y="-13.4" font-family="Helvetica,sans-Serif" font-size="12.00" fill="#000000">EuclideanDomain</text>
</g>
<!-- Commutative -->
<g id="node10" class="node">
<title>Commutative</title>
<polygon fill="none" stroke="#000000" points="332,-123 252,-123 252,-87 332,-87 332,-123"/>
<polyline fill="none" stroke="#000000" points="252,-88 332,-88 "/>
<text text-anchor="start" x="270.6543" y="-107.4" font-family="Helvetica,sans-Serif" font-size="12.00" fill="#000000">protocol</text>
<text text-anchor="start" x="256.6563" y="-95.4" font-family="Helvetica,sans-Serif" font-size="12.00" fill="#000000">Commutative</text>
</g>
<!-- Polynomial&lt;Coefficient: Monoid&gt; -->
<g id="node11" class="node">
<title>Polynomial&lt;Coefficient: Monoid&gt;</title>
<polygon fill="none" stroke="#000000" points="609,-482 281,-482 281,-380 609,-380 609,-482"/>
<polyline fill="none" stroke="#000000" points="281,-460 609,-460 "/>
<text text-anchor="start" x="357.2852" y="-467.4" font-family="Helvetica,sans-Serif" font-size="12.00" fill="#000000">Polynomial&lt;Coefficient: Monoid&gt;</text>
<polyline fill="none" stroke="#000000" points="281,-438 609,-438 "/>
<text text-anchor="start" x="286" y="-445.4" font-family="Helvetica,sans-Serif" font-size="12.00" fill="#000000">degree: Int</text>
<polyline fill="none" stroke="#000000" points="281,-380 609,-380 "/>
<text text-anchor="start" x="286" y="-424.4" font-family="Helvetica,sans-Serif" font-size="12.00" fill="#000000">init([Coefficient])</text>
<text text-anchor="start" x="286" y="-412.4" font-family="Helvetica,sans-Serif" font-size="12.00" fill="#000000">derivative() → Polynomial</text>
<text text-anchor="start" x="286" y="-400.4" font-family="Helvetica,sans-Serif" font-size="12.00" fill="#000000">subscript(Int) → Coefficient</text>
<text text-anchor="start" x="286" y="-388.4" font-family="Helvetica,sans-Serif" text-decoration="underline" font-size="12.00" fill="#000000">monomial(coefficient: Coefficient, degree: Int) → Polynomial</text>
</g>
<!-- Polynomial&lt;Coefficient: Monoid&gt;&#45;&gt;Monoid -->
<g id="edge14" class="edge">
<title>Polynomial&lt;Coefficient: Monoid&gt;&#45;&gt;Monoid</title>
<path fill="none" stroke="#000000" stroke-dasharray="5,2" d="M609.3203,-431C617.9021,-431 626.484,-431 635.0658,-431"/>
<polygon fill="none" stroke="#000000" points="635.1402,-434.5001 645.1401,-431 635.1401,-427.5001 635.1402,-434.5001"/>
</g>
<!-- Polynomial&lt;Coefficient: Commutative&gt; -->
<g id="node12" class="node">
<title>Polynomial&lt;Coefficient: Commutative&gt;</title>
<polygon fill="none" stroke="#000000" points="216,-128 0,-128 0,-82 216,-82 216,-128"/>
<polyline fill="none" stroke="#000000" points="0,-106 216,-106 "/>
<text text-anchor="start" x="4.6201" y="-113.4" font-family="Helvetica,sans-Serif" font-size="12.00" fill="#000000">Polynomial&lt;Coefficient: Commutative&gt;</text>
<polyline fill="none" stroke="#000000" points="0,-82 216,-82 "/>
<text text-anchor="start" x="5" y="-91.4" font-family="Helvetica,sans-Serif" font-size="12.00" fill="#000000">value(Coefficient) → Coefficient</text>
</g>
<!-- Polynomial&lt;Coefficient: Commutative&gt;&#45;&gt;Commutative -->
<g id="edge21" class="edge">
<title>Polynomial&lt;Coefficient: Commutative&gt;&#45;&gt;Commutative</title>
<path fill="none" stroke="#000000" stroke-dasharray="5,2" d="M216.1719,-105C224.5952,-105 233.0185,-105 241.4417,-105"/>
<polygon fill="none" stroke="#000000" points="241.7163,-108.5001 251.7163,-105 241.7163,-101.5001 241.7163,-108.5001"/>
</g>
<!-- Polynomial&lt;Coefficient: Semiring&gt; -->
<g id="node17" class="node">
<title>Polynomial&lt;Coefficient: Semiring&gt;</title>
<polygon fill="none" stroke="#000000" points="336.9223,-272 137.0777,-272 137.0777,-236 336.9223,-236 336.9223,-272"/>
<text text-anchor="middle" x="237" y="-250.4" font-family="Helvetica,sans-Serif" font-size="12.00" fill="#000000">Polynomial&lt;Coefficient: Semiring&gt;</text>
</g>
<!-- Polynomial&lt;Coefficient: Commutative&gt;&#45;&gt;Polynomial&lt;Coefficient: Semiring&gt; -->
<g id="edge8" class="edge">
<title>Polynomial&lt;Coefficient: Commutative&gt;&#45;&gt;Polynomial&lt;Coefficient: Semiring&gt;</title>
<path fill="none" stroke="#000000" d="M112.5212,-128.3454C117.5228,-149.0887 127.3213,-179.2528 145,-200 155.7431,-212.6078 170.2088,-222.9972 184.4848,-231.1793"/>
<polygon fill="none" stroke="#000000" points="182.8581,-234.2788 193.3141,-235.9888 186.2066,-228.1316 182.8581,-234.2788"/>
</g>
<!-- Polynomial&lt;Coefficient: Field&gt; -->
<g id="node13" class="node">
<title>Polynomial&lt;Coefficient: Field&gt;</title>
<polygon fill="none" stroke="#000000" points="382,-46 210,-46 210,0 382,0 382,-46"/>
<polyline fill="none" stroke="#000000" points="210,-24 382,-24 "/>
<text text-anchor="start" x="214.959" y="-31.4" font-family="Helvetica,sans-Serif" font-size="12.00" fill="#000000">Polynomial&lt;Coefficient: Field&gt;</text>
<polyline fill="none" stroke="#000000" points="210,0 382,0 "/>
<text text-anchor="start" x="215" y="-9.4" font-family="Helvetica,sans-Serif" font-size="12.00" fill="#000000">monic() → Polynomial</text>
</g>
<!-- Polynomial&lt;Coefficient: Field&gt;&#45;&gt;EuclideanDomain -->
<g id="edge23" class="edge">
<title>Polynomial&lt;Coefficient: Field&gt;&#45;&gt;EuclideanDomain</title>
<path fill="none" stroke="#000000" stroke-dasharray="5,2" d="M382.3203,-23C390.8542,-23 399.3882,-23 407.9221,-23"/>
<polygon fill="none" stroke="#000000" points="407.9402,-26.5001 417.9402,-23 407.9402,-19.5001 407.9402,-26.5001"/>
</g>
<!-- Polynomial&lt;Coefficient: Field&gt;&#45;&gt;Polynomial&lt;Coefficient: Commutative&gt; -->
<g id="edge12" class="edge">
<title>Polynomial&lt;Coefficient: Field&gt;&#45;&gt;Polynomial&lt;Coefficient: Commutative&gt;</title>
<path fill="none" stroke="#000000" d="M243.1312,-46.0598C220.4082,-55.9709 193.6908,-67.6242 170.0381,-77.9408"/>
<polygon fill="none" stroke="#000000" points="168.5641,-74.7652 160.7974,-81.9714 171.3627,-81.1815 168.5641,-74.7652"/>
</g>
<!-- Polynomial&lt;Coefficient: IntegralDomain&gt; -->
<g id="node20" class="node">
<title>Polynomial&lt;Coefficient: IntegralDomain&gt;</title>
<polygon fill="none" stroke="#000000" points="601.9477,-123 368.0523,-123 368.0523,-87 601.9477,-87 601.9477,-123"/>
<text text-anchor="middle" x="485" y="-101.4" font-family="Helvetica,sans-Serif" font-size="12.00" fill="#000000">Polynomial&lt;Coefficient: IntegralDomain&gt;</text>
</g>
<!-- Polynomial&lt;Coefficient: Field&gt;&#45;&gt;Polynomial&lt;Coefficient: IntegralDomain&gt; -->
<g id="edge13" class="edge">
<title>Polynomial&lt;Coefficient: Field&gt;&#45;&gt;Polynomial&lt;Coefficient: IntegralDomain&gt;</title>
<path fill="none" stroke="#000000" d="M349.15,-46.0598C375.6967,-57.5774 407.6664,-71.4479 433.9218,-82.8391"/>
<polygon fill="none" stroke="#000000" points="432.7488,-86.1454 443.3157,-86.9147 435.535,-79.7237 432.7488,-86.1454"/>
</g>
<!-- Polynomial&lt;Coefficient: AbelianGroup&gt; -->
<g id="node14" class="node">
<title>Polynomial&lt;Coefficient: AbelianGroup&gt;</title>
<polygon fill="none" stroke="#000000" points="690.2989,-272 465.7011,-272 465.7011,-236 690.2989,-236 690.2989,-272"/>
<text text-anchor="middle" x="578" y="-250.4" font-family="Helvetica,sans-Serif" font-size="12.00" fill="#000000">Polynomial&lt;Coefficient: AbelianGroup&gt;</text>
</g>
<!-- Polynomial&lt;Coefficient: AbelianGroup&gt;&#45;&gt;AbelianGroup -->
<g id="edge17" class="edge">
<title>Polynomial&lt;Coefficient: AbelianGroup&gt;&#45;&gt;AbelianGroup</title>
<path fill="none" stroke="#000000" stroke-dasharray="5,2" d="M690.4414,-254C699.079,-254 707.7166,-254 716.3542,-254"/>
<polygon fill="none" stroke="#000000" points="716.4941,-257.5001 726.494,-254 716.494,-250.5001 716.4941,-257.5001"/>
</g>
<!-- Polynomial&lt;Coefficient: Group&gt; -->
<g id="node15" class="node">
<title>Polynomial&lt;Coefficient: Group&gt;</title>
<polygon fill="none" stroke="#000000" points="745.9243,-344 560.0757,-344 560.0757,-308 745.9243,-308 745.9243,-344"/>
<text text-anchor="middle" x="653" y="-322.4" font-family="Helvetica,sans-Serif" font-size="12.00" fill="#000000">Polynomial&lt;Coefficient: Group&gt;</text>
</g>
<!-- Polynomial&lt;Coefficient: AbelianGroup&gt;&#45;&gt;Polynomial&lt;Coefficient: Group&gt; -->
<g id="edge1" class="edge">
<title>Polynomial&lt;Coefficient: AbelianGroup&gt;&#45;&gt;Polynomial&lt;Coefficient: Group&gt;</title>
<path fill="none" stroke="#000000" d="M596.9257,-272.1686C605.9857,-280.8663 616.9809,-291.4217 626.8265,-300.8735"/>
<polygon fill="none" stroke="#000000" points="624.4426,-303.4367 634.0804,-307.8372 629.2904,-298.387 624.4426,-303.4367"/>
</g>
<!-- Polynomial&lt;Coefficient: CommutativeMonoid&gt; -->
<g id="node16" class="node">
<title>Polynomial&lt;Coefficient: CommutativeMonoid&gt;</title>
<polygon fill="none" stroke="#000000" points="368.1172,-344 105.8828,-344 105.8828,-308 368.1172,-308 368.1172,-344"/>
<text text-anchor="middle" x="237" y="-322.4" font-family="Helvetica,sans-Serif" font-size="12.00" fill="#000000">Polynomial&lt;Coefficient: CommutativeMonoid&gt;</text>
</g>
<!-- Polynomial&lt;Coefficient: AbelianGroup&gt;&#45;&gt;Polynomial&lt;Coefficient: CommutativeMonoid&gt; -->
<g id="edge2" class="edge">
<title>Polynomial&lt;Coefficient: AbelianGroup&gt;&#45;&gt;Polynomial&lt;Coefficient: CommutativeMonoid&gt;</title>
<path fill="none" stroke="#000000" d="M492.3915,-272.0757C443.6555,-282.366 382.4955,-295.2795 332.2456,-305.8895"/>
<polygon fill="none" stroke="#000000" points="331.4091,-302.4889 322.348,-307.9793 332.8553,-309.3378 331.4091,-302.4889"/>
</g>
<!-- Polynomial&lt;Coefficient: Group&gt;&#45;&gt;Group -->
<g id="edge15" class="edge">
<title>Polynomial&lt;Coefficient: Group&gt;&#45;&gt;Group</title>
<path fill="none" stroke="#000000" stroke-dasharray="5,2" d="M745.9297,-326C754.337,-326 762.7443,-326 771.1517,-326"/>
<polygon fill="none" stroke="#000000" points="771.4068,-329.5001 781.4067,-326 771.4067,-322.5001 771.4068,-329.5001"/>
</g>
<!-- Polynomial&lt;Coefficient: Group&gt;&#45;&gt;Polynomial&lt;Coefficient: Monoid&gt; -->
<g id="edge3" class="edge">
<title>Polynomial&lt;Coefficient: Group&gt;&#45;&gt;Polynomial&lt;Coefficient: Monoid&gt;</title>
<path fill="none" stroke="#000000" d="M617.2435,-344.0501C599.8115,-352.85 577.7997,-363.9617 555.3907,-375.2739"/>
<polygon fill="none" stroke="#000000" points="553.8054,-372.1535 546.4556,-379.7844 556.9599,-378.4024 553.8054,-372.1535"/>
</g>
<!-- Polynomial&lt;Coefficient: CommutativeMonoid&gt;&#45;&gt;CommutativeMonoid -->
<g id="edge16" class="edge">
<title>Polynomial&lt;Coefficient: CommutativeMonoid&gt;&#45;&gt;CommutativeMonoid</title>
<path fill="none" stroke="#000000" stroke-dasharray="5,2" d="M368.2344,-326C376.6561,-326 385.0779,-326 393.4997,-326"/>
<polygon fill="none" stroke="#000000" points="393.7724,-329.5001 403.7724,-326 393.7724,-322.5001 393.7724,-329.5001"/>
</g>
<!-- Polynomial&lt;Coefficient: CommutativeMonoid&gt;&#45;&gt;Polynomial&lt;Coefficient: Monoid&gt; -->
<g id="edge4" class="edge">
<title>Polynomial&lt;Coefficient: CommutativeMonoid&gt;&#45;&gt;Polynomial&lt;Coefficient: Monoid&gt;</title>
<path fill="none" stroke="#000000" d="M272.7565,-344.0501C290.1885,-352.85 312.2003,-363.9617 334.6093,-375.2739"/>
<polygon fill="none" stroke="#000000" points="333.0401,-378.4024 343.5444,-379.7844 336.1946,-372.1535 333.0401,-378.4024"/>
</g>
<!-- Polynomial&lt;Coefficient: Semiring&gt;&#45;&gt;Semiring -->
<g id="edge18" class="edge">
<title>Polynomial&lt;Coefficient: Semiring&gt;&#45;&gt;Semiring</title>
<path fill="none" stroke="#000000" stroke-dasharray="5,2" d="M336.9375,-254C345.3585,-254 353.7795,-254 362.2004,-254"/>
<polygon fill="none" stroke="#000000" points="362.4722,-257.5001 372.4722,-254 362.4721,-250.5001 362.4722,-257.5001"/>
</g>
<!-- Polynomial&lt;Coefficient: Semiring&gt;&#45;&gt;Polynomial&lt;Coefficient: CommutativeMonoid&gt; -->
<g id="edge5" class="edge">
<title>Polynomial&lt;Coefficient: Semiring&gt;&#45;&gt;Polynomial&lt;Coefficient: CommutativeMonoid&gt;</title>
<path fill="none" stroke="#000000" d="M237,-272.1686C237,-279.869 237,-289.0257 237,-297.5834"/>
<polygon fill="none" stroke="#000000" points="233.5001,-297.5867 237,-307.5867 240.5001,-297.5868 233.5001,-297.5867"/>
</g>
<!-- Polynomial&lt;Coefficient: Ring&gt; -->
<g id="node18" class="node">
<title>Polynomial&lt;Coefficient: Ring&gt;</title>
<polygon fill="none" stroke="#000000" points="649.2521,-200 472.7479,-200 472.7479,-164 649.2521,-164 649.2521,-200"/>
<text text-anchor="middle" x="561" y="-178.4" font-family="Helvetica,sans-Serif" font-size="12.00" fill="#000000">Polynomial&lt;Coefficient: Ring&gt;</text>
</g>
<!-- Polynomial&lt;Coefficient: Ring&gt;&#45;&gt;Ring -->
<g id="edge19" class="edge">
<title>Polynomial&lt;Coefficient: Ring&gt;&#45;&gt;Ring</title>
<path fill="none" stroke="#000000" stroke-dasharray="5,2" d="M649.4688,-182C658.0306,-182 666.5924,-182 675.1542,-182"/>
<polygon fill="none" stroke="#000000" points="675.2051,-185.5001 685.2051,-182 675.205,-178.5001 675.2051,-185.5001"/>
</g>
<!-- Polynomial&lt;Coefficient: Ring&gt;&#45;&gt;Polynomial&lt;Coefficient: AbelianGroup&gt; -->
<g id="edge6" class="edge">
<title>Polynomial&lt;Coefficient: Ring&gt;&#45;&gt;Polynomial&lt;Coefficient: AbelianGroup&gt;</title>
<path fill="none" stroke="#000000" d="M565.2898,-200.1686C567.108,-207.869 569.2699,-217.0257 571.2905,-225.5834"/>
<polygon fill="none" stroke="#000000" points="567.9481,-226.6586 573.6524,-235.5867 574.7608,-225.05 567.9481,-226.6586"/>
</g>
<!-- Polynomial&lt;Coefficient: Ring&gt;&#45;&gt;Polynomial&lt;Coefficient: Semiring&gt; -->
<g id="edge7" class="edge">
<title>Polynomial&lt;Coefficient: Ring&gt;&#45;&gt;Polynomial&lt;Coefficient: Semiring&gt;</title>
<path fill="none" stroke="#000000" d="M479.6593,-200.0757C433.5459,-210.3231 375.7261,-223.172 328.0946,-233.7568"/>
<polygon fill="none" stroke="#000000" points="327.0957,-230.3933 318.0931,-235.9793 328.6142,-237.2266 327.0957,-230.3933"/>
</g>
<!-- Polynomial&lt;Coefficient: Unital&gt; -->
<g id="node19" class="node">
<title>Polynomial&lt;Coefficient: Unital&gt;</title>
<polygon fill="none" stroke="#000000" points="345.2521,-200 162.7479,-200 162.7479,-164 345.2521,-164 345.2521,-200"/>
<text text-anchor="middle" x="254" y="-178.4" font-family="Helvetica,sans-Serif" font-size="12.00" fill="#000000">Polynomial&lt;Coefficient: Unital&gt;</text>
</g>
<!-- Polynomial&lt;Coefficient: Unital&gt;&#45;&gt;Unital -->
<g id="edge20" class="edge">
<title>Polynomial&lt;Coefficient: Unital&gt;&#45;&gt;Unital</title>
<path fill="none" stroke="#000000" stroke-dasharray="5,2" d="M345.4258,-182C353.9934,-182 362.561,-182 371.1286,-182"/>
<polygon fill="none" stroke="#000000" points="371.1863,-185.5001 381.1863,-182 371.1862,-178.5001 371.1863,-185.5001"/>
</g>
<!-- Polynomial&lt;Coefficient: Unital&gt;&#45;&gt;Polynomial&lt;Coefficient: Semiring&gt; -->
<g id="edge9" class="edge">
<title>Polynomial&lt;Coefficient: Unital&gt;&#45;&gt;Polynomial&lt;Coefficient: Semiring&gt;</title>
<path fill="none" stroke="#000000" d="M249.7102,-200.1686C247.892,-207.869 245.7301,-217.0257 243.7095,-225.5834"/>
<polygon fill="none" stroke="#000000" points="240.2392,-225.05 241.3476,-235.5867 247.0519,-226.6586 240.2392,-225.05"/>
</g>
<!-- Polynomial&lt;Coefficient: IntegralDomain&gt;&#45;&gt;IntegralDomain -->
<g id="edge22" class="edge">
<title>Polynomial&lt;Coefficient: IntegralDomain&gt;&#45;&gt;IntegralDomain</title>
<path fill="none" stroke="#000000" stroke-dasharray="5,2" d="M601.7891,-105C610.2089,-105 618.6287,-105 627.0485,-105"/>
<polygon fill="none" stroke="#000000" points="627.3189,-108.5001 637.3188,-105 627.3188,-101.5001 627.3189,-108.5001"/>
</g>
<!-- Polynomial&lt;Coefficient: IntegralDomain&gt;&#45;&gt;Polynomial&lt;Coefficient: Ring&gt; -->
<g id="edge10" class="edge">
<title>Polynomial&lt;Coefficient: IntegralDomain&gt;&#45;&gt;Polynomial&lt;Coefficient: Ring&gt;</title>
<path fill="none" stroke="#000000" d="M503.0109,-123.2479C512.8544,-133.2209 525.1995,-145.7284 535.9665,-156.6371"/>
<polygon fill="none" stroke="#000000" points="533.6026,-159.2246 543.1183,-163.8831 538.5846,-154.3072 533.6026,-159.2246"/>
</g>
<!-- Polynomial&lt;Coefficient: IntegralDomain&gt;&#45;&gt;Polynomial&lt;Coefficient: Unital&gt; -->
<g id="edge11" class="edge">
<title>Polynomial&lt;Coefficient: IntegralDomain&gt;&#45;&gt;Polynomial&lt;Coefficient: Unital&gt;</title>
<path fill="none" stroke="#000000" d="M430.8408,-123.0531C397.0765,-134.3078 353.4598,-148.8467 317.9923,-160.6692"/>
<polygon fill="none" stroke="#000000" points="316.5997,-157.444 308.2197,-163.9268 318.8133,-164.0848 316.5997,-157.444"/>
</g>
</g>
</svg>
