<?xml version="1.0" encoding="UTF-8" standalone="no"?>
<!DOCTYPE svg PUBLIC "-//W3C//DTD SVG 1.1//EN"
 "http://www.w3.org/Graphics/SVG/1.1/DTD/svg11.dtd">
<!-- Generated by graphviz version 2.40.1 (20161225.0304)
 -->
<!-- Title: %3 Pages: 1 -->
<svg width="848pt" height="404pt"
 viewBox="0.00 0.00 847.88 404.00" xmlns="http://www.w3.org/2000/svg" xmlns:xlink="http://www.w3.org/1999/xlink">
<g id="graph0" class="graph" transform="scale(1 1) rotate(0) translate(4 400)">
<title>%3</title>
<polygon fill="#ffffff" stroke="transparent" points="-4,4 -4,-400 843.8799,-400 843.8799,4 -4,4"/>
<!-- Monoid -->
<g id="node1" class="node">
<title>Monoid</title>
<polygon fill="none" stroke="#000000" points="634.8799,-396 579.8799,-396 579.8799,-360 634.8799,-360 634.8799,-396"/>
<polyline fill="none" stroke="#000000" points="580.3799,-361 635.3799,-361 "/>
<text text-anchor="start" x="586.5342" y="-380.4" font-family="Helvetica,sans-Serif" font-size="12.00" fill="#000000">protocol</text>
<text text-anchor="start" x="588.2012" y="-368.4" font-family="Helvetica,sans-Serif" font-size="12.00" fill="#000000">Monoid</text>
</g>
<!-- Group -->
<g id="node2" class="node">
<title>Group</title>
<polygon fill="none" stroke="#000000" points="839.8799,-324 784.8799,-324 784.8799,-288 839.8799,-288 839.8799,-324"/>
<polyline fill="none" stroke="#000000" points="785.3799,-289 840.3799,-289 "/>
<text text-anchor="start" x="791.5342" y="-308.4" font-family="Helvetica,sans-Serif" font-size="12.00" fill="#000000">protocol</text>
<text text-anchor="start" x="796.2041" y="-296.4" font-family="Helvetica,sans-Serif" font-size="12.00" fill="#000000">Group</text>
</g>
<!-- CommutativeMonoid -->
<g id="node3" class="node">
<title>CommutativeMonoid</title>
<polygon fill="none" stroke="#000000" points="527.3799,-324 407.3799,-324 407.3799,-288 527.3799,-288 527.3799,-324"/>
<polyline fill="none" stroke="#000000" points="407.3799,-289 527.3799,-289 "/>
<text text-anchor="start" x="446.0342" y="-308.4" font-family="Helvetica,sans-Serif" font-size="12.00" fill="#000000">protocol</text>
<text text-anchor="start" x="412.3574" y="-296.4" font-family="Helvetica,sans-Serif" font-size="12.00" fill="#000000">CommutativeMonoid</text>
</g>
<!-- AbelianGroup -->
<g id="node4" class="node">
<title>AbelianGroup</title>
<polygon fill="none" stroke="#000000" points="812.8799,-252 729.8799,-252 729.8799,-216 812.8799,-216 812.8799,-252"/>
<polyline fill="none" stroke="#000000" points="730.3799,-217 813.3799,-217 "/>
<text text-anchor="start" x="750.5342" y="-236.4" font-family="Helvetica,sans-Serif" font-size="12.00" fill="#000000">protocol</text>
<text text-anchor="start" x="735.1885" y="-224.4" font-family="Helvetica,sans-Serif" font-size="12.00" fill="#000000">AbelianGroup</text>
</g>
<!-- Semiring -->
<g id="node5" class="node">
<title>Semiring</title>
<polygon fill="none" stroke="#000000" points="432.8799,-252 375.8799,-252 375.8799,-216 432.8799,-216 432.8799,-252"/>
<polyline fill="none" stroke="#000000" points="376.3799,-217 433.3799,-217 "/>
<text text-anchor="start" x="383.5342" y="-236.4" font-family="Helvetica,sans-Serif" font-size="12.00" fill="#000000">protocol</text>
<text text-anchor="start" x="381.2051" y="-224.4" font-family="Helvetica,sans-Serif" font-size="12.00" fill="#000000">Semiring</text>
</g>
<!-- Ring -->
<g id="node6" class="node">
<title>Ring</title>
<polygon fill="none" stroke="#000000" points="743.8799,-180 688.8799,-180 688.8799,-144 743.8799,-144 743.8799,-180"/>
<polyline fill="none" stroke="#000000" points="689.3799,-145 744.3799,-145 "/>
<text text-anchor="start" x="695.5342" y="-164.4" font-family="Helvetica,sans-Serif" font-size="12.00" fill="#000000">protocol</text>
<text text-anchor="start" x="704.54" y="-152.4" font-family="Helvetica,sans-Serif" font-size="12.00" fill="#000000">Ring</text>
</g>
<!-- Unital -->
<g id="node7" class="node">
<title>Unital</title>
<polygon fill="none" stroke="#000000" points="439.8799,-180 384.8799,-180 384.8799,-144 439.8799,-144 439.8799,-180"/>
<polyline fill="none" stroke="#000000" points="385.3799,-145 440.3799,-145 "/>
<text text-anchor="start" x="391.5342" y="-164.4" font-family="Helvetica,sans-Serif" font-size="12.00" fill="#000000">protocol</text>
<text text-anchor="start" x="397.54" y="-152.4" font-family="Helvetica,sans-Serif" font-size="12.00" fill="#000000">Unital</text>
</g>
<!-- IntegralDomain -->
<g id="node8" class="node">
<title>IntegralDomain</title>
<polygon fill="none" stroke="#000000" points="734.8799,-108 643.8799,-108 643.8799,-72 734.8799,-72 734.8799,-108"/>
<polyline fill="none" stroke="#000000" points="644.3799,-73 735.3799,-73 "/>
<text text-anchor="start" x="668.5342" y="-92.4" font-family="Helvetica,sans-Serif" font-size="12.00" fill="#000000">protocol</text>
<text text-anchor="start" x="649.1924" y="-80.4" font-family="Helvetica,sans-Serif" font-size="12.00" fill="#000000">IntegralDomain</text>
</g>
<!-- EuclideanDomain -->
<g id="node9" class="node">
<title>EuclideanDomain</title>
<polygon fill="none" stroke="#000000" points="530.3799,-36 426.3799,-36 426.3799,0 530.3799,0 530.3799,-36"/>
<polyline fill="none" stroke="#000000" points="426.3799,-1 530.3799,-1 "/>
<text text-anchor="start" x="457.0342" y="-20.4" font-family="Helvetica,sans-Serif" font-size="12.00" fill="#000000">protocol</text>
<text text-anchor="start" x="431.3525" y="-8.4" font-family="Helvetica,sans-Serif" font-size="12.00" fill="#000000">EuclideanDomain</text>
</g>
<!-- Commutative -->
<g id="node10" class="node">
<title>Commutative</title>
<polygon fill="none" stroke="#000000" points="338.3799,-108 258.3799,-108 258.3799,-72 338.3799,-72 338.3799,-108"/>
<polyline fill="none" stroke="#000000" points="258.3799,-73 338.3799,-73 "/>
<text text-anchor="start" x="277.0342" y="-92.4" font-family="Helvetica,sans-Serif" font-size="12.00" fill="#000000">protocol</text>
<text text-anchor="start" x="263.0361" y="-80.4" font-family="Helvetica,sans-Serif" font-size="12.00" fill="#000000">Commutative</text>
</g>
<!-- Polynomial&lt;Coefficient: AbelianGroup&gt; -->
<g id="node11" class="node">
<title>Polynomial&lt;Coefficient: AbelianGroup&gt;</title>
<polygon fill="none" stroke="#000000" points="693.6788,-252 469.081,-252 469.081,-216 693.6788,-216 693.6788,-252"/>
<text text-anchor="middle" x="581.3799" y="-230.4" font-family="Helvetica,sans-Serif" font-size="12.00" fill="#000000">Polynomial&lt;Coefficient: AbelianGroup&gt;</text>
</g>
<!-- Polynomial&lt;Coefficient: AbelianGroup&gt;&#45;&gt;AbelianGroup -->
<g id="edge17" class="edge">
<title>Polynomial&lt;Coefficient: AbelianGroup&gt;&#45;&gt;AbelianGroup</title>
<path fill="none" stroke="#000000" stroke-dasharray="5,2" d="M693.8213,-234C702.4589,-234 711.0965,-234 719.7341,-234"/>
<polygon fill="none" stroke="#000000" points="719.874,-237.5001 729.8739,-234 719.8739,-230.5001 719.874,-237.5001"/>
</g>
<!-- Polynomial&lt;Coefficient: Group&gt; -->
<g id="node12" class="node">
<title>Polynomial&lt;Coefficient: Group&gt;</title>
<polygon fill="none" stroke="#000000" points="749.3042,-324 563.4556,-324 563.4556,-288 749.3042,-288 749.3042,-324"/>
<text text-anchor="middle" x="656.3799" y="-302.4" font-family="Helvetica,sans-Serif" font-size="12.00" fill="#000000">Polynomial&lt;Coefficient: Group&gt;</text>
</g>
<!-- Polynomial&lt;Coefficient: AbelianGroup&gt;&#45;&gt;Polynomial&lt;Coefficient: Group&gt; -->
<g id="edge1" class="edge">
<title>Polynomial&lt;Coefficient: AbelianGroup&gt;&#45;&gt;Polynomial&lt;Coefficient: Group&gt;</title>
<path fill="none" stroke="#000000" d="M600.3055,-252.1686C609.3656,-260.8663 620.3608,-271.4217 630.2064,-280.8735"/>
<polygon fill="none" stroke="#000000" points="627.8225,-283.4367 637.4603,-287.8372 632.6702,-278.387 627.8225,-283.4367"/>
</g>
<!-- Polynomial&lt;Coefficient: CommutativeMonoid&gt; -->
<g id="node13" class="node">
<title>Polynomial&lt;Coefficient: CommutativeMonoid&gt;</title>
<polygon fill="none" stroke="#000000" points="371.4971,-324 109.2627,-324 109.2627,-288 371.4971,-288 371.4971,-324"/>
<text text-anchor="middle" x="240.3799" y="-302.4" font-family="Helvetica,sans-Serif" font-size="12.00" fill="#000000">Polynomial&lt;Coefficient: CommutativeMonoid&gt;</text>
</g>
<!-- Polynomial&lt;Coefficient: AbelianGroup&gt;&#45;&gt;Polynomial&lt;Coefficient: CommutativeMonoid&gt; -->
<g id="edge2" class="edge">
<title>Polynomial&lt;Coefficient: AbelianGroup&gt;&#45;&gt;Polynomial&lt;Coefficient: CommutativeMonoid&gt;</title>
<path fill="none" stroke="#000000" d="M495.7713,-252.0757C447.0354,-262.366 385.8754,-275.2795 335.6255,-285.8895"/>
<polygon fill="none" stroke="#000000" points="334.789,-282.4889 325.7278,-287.9793 336.2352,-289.3378 334.789,-282.4889"/>
</g>
<!-- Polynomial&lt;Coefficient: Group&gt;&#45;&gt;Group -->
<g id="edge15" class="edge">
<title>Polynomial&lt;Coefficient: Group&gt;&#45;&gt;Group</title>
<path fill="none" stroke="#000000" stroke-dasharray="5,2" d="M749.3096,-306C757.7169,-306 766.1242,-306 774.5315,-306"/>
<polygon fill="none" stroke="#000000" points="774.7867,-309.5001 784.7866,-306 774.7866,-302.5001 774.7867,-309.5001"/>
</g>
<!-- Polynomial&lt;Coefficient: Monoid&gt; -->
<g id="node14" class="node">
<title>Polynomial&lt;Coefficient: Monoid&gt;</title>
<polygon fill="none" stroke="#000000" points="544.3101,-396 352.4497,-396 352.4497,-360 544.3101,-360 544.3101,-396"/>
<text text-anchor="middle" x="448.3799" y="-374.4" font-family="Helvetica,sans-Serif" font-size="12.00" fill="#000000">Polynomial&lt;Coefficient: Monoid&gt;</text>
</g>
<!-- Polynomial&lt;Coefficient: Group&gt;&#45;&gt;Polynomial&lt;Coefficient: Monoid&gt; -->
<g id="edge3" class="edge">
<title>Polynomial&lt;Coefficient: Group&gt;&#45;&gt;Polynomial&lt;Coefficient: Monoid&gt;</title>
<path fill="none" stroke="#000000" d="M604.1612,-324.0757C575.6027,-333.9613 540.0504,-346.2679 510.1231,-356.6274"/>
<polygon fill="none" stroke="#000000" points="508.925,-353.3382 500.6201,-359.9169 511.2148,-359.9531 508.925,-353.3382"/>
</g>
<!-- Polynomial&lt;Coefficient: CommutativeMonoid&gt;&#45;&gt;CommutativeMonoid -->
<g id="edge16" class="edge">
<title>Polynomial&lt;Coefficient: CommutativeMonoid&gt;&#45;&gt;CommutativeMonoid</title>
<path fill="none" stroke="#000000" stroke-dasharray="5,2" d="M371.6143,-306C380.036,-306 388.4578,-306 396.8796,-306"/>
<polygon fill="none" stroke="#000000" points="397.1523,-309.5001 407.1523,-306 397.1522,-302.5001 397.1523,-309.5001"/>
</g>
<!-- Polynomial&lt;Coefficient: CommutativeMonoid&gt;&#45;&gt;Polynomial&lt;Coefficient: Monoid&gt; -->
<g id="edge4" class="edge">
<title>Polynomial&lt;Coefficient: CommutativeMonoid&gt;&#45;&gt;Polynomial&lt;Coefficient: Monoid&gt;</title>
<path fill="none" stroke="#000000" d="M292.5986,-324.0757C321.157,-333.9613 356.7094,-346.2679 386.6367,-356.6274"/>
<polygon fill="none" stroke="#000000" points="385.5449,-359.9531 396.1397,-359.9169 387.8347,-353.3382 385.5449,-359.9531"/>
</g>
<!-- Polynomial&lt;Coefficient: Monoid&gt;&#45;&gt;Monoid -->
<g id="edge14" class="edge">
<title>Polynomial&lt;Coefficient: Monoid&gt;&#45;&gt;Monoid</title>
<path fill="none" stroke="#000000" stroke-dasharray="5,2" d="M544.3389,-378C552.7423,-378 561.1457,-378 569.5491,-378"/>
<polygon fill="none" stroke="#000000" points="569.7995,-381.5001 579.7994,-378 569.7994,-374.5001 569.7995,-381.5001"/>
</g>
<!-- Polynomial&lt;Coefficient: Semiring&gt; -->
<g id="node15" class="node">
<title>Polynomial&lt;Coefficient: Semiring&gt;</title>
<polygon fill="none" stroke="#000000" points="340.3022,-252 140.4576,-252 140.4576,-216 340.3022,-216 340.3022,-252"/>
<text text-anchor="middle" x="240.3799" y="-230.4" font-family="Helvetica,sans-Serif" font-size="12.00" fill="#000000">Polynomial&lt;Coefficient: Semiring&gt;</text>
</g>
<!-- Polynomial&lt;Coefficient: Semiring&gt;&#45;&gt;Semiring -->
<g id="edge18" class="edge">
<title>Polynomial&lt;Coefficient: Semiring&gt;&#45;&gt;Semiring</title>
<path fill="none" stroke="#000000" stroke-dasharray="5,2" d="M340.3174,-234C348.7384,-234 357.1593,-234 365.5803,-234"/>
<polygon fill="none" stroke="#000000" points="365.8521,-237.5001 375.8521,-234 365.852,-230.5001 365.8521,-237.5001"/>
</g>
<!-- Polynomial&lt;Coefficient: Semiring&gt;&#45;&gt;Polynomial&lt;Coefficient: CommutativeMonoid&gt; -->
<g id="edge5" class="edge">
<title>Polynomial&lt;Coefficient: Semiring&gt;&#45;&gt;Polynomial&lt;Coefficient: CommutativeMonoid&gt;</title>
<path fill="none" stroke="#000000" d="M240.3799,-252.1686C240.3799,-259.869 240.3799,-269.0257 240.3799,-277.5834"/>
<polygon fill="none" stroke="#000000" points="236.88,-277.5867 240.3799,-287.5867 243.88,-277.5868 236.88,-277.5867"/>
</g>
<!-- Polynomial&lt;Coefficient: Ring&gt; -->
<g id="node16" class="node">
<title>Polynomial&lt;Coefficient: Ring&gt;</title>
<polygon fill="none" stroke="#000000" points="652.632,-180 476.1278,-180 476.1278,-144 652.632,-144 652.632,-180"/>
<text text-anchor="middle" x="564.3799" y="-158.4" font-family="Helvetica,sans-Serif" font-size="12.00" fill="#000000">Polynomial&lt;Coefficient: Ring&gt;</text>
</g>
<!-- Polynomial&lt;Coefficient: Ring&gt;&#45;&gt;Ring -->
<g id="edge19" class="edge">
<title>Polynomial&lt;Coefficient: Ring&gt;&#45;&gt;Ring</title>
<path fill="none" stroke="#000000" stroke-dasharray="5,2" d="M652.8486,-162C661.4105,-162 669.9723,-162 678.5341,-162"/>
<polygon fill="none" stroke="#000000" points="678.585,-165.5001 688.585,-162 678.5849,-158.5001 678.585,-165.5001"/>
</g>
<!-- Polynomial&lt;Coefficient: Ring&gt;&#45;&gt;Polynomial&lt;Coefficient: AbelianGroup&gt; -->
<g id="edge6" class="edge">
<title>Polynomial&lt;Coefficient: Ring&gt;&#45;&gt;Polynomial&lt;Coefficient: AbelianGroup&gt;</title>
<path fill="none" stroke="#000000" d="M568.6697,-180.1686C570.4879,-187.869 572.6498,-197.0257 574.6704,-205.5834"/>
<polygon fill="none" stroke="#000000" points="571.328,-206.6586 577.0323,-215.5867 578.1406,-205.05 571.328,-206.6586"/>
</g>
<!-- Polynomial&lt;Coefficient: Ring&gt;&#45;&gt;Polynomial&lt;Coefficient: Semiring&gt; -->
<g id="edge7" class="edge">
<title>Polynomial&lt;Coefficient: Ring&gt;&#45;&gt;Polynomial&lt;Coefficient: Semiring&gt;</title>
<path fill="none" stroke="#000000" d="M483.0392,-180.0757C436.9258,-190.3231 379.106,-203.172 331.4745,-213.7568"/>
<polygon fill="none" stroke="#000000" points="330.4755,-210.3933 321.473,-215.9793 331.9941,-217.2266 330.4755,-210.3933"/>
</g>
<!-- Polynomial&lt;Coefficient: Unital&gt; -->
<g id="node17" class="node">
<title>Polynomial&lt;Coefficient: Unital&gt;</title>
<polygon fill="none" stroke="#000000" points="348.632,-180 166.1278,-180 166.1278,-144 348.632,-144 348.632,-180"/>
<text text-anchor="middle" x="257.3799" y="-158.4" font-family="Helvetica,sans-Serif" font-size="12.00" fill="#000000">Polynomial&lt;Coefficient: Unital&gt;</text>
</g>
<!-- Polynomial&lt;Coefficient: Unital&gt;&#45;&gt;Unital -->
<g id="edge20" class="edge">
<title>Polynomial&lt;Coefficient: Unital&gt;&#45;&gt;Unital</title>
<path fill="none" stroke="#000000" stroke-dasharray="5,2" d="M348.8057,-162C357.3733,-162 365.9409,-162 374.5085,-162"/>
<polygon fill="none" stroke="#000000" points="374.5662,-165.5001 384.5662,-162 374.5661,-158.5001 374.5662,-165.5001"/>
</g>
<!-- Polynomial&lt;Coefficient: Unital&gt;&#45;&gt;Polynomial&lt;Coefficient: Semiring&gt; -->
<g id="edge8" class="edge">
<title>Polynomial&lt;Coefficient: Unital&gt;&#45;&gt;Polynomial&lt;Coefficient: Semiring&gt;</title>
<path fill="none" stroke="#000000" d="M253.0901,-180.1686C251.2719,-187.869 249.1099,-197.0257 247.0894,-205.5834"/>
<polygon fill="none" stroke="#000000" points="243.6191,-205.05 244.7275,-215.5867 250.4318,-206.6586 243.6191,-205.05"/>
</g>
<!-- Polynomial&lt;Coefficient: Commutative&gt; -->
<g id="node18" class="node">
<title>Polynomial&lt;Coefficient: Commutative&gt;</title>
<polygon fill="none" stroke="#000000" points="222.6398,-108 .12,-108 .12,-72 222.6398,-72 222.6398,-108"/>
<text text-anchor="middle" x="111.3799" y="-86.4" font-family="Helvetica,sans-Serif" font-size="12.00" fill="#000000">Polynomial&lt;Coefficient: Commutative&gt;</text>
</g>
<!-- Polynomial&lt;Coefficient: Commutative&gt;&#45;&gt;Commutative -->
<g id="edge21" class="edge">
<title>Polynomial&lt;Coefficient: Commutative&gt;&#45;&gt;Commutative</title>
<path fill="none" stroke="#000000" stroke-dasharray="5,2" d="M222.7764,-90C231.1747,-90 239.573,-90 247.9714,-90"/>
<polygon fill="none" stroke="#000000" points="248.2155,-93.5001 258.2155,-90 248.2155,-86.5001 248.2155,-93.5001"/>
</g>
<!-- Polynomial&lt;Coefficient: Commutative&gt;&#45;&gt;Polynomial&lt;Coefficient: Semiring&gt; -->
<g id="edge9" class="edge">
<title>Polynomial&lt;Coefficient: Commutative&gt;&#45;&gt;Polynomial&lt;Coefficient: Semiring&gt;</title>
<path fill="none" stroke="#000000" d="M115.1538,-108.0532C120.0162,-127.6487 130.1039,-158.9525 148.3799,-180 159.2401,-192.5071 173.741,-202.8661 188.0134,-211.0514"/>
<polygon fill="none" stroke="#000000" points="186.3813,-214.148 196.8358,-215.8668 189.735,-208.0036 186.3813,-214.148"/>
</g>
<!-- Polynomial&lt;Coefficient: IntegralDomain&gt; -->
<g id="node19" class="node">
<title>Polynomial&lt;Coefficient: IntegralDomain&gt;</title>
<polygon fill="none" stroke="#000000" points="608.3276,-108 374.4322,-108 374.4322,-72 608.3276,-72 608.3276,-108"/>
<text text-anchor="middle" x="491.3799" y="-86.4" font-family="Helvetica,sans-Serif" font-size="12.00" fill="#000000">Polynomial&lt;Coefficient: IntegralDomain&gt;</text>
</g>
<!-- Polynomial&lt;Coefficient: IntegralDomain&gt;&#45;&gt;IntegralDomain -->
<g id="edge22" class="edge">
<title>Polynomial&lt;Coefficient: IntegralDomain&gt;&#45;&gt;IntegralDomain</title>
<path fill="none" stroke="#000000" stroke-dasharray="5,2" d="M608.1689,-90C616.5888,-90 625.0086,-90 633.4284,-90"/>
<polygon fill="none" stroke="#000000" points="633.6988,-93.5001 643.6987,-90 633.6987,-86.5001 633.6988,-93.5001"/>
</g>
<!-- Polynomial&lt;Coefficient: IntegralDomain&gt;&#45;&gt;Polynomial&lt;Coefficient: Ring&gt; -->
<g id="edge10" class="edge">
<title>Polynomial&lt;Coefficient: IntegralDomain&gt;&#45;&gt;Polynomial&lt;Coefficient: Ring&gt;</title>
<path fill="none" stroke="#000000" d="M509.8009,-108.1686C518.5328,-116.781 529.1116,-127.2149 538.6222,-136.5952"/>
<polygon fill="none" stroke="#000000" points="536.3873,-139.3069 545.9648,-143.8372 541.3029,-134.3231 536.3873,-139.3069"/>
</g>
<!-- Polynomial&lt;Coefficient: IntegralDomain&gt;&#45;&gt;Polynomial&lt;Coefficient: Unital&gt; -->
<g id="edge11" class="edge">
<title>Polynomial&lt;Coefficient: IntegralDomain&gt;&#45;&gt;Polynomial&lt;Coefficient: Unital&gt;</title>
<path fill="none" stroke="#000000" d="M432.6338,-108.0757C400.2274,-118.0469 359.816,-130.4812 325.9679,-140.896"/>
<polygon fill="none" stroke="#000000" points="324.6786,-137.6307 316.1501,-143.9169 326.7372,-144.3212 324.6786,-137.6307"/>
</g>
<!-- Polynomial&lt;Coefficient: Field&gt; -->
<g id="node20" class="node">
<title>Polynomial&lt;Coefficient: Field&gt;</title>
<polygon fill="none" stroke="#000000" points="390.4619,-36 212.2978,-36 212.2978,0 390.4619,0 390.4619,-36"/>
<text text-anchor="middle" x="301.3799" y="-14.4" font-family="Helvetica,sans-Serif" font-size="12.00" fill="#000000">Polynomial&lt;Coefficient: Field&gt;</text>
</g>
<!-- Polynomial&lt;Coefficient: Field&gt;&#45;&gt;EuclideanDomain -->
<g id="edge23" class="edge">
<title>Polynomial&lt;Coefficient: Field&gt;&#45;&gt;EuclideanDomain</title>
<path fill="none" stroke="#000000" stroke-dasharray="5,2" d="M390.5713,-18C399.1178,-18 407.6642,-18 416.2107,-18"/>
<polygon fill="none" stroke="#000000" points="416.2436,-21.5001 426.2435,-18 416.2435,-14.5001 416.2436,-21.5001"/>
</g>
<!-- Polynomial&lt;Coefficient: Field&gt;&#45;&gt;Polynomial&lt;Coefficient: Commutative&gt; -->
<g id="edge12" class="edge">
<title>Polynomial&lt;Coefficient: Field&gt;&#45;&gt;Polynomial&lt;Coefficient: Commutative&gt;</title>
<path fill="none" stroke="#000000" d="M253.4349,-36.1686C227.5717,-45.9694 195.4836,-58.1291 168.3519,-68.4106"/>
<polygon fill="none" stroke="#000000" points="167.091,-65.1455 158.9801,-71.962 169.5715,-71.6913 167.091,-65.1455"/>
</g>
<!-- Polynomial&lt;Coefficient: Field&gt;&#45;&gt;Polynomial&lt;Coefficient: IntegralDomain&gt; -->
<g id="edge13" class="edge">
<title>Polynomial&lt;Coefficient: Field&gt;&#45;&gt;Polynomial&lt;Coefficient: IntegralDomain&gt;</title>
<path fill="none" stroke="#000000" d="M349.3249,-36.1686C375.188,-45.9694 407.2761,-58.1291 434.4078,-68.4106"/>
<polygon fill="none" stroke="#000000" points="433.1882,-71.6913 443.7796,-71.962 435.6688,-65.1455 433.1882,-71.6913"/>
</g>
</g>
</svg>
