<?xml version="1.0" encoding="UTF-8" standalone="no"?>
<!DOCTYPE svg PUBLIC "-//W3C//DTD SVG 1.1//EN"
 "http://www.w3.org/Graphics/SVG/1.1/DTD/svg11.dtd">
<!-- Generated by graphviz version 2.40.1 (20161225.0304)
 -->
<!-- Title: %3 Pages: 1 -->
<svg width="1182pt" height="476pt"
 viewBox="0.00 0.00 1182.41 476.00" xmlns="http://www.w3.org/2000/svg" xmlns:xlink="http://www.w3.org/1999/xlink">
<g id="graph0" class="graph" transform="scale(1 1) rotate(0) translate(4 472)">
<title>%3</title>
<polygon fill="#ffffff" stroke="transparent" points="-4,4 -4,-472 1178.4141,-472 1178.4141,4 -4,4"/>
<!-- Polynomial&lt;Coefficient: AbelianGroup&gt; -->
<g id="node1" class="node">
<title>Polynomial&lt;Coefficient: AbelianGroup&gt;</title>
<polygon fill="none" stroke="#000000" points="224.6983,-324 .1005,-324 .1005,-288 224.6983,-288 224.6983,-324"/>
<text text-anchor="middle" x="112.3994" y="-302.4" font-family="Helvetica,sans-Serif" font-size="12.00" fill="#000000">Polynomial&lt;Coefficient: AbelianGroup&gt;</text>
</g>
<!-- Polynomial&lt;Coefficient: Group&gt; -->
<g id="node2" class="node">
<title>Polynomial&lt;Coefficient: Group&gt;</title>
<polygon fill="none" stroke="#000000" points="205.3237,-396 19.4751,-396 19.4751,-360 205.3237,-360 205.3237,-396"/>
<text text-anchor="middle" x="112.3994" y="-374.4" font-family="Helvetica,sans-Serif" font-size="12.00" fill="#000000">Polynomial&lt;Coefficient: Group&gt;</text>
</g>
<!-- Polynomial&lt;Coefficient: AbelianGroup&gt;&#45;&gt;Polynomial&lt;Coefficient: Group&gt; -->
<g id="edge1" class="edge">
<title>Polynomial&lt;Coefficient: AbelianGroup&gt;&#45;&gt;Polynomial&lt;Coefficient: Group&gt;</title>
<path fill="none" stroke="#000000" d="M112.3994,-324.1686C112.3994,-331.869 112.3994,-341.0257 112.3994,-349.5834"/>
<polygon fill="none" stroke="#000000" points="108.8995,-349.5867 112.3994,-359.5867 115.8995,-349.5868 108.8995,-349.5867"/>
</g>
<!-- Polynomial&lt;Coefficient: CommutativeMonoid&gt; -->
<g id="node3" class="node">
<title>Polynomial&lt;Coefficient: CommutativeMonoid&gt;</title>
<polygon fill="none" stroke="#000000" points="503.5166,-396 241.2822,-396 241.2822,-360 503.5166,-360 503.5166,-396"/>
<text text-anchor="middle" x="372.3994" y="-374.4" font-family="Helvetica,sans-Serif" font-size="12.00" fill="#000000">Polynomial&lt;Coefficient: CommutativeMonoid&gt;</text>
</g>
<!-- Polynomial&lt;Coefficient: AbelianGroup&gt;&#45;&gt;Polynomial&lt;Coefficient: CommutativeMonoid&gt; -->
<g id="edge2" class="edge">
<title>Polynomial&lt;Coefficient: AbelianGroup&gt;&#45;&gt;Polynomial&lt;Coefficient: CommutativeMonoid&gt;</title>
<path fill="none" stroke="#000000" d="M177.6728,-324.0757C213.989,-334.1325 259.353,-346.6948 297.1573,-357.1637"/>
<polygon fill="none" stroke="#000000" points="296.5278,-360.6211 307.0992,-359.9169 298.396,-353.8749 296.5278,-360.6211"/>
</g>
<!-- AbelianGroup -->
<g id="node16" class="node">
<title>AbelianGroup</title>
<polygon fill="none" stroke="#000000" points="350.283,-324 260.5158,-324 260.5158,-288 350.283,-288 350.283,-324"/>
<text text-anchor="middle" x="305.3994" y="-302.4" font-family="Helvetica,sans-Serif" font-size="12.00" fill="#000000">AbelianGroup</text>
</g>
<!-- Polynomial&lt;Coefficient: AbelianGroup&gt;&#45;&gt;AbelianGroup -->
<g id="edge20" class="edge">
<title>Polynomial&lt;Coefficient: AbelianGroup&gt;&#45;&gt;AbelianGroup</title>
<path fill="none" stroke="#000000" stroke-dasharray="5,2" d="M224.7314,-306C233.3379,-306 241.9443,-306 250.5507,-306"/>
<polygon fill="none" stroke="#000000" points="250.6539,-309.5001 260.6539,-306 250.6539,-302.5001 250.6539,-309.5001"/>
</g>
<!-- Polynomial&lt;Coefficient: Monoid&gt; -->
<g id="node4" class="node">
<title>Polynomial&lt;Coefficient: Monoid&gt;</title>
<polygon fill="none" stroke="#000000" points="338.3296,-468 146.4692,-468 146.4692,-432 338.3296,-432 338.3296,-468"/>
<text text-anchor="middle" x="242.3994" y="-446.4" font-family="Helvetica,sans-Serif" font-size="12.00" fill="#000000">Polynomial&lt;Coefficient: Monoid&gt;</text>
</g>
<!-- Polynomial&lt;Coefficient: Group&gt;&#45;&gt;Polynomial&lt;Coefficient: Monoid&gt; -->
<g id="edge3" class="edge">
<title>Polynomial&lt;Coefficient: Group&gt;&#45;&gt;Polynomial&lt;Coefficient: Monoid&gt;</title>
<path fill="none" stroke="#000000" d="M145.2039,-396.1686C161.9857,-405.4632 182.598,-416.8792 200.5157,-426.8029"/>
<polygon fill="none" stroke="#000000" points="199.1617,-430.0539 209.6054,-431.8372 202.5533,-423.9304 199.1617,-430.0539"/>
</g>
<!-- Group -->
<g id="node14" class="node">
<title>Group</title>
<polygon fill="none" stroke="#000000" points="593.3994,-396 539.3994,-396 539.3994,-360 593.3994,-360 593.3994,-396"/>
<text text-anchor="middle" x="566.3994" y="-374.4" font-family="Helvetica,sans-Serif" font-size="12.00" fill="#000000">Group</text>
</g>
<!-- Polynomial&lt;Coefficient: Group&gt;&#45;&gt;Group -->
<g id="edge18" class="edge">
<title>Polynomial&lt;Coefficient: Group&gt;&#45;&gt;Group</title>
<path fill="none" stroke="#000000" stroke-dasharray="5,2" d="M164.4393,-359.9958C187.6818,-352.8649 215.5984,-345.5327 241.3994,-342 356.7675,-326.2039 390.8559,-312.1124 503.3994,-342 513.5353,-344.6917 523.7413,-349.4399 532.8999,-354.6223"/>
<polygon fill="none" stroke="#000000" points="531.2934,-357.7402 541.668,-359.8894 534.898,-351.7396 531.2934,-357.7402"/>
</g>
<!-- Polynomial&lt;Coefficient: CommutativeMonoid&gt;&#45;&gt;Polynomial&lt;Coefficient: Monoid&gt; -->
<g id="edge4" class="edge">
<title>Polynomial&lt;Coefficient: CommutativeMonoid&gt;&#45;&gt;Polynomial&lt;Coefficient: Monoid&gt;</title>
<path fill="none" stroke="#000000" d="M339.5949,-396.1686C322.8132,-405.4632 302.2009,-416.8792 284.2831,-426.8029"/>
<polygon fill="none" stroke="#000000" points="282.2456,-423.9304 275.1934,-431.8372 285.6371,-430.0539 282.2456,-423.9304"/>
</g>
<!-- CommutativeMonoid -->
<g id="node15" class="node">
<title>CommutativeMonoid</title>
<polygon fill="none" stroke="#000000" points="755.4443,-396 629.3545,-396 629.3545,-360 755.4443,-360 755.4443,-396"/>
<text text-anchor="middle" x="692.3994" y="-374.4" font-family="Helvetica,sans-Serif" font-size="12.00" fill="#000000">CommutativeMonoid</text>
</g>
<!-- Polynomial&lt;Coefficient: CommutativeMonoid&gt;&#45;&gt;CommutativeMonoid -->
<g id="edge19" class="edge">
<title>Polynomial&lt;Coefficient: CommutativeMonoid&gt;&#45;&gt;CommutativeMonoid</title>
<path fill="none" stroke="#000000" stroke-dasharray="5,2" d="M423.3736,-359.9272C468.2073,-346.3617 535.2074,-331.748 593.3994,-342 609.9557,-344.9168 627.3864,-350.3804 642.929,-356.1859"/>
<polygon fill="none" stroke="#000000" points="641.7485,-359.4819 652.3378,-359.8251 644.2737,-352.9532 641.7485,-359.4819"/>
</g>
<!-- Monoid -->
<g id="node13" class="node">
<title>Monoid</title>
<polygon fill="none" stroke="#000000" points="429.258,-468 373.5408,-468 373.5408,-432 429.258,-432 429.258,-468"/>
<text text-anchor="middle" x="401.3994" y="-446.4" font-family="Helvetica,sans-Serif" font-size="12.00" fill="#000000">Monoid</text>
</g>
<!-- Polynomial&lt;Coefficient: Monoid&gt;&#45;&gt;Monoid -->
<g id="edge17" class="edge">
<title>Polynomial&lt;Coefficient: Monoid&gt;&#45;&gt;Monoid</title>
<path fill="none" stroke="#000000" stroke-dasharray="5,2" d="M338.3584,-450C346.6451,-450 354.9318,-450 363.2185,-450"/>
<polygon fill="none" stroke="#000000" points="363.3265,-453.5001 373.3265,-450 363.3264,-446.5001 363.3265,-453.5001"/>
</g>
<!-- Polynomial&lt;Coefficient: Semiring&gt; -->
<g id="node5" class="node">
<title>Polynomial&lt;Coefficient: Semiring&gt;</title>
<polygon fill="none" stroke="#000000" points="585.3217,-324 385.4771,-324 385.4771,-288 585.3217,-288 585.3217,-324"/>
<text text-anchor="middle" x="485.3994" y="-302.4" font-family="Helvetica,sans-Serif" font-size="12.00" fill="#000000">Polynomial&lt;Coefficient: Semiring&gt;</text>
</g>
<!-- Polynomial&lt;Coefficient: Semiring&gt;&#45;&gt;Polynomial&lt;Coefficient: CommutativeMonoid&gt; -->
<g id="edge5" class="edge">
<title>Polynomial&lt;Coefficient: Semiring&gt;&#45;&gt;Polynomial&lt;Coefficient: CommutativeMonoid&gt;</title>
<path fill="none" stroke="#000000" d="M456.8847,-324.1686C442.5652,-333.2926 425.0371,-344.461 409.6656,-354.2551"/>
<polygon fill="none" stroke="#000000" points="407.4577,-351.5118 400.905,-359.8372 411.2193,-357.4153 407.4577,-351.5118"/>
</g>
<!-- Semiring -->
<g id="node17" class="node">
<title>Semiring</title>
<polygon fill="none" stroke="#000000" points="684.25,-324 620.5488,-324 620.5488,-288 684.25,-288 684.25,-324"/>
<text text-anchor="middle" x="652.3994" y="-302.4" font-family="Helvetica,sans-Serif" font-size="12.00" fill="#000000">Semiring</text>
</g>
<!-- Polynomial&lt;Coefficient: Semiring&gt;&#45;&gt;Semiring -->
<g id="edge21" class="edge">
<title>Polynomial&lt;Coefficient: Semiring&gt;&#45;&gt;Semiring</title>
<path fill="none" stroke="#000000" stroke-dasharray="5,2" d="M585.208,-306C593.6049,-306 602.0018,-306 610.3986,-306"/>
<polygon fill="none" stroke="#000000" points="610.641,-309.5001 620.641,-306 610.6409,-302.5001 610.641,-309.5001"/>
</g>
<!-- Polynomial&lt;Coefficient: Ring&gt; -->
<g id="node6" class="node">
<title>Polynomial&lt;Coefficient: Ring&gt;</title>
<polygon fill="none" stroke="#000000" points="212.6515,-252 36.1473,-252 36.1473,-216 212.6515,-216 212.6515,-252"/>
<text text-anchor="middle" x="124.3994" y="-230.4" font-family="Helvetica,sans-Serif" font-size="12.00" fill="#000000">Polynomial&lt;Coefficient: Ring&gt;</text>
</g>
<!-- Polynomial&lt;Coefficient: Ring&gt;&#45;&gt;Polynomial&lt;Coefficient: AbelianGroup&gt; -->
<g id="edge6" class="edge">
<title>Polynomial&lt;Coefficient: Ring&gt;&#45;&gt;Polynomial&lt;Coefficient: AbelianGroup&gt;</title>
<path fill="none" stroke="#000000" d="M121.3713,-252.1686C120.0879,-259.869 118.5618,-269.0257 117.1355,-277.5834"/>
<polygon fill="none" stroke="#000000" points="113.66,-277.1474 115.4683,-287.5867 120.5647,-278.2982 113.66,-277.1474"/>
</g>
<!-- Polynomial&lt;Coefficient: Ring&gt;&#45;&gt;Polynomial&lt;Coefficient: Semiring&gt; -->
<g id="edge7" class="edge">
<title>Polynomial&lt;Coefficient: Ring&gt;&#45;&gt;Polynomial&lt;Coefficient: Semiring&gt;</title>
<path fill="none" stroke="#000000" d="M212.7099,-251.6132C264.7842,-261.9992 330.8522,-275.1762 384.9139,-285.9586"/>
<polygon fill="none" stroke="#000000" points="384.3711,-289.4192 394.8626,-287.9428 385.7403,-282.5544 384.3711,-289.4192"/>
</g>
<!-- Ring -->
<g id="node18" class="node">
<title>Ring</title>
<polygon fill="none" stroke="#000000" points="302.3994,-252 248.3994,-252 248.3994,-216 302.3994,-216 302.3994,-252"/>
<text text-anchor="middle" x="275.3994" y="-230.4" font-family="Helvetica,sans-Serif" font-size="12.00" fill="#000000">Ring</text>
</g>
<!-- Polynomial&lt;Coefficient: Ring&gt;&#45;&gt;Ring -->
<g id="edge22" class="edge">
<title>Polynomial&lt;Coefficient: Ring&gt;&#45;&gt;Ring</title>
<path fill="none" stroke="#000000" stroke-dasharray="5,2" d="M212.876,-234C221.2104,-234 229.5448,-234 237.8792,-234"/>
<polygon fill="none" stroke="#000000" points="238.0454,-237.5001 248.0454,-234 238.0454,-230.5001 238.0454,-237.5001"/>
</g>
<!-- Polynomial&lt;Coefficient: UnitalSemiring&gt; -->
<g id="node7" class="node">
<title>Polynomial&lt;Coefficient: UnitalSemiring&gt;</title>
<polygon fill="none" stroke="#000000" points="874.501,-252 644.2978,-252 644.2978,-216 874.501,-216 874.501,-252"/>
<text text-anchor="middle" x="759.3994" y="-230.4" font-family="Helvetica,sans-Serif" font-size="12.00" fill="#000000">Polynomial&lt;Coefficient: UnitalSemiring&gt;</text>
</g>
<!-- Polynomial&lt;Coefficient: UnitalSemiring&gt;&#45;&gt;Polynomial&lt;Coefficient: Semiring&gt; -->
<g id="edge8" class="edge">
<title>Polynomial&lt;Coefficient: UnitalSemiring&gt;&#45;&gt;Polynomial&lt;Coefficient: Semiring&gt;</title>
<path fill="none" stroke="#000000" d="M690.6113,-252.0757C652.0953,-262.1967 603.9223,-274.8553 563.9311,-285.3639"/>
<polygon fill="none" stroke="#000000" points="562.9979,-281.9902 554.2158,-287.9169 564.777,-288.7604 562.9979,-281.9902"/>
</g>
<!-- UnitalSemiring -->
<g id="node19" class="node">
<title>UnitalSemiring</title>
<polygon fill="none" stroke="#000000" points="1174.4287,-252 1080.3701,-252 1080.3701,-216 1174.4287,-216 1174.4287,-252"/>
<text text-anchor="middle" x="1127.3994" y="-230.4" font-family="Helvetica,sans-Serif" font-size="12.00" fill="#000000">UnitalSemiring</text>
</g>
<!-- Polynomial&lt;Coefficient: UnitalSemiring&gt;&#45;&gt;UnitalSemiring -->
<g id="edge23" class="edge">
<title>Polynomial&lt;Coefficient: UnitalSemiring&gt;&#45;&gt;UnitalSemiring</title>
<path fill="none" stroke="#000000" stroke-dasharray="5,2" d="M815.8023,-215.9919C873.6121,-200.0723 965.9022,-181.7097 1044.3994,-198 1058.0027,-200.8231 1072.1144,-205.9931 1084.7593,-211.5512"/>
<polygon fill="none" stroke="#000000" points="1083.5619,-214.8527 1094.1102,-215.8448 1086.4829,-208.4912 1083.5619,-214.8527"/>
</g>
<!-- Polynomial&lt;Coefficient: CommutativeSemiring&gt; -->
<g id="node8" class="node">
<title>Polynomial&lt;Coefficient: CommutativeSemiring&gt;</title>
<polygon fill="none" stroke="#000000" points="608.5088,-252 338.29,-252 338.29,-216 608.5088,-216 608.5088,-252"/>
<text text-anchor="middle" x="473.3994" y="-230.4" font-family="Helvetica,sans-Serif" font-size="12.00" fill="#000000">Polynomial&lt;Coefficient: CommutativeSemiring&gt;</text>
</g>
<!-- Polynomial&lt;Coefficient: CommutativeSemiring&gt;&#45;&gt;Polynomial&lt;Coefficient: Semiring&gt; -->
<g id="edge9" class="edge">
<title>Polynomial&lt;Coefficient: CommutativeSemiring&gt;&#45;&gt;Polynomial&lt;Coefficient: Semiring&gt;</title>
<path fill="none" stroke="#000000" d="M476.4275,-252.1686C477.7109,-259.869 479.237,-269.0257 480.6633,-277.5834"/>
<polygon fill="none" stroke="#000000" points="477.2341,-278.2982 482.3305,-287.5867 484.1388,-277.1474 477.2341,-278.2982"/>
</g>
<!-- CommutativeSemiring -->
<g id="node20" class="node">
<title>CommutativeSemiring</title>
<polygon fill="none" stroke="#000000" points="1044.4365,-252 910.3623,-252 910.3623,-216 1044.4365,-216 1044.4365,-252"/>
<text text-anchor="middle" x="977.3994" y="-230.4" font-family="Helvetica,sans-Serif" font-size="12.00" fill="#000000">CommutativeSemiring</text>
</g>
<!-- Polynomial&lt;Coefficient: CommutativeSemiring&gt;&#45;&gt;CommutativeSemiring -->
<g id="edge24" class="edge">
<title>Polynomial&lt;Coefficient: CommutativeSemiring&gt;&#45;&gt;CommutativeSemiring</title>
<path fill="none" stroke="#000000" stroke-dasharray="5,2" d="M542.7672,-215.9828C573.6483,-208.8494 610.6033,-201.5189 644.3994,-198 746.072,-187.4137 773.6184,-180.8951 874.3994,-198 891.5664,-200.9136 909.685,-206.3764 925.8585,-212.182"/>
<polygon fill="none" stroke="#000000" points="925.0586,-215.6186 935.6515,-215.8214 927.4971,-209.057 925.0586,-215.6186"/>
</g>
<!-- Polynomial&lt;Coefficient: UnitalRing&gt; -->
<g id="node9" class="node">
<title>Polynomial&lt;Coefficient: UnitalRing&gt;</title>
<polygon fill="none" stroke="#000000" points="750.3315,-180 542.4673,-180 542.4673,-144 750.3315,-144 750.3315,-180"/>
<text text-anchor="middle" x="646.3994" y="-158.4" font-family="Helvetica,sans-Serif" font-size="12.00" fill="#000000">Polynomial&lt;Coefficient: UnitalRing&gt;</text>
</g>
<!-- Polynomial&lt;Coefficient: UnitalRing&gt;&#45;&gt;Polynomial&lt;Coefficient: Ring&gt; -->
<g id="edge10" class="edge">
<title>Polynomial&lt;Coefficient: UnitalRing&gt;&#45;&gt;Polynomial&lt;Coefficient: Ring&gt;</title>
<path fill="none" stroke="#000000" d="M542.4677,-177.6409C536.6958,-178.4534 530.9766,-179.245 525.3994,-180 394.5095,-197.719 361.1005,-196.9384 230.3994,-216 227.8943,-216.3653 225.3571,-216.7425 222.7983,-217.1292"/>
<polygon fill="none" stroke="#000000" points="222.1936,-213.681 212.8433,-218.6632 223.2597,-220.5993 222.1936,-213.681"/>
</g>
<!-- Polynomial&lt;Coefficient: UnitalRing&gt;&#45;&gt;Polynomial&lt;Coefficient: UnitalSemiring&gt; -->
<g id="edge11" class="edge">
<title>Polynomial&lt;Coefficient: UnitalRing&gt;&#45;&gt;Polynomial&lt;Coefficient: UnitalSemiring&gt;</title>
<path fill="none" stroke="#000000" d="M674.9141,-180.1686C689.2337,-189.2926 706.7618,-200.461 722.1332,-210.2551"/>
<polygon fill="none" stroke="#000000" points="720.5795,-213.4153 730.8939,-215.8372 724.3411,-207.5118 720.5795,-213.4153"/>
</g>
<!-- UnitalRing -->
<g id="node21" class="node">
<title>UnitalRing</title>
<polygon fill="none" stroke="#000000" points="857.2597,-180 785.5391,-180 785.5391,-144 857.2597,-144 857.2597,-180"/>
<text text-anchor="middle" x="821.3994" y="-158.4" font-family="Helvetica,sans-Serif" font-size="12.00" fill="#000000">UnitalRing</text>
</g>
<!-- Polynomial&lt;Coefficient: UnitalRing&gt;&#45;&gt;UnitalRing -->
<g id="edge25" class="edge">
<title>Polynomial&lt;Coefficient: UnitalRing&gt;&#45;&gt;UnitalRing</title>
<path fill="none" stroke="#000000" stroke-dasharray="5,2" d="M750.3057,-162C758.6637,-162 767.0218,-162 775.3798,-162"/>
<polygon fill="none" stroke="#000000" points="775.5749,-165.5001 785.5748,-162 775.5748,-158.5001 775.5749,-165.5001"/>
</g>
<!-- Polynomial&lt;Coefficient: CommutativeRing&gt; -->
<g id="node10" class="node">
<title>Polynomial&lt;Coefficient: CommutativeRing&gt;</title>
<polygon fill="none" stroke="#000000" points="360.3393,-180 112.4596,-180 112.4596,-144 360.3393,-144 360.3393,-180"/>
<text text-anchor="middle" x="236.3994" y="-158.4" font-family="Helvetica,sans-Serif" font-size="12.00" fill="#000000">Polynomial&lt;Coefficient: CommutativeRing&gt;</text>
</g>
<!-- Polynomial&lt;Coefficient: CommutativeRing&gt;&#45;&gt;Polynomial&lt;Coefficient: Ring&gt; -->
<g id="edge12" class="edge">
<title>Polynomial&lt;Coefficient: CommutativeRing&gt;&#45;&gt;Polynomial&lt;Coefficient: Ring&gt;</title>
<path fill="none" stroke="#000000" d="M208.1371,-180.1686C193.9442,-189.2926 176.5712,-200.461 161.3359,-210.2551"/>
<polygon fill="none" stroke="#000000" points="159.1718,-207.4854 152.6527,-215.8372 162.9572,-213.3737 159.1718,-207.4854"/>
</g>
<!-- Polynomial&lt;Coefficient: CommutativeRing&gt;&#45;&gt;Polynomial&lt;Coefficient: CommutativeSemiring&gt; -->
<g id="edge13" class="edge">
<title>Polynomial&lt;Coefficient: CommutativeRing&gt;&#45;&gt;Polynomial&lt;Coefficient: CommutativeSemiring&gt;</title>
<path fill="none" stroke="#000000" d="M295.8986,-180.0757C328.7205,-190.0469 369.65,-202.4812 403.9321,-212.896"/>
<polygon fill="none" stroke="#000000" points="403.2901,-216.3589 413.8757,-215.9169 405.3249,-209.6611 403.2901,-216.3589"/>
</g>
<!-- CommutativeRing -->
<g id="node22" class="node">
<title>CommutativeRing</title>
<polygon fill="none" stroke="#000000" points="507.2672,-180 395.5316,-180 395.5316,-144 507.2672,-144 507.2672,-180"/>
<text text-anchor="middle" x="451.3994" y="-158.4" font-family="Helvetica,sans-Serif" font-size="12.00" fill="#000000">CommutativeRing</text>
</g>
<!-- Polynomial&lt;Coefficient: CommutativeRing&gt;&#45;&gt;CommutativeRing -->
<g id="edge26" class="edge">
<title>Polynomial&lt;Coefficient: CommutativeRing&gt;&#45;&gt;CommutativeRing</title>
<path fill="none" stroke="#000000" stroke-dasharray="5,2" d="M360.2764,-162C368.6273,-162 376.9782,-162 385.3291,-162"/>
<polygon fill="none" stroke="#000000" points="385.5154,-165.5001 395.5154,-162 385.5153,-158.5001 385.5154,-165.5001"/>
</g>
<!-- Polynomial&lt;Coefficient: IntegralDomain&gt; -->
<g id="node11" class="node">
<title>Polynomial&lt;Coefficient: IntegralDomain&gt;</title>
<polygon fill="none" stroke="#000000" points="703.3471,-108 469.4517,-108 469.4517,-72 703.3471,-72 703.3471,-108"/>
<text text-anchor="middle" x="586.3994" y="-86.4" font-family="Helvetica,sans-Serif" font-size="12.00" fill="#000000">Polynomial&lt;Coefficient: IntegralDomain&gt;</text>
</g>
<!-- Polynomial&lt;Coefficient: IntegralDomain&gt;&#45;&gt;Polynomial&lt;Coefficient: UnitalRing&gt; -->
<g id="edge14" class="edge">
<title>Polynomial&lt;Coefficient: IntegralDomain&gt;&#45;&gt;Polynomial&lt;Coefficient: UnitalRing&gt;</title>
<path fill="none" stroke="#000000" d="M601.5399,-108.1686C608.5211,-116.546 616.9385,-126.6469 624.587,-135.8251"/>
<polygon fill="none" stroke="#000000" points="621.9644,-138.1452 631.055,-143.5867 627.3419,-133.6638 621.9644,-138.1452"/>
</g>
<!-- IntegralDomain -->
<g id="node23" class="node">
<title>IntegralDomain</title>
<polygon fill="none" stroke="#000000" points="836.2751,-108 738.5237,-108 738.5237,-72 836.2751,-72 836.2751,-108"/>
<text text-anchor="middle" x="787.3994" y="-86.4" font-family="Helvetica,sans-Serif" font-size="12.00" fill="#000000">IntegralDomain</text>
</g>
<!-- Polynomial&lt;Coefficient: IntegralDomain&gt;&#45;&gt;IntegralDomain -->
<g id="edge27" class="edge">
<title>Polynomial&lt;Coefficient: IntegralDomain&gt;&#45;&gt;IntegralDomain</title>
<path fill="none" stroke="#000000" stroke-dasharray="5,2" d="M703.3877,-90C711.709,-90 720.0304,-90 728.3517,-90"/>
<polygon fill="none" stroke="#000000" points="728.502,-93.5001 738.502,-90 728.5019,-86.5001 728.502,-93.5001"/>
</g>
<!-- Polynomial&lt;Coefficient: Field&gt; -->
<g id="node12" class="node">
<title>Polynomial&lt;Coefficient: Field&gt;</title>
<polygon fill="none" stroke="#000000" points="530.4815,-36 352.3174,-36 352.3174,0 530.4815,0 530.4815,-36"/>
<text text-anchor="middle" x="441.3994" y="-14.4" font-family="Helvetica,sans-Serif" font-size="12.00" fill="#000000">Polynomial&lt;Coefficient: Field&gt;</text>
</g>
<!-- Polynomial&lt;Coefficient: Field&gt;&#45;&gt;Polynomial&lt;Coefficient: CommutativeRing&gt; -->
<g id="edge15" class="edge">
<title>Polynomial&lt;Coefficient: Field&gt;&#45;&gt;Polynomial&lt;Coefficient: CommutativeRing&gt;</title>
<path fill="none" stroke="#000000" d="M415.436,-36.2377C378.6219,-62.0974 311.2047,-109.4539 270.4283,-138.0968"/>
<polygon fill="none" stroke="#000000" points="268.3231,-135.2983 262.152,-143.9104 272.3468,-141.0264 268.3231,-135.2983"/>
</g>
<!-- Polynomial&lt;Coefficient: Field&gt;&#45;&gt;Polynomial&lt;Coefficient: IntegralDomain&gt; -->
<g id="edge16" class="edge">
<title>Polynomial&lt;Coefficient: Field&gt;&#45;&gt;Polynomial&lt;Coefficient: IntegralDomain&gt;</title>
<path fill="none" stroke="#000000" d="M477.989,-36.1686C497.1234,-45.6698 520.7223,-57.3879 541.0116,-67.4626"/>
<polygon fill="none" stroke="#000000" points="539.5597,-70.6494 550.0729,-71.962 542.6729,-64.3797 539.5597,-70.6494"/>
</g>
<!-- EuclideanDomain -->
<g id="node24" class="node">
<title>EuclideanDomain</title>
<polygon fill="none" stroke="#000000" points="676.4541,-36 566.3447,-36 566.3447,0 676.4541,0 676.4541,-36"/>
<text text-anchor="middle" x="621.3994" y="-14.4" font-family="Helvetica,sans-Serif" font-size="12.00" fill="#000000">EuclideanDomain</text>
</g>
<!-- Polynomial&lt;Coefficient: Field&gt;&#45;&gt;EuclideanDomain -->
<g id="edge28" class="edge">
<title>Polynomial&lt;Coefficient: Field&gt;&#45;&gt;EuclideanDomain</title>
<path fill="none" stroke="#000000" stroke-dasharray="5,2" d="M530.6963,-18C539.0927,-18 547.4891,-18 555.8855,-18"/>
<polygon fill="none" stroke="#000000" points="556.1272,-21.5001 566.1272,-18 556.1272,-14.5001 556.1272,-21.5001"/>
</g>
</g>
</svg>
