<?xml version="1.0" encoding="UTF-8" standalone="no"?>
<!DOCTYPE svg PUBLIC "-//W3C//DTD SVG 1.1//EN"
 "http://www.w3.org/Graphics/SVG/1.1/DTD/svg11.dtd">
<!-- Generated by graphviz version 2.40.1 (20161225.0304)
 -->
<!-- Pages: 1 -->
<svg width="853pt" height="490pt"
 viewBox="0.00 0.00 853.35 490.00" xmlns="http://www.w3.org/2000/svg" xmlns:xlink="http://www.w3.org/1999/xlink">
<g id="graph0" class="graph" transform="scale(1 1) rotate(0) translate(4 486)">
<polygon fill="#ffffff" stroke="transparent" points="-4,4 -4,-486 849.3457,-486 849.3457,4 -4,4"/>
<!-- Monoid -->
<g id="node1" class="node">
<title>Monoid</title>
<polygon fill="none" stroke="#000000" points="705.1922,-449 646.8078,-449 646.8078,-413 705.1922,-413 705.1922,-449"/>
<text text-anchor="start" x="654.6543" y="-433.4" font-family="Helvetica,sans" font-size="12.00" fill="#000000">protocol</text>
<text text-anchor="start" x="656.3213" y="-421.4" font-family="Helvetica,sans" font-size="12.00" fill="#000000">Monoid</text>
</g>
<!-- Group -->
<g id="node2" class="node">
<title>Group</title>
<polygon fill="none" stroke="#000000" points="845.1922,-344 786.8078,-344 786.8078,-308 845.1922,-308 845.1922,-344"/>
<text text-anchor="start" x="794.6543" y="-328.4" font-family="Helvetica,sans" font-size="12.00" fill="#000000">protocol</text>
<text text-anchor="start" x="799.3242" y="-316.4" font-family="Helvetica,sans" font-size="12.00" fill="#000000">Group</text>
</g>
<!-- CommutativeMonoid -->
<g id="node3" class="node">
<title>CommutativeMonoid</title>
<polygon fill="none" stroke="#000000" points="529.0449,-344 402.9551,-344 402.9551,-308 529.0449,-308 529.0449,-344"/>
<text text-anchor="start" x="444.6543" y="-328.4" font-family="Helvetica,sans" font-size="12.00" fill="#000000">protocol</text>
<text text-anchor="start" x="410.9775" y="-316.4" font-family="Helvetica,sans" font-size="12.00" fill="#000000">CommutativeMonoid</text>
</g>
<!-- AbelianGroup -->
<g id="node4" class="node">
<title>AbelianGroup</title>
<polygon fill="none" stroke="#000000" points="820.8836,-272 731.1164,-272 731.1164,-236 820.8836,-236 820.8836,-272"/>
<text text-anchor="start" x="754.6543" y="-256.4" font-family="Helvetica,sans" font-size="12.00" fill="#000000">protocol</text>
<text text-anchor="start" x="739.3086" y="-244.4" font-family="Helvetica,sans" font-size="12.00" fill="#000000">AbelianGroup</text>
</g>
<!-- Semiring -->
<g id="node5" class="node">
<title>Semiring</title>
<polygon fill="none" stroke="#000000" points="434.8506,-272 371.1494,-272 371.1494,-236 434.8506,-236 434.8506,-272"/>
<text text-anchor="start" x="381.6543" y="-256.4" font-family="Helvetica,sans" font-size="12.00" fill="#000000">protocol</text>
<text text-anchor="start" x="379.3252" y="-244.4" font-family="Helvetica,sans" font-size="12.00" fill="#000000">Semiring</text>
</g>
<!-- Ring -->
<g id="node6" class="node">
<title>Ring</title>
<polygon fill="none" stroke="#000000" points="748.1922,-200 689.8078,-200 689.8078,-164 748.1922,-164 748.1922,-200"/>
<text text-anchor="start" x="697.6543" y="-184.4" font-family="Helvetica,sans" font-size="12.00" fill="#000000">protocol</text>
<text text-anchor="start" x="706.6602" y="-172.4" font-family="Helvetica,sans" font-size="12.00" fill="#000000">Ring</text>
</g>
<!-- Unital -->
<g id="node7" class="node">
<title>Unital</title>
<polygon fill="none" stroke="#000000" points="440.1922,-200 381.8078,-200 381.8078,-164 440.1922,-164 440.1922,-200"/>
<text text-anchor="start" x="389.6543" y="-184.4" font-family="Helvetica,sans" font-size="12.00" fill="#000000">protocol</text>
<text text-anchor="start" x="395.6602" y="-172.4" font-family="Helvetica,sans" font-size="12.00" fill="#000000">Unital</text>
</g>
<!-- IntegralDomain -->
<g id="node8" class="node">
<title>IntegralDomain</title>
<polygon fill="none" stroke="#000000" points="740.8757,-123 643.1243,-123 643.1243,-87 740.8757,-87 740.8757,-123"/>
<text text-anchor="start" x="670.6543" y="-107.4" font-family="Helvetica,sans" font-size="12.00" fill="#000000">protocol</text>
<text text-anchor="start" x="651.3125" y="-95.4" font-family="Helvetica,sans" font-size="12.00" fill="#000000">IntegralDomain</text>
</g>
<!-- EuclideanDomain -->
<g id="node9" class="node">
<title>EuclideanDomain</title>
<polygon fill="none" stroke="#000000" points="531.0547,-41 420.9453,-41 420.9453,-5 531.0547,-5 531.0547,-41"/>
<text text-anchor="start" x="454.6543" y="-25.4" font-family="Helvetica,sans" font-size="12.00" fill="#000000">protocol</text>
<text text-anchor="start" x="428.9727" y="-13.4" font-family="Helvetica,sans" font-size="12.00" fill="#000000">EuclideanDomain</text>
</g>
<!-- Commutative -->
<g id="node10" class="node">
<title>Commutative</title>
<polygon fill="none" stroke="#000000" points="338.1881,-123 251.8119,-123 251.8119,-87 338.1881,-87 338.1881,-123"/>
<text text-anchor="start" x="273.6543" y="-107.4" font-family="Helvetica,sans" font-size="12.00" fill="#000000">protocol</text>
<text text-anchor="start" x="259.6563" y="-95.4" font-family="Helvetica,sans" font-size="12.00" fill="#000000">Commutative</text>
</g>
<!-- Polynomial&lt;Coefficient: Monoid&gt; -->
<g id="node11" class="node">
<title>Polynomial&lt;Coefficient: Monoid&gt;</title>
<polygon fill="none" stroke="#000000" points="611,-482 283,-482 283,-380 611,-380 611,-482"/>
<polyline fill="none" stroke="#000000" points="283,-460 611,-460 "/>
<text text-anchor="start" x="359.2852" y="-467.4" font-family="Helvetica,sans" font-size="12.00" fill="#000000">Polynomial&lt;Coefficient: Monoid&gt;</text>
<polyline fill="none" stroke="#000000" points="283,-438 611,-438 "/>
<text text-anchor="start" x="288" y="-445.4" font-family="Helvetica,sans" font-size="12.00" fill="#000000">degree: Int</text>
<polyline fill="none" stroke="#000000" points="283,-380 611,-380 "/>
<text text-anchor="start" x="288" y="-424.4" font-family="Helvetica,sans" font-size="12.00" fill="#000000">init([Coefficient])</text>
<text text-anchor="start" x="288" y="-412.4" font-family="Helvetica,sans" font-size="12.00" fill="#000000">derivative() → Polynomial</text>
<text text-anchor="start" x="288" y="-400.4" font-family="Helvetica,sans" font-size="12.00" fill="#000000">subscript(Int) → Coefficient</text>
<text text-anchor="start" x="288" y="-388.4" font-family="Helvetica,sans" text-decoration="underline" font-size="12.00" fill="#000000">monomial(coefficient: Coefficient, degree: Int) → Polynomial</text>
</g>
<!-- Polynomial&lt;Coefficient: Monoid&gt;&#45;&gt;Monoid -->
<g id="edge14" class="edge">
<title>Polynomial&lt;Coefficient: Monoid&gt;&#45;&gt;Monoid</title>
<path fill="none" stroke="#000000" stroke-dasharray="5,2" d="M611.1465,-431C619.5514,-431 627.9563,-431 636.3611,-431"/>
<polygon fill="none" stroke="#000000" points="636.6133,-434.5001 646.6133,-431 636.6132,-427.5001 636.6133,-434.5001"/>
</g>
<!-- Polynomial&lt;Coefficient: Commutative&gt; -->
<g id="node12" class="node">
<title>Polynomial&lt;Coefficient: Commutative&gt;</title>
<polygon fill="none" stroke="#000000" points="216,-128 0,-128 0,-82 216,-82 216,-128"/>
<polyline fill="none" stroke="#000000" points="0,-106 216,-106 "/>
<text text-anchor="start" x="4.6201" y="-113.4" font-family="Helvetica,sans" font-size="12.00" fill="#000000">Polynomial&lt;Coefficient: Commutative&gt;</text>
<polyline fill="none" stroke="#000000" points="0,-82 216,-82 "/>
<text text-anchor="start" x="5" y="-91.4" font-family="Helvetica,sans" font-size="12.00" fill="#000000">value(Coefficient) → Coefficient</text>
</g>
<!-- Polynomial&lt;Coefficient: Commutative&gt;&#45;&gt;Commutative -->
<g id="edge21" class="edge">
<title>Polynomial&lt;Coefficient: Commutative&gt;&#45;&gt;Commutative</title>
<path fill="none" stroke="#000000" stroke-dasharray="5,2" d="M216.1094,-105C224.5077,-105 232.9061,-105 241.3044,-105"/>
<polygon fill="none" stroke="#000000" points="241.5486,-108.5001 251.5485,-105 241.5485,-101.5001 241.5486,-108.5001"/>
</g>
<!-- Polynomial&lt;Coefficient: Semiring&gt; -->
<g id="node17" class="node">
<title>Polynomial&lt;Coefficient: Semiring&gt;</title>
<polygon fill="none" stroke="#000000" points="335.9223,-272 136.0777,-272 136.0777,-236 335.9223,-236 335.9223,-272"/>
<text text-anchor="middle" x="236" y="-250.4" font-family="Helvetica,sans" font-size="12.00" fill="#000000">Polynomial&lt;Coefficient: Semiring&gt;</text>
</g>
<!-- Polynomial&lt;Coefficient: Commutative&gt;&#45;&gt;Polynomial&lt;Coefficient: Semiring&gt; -->
<g id="edge8" class="edge">
<title>Polynomial&lt;Coefficient: Commutative&gt;&#45;&gt;Polynomial&lt;Coefficient: Semiring&gt;</title>
<path fill="none" stroke="#000000" d="M112.5449,-128.3253C117.5624,-149.055 127.371,-179.2105 145,-200 155.5262,-212.4132 169.6653,-222.702 183.656,-230.8502"/>
<polygon fill="none" stroke="#000000" points="182.3436,-234.1237 192.7891,-235.8963 185.7289,-227.9967 182.3436,-234.1237"/>
</g>
<!-- Polynomial&lt;Coefficient: Field&gt; -->
<g id="node13" class="node">
<title>Polynomial&lt;Coefficient: Field&gt;</title>
<polygon fill="none" stroke="#000000" points="385,-46 213,-46 213,0 385,0 385,-46"/>
<polyline fill="none" stroke="#000000" points="213,-24 385,-24 "/>
<text text-anchor="start" x="217.959" y="-31.4" font-family="Helvetica,sans" font-size="12.00" fill="#000000">Polynomial&lt;Coefficient: Field&gt;</text>
<polyline fill="none" stroke="#000000" points="213,0 385,0 "/>
<text text-anchor="start" x="218" y="-9.4" font-family="Helvetica,sans" font-size="12.00" fill="#000000">monic() → Polynomial</text>
</g>
<!-- Polynomial&lt;Coefficient: Field&gt;&#45;&gt;EuclideanDomain -->
<g id="edge23" class="edge">
<title>Polynomial&lt;Coefficient: Field&gt;&#45;&gt;EuclideanDomain</title>
<path fill="none" stroke="#000000" stroke-dasharray="5,2" d="M385.0801,-23C393.6741,-23 402.2681,-23 410.8622,-23"/>
<polygon fill="none" stroke="#000000" points="410.9509,-26.5001 420.9508,-23 410.9508,-19.5001 410.9509,-26.5001"/>
</g>
<!-- Polynomial&lt;Coefficient: Field&gt;&#45;&gt;Polynomial&lt;Coefficient: Commutative&gt; -->
<g id="edge12" class="edge">
<title>Polynomial&lt;Coefficient: Field&gt;&#45;&gt;Polynomial&lt;Coefficient: Commutative&gt;</title>
<path fill="none" stroke="#000000" d="M245.2876,-46.0598C222.2019,-55.9709 195.0582,-67.6242 171.028,-77.9408"/>
<polygon fill="none" stroke="#000000" points="169.4481,-74.8102 161.6399,-81.9714 172.2096,-81.2424 169.4481,-74.8102"/>
</g>
<!-- Polynomial&lt;Coefficient: IntegralDomain&gt; -->
<g id="node20" class="node">
<title>Polynomial&lt;Coefficient: IntegralDomain&gt;</title>
<polygon fill="none" stroke="#000000" points="607.9477,-123 374.0523,-123 374.0523,-87 607.9477,-87 607.9477,-123"/>
<text text-anchor="middle" x="491" y="-101.4" font-family="Helvetica,sans" font-size="12.00" fill="#000000">Polynomial&lt;Coefficient: IntegralDomain&gt;</text>
</g>
<!-- Polynomial&lt;Coefficient: Field&gt;&#45;&gt;Polynomial&lt;Coefficient: IntegralDomain&gt; -->
<g id="edge13" class="edge">
<title>Polynomial&lt;Coefficient: Field&gt;&#45;&gt;Polynomial&lt;Coefficient: IntegralDomain&gt;</title>
<path fill="none" stroke="#000000" d="M352.9937,-46.0598C379.9618,-57.5774 412.4389,-71.4479 439.1111,-82.8391"/>
<polygon fill="none" stroke="#000000" points="438.0829,-86.2058 448.654,-86.9147 440.8323,-79.7683 438.0829,-86.2058"/>
</g>
<!-- Polynomial&lt;Coefficient: AbelianGroup&gt; -->
<g id="node14" class="node">
<title>Polynomial&lt;Coefficient: AbelianGroup&gt;</title>
<polygon fill="none" stroke="#000000" points="695.2989,-272 470.7011,-272 470.7011,-236 695.2989,-236 695.2989,-272"/>
<text text-anchor="middle" x="583" y="-250.4" font-family="Helvetica,sans" font-size="12.00" fill="#000000">Polynomial&lt;Coefficient: AbelianGroup&gt;</text>
</g>
<!-- Polynomial&lt;Coefficient: AbelianGroup&gt;&#45;&gt;AbelianGroup -->
<g id="edge17" class="edge">
<title>Polynomial&lt;Coefficient: AbelianGroup&gt;&#45;&gt;AbelianGroup</title>
<path fill="none" stroke="#000000" stroke-dasharray="5,2" d="M695.332,-254C703.9385,-254 712.5449,-254 721.1513,-254"/>
<polygon fill="none" stroke="#000000" points="721.2545,-257.5001 731.2545,-254 721.2545,-250.5001 721.2545,-257.5001"/>
</g>
<!-- Polynomial&lt;Coefficient: Group&gt; -->
<g id="node15" class="node">
<title>Polynomial&lt;Coefficient: Group&gt;</title>
<polygon fill="none" stroke="#000000" points="750.9243,-344 565.0757,-344 565.0757,-308 750.9243,-308 750.9243,-344"/>
<text text-anchor="middle" x="658" y="-322.4" font-family="Helvetica,sans" font-size="12.00" fill="#000000">Polynomial&lt;Coefficient: Group&gt;</text>
</g>
<!-- Polynomial&lt;Coefficient: AbelianGroup&gt;&#45;&gt;Polynomial&lt;Coefficient: Group&gt; -->
<g id="edge1" class="edge">
<title>Polynomial&lt;Coefficient: AbelianGroup&gt;&#45;&gt;Polynomial&lt;Coefficient: Group&gt;</title>
<path fill="none" stroke="#000000" d="M601.9257,-272.1686C610.9857,-280.8663 621.9809,-291.4217 631.8265,-300.8735"/>
<polygon fill="none" stroke="#000000" points="629.4426,-303.4367 639.0804,-307.8372 634.2904,-298.387 629.4426,-303.4367"/>
</g>
<!-- Polynomial&lt;Coefficient: CommutativeMonoid&gt; -->
<g id="node16" class="node">
<title>Polynomial&lt;Coefficient: CommutativeMonoid&gt;</title>
<polygon fill="none" stroke="#000000" points="367.1172,-344 104.8828,-344 104.8828,-308 367.1172,-308 367.1172,-344"/>
<text text-anchor="middle" x="236" y="-322.4" font-family="Helvetica,sans" font-size="12.00" fill="#000000">Polynomial&lt;Coefficient: CommutativeMonoid&gt;</text>
</g>
<!-- Polynomial&lt;Coefficient: AbelianGroup&gt;&#45;&gt;Polynomial&lt;Coefficient: CommutativeMonoid&gt; -->
<g id="edge2" class="edge">
<title>Polynomial&lt;Coefficient: AbelianGroup&gt;&#45;&gt;Polynomial&lt;Coefficient: CommutativeMonoid&gt;</title>
<path fill="none" stroke="#000000" d="M495.8851,-272.0757C446.2916,-282.366 384.0556,-295.2795 332.9214,-305.8895"/>
<polygon fill="none" stroke="#000000" points="331.93,-302.5206 322.8497,-307.9793 333.3522,-309.3746 331.93,-302.5206"/>
</g>
<!-- Polynomial&lt;Coefficient: Group&gt;&#45;&gt;Group -->
<g id="edge15" class="edge">
<title>Polynomial&lt;Coefficient: Group&gt;&#45;&gt;Group</title>
<path fill="none" stroke="#000000" stroke-dasharray="5,2" d="M750.8867,-326C759.4789,-326 768.0712,-326 776.6634,-326"/>
<polygon fill="none" stroke="#000000" points="776.7499,-329.5001 786.7499,-326 776.7499,-322.5001 776.7499,-329.5001"/>
</g>
<!-- Polynomial&lt;Coefficient: Group&gt;&#45;&gt;Polynomial&lt;Coefficient: Monoid&gt; -->
<g id="edge3" class="edge">
<title>Polynomial&lt;Coefficient: Group&gt;&#45;&gt;Polynomial&lt;Coefficient: Monoid&gt;</title>
<path fill="none" stroke="#000000" d="M621.7278,-344.0501C604.0444,-352.85 581.7151,-363.9617 558.9829,-375.2739"/>
<polygon fill="none" stroke="#000000" points="557.3123,-372.1958 549.9189,-379.7844 560.431,-378.4627 557.3123,-372.1958"/>
</g>
<!-- Polynomial&lt;Coefficient: CommutativeMonoid&gt;&#45;&gt;CommutativeMonoid -->
<g id="edge16" class="edge">
<title>Polynomial&lt;Coefficient: CommutativeMonoid&gt;&#45;&gt;CommutativeMonoid</title>
<path fill="none" stroke="#000000" stroke-dasharray="5,2" d="M367.1719,-326C375.5885,-326 384.0051,-326 392.4218,-326"/>
<polygon fill="none" stroke="#000000" points="392.6883,-329.5001 402.6882,-326 392.6882,-322.5001 392.6883,-329.5001"/>
</g>
<!-- Polynomial&lt;Coefficient: CommutativeMonoid&gt;&#45;&gt;Polynomial&lt;Coefficient: Monoid&gt; -->
<g id="edge4" class="edge">
<title>Polynomial&lt;Coefficient: CommutativeMonoid&gt;&#45;&gt;Polynomial&lt;Coefficient: Monoid&gt;</title>
<path fill="none" stroke="#000000" d="M272.2722,-344.0501C289.9556,-352.85 312.2849,-363.9617 335.0171,-375.2739"/>
<polygon fill="none" stroke="#000000" points="333.569,-378.4627 344.0811,-379.7844 336.6877,-372.1958 333.569,-378.4627"/>
</g>
<!-- Polynomial&lt;Coefficient: Semiring&gt;&#45;&gt;Semiring -->
<g id="edge18" class="edge">
<title>Polynomial&lt;Coefficient: Semiring&gt;&#45;&gt;Semiring</title>
<path fill="none" stroke="#000000" stroke-dasharray="5,2" d="M335.8086,-254C344.2055,-254 352.6023,-254 360.9992,-254"/>
<polygon fill="none" stroke="#000000" points="361.2416,-257.5001 371.2416,-254 361.2415,-250.5001 361.2416,-257.5001"/>
</g>
<!-- Polynomial&lt;Coefficient: Semiring&gt;&#45;&gt;Polynomial&lt;Coefficient: CommutativeMonoid&gt; -->
<g id="edge5" class="edge">
<title>Polynomial&lt;Coefficient: Semiring&gt;&#45;&gt;Polynomial&lt;Coefficient: CommutativeMonoid&gt;</title>
<path fill="none" stroke="#000000" d="M236,-272.1686C236,-279.869 236,-289.0257 236,-297.5834"/>
<polygon fill="none" stroke="#000000" points="232.5001,-297.5867 236,-307.5867 239.5001,-297.5868 232.5001,-297.5867"/>
</g>
<!-- Polynomial&lt;Coefficient: Ring&gt; -->
<g id="node18" class="node">
<title>Polynomial&lt;Coefficient: Ring&gt;</title>
<polygon fill="none" stroke="#000000" points="653.2521,-200 476.7479,-200 476.7479,-164 653.2521,-164 653.2521,-200"/>
<text text-anchor="middle" x="565" y="-178.4" font-family="Helvetica,sans" font-size="12.00" fill="#000000">Polynomial&lt;Coefficient: Ring&gt;</text>
</g>
<!-- Polynomial&lt;Coefficient: Ring&gt;&#45;&gt;Ring -->
<g id="edge19" class="edge">
<title>Polynomial&lt;Coefficient: Ring&gt;&#45;&gt;Ring</title>
<path fill="none" stroke="#000000" stroke-dasharray="5,2" d="M653.4297,-182C662.1436,-182 670.8575,-182 679.5714,-182"/>
<polygon fill="none" stroke="#000000" points="679.8008,-185.5001 689.8007,-182 679.8007,-178.5001 679.8008,-185.5001"/>
</g>
<!-- Polynomial&lt;Coefficient: Ring&gt;&#45;&gt;Polynomial&lt;Coefficient: AbelianGroup&gt; -->
<g id="edge6" class="edge">
<title>Polynomial&lt;Coefficient: Ring&gt;&#45;&gt;Polynomial&lt;Coefficient: AbelianGroup&gt;</title>
<path fill="none" stroke="#000000" d="M569.5422,-200.1686C571.4884,-207.9537 573.8068,-217.2271 575.9663,-225.8653"/>
<polygon fill="none" stroke="#000000" points="572.5758,-226.7342 578.3967,-235.5867 579.3668,-225.0364 572.5758,-226.7342"/>
</g>
<!-- Polynomial&lt;Coefficient: Ring&gt;&#45;&gt;Polynomial&lt;Coefficient: Semiring&gt; -->
<g id="edge7" class="edge">
<title>Polynomial&lt;Coefficient: Ring&gt;&#45;&gt;Polynomial&lt;Coefficient: Semiring&gt;</title>
<path fill="none" stroke="#000000" d="M482.4041,-200.0757C435.4811,-210.3446 376.6213,-223.2257 328.197,-233.8232"/>
<polygon fill="none" stroke="#000000" points="327.365,-230.4223 318.3445,-235.9793 328.8616,-237.2605 327.365,-230.4223"/>
</g>
<!-- Polynomial&lt;Coefficient: Unital&gt; -->
<g id="node19" class="node">
<title>Polynomial&lt;Coefficient: Unital&gt;</title>
<polygon fill="none" stroke="#000000" points="345.2521,-200 162.7479,-200 162.7479,-164 345.2521,-164 345.2521,-200"/>
<text text-anchor="middle" x="254" y="-178.4" font-family="Helvetica,sans" font-size="12.00" fill="#000000">Polynomial&lt;Coefficient: Unital&gt;</text>
</g>
<!-- Polynomial&lt;Coefficient: Unital&gt;&#45;&gt;Unital -->
<g id="edge20" class="edge">
<title>Polynomial&lt;Coefficient: Unital&gt;&#45;&gt;Unital</title>
<path fill="none" stroke="#000000" stroke-dasharray="5,2" d="M345.3789,-182C354.0995,-182 362.8202,-182 371.5408,-182"/>
<polygon fill="none" stroke="#000000" points="371.7781,-185.5001 381.7781,-182 371.7781,-178.5001 371.7781,-185.5001"/>
</g>
<!-- Polynomial&lt;Coefficient: Unital&gt;&#45;&gt;Polynomial&lt;Coefficient: Semiring&gt; -->
<g id="edge9" class="edge">
<title>Polynomial&lt;Coefficient: Unital&gt;&#45;&gt;Polynomial&lt;Coefficient: Semiring&gt;</title>
<path fill="none" stroke="#000000" d="M249.4578,-200.1686C247.5116,-207.9537 245.1932,-217.2271 243.0337,-225.8653"/>
<polygon fill="none" stroke="#000000" points="239.6332,-225.0364 240.6033,-235.5867 246.4242,-226.7342 239.6332,-225.0364"/>
</g>
<!-- Polynomial&lt;Coefficient: IntegralDomain&gt;&#45;&gt;IntegralDomain -->
<g id="edge22" class="edge">
<title>Polynomial&lt;Coefficient: IntegralDomain&gt;&#45;&gt;IntegralDomain</title>
<path fill="none" stroke="#000000" stroke-dasharray="5,2" d="M607.9883,-105C616.3096,-105 624.631,-105 632.9523,-105"/>
<polygon fill="none" stroke="#000000" points="633.1026,-108.5001 643.1026,-105 633.1025,-101.5001 633.1026,-108.5001"/>
</g>
<!-- Polynomial&lt;Coefficient: IntegralDomain&gt;&#45;&gt;Polynomial&lt;Coefficient: Ring&gt; -->
<g id="edge10" class="edge">
<title>Polynomial&lt;Coefficient: IntegralDomain&gt;&#45;&gt;Polynomial&lt;Coefficient: Ring&gt;</title>
<path fill="none" stroke="#000000" d="M508.537,-123.2479C518.1214,-133.2209 530.1416,-145.7284 540.6253,-156.6371"/>
<polygon fill="none" stroke="#000000" points="538.1361,-159.0981 547.5889,-163.8831 543.1832,-154.2477 538.1361,-159.0981"/>
</g>
<!-- Polynomial&lt;Coefficient: IntegralDomain&gt;&#45;&gt;Polynomial&lt;Coefficient: Unital&gt; -->
<g id="edge11" class="edge">
<title>Polynomial&lt;Coefficient: IntegralDomain&gt;&#45;&gt;Polynomial&lt;Coefficient: Unital&gt;</title>
<path fill="none" stroke="#000000" d="M435.434,-123.0531C400.6447,-134.3559 355.6605,-148.9711 319.1883,-160.8207"/>
<polygon fill="none" stroke="#000000" points="318.0571,-157.508 309.628,-163.9268 320.2201,-164.1655 318.0571,-157.508"/>
</g>
</g>
</svg>
