<?xml version="1.0" encoding="UTF-8" standalone="no"?>
<!DOCTYPE svg PUBLIC "-//W3C//DTD SVG 1.1//EN"
 "http://www.w3.org/Graphics/SVG/1.1/DTD/svg11.dtd">
<!-- Generated by graphviz version 2.40.1 (20161225.0304)
 -->
<!-- Title: %3 Pages: 1 -->
<svg width="927pt" height="962pt"
 viewBox="0.00 0.00 927.00 962.00" xmlns="http://www.w3.org/2000/svg" xmlns:xlink="http://www.w3.org/1999/xlink">
<g id="graph0" class="graph" transform="scale(1 1) rotate(0) translate(4 958)">
<title>%3</title>
<polygon fill="#ffffff" stroke="transparent" points="-4,4 -4,-958 923,-958 923,4 -4,4"/>
<g id="clust1" class="cluster">
<title>cluster GroupLike</title>
<polygon fill="none" stroke="#000000" points="487,-500 487,-910 773,-910 773,-500 487,-500"/>
<text text-anchor="middle" x="737.3174" y="-896.4" font-family="Helvetica,sans-Serif" font-size="12.00" fill="#000000">GroupLike</text>
</g>
<g id="clust5" class="cluster">
<title>cluster RingLike</title>
<polygon fill="none" stroke="#000000" points="8,-19 8,-588 478,-588 478,-19 8,-19"/>
<text text-anchor="middle" x="446.6533" y="-574.4" font-family="Helvetica,sans-Serif" font-size="12.00" fill="#000000">RingLike</text>
</g>
<g id="clust10" class="cluster">
<title>cluster Spaces</title>
<polygon fill="none" stroke="#000000" points="545,-8 545,-484 911,-484 911,-8 545,-8"/>
<text text-anchor="middle" x="882.9873" y="-470.4" font-family="Helvetica,sans-Serif" font-size="12.00" fill="#000000">Spaces</text>
</g>
<!-- Equatable -->
<g id="node1" class="node">
<title>Equatable</title>
<polygon fill="none" stroke="#000000" points="796,-954 732,-954 732,-918 796,-918 796,-954"/>
<polyline fill="none" stroke="#000000" points="732,-919 796,-919 "/>
<text text-anchor="start" x="742.6543" y="-938.4" font-family="Helvetica,sans-Serif" font-size="12.00" fill="#000000">protocol</text>
<text text-anchor="start" x="736.9766" y="-926.4" font-family="Helvetica,sans-Serif" font-size="12.00" fill="#000000">Equatable</text>
</g>
<!-- Semigroup -->
<g id="node2" class="node">
<title>Semigroup</title>
<polygon fill="none" stroke="#000000" points="761,-882 649,-882 649,-814 761,-814 761,-882"/>
<polyline fill="none" stroke="#000000" points="649,-848 761,-848 "/>
<text text-anchor="start" x="683.6543" y="-867.4" font-family="Helvetica,sans-Serif" font-size="12.00" fill="#000000">protocol</text>
<text text-anchor="start" x="675.9844" y="-855.4" font-family="Helvetica,sans-Serif" font-size="12.00" fill="#000000">Semigroup</text>
<polyline fill="none" stroke="#000000" points="649,-814 761,-814 "/>
<text text-anchor="start" x="654" y="-834.4" font-family="Helvetica,sans-Serif" font-style="italic" text-decoration="underline" font-size="12.00" fill="#000000">+(Self, Self) → Self</text>
<text text-anchor="start" x="654" y="-822.4" font-family="Helvetica,sans-Serif" text-decoration="underline" font-size="12.00" fill="#000000">*(Self, Int) → Self</text>
</g>
<!-- Semigroup&#45;&gt;Equatable -->
<g id="edge27" class="edge">
<title>Semigroup&#45;&gt;Equatable</title>
<path fill="none" stroke="#000000" d="M727.8109,-882.0231C733.8758,-891.069 740.3388,-900.7087 746.0998,-909.3014"/>
<polygon fill="none" stroke="#000000" points="743.3272,-911.4512 751.8031,-917.808 749.1414,-907.553 743.3272,-911.4512"/>
</g>
<!-- CommutativeSemigroup -->
<g id="node3" class="node">
<title>CommutativeSemigroup</title>
<polygon fill="none" stroke="#000000" points="637,-757 499,-757 499,-721 637,-721 637,-757"/>
<polyline fill="none" stroke="#000000" points="499,-722 637,-722 "/>
<text text-anchor="start" x="546.6543" y="-741.4" font-family="Helvetica,sans-Serif" font-size="12.00" fill="#000000">protocol</text>
<text text-anchor="start" x="503.6406" y="-729.4" font-family="Helvetica,sans-Serif" font-size="12.00" fill="#000000">CommutativeSemigroup</text>
</g>
<!-- CommutativeSemigroup&#45;&gt;Semigroup -->
<g id="edge3" class="edge">
<title>CommutativeSemigroup&#45;&gt;Semigroup</title>
<path fill="none" stroke="#000000" d="M590.9307,-757.2441C608.1625,-770.9541 632.4353,-790.2661 654.1634,-807.5534"/>
<polygon fill="none" stroke="#000000" points="652.031,-810.3294 662.0356,-813.8166 656.3893,-804.8517 652.031,-810.3294"/>
</g>
<!-- Monoid -->
<g id="node4" class="node">
<title>Monoid</title>
<polygon fill="none" stroke="#000000" points="735,-778 675,-778 675,-700 735,-700 735,-778"/>
<polyline fill="none" stroke="#000000" points="675,-744 735,-744 "/>
<text text-anchor="start" x="683.6543" y="-763.4" font-family="Helvetica,sans-Serif" font-size="12.00" fill="#000000">protocol</text>
<text text-anchor="start" x="685.3213" y="-751.4" font-family="Helvetica,sans-Serif" font-size="12.00" fill="#000000">Monoid</text>
<polyline fill="none" stroke="#000000" points="675,-722 735,-722 "/>
<text text-anchor="start" x="680" y="-730.4" font-family="Helvetica,sans-Serif" text-decoration="underline" font-size="12.00" fill="#000000">zero: Self</text>
<polyline fill="none" stroke="#000000" points="675,-700 735,-700 "/>
<text text-anchor="start" x="680" y="-708.4" font-family="Helvetica,sans-Serif" font-style="italic" font-size="12.00" fill="#000000">init()</text>
</g>
<!-- Monoid&#45;&gt;Semigroup -->
<g id="edge4" class="edge">
<title>Monoid&#45;&gt;Semigroup</title>
<path fill="none" stroke="#000000" d="M705,-778.0436C705,-786.382 705,-795.2465 705,-803.7641"/>
<polygon fill="none" stroke="#000000" points="701.5001,-803.9227 705,-813.9228 708.5001,-803.9228 701.5001,-803.9227"/>
</g>
<!-- CommutativeMonoid -->
<g id="node5" class="node">
<title>CommutativeMonoid</title>
<polygon fill="none" stroke="#000000" points="615,-648 495,-648 495,-612 615,-612 615,-648"/>
<polyline fill="none" stroke="#000000" points="495,-613 615,-613 "/>
<text text-anchor="start" x="533.6543" y="-632.4" font-family="Helvetica,sans-Serif" font-size="12.00" fill="#000000">protocol</text>
<text text-anchor="start" x="499.9775" y="-620.4" font-family="Helvetica,sans-Serif" font-size="12.00" fill="#000000">CommutativeMonoid</text>
</g>
<!-- CommutativeMonoid&#45;&gt;CommutativeSemigroup -->
<g id="edge1" class="edge">
<title>CommutativeMonoid&#45;&gt;CommutativeSemigroup</title>
<path fill="none" stroke="#000000" d="M557.2053,-648.4904C559.2345,-665.5048 562.2746,-690.9945 564.6119,-710.5924"/>
<polygon fill="none" stroke="#000000" points="561.1676,-711.2676 565.8273,-720.7827 568.1183,-710.4386 561.1676,-711.2676"/>
</g>
<!-- CommutativeMonoid&#45;&gt;Monoid -->
<g id="edge2" class="edge">
<title>CommutativeMonoid&#45;&gt;Monoid</title>
<path fill="none" stroke="#000000" d="M581.5829,-648.0552C601.8875,-661.9788 630.4607,-681.8597 655,-700 658.8371,-702.8365 662.8081,-705.8305 666.7579,-708.8473"/>
<polygon fill="none" stroke="#000000" points="664.7268,-711.7007 674.7853,-715.0287 668.9975,-706.1545 664.7268,-711.7007"/>
</g>
<!-- Group -->
<g id="node6" class="node">
<title>Group</title>
<polygon fill="none" stroke="#000000" points="765,-664 651,-664 651,-596 765,-596 765,-664"/>
<polyline fill="none" stroke="#000000" points="651,-630 765,-630 "/>
<text text-anchor="start" x="686.6543" y="-649.4" font-family="Helvetica,sans-Serif" font-size="12.00" fill="#000000">protocol</text>
<text text-anchor="start" x="691.3242" y="-637.4" font-family="Helvetica,sans-Serif" font-size="12.00" fill="#000000">Group</text>
<polyline fill="none" stroke="#000000" points="651,-596 765,-596 "/>
<text text-anchor="start" x="656" y="-616.4" font-family="Helvetica,sans-Serif" font-style="italic" text-decoration="underline" font-size="12.00" fill="#000000">prefix &#45;(Self) → Self</text>
<text text-anchor="start" x="656" y="-604.4" font-family="Helvetica,sans-Serif" text-decoration="underline" font-size="12.00" fill="#000000">&#45;(Self, Self) → Self</text>
</g>
<!-- Group&#45;&gt;Monoid -->
<g id="edge5" class="edge">
<title>Group&#45;&gt;Monoid</title>
<path fill="none" stroke="#000000" d="M707.059,-664.1892C706.8342,-672.3563 706.5899,-681.2336 706.3507,-689.925"/>
<polygon fill="none" stroke="#000000" points="702.8502,-689.8963 706.0737,-699.9888 709.8476,-690.0889 702.8502,-689.8963"/>
</g>
<!-- AbelianGroup -->
<g id="node7" class="node">
<title>AbelianGroup</title>
<polygon fill="none" stroke="#000000" points="634.5,-544 551.5,-544 551.5,-508 634.5,-508 634.5,-544"/>
<polyline fill="none" stroke="#000000" points="552,-509 635,-509 "/>
<text text-anchor="start" x="572.1543" y="-528.4" font-family="Helvetica,sans-Serif" font-size="12.00" fill="#000000">protocol</text>
<text text-anchor="start" x="556.8086" y="-516.4" font-family="Helvetica,sans-Serif" font-size="12.00" fill="#000000">AbelianGroup</text>
</g>
<!-- AbelianGroup&#45;&gt;CommutativeMonoid -->
<g id="edge6" class="edge">
<title>AbelianGroup&#45;&gt;CommutativeMonoid</title>
<path fill="none" stroke="#000000" d="M586.3809,-544.1154C580.5319,-560.1231 571.9104,-583.719 565.1834,-602.1296"/>
<polygon fill="none" stroke="#000000" points="561.8153,-601.1494 561.6707,-611.7432 568.3902,-603.5518 561.8153,-601.1494"/>
</g>
<!-- AbelianGroup&#45;&gt;Group -->
<g id="edge7" class="edge">
<title>AbelianGroup&#45;&gt;Group</title>
<path fill="none" stroke="#000000" d="M613.0315,-544.1154C626.648,-556.4295 645.2297,-573.2338 662.3472,-588.7139"/>
<polygon fill="none" stroke="#000000" points="660.3213,-591.6008 670.0858,-595.7124 665.0165,-586.409 660.3213,-591.6008"/>
</g>
<!-- Semiring -->
<g id="node8" class="node">
<title>Semiring</title>
<polygon fill="none" stroke="#000000" points="379,-560 269,-560 269,-492 379,-492 379,-560"/>
<polyline fill="none" stroke="#000000" points="269,-526 379,-526 "/>
<text text-anchor="start" x="302.6543" y="-545.4" font-family="Helvetica,sans-Serif" font-size="12.00" fill="#000000">protocol</text>
<text text-anchor="start" x="300.3252" y="-533.4" font-family="Helvetica,sans-Serif" font-size="12.00" fill="#000000">Semiring</text>
<polyline fill="none" stroke="#000000" points="269,-492 379,-492 "/>
<text text-anchor="start" x="274" y="-512.4" font-family="Helvetica,sans-Serif" font-style="italic" text-decoration="underline" font-size="12.00" fill="#000000">*(Self, Self) → Self</text>
<text text-anchor="start" x="274" y="-500.4" font-family="Helvetica,sans-Serif" text-decoration="underline" font-size="12.00" fill="#000000">**(Self, Int) → Self</text>
</g>
<!-- Semiring&#45;&gt;CommutativeMonoid -->
<g id="edge29" class="edge">
<title>Semiring&#45;&gt;CommutativeMonoid</title>
<path fill="none" stroke="#000000" d="M379.0368,-550.7785C417.5426,-568.1144 468.5346,-591.0719 505.7094,-607.8086"/>
<polygon fill="none" stroke="#000000" points="504.2915,-611.0085 514.8469,-611.9224 507.1653,-604.6256 504.2915,-611.0085"/>
</g>
<!-- Unital(Semiring) -->
<g id="node9" class="node">
<title>Unital(Semiring)</title>
<polygon fill="none" stroke="#000000" points="316,-450 220,-450 220,-394 316,-394 316,-450"/>
<polyline fill="none" stroke="#000000" points="220,-416 316,-416 "/>
<text text-anchor="start" x="246.6543" y="-435.4" font-family="Helvetica,sans-Serif" font-size="12.00" fill="#000000">protocol</text>
<text text-anchor="start" x="224.9893" y="-423.4" font-family="Helvetica,sans-Serif" font-size="12.00" fill="#000000">Unital(Semiring)</text>
<polyline fill="none" stroke="#000000" points="220,-394 316,-394 "/>
<text text-anchor="start" x="225" y="-402.4" font-family="Helvetica,sans-Serif" font-style="italic" text-decoration="underline" font-size="12.00" fill="#000000">unit: Self</text>
</g>
<!-- Unital(Semiring)&#45;&gt;Semiring -->
<g id="edge8" class="edge">
<title>Unital(Semiring)&#45;&gt;Semiring</title>
<path fill="none" stroke="#000000" d="M283.1544,-450.1439C288.5699,-460.2013 294.8039,-471.7787 300.7445,-482.8112"/>
<polygon fill="none" stroke="#000000" points="297.8184,-484.7595 305.6411,-491.9049 303.9817,-481.4408 297.8184,-484.7595"/>
</g>
<!-- Commutative(Semiring) -->
<g id="node10" class="node">
<title>Commutative(Semiring)</title>
<polygon fill="none" stroke="#000000" points="184,-440 48,-440 48,-404 184,-404 184,-440"/>
<polyline fill="none" stroke="#000000" points="48,-405 184,-405 "/>
<text text-anchor="start" x="94.6543" y="-424.4" font-family="Helvetica,sans-Serif" font-size="12.00" fill="#000000">protocol</text>
<text text-anchor="start" x="52.9854" y="-412.4" font-family="Helvetica,sans-Serif" font-size="12.00" fill="#000000">Commutative(Semiring)</text>
</g>
<!-- Commutative(Semiring)&#45;&gt;Semiring -->
<g id="edge9" class="edge">
<title>Commutative(Semiring)&#45;&gt;Semiring</title>
<path fill="none" stroke="#000000" d="M137.4665,-440.2155C154.1978,-453.7126 178.4672,-471.8055 202,-484 219.8681,-493.2591 240.2202,-501.1921 259.1122,-507.5893"/>
<polygon fill="none" stroke="#000000" points="258.2445,-510.9885 268.8375,-510.7936 260.435,-504.34 258.2445,-510.9885"/>
</g>
<!-- Ring -->
<g id="node11" class="node">
<title>Ring</title>
<polygon fill="none" stroke="#000000" points="407.5,-440 352.5,-440 352.5,-404 407.5,-404 407.5,-440"/>
<polyline fill="none" stroke="#000000" points="353,-405 408,-405 "/>
<text text-anchor="start" x="359.1543" y="-424.4" font-family="Helvetica,sans-Serif" font-size="12.00" fill="#000000">protocol</text>
<text text-anchor="start" x="368.1602" y="-412.4" font-family="Helvetica,sans-Serif" font-size="12.00" fill="#000000">Ring</text>
</g>
<!-- Ring&#45;&gt;AbelianGroup -->
<g id="edge30" class="edge">
<title>Ring&#45;&gt;AbelianGroup</title>
<path fill="none" stroke="#000000" d="M407.846,-435.5962C443.1453,-452.8315 504.4913,-482.7845 546.84,-503.4618"/>
<polygon fill="none" stroke="#000000" points="545.3156,-506.6124 555.8374,-507.8549 548.3869,-500.3221 545.3156,-506.6124"/>
</g>
<!-- Ring&#45;&gt;Semiring -->
<g id="edge10" class="edge">
<title>Ring&#45;&gt;Semiring</title>
<path fill="none" stroke="#000000" d="M370.2455,-440.1154C363.9136,-451.8748 355.3767,-467.729 347.3614,-482.6145"/>
<polygon fill="none" stroke="#000000" points="344.122,-481.2483 342.4626,-491.7124 350.2853,-484.567 344.122,-481.2483"/>
</g>
<!-- InvolutiveRing -->
<g id="node12" class="node">
<title>InvolutiveRing</title>
<polygon fill="none" stroke="#000000" points="470,-335 350,-335 350,-277 470,-277 470,-335"/>
<polyline fill="none" stroke="#000000" points="350,-301 470,-301 "/>
<text text-anchor="start" x="388.6543" y="-320.4" font-family="Helvetica,sans-Serif" font-size="12.00" fill="#000000">protocol</text>
<text text-anchor="start" x="372.3125" y="-308.4" font-family="Helvetica,sans-Serif" font-size="12.00" fill="#000000">InvolutiveRing</text>
<polyline fill="none" stroke="#000000" points="350,-277 470,-277 "/>
<text text-anchor="start" x="355" y="-287.4" font-family="Helvetica,sans-Serif" font-style="italic" text-decoration="underline" font-size="12.00" fill="#000000">postfix *(Self) → Self</text>
</g>
<!-- InvolutiveRing&#45;&gt;Ring -->
<g id="edge11" class="edge">
<title>InvolutiveRing&#45;&gt;Ring</title>
<path fill="none" stroke="#000000" d="M402.4297,-335.2717C397.7575,-353.3378 391.7986,-376.3789 387.1972,-394.1708"/>
<polygon fill="none" stroke="#000000" points="383.7802,-393.4047 384.6649,-403.9625 390.5573,-395.1574 383.7802,-393.4047"/>
</g>
<!-- TriviallyInvolutiveRing -->
<g id="node13" class="node">
<title>TriviallyInvolutiveRing</title>
<polygon fill="none" stroke="#000000" points="469.5,-207 344.5,-207 344.5,-149 469.5,-149 469.5,-207"/>
<polyline fill="none" stroke="#000000" points="345,-173 470,-173 "/>
<text text-anchor="start" x="386.1543" y="-192.4" font-family="Helvetica,sans-Serif" font-size="12.00" fill="#000000">protocol</text>
<text text-anchor="start" x="349.7002" y="-180.4" font-family="Helvetica,sans-Serif" font-size="12.00" fill="#000000">TriviallyInvolutiveRing</text>
<polyline fill="none" stroke="#000000" points="345,-149 470,-149 "/>
<text text-anchor="start" x="350" y="-159.4" font-family="Helvetica,sans-Serif" text-decoration="underline" font-size="12.00" fill="#000000">postfix *(Self) → Self</text>
</g>
<!-- TriviallyInvolutiveRing&#45;&gt;InvolutiveRing -->
<g id="edge12" class="edge">
<title>TriviallyInvolutiveRing&#45;&gt;InvolutiveRing</title>
<path fill="none" stroke="#000000" d="M407.6807,-207.0452C408.0921,-224.5956 408.622,-247.2048 409.0714,-266.3806"/>
<polygon fill="none" stroke="#000000" points="405.5781,-266.7115 409.3116,-276.6267 412.5762,-266.5474 405.5781,-266.7115"/>
</g>
<!-- IntegralDomain -->
<g id="node14" class="node">
<title>IntegralDomain</title>
<polygon fill="none" stroke="#000000" points="169.5,-324 78.5,-324 78.5,-288 169.5,-288 169.5,-324"/>
<polyline fill="none" stroke="#000000" points="79,-289 170,-289 "/>
<text text-anchor="start" x="103.1543" y="-308.4" font-family="Helvetica,sans-Serif" font-size="12.00" fill="#000000">protocol</text>
<text text-anchor="start" x="83.8125" y="-296.4" font-family="Helvetica,sans-Serif" font-size="12.00" fill="#000000">IntegralDomain</text>
</g>
<!-- IntegralDomain&#45;&gt;Unital(Semiring) -->
<g id="edge18" class="edge">
<title>IntegralDomain&#45;&gt;Unital(Semiring)</title>
<path fill="none" stroke="#000000" d="M146.5,-324.125C167.5039,-341.0448 199.4008,-366.7396 225.2429,-387.5568"/>
<polygon fill="none" stroke="#000000" points="223.0665,-390.2979 233.0497,-393.8456 227.4578,-384.8466 223.0665,-390.2979"/>
</g>
<!-- IntegralDomain&#45;&gt;Commutative(Semiring) -->
<g id="edge19" class="edge">
<title>IntegralDomain&#45;&gt;Commutative(Semiring)</title>
<path fill="none" stroke="#000000" d="M122.75,-324.125C121.4718,-342.6588 119.4675,-371.7213 117.9746,-393.3689"/>
<polygon fill="none" stroke="#000000" points="114.464,-393.4023 117.2676,-403.6195 121.4474,-393.884 114.464,-393.4023"/>
</g>
<!-- IntegralDomain&#45;&gt;Ring -->
<g id="edge20" class="edge">
<title>IntegralDomain&#45;&gt;Ring</title>
<path fill="none" stroke="#000000" d="M144.9254,-324.1769C156.8478,-333.696 172.4706,-344.8313 188,-352 248.6792,-380.0108 273.5086,-359.586 334,-388 339.7808,-390.7153 345.5602,-394.2122 350.9741,-397.9265"/>
<polygon fill="none" stroke="#000000" points="348.9835,-400.8066 359.1285,-403.8612 353.1027,-395.1468 348.9835,-400.8066"/>
</g>
<!-- DivisionRing -->
<g id="node15" class="node">
<title>DivisionRing</title>
<polygon fill="none" stroke="#000000" points="314,-346 206,-346 206,-266 314,-266 314,-346"/>
<polyline fill="none" stroke="#000000" points="206,-312 314,-312 "/>
<text text-anchor="start" x="238.6543" y="-331.4" font-family="Helvetica,sans-Serif" font-size="12.00" fill="#000000">protocol</text>
<text text-anchor="start" x="226.6543" y="-319.4" font-family="Helvetica,sans-Serif" font-size="12.00" fill="#000000">DivisionRing</text>
<polyline fill="none" stroke="#000000" points="206,-290 314,-290 "/>
<text text-anchor="start" x="211" y="-297.4" font-family="Helvetica,sans-Serif" font-size="12.00" fill="#000000">inversed: Self</text>
<polyline fill="none" stroke="#000000" points="206,-266 314,-266 "/>
<text text-anchor="start" x="211" y="-276.4" font-family="Helvetica,sans-Serif" font-style="italic" text-decoration="underline" font-size="12.00" fill="#000000">/(Self, Self) → Self</text>
</g>
<!-- DivisionRing&#45;&gt;Unital(Semiring) -->
<g id="edge14" class="edge">
<title>DivisionRing&#45;&gt;Unital(Semiring)</title>
<path fill="none" stroke="#000000" d="M262.7756,-346.2456C263.6133,-358.3923 264.5303,-371.6887 265.3589,-383.7047"/>
<polygon fill="none" stroke="#000000" points="261.8804,-384.1379 266.0602,-393.8734 268.8638,-383.6562 261.8804,-384.1379"/>
</g>
<!-- DivisionRing&#45;&gt;Ring -->
<g id="edge15" class="edge">
<title>DivisionRing&#45;&gt;Ring</title>
<path fill="none" stroke="#000000" d="M301.6334,-346.2456C318.9269,-362.9626 338.4732,-381.8574 353.7187,-396.5948"/>
<polygon fill="none" stroke="#000000" points="351.6419,-399.4552 361.2644,-403.8889 356.5071,-394.4222 351.6419,-399.4552"/>
</g>
<!-- EuclideanDomain -->
<g id="node16" class="node">
<title>EuclideanDomain</title>
<polygon fill="none" stroke="#000000" points="270,-224 16,-224 16,-132 270,-132 270,-224"/>
<polyline fill="none" stroke="#000000" points="16,-190 270,-190 "/>
<text text-anchor="start" x="121.6543" y="-209.4" font-family="Helvetica,sans-Serif" font-size="12.00" fill="#000000">protocol</text>
<text text-anchor="start" x="95.9727" y="-197.4" font-family="Helvetica,sans-Serif" font-size="12.00" fill="#000000">EuclideanDomain</text>
<polyline fill="none" stroke="#000000" points="16,-132 270,-132 "/>
<text text-anchor="start" x="21" y="-176.4" font-family="Helvetica,sans-Serif" font-style="italic" text-decoration="underline" font-size="12.00" fill="#000000">divideWithRemainder(Self, Self) → (Self, Self)</text>
<text text-anchor="start" x="21" y="-164.4" font-family="Helvetica,sans-Serif" text-decoration="underline" font-size="12.00" fill="#000000">%(Self, Self) → Self</text>
<text text-anchor="start" x="21" y="-152.4" font-family="Helvetica,sans-Serif" text-decoration="underline" font-size="12.00" fill="#000000">/%(Self, Self) → Self</text>
<text text-anchor="start" x="21" y="-140.4" font-family="Helvetica,sans-Serif" text-decoration="underline" font-size="12.00" fill="#000000">greatestCommonDivisor(Self, Self) → Self</text>
</g>
<!-- EuclideanDomain&#45;&gt;IntegralDomain -->
<g id="edge17" class="edge">
<title>EuclideanDomain&#45;&gt;IntegralDomain</title>
<path fill="none" stroke="#000000" d="M136.1406,-224.2109C133.4805,-242.1312 130.5204,-262.0728 128.1891,-277.7787"/>
<polygon fill="none" stroke="#000000" points="124.6933,-277.4928 126.687,-287.8984 131.6174,-278.5207 124.6933,-277.4928"/>
</g>
<!-- Field -->
<g id="node17" class="node">
<title>Field</title>
<polygon fill="none" stroke="#000000" points="352,-85 98,-85 98,-27 352,-27 352,-85"/>
<polyline fill="none" stroke="#000000" points="98,-51 352,-51 "/>
<text text-anchor="start" x="203.6543" y="-70.4" font-family="Helvetica,sans-Serif" font-size="12.00" fill="#000000">protocol</text>
<text text-anchor="start" x="211.9951" y="-58.4" font-family="Helvetica,sans-Serif" font-size="12.00" fill="#000000">Field</text>
<polyline fill="none" stroke="#000000" points="98,-27 352,-27 "/>
<text text-anchor="start" x="103" y="-37.4" font-family="Helvetica,sans-Serif" text-decoration="underline" font-size="12.00" fill="#000000">divideWithRemainder(Self, Self) → (Self, Self)</text>
</g>
<!-- Field&#45;&gt;DivisionRing -->
<g id="edge13" class="edge">
<title>Field&#45;&gt;DivisionRing</title>
<path fill="none" stroke="#000000" d="M257.1941,-85.0157C269.3015,-98.0402 281.6634,-114.4268 288,-132 302.5621,-172.3849 292.7509,-220.7697 280.909,-256.2539"/>
<polygon fill="none" stroke="#000000" points="277.532,-255.308 277.5337,-265.9028 284.1394,-257.6194 277.532,-255.308"/>
</g>
<!-- Field&#45;&gt;EuclideanDomain -->
<g id="edge16" class="edge">
<title>Field&#45;&gt;EuclideanDomain</title>
<path fill="none" stroke="#000000" d="M205.359,-85.222C197.6633,-96.6717 188.5747,-110.1937 179.7514,-123.321"/>
<polygon fill="none" stroke="#000000" points="176.6825,-121.6128 174.0089,-131.8648 182.4921,-125.5177 176.6825,-121.6128"/>
</g>
<!-- VectorSpace&lt;Scalar: Field&gt; -->
<g id="node18" class="node">
<title>VectorSpace&lt;Scalar: Field&gt;</title>
<polygon fill="none" stroke="#000000" points="711,-456 553,-456 553,-388 711,-388 711,-456"/>
<polyline fill="none" stroke="#000000" points="553,-422 711,-422 "/>
<text text-anchor="start" x="610.6543" y="-441.4" font-family="Helvetica,sans-Serif" font-size="12.00" fill="#000000">protocol</text>
<text text-anchor="start" x="557.6211" y="-429.4" font-family="Helvetica,sans-Serif" font-size="12.00" fill="#000000">VectorSpace&lt;Scalar: Field&gt;</text>
<polyline fill="none" stroke="#000000" points="553,-388 711,-388 "/>
<text text-anchor="start" x="558" y="-408.4" font-family="Helvetica,sans-Serif" font-style="italic" text-decoration="underline" font-size="12.00" fill="#000000">*(Self, Scalar) → Self</text>
<text text-anchor="start" x="558" y="-396.4" font-family="Helvetica,sans-Serif" font-style="italic" text-decoration="underline" font-size="12.00" fill="#000000">/(Self, Scalar) → Self</text>
</g>
<!-- VectorSpace&lt;Scalar: Field&gt;&#45;&gt;AbelianGroup -->
<g id="edge31" class="edge">
<title>VectorSpace&lt;Scalar: Field&gt;&#45;&gt;AbelianGroup</title>
<path fill="none" stroke="#000000" d="M619.2299,-456.0535C614.0608,-469.8379 608.1725,-485.5399 603.2864,-498.5696"/>
<polygon fill="none" stroke="#000000" points="600.0079,-497.3443 599.7738,-507.9366 606.5622,-499.8022 600.0079,-497.3443"/>
</g>
<!-- VectorSpace&lt;Scalar: Field&gt;&#45;&gt;Field -->
<g id="edge32" class="edge">
<title>VectorSpace&lt;Scalar: Field&gt;&#45;&gt;Field</title>
<path fill="none" stroke="#000000" stroke-dasharray="5,2" d="M624.4394,-387.7651C609.2369,-327.0482 569.1619,-200.4682 487,-132 466.7485,-115.1238 414.5672,-98.5536 362.0548,-85.2146"/>
<polygon fill="#000000" stroke="#000000" points="352.2533,-82.7622 363.0466,-80.8241 357.1038,-83.9758 361.9543,-85.1895 361.9543,-85.1895 361.9543,-85.1895 357.1038,-83.9758 360.862,-89.555 352.2533,-82.7622 352.2533,-82.7622"/>
</g>
<!-- MetricSpace -->
<g id="node19" class="node">
<title>MetricSpace</title>
<polygon fill="none" stroke="#000000" points="902.5,-451 747.5,-451 747.5,-393 902.5,-393 902.5,-451"/>
<polyline fill="none" stroke="#000000" points="748,-417 903,-417 "/>
<text text-anchor="start" x="804.1543" y="-436.4" font-family="Helvetica,sans-Serif" font-size="12.00" fill="#000000">protocol</text>
<text text-anchor="start" x="792.1543" y="-424.4" font-family="Helvetica,sans-Serif" font-size="12.00" fill="#000000">MetricSpace</text>
<polyline fill="none" stroke="#000000" points="748,-393 903,-393 "/>
<text text-anchor="start" x="753" y="-403.4" font-family="Helvetica,sans-Serif" font-style="italic" text-decoration="underline" font-size="12.00" fill="#000000">metric(Self, Self) → Double</text>
</g>
<!-- MetricSpace&#45;&gt;Equatable -->
<g id="edge28" class="edge">
<title>MetricSpace&#45;&gt;Equatable</title>
<path fill="none" stroke="#000000" d="M824.5412,-451.2785C823.9507,-491.5402 823,-566.2609 823,-630 823,-630 823,-630 823,-739 823,-813.9485 814.6303,-836.7934 782.1544,-908.2978"/>
<polygon fill="none" stroke="#000000" points="778.8105,-907.1958 777.8539,-917.7474 785.1818,-910.0954 778.8105,-907.1958"/>
</g>
<!-- NormedSpace -->
<g id="node20" class="node">
<title>NormedSpace</title>
<polygon fill="none" stroke="#000000" points="819.5,-352 664.5,-352 664.5,-260 819.5,-260 819.5,-352"/>
<polyline fill="none" stroke="#000000" points="665,-318 820,-318 "/>
<text text-anchor="start" x="721.1543" y="-337.4" font-family="Helvetica,sans-Serif" font-size="12.00" fill="#000000">protocol</text>
<text text-anchor="start" x="704.1475" y="-325.4" font-family="Helvetica,sans-Serif" font-size="12.00" fill="#000000">NormedSpace</text>
<polyline fill="none" stroke="#000000" points="665,-284 820,-284 "/>
<text text-anchor="start" x="670" y="-304.4" font-family="Helvetica,sans-Serif" font-size="12.00" fill="#000000">norm: Double</text>
<text text-anchor="start" x="670" y="-292.4" font-family="Helvetica,sans-Serif" font-style="italic" font-size="12.00" fill="#000000">squaredNorm: Double</text>
<polyline fill="none" stroke="#000000" points="665,-260 820,-260 "/>
<text text-anchor="start" x="670" y="-270.4" font-family="Helvetica,sans-Serif" text-decoration="underline" font-size="12.00" fill="#000000">metric(Self, Self) → Double</text>
</g>
<!-- NormedSpace&#45;&gt;VectorSpace&lt;Scalar: Field&gt; -->
<g id="edge21" class="edge">
<title>NormedSpace&#45;&gt;VectorSpace&lt;Scalar: Field&gt;</title>
<path fill="none" stroke="#000000" d="M698.209,-352.1796C689.4093,-361.4593 680.2098,-371.1606 671.564,-380.2779"/>
<polygon fill="none" stroke="#000000" points="668.794,-378.1125 664.4527,-387.7771 673.8734,-382.9292 668.794,-378.1125"/>
</g>
<!-- NormedSpace&#45;&gt;MetricSpace -->
<g id="edge22" class="edge">
<title>NormedSpace&#45;&gt;MetricSpace</title>
<path fill="none" stroke="#000000" d="M775.0423,-352.1796C782.7416,-362.9401 790.8466,-374.2675 798.2353,-384.5939"/>
<polygon fill="none" stroke="#000000" points="795.5834,-386.9024 804.2488,-392.9983 801.2762,-382.8291 795.5834,-386.9024"/>
</g>
<!-- NormedSpace&lt;Double&gt; -->
<g id="node21" class="node">
<title>NormedSpace&lt;Double&gt;</title>
<polygon fill="none" stroke="#000000" points="902,-196 764,-196 764,-160 902,-160 902,-196"/>
<polyline fill="none" stroke="#000000" points="764,-161 902,-161 "/>
<text text-anchor="start" x="811.6543" y="-180.4" font-family="Helvetica,sans-Serif" font-size="12.00" fill="#000000">protocol</text>
<text text-anchor="start" x="768.626" y="-168.4" font-family="Helvetica,sans-Serif" font-size="12.00" fill="#000000">NormedSpace&lt;Double&gt;</text>
</g>
<!-- NormedSpace&lt;Double&gt;&#45;&gt;NormedSpace -->
<g id="edge24" class="edge">
<title>NormedSpace&lt;Double&gt;&#45;&gt;NormedSpace</title>
<path fill="none" stroke="#000000" d="M820.1549,-196.0678C809.8665,-210.5395 794.8699,-231.6335 780.7582,-251.483"/>
<polygon fill="none" stroke="#000000" points="777.7225,-249.7125 774.7808,-259.8908 783.4277,-253.7686 777.7225,-249.7125"/>
</g>
<!-- NormedSpace&lt;Complex&gt; -->
<g id="node22" class="node">
<title>NormedSpace&lt;Complex&gt;</title>
<polygon fill="none" stroke="#000000" points="728,-196 580,-196 580,-160 728,-160 728,-196"/>
<polyline fill="none" stroke="#000000" points="580,-161 728,-161 "/>
<text text-anchor="start" x="632.6543" y="-180.4" font-family="Helvetica,sans-Serif" font-size="12.00" fill="#000000">protocol</text>
<text text-anchor="start" x="584.9648" y="-168.4" font-family="Helvetica,sans-Serif" font-size="12.00" fill="#000000">NormedSpace&lt;Complex&gt;</text>
</g>
<!-- NormedSpace&lt;Complex&gt;&#45;&gt;NormedSpace -->
<g id="edge26" class="edge">
<title>NormedSpace&lt;Complex&gt;&#45;&gt;NormedSpace</title>
<path fill="none" stroke="#000000" d="M666.4216,-196.0678C676.3709,-210.5395 690.873,-231.6335 704.5196,-251.483"/>
<polygon fill="none" stroke="#000000" points="701.7504,-253.6332 710.2999,-259.8908 707.5187,-249.6675 701.7504,-253.6332"/>
</g>
<!-- EuclideanSpace -->
<g id="node23" class="node">
<title>EuclideanSpace</title>
<polygon fill="none" stroke="#000000" points="902.5,-96 761.5,-96 761.5,-16 902.5,-16 902.5,-96"/>
<polyline fill="none" stroke="#000000" points="762,-62 903,-62 "/>
<text text-anchor="start" x="811.1543" y="-81.4" font-family="Helvetica,sans-Serif" font-size="12.00" fill="#000000">protocol</text>
<text text-anchor="start" x="789.1348" y="-69.4" font-family="Helvetica,sans-Serif" font-size="12.00" fill="#000000">EuclideanSpace</text>
<polyline fill="none" stroke="#000000" points="762,-40 903,-40 "/>
<text text-anchor="start" x="767" y="-47.4" font-family="Helvetica,sans-Serif" font-size="12.00" fill="#000000">squaredNorm: Double</text>
<polyline fill="none" stroke="#000000" points="762,-16 903,-16 "/>
<text text-anchor="start" x="767" y="-26.4" font-family="Helvetica,sans-Serif" font-style="italic" text-decoration="underline" font-size="12.00" fill="#000000">&lt;*&gt;(Self, Self) → Double</text>
</g>
<!-- EuclideanSpace&#45;&gt;NormedSpace&lt;Double&gt; -->
<g id="edge23" class="edge">
<title>EuclideanSpace&#45;&gt;NormedSpace&lt;Double&gt;</title>
<path fill="none" stroke="#000000" d="M832.3302,-96.2855C832.4735,-113.7671 832.6379,-133.8244 832.768,-149.6925"/>
<polygon fill="none" stroke="#000000" points="829.2699,-149.9547 832.8518,-159.9257 836.2697,-149.8973 829.2699,-149.9547"/>
</g>
<!-- UnitarySpace -->
<g id="node24" class="node">
<title>UnitarySpace</title>
<polygon fill="none" stroke="#000000" points="725,-96 575,-96 575,-16 725,-16 725,-96"/>
<polyline fill="none" stroke="#000000" points="575,-62 725,-62 "/>
<text text-anchor="start" x="628.6543" y="-81.4" font-family="Helvetica,sans-Serif" font-size="12.00" fill="#000000">protocol</text>
<text text-anchor="start" x="613.9824" y="-69.4" font-family="Helvetica,sans-Serif" font-size="12.00" fill="#000000">UnitarySpace</text>
<polyline fill="none" stroke="#000000" points="575,-40 725,-40 "/>
<text text-anchor="start" x="580" y="-47.4" font-family="Helvetica,sans-Serif" font-size="12.00" fill="#000000">squaredNorm: Double</text>
<polyline fill="none" stroke="#000000" points="575,-16 725,-16 "/>
<text text-anchor="start" x="580" y="-26.4" font-family="Helvetica,sans-Serif" font-style="italic" text-decoration="underline" font-size="12.00" fill="#000000">&lt;*&gt;(Self, Self) → Complex</text>
</g>
<!-- UnitarySpace&#45;&gt;NormedSpace&lt;Complex&gt; -->
<g id="edge25" class="edge">
<title>UnitarySpace&#45;&gt;NormedSpace&lt;Complex&gt;</title>
<path fill="none" stroke="#000000" d="M651.3208,-96.2855C651.894,-113.7671 652.5516,-133.8244 653.0719,-149.6925"/>
<polygon fill="none" stroke="#000000" points="649.5815,-150.0457 653.4074,-159.9257 656.5777,-149.8163 649.5815,-150.0457"/>
</g>
</g>
</svg>
