<?xml version="1.0" encoding="UTF-8" standalone="no"?>
<!DOCTYPE svg PUBLIC "-//W3C//DTD SVG 1.1//EN"
 "http://www.w3.org/Graphics/SVG/1.1/DTD/svg11.dtd">
<!-- Generated by graphviz version 2.40.1 (20161225.0304)
 -->
<!-- Title: %3 Pages: 1 -->
<svg width="1134pt" height="952pt"
 viewBox="0.00 0.00 1134.00 952.00" xmlns="http://www.w3.org/2000/svg" xmlns:xlink="http://www.w3.org/1999/xlink">
<g id="graph0" class="graph" transform="scale(1 1) rotate(0) translate(4 948)">
<title>%3</title>
<polygon fill="#ffffff" stroke="transparent" points="-4,4 -4,-948 1130,-948 1130,4 -4,4"/>
<g id="clust1" class="cluster">
<title>cluster GroupLike</title>
<polygon fill="none" stroke="#000000" points="486,-490 486,-900 772,-900 772,-490 486,-490"/>
<text text-anchor="middle" x="736.3174" y="-886.4" font-family="Helvetica,sans-Serif" font-size="12.00" fill="#000000">GroupLike</text>
</g>
<g id="clust5" class="cluster">
<title>cluster RingLike</title>
<polygon fill="none" stroke="#000000" points="8,-8 8,-578 478,-578 478,-8 8,-8"/>
<text text-anchor="middle" x="446.6533" y="-564.4" font-family="Helvetica,sans-Serif" font-size="12.00" fill="#000000">RingLike</text>
</g>
<g id="clust10" class="cluster">
<title>cluster Spaces</title>
<polygon fill="none" stroke="#000000" points="780,-102 780,-573 1118,-573 1118,-102 780,-102"/>
<text text-anchor="middle" x="1089.9873" y="-559.4" font-family="Helvetica,sans-Serif" font-size="12.00" fill="#000000">Spaces</text>
</g>
<!-- Equatable -->
<g id="node1" class="node">
<title>Equatable</title>
<polygon fill="none" stroke="#000000" points="662,-944 598,-944 598,-908 662,-908 662,-944"/>
<polyline fill="none" stroke="#000000" points="598,-909 662,-909 "/>
<text text-anchor="start" x="608.6543" y="-928.4" font-family="Helvetica,sans-Serif" font-size="12.00" fill="#000000">protocol</text>
<text text-anchor="start" x="602.9766" y="-916.4" font-family="Helvetica,sans-Serif" font-size="12.00" fill="#000000">Equatable</text>
</g>
<!-- Semigroup -->
<g id="node2" class="node">
<title>Semigroup</title>
<polygon fill="none" stroke="#000000" points="686,-872 574,-872 574,-804 686,-804 686,-872"/>
<polyline fill="none" stroke="#000000" points="574,-838 686,-838 "/>
<text text-anchor="start" x="608.6543" y="-857.4" font-family="Helvetica,sans-Serif" font-size="12.00" fill="#000000">protocol</text>
<text text-anchor="start" x="600.9844" y="-845.4" font-family="Helvetica,sans-Serif" font-size="12.00" fill="#000000">Semigroup</text>
<polyline fill="none" stroke="#000000" points="574,-804 686,-804 "/>
<text text-anchor="start" x="579" y="-824.4" font-family="Helvetica,sans-Serif" font-style="italic" text-decoration="underline" font-size="12.00" fill="#000000">+(Self, Self) → Self</text>
<text text-anchor="start" x="579" y="-812.4" font-family="Helvetica,sans-Serif" text-decoration="underline" font-size="12.00" fill="#000000">*(Self, Int) → Self</text>
</g>
<!-- Semigroup&#45;&gt;Equatable -->
<g id="edge26" class="edge">
<title>Semigroup&#45;&gt;Equatable</title>
<path fill="none" stroke="#000000" d="M630,-872.0231C630,-880.4977 630,-889.4935 630,-897.6612"/>
<polygon fill="none" stroke="#000000" points="626.5001,-897.808 630,-907.808 633.5001,-897.8081 626.5001,-897.808"/>
</g>
<!-- CommutativeSemigroup -->
<g id="node3" class="node">
<title>CommutativeSemigroup</title>
<polygon fill="none" stroke="#000000" points="632,-747 494,-747 494,-711 632,-711 632,-747"/>
<polyline fill="none" stroke="#000000" points="494,-712 632,-712 "/>
<text text-anchor="start" x="541.6543" y="-731.4" font-family="Helvetica,sans-Serif" font-size="12.00" fill="#000000">protocol</text>
<text text-anchor="start" x="498.6406" y="-719.4" font-family="Helvetica,sans-Serif" font-size="12.00" fill="#000000">CommutativeSemigroup</text>
</g>
<!-- CommutativeSemigroup&#45;&gt;Semigroup -->
<g id="edge3" class="edge">
<title>CommutativeSemigroup&#45;&gt;Semigroup</title>
<path fill="none" stroke="#000000" d="M574.3656,-747.4904C582.3669,-760.5074 593.4175,-778.4852 603.5627,-794.9901"/>
<polygon fill="none" stroke="#000000" points="600.8623,-797.2806 609.0807,-803.9671 606.8258,-793.615 600.8623,-797.2806"/>
</g>
<!-- Monoid -->
<g id="node4" class="node">
<title>Monoid</title>
<polygon fill="none" stroke="#000000" points="728,-768 668,-768 668,-690 728,-690 728,-768"/>
<polyline fill="none" stroke="#000000" points="668,-734 728,-734 "/>
<text text-anchor="start" x="676.6543" y="-753.4" font-family="Helvetica,sans-Serif" font-size="12.00" fill="#000000">protocol</text>
<text text-anchor="start" x="678.3213" y="-741.4" font-family="Helvetica,sans-Serif" font-size="12.00" fill="#000000">Monoid</text>
<polyline fill="none" stroke="#000000" points="668,-712 728,-712 "/>
<text text-anchor="start" x="673" y="-720.4" font-family="Helvetica,sans-Serif" text-decoration="underline" font-size="12.00" fill="#000000">zero: Self</text>
<polyline fill="none" stroke="#000000" points="668,-690 728,-690 "/>
<text text-anchor="start" x="673" y="-698.4" font-family="Helvetica,sans-Serif" font-style="italic" font-size="12.00" fill="#000000">init()</text>
</g>
<!-- Monoid&#45;&gt;Semigroup -->
<g id="edge4" class="edge">
<title>Monoid&#45;&gt;Semigroup</title>
<path fill="none" stroke="#000000" d="M673.6425,-768.0436C668.1548,-776.8401 662.3017,-786.2222 656.7229,-795.1648"/>
<polygon fill="none" stroke="#000000" points="653.5827,-793.5858 651.2592,-803.9228 659.5218,-797.291 653.5827,-793.5858"/>
</g>
<!-- CommutativeMonoid -->
<g id="node5" class="node">
<title>CommutativeMonoid</title>
<polygon fill="none" stroke="#000000" points="614,-638 494,-638 494,-602 614,-602 614,-638"/>
<polyline fill="none" stroke="#000000" points="494,-603 614,-603 "/>
<text text-anchor="start" x="532.6543" y="-622.4" font-family="Helvetica,sans-Serif" font-size="12.00" fill="#000000">protocol</text>
<text text-anchor="start" x="498.9775" y="-610.4" font-family="Helvetica,sans-Serif" font-size="12.00" fill="#000000">CommutativeMonoid</text>
</g>
<!-- CommutativeMonoid&#45;&gt;CommutativeSemigroup -->
<g id="edge1" class="edge">
<title>CommutativeMonoid&#45;&gt;CommutativeSemigroup</title>
<path fill="none" stroke="#000000" d="M555.5267,-638.4904C556.9316,-655.5048 559.0362,-680.9945 560.6544,-700.5924"/>
<polygon fill="none" stroke="#000000" points="557.1847,-701.1047 561.4958,-710.7827 564.161,-700.5286 557.1847,-701.1047"/>
</g>
<!-- CommutativeMonoid&#45;&gt;Monoid -->
<g id="edge2" class="edge">
<title>CommutativeMonoid&#45;&gt;Monoid</title>
<path fill="none" stroke="#000000" d="M579.533,-638.0661C599.0324,-651.9954 626.4656,-671.8787 650,-690 653.302,-692.5425 656.706,-695.2105 660.1053,-697.9075"/>
<polygon fill="none" stroke="#000000" points="657.9835,-700.6923 667.9781,-704.2078 662.3573,-695.2269 657.9835,-700.6923"/>
</g>
<!-- Group -->
<g id="node6" class="node">
<title>Group</title>
<polygon fill="none" stroke="#000000" points="764,-654 650,-654 650,-586 764,-586 764,-654"/>
<polyline fill="none" stroke="#000000" points="650,-620 764,-620 "/>
<text text-anchor="start" x="685.6543" y="-639.4" font-family="Helvetica,sans-Serif" font-size="12.00" fill="#000000">protocol</text>
<text text-anchor="start" x="690.3242" y="-627.4" font-family="Helvetica,sans-Serif" font-size="12.00" fill="#000000">Group</text>
<polyline fill="none" stroke="#000000" points="650,-586 764,-586 "/>
<text text-anchor="start" x="655" y="-606.4" font-family="Helvetica,sans-Serif" font-style="italic" text-decoration="underline" font-size="12.00" fill="#000000">prefix &#45;(Self) → Self</text>
<text text-anchor="start" x="655" y="-594.4" font-family="Helvetica,sans-Serif" text-decoration="underline" font-size="12.00" fill="#000000">&#45;(Self, Self) → Self</text>
</g>
<!-- Group&#45;&gt;Monoid -->
<g id="edge5" class="edge">
<title>Group&#45;&gt;Monoid</title>
<path fill="none" stroke="#000000" d="M704.177,-654.1892C703.5027,-662.3563 702.7697,-671.2336 702.0521,-679.925"/>
<polygon fill="none" stroke="#000000" points="698.556,-679.7347 701.2211,-689.9888 705.5322,-680.3108 698.556,-679.7347"/>
</g>
<!-- AbelianGroup -->
<g id="node7" class="node">
<title>AbelianGroup</title>
<polygon fill="none" stroke="#000000" points="748.5,-534 665.5,-534 665.5,-498 748.5,-498 748.5,-534"/>
<polyline fill="none" stroke="#000000" points="666,-499 749,-499 "/>
<text text-anchor="start" x="686.1543" y="-518.4" font-family="Helvetica,sans-Serif" font-size="12.00" fill="#000000">protocol</text>
<text text-anchor="start" x="670.8086" y="-506.4" font-family="Helvetica,sans-Serif" font-size="12.00" fill="#000000">AbelianGroup</text>
</g>
<!-- AbelianGroup&#45;&gt;CommutativeMonoid -->
<g id="edge6" class="edge">
<title>AbelianGroup&#45;&gt;CommutativeMonoid</title>
<path fill="none" stroke="#000000" d="M680.3494,-534.1154C655.087,-551.2873 616.9785,-577.1911 589.2206,-596.0592"/>
<polygon fill="none" stroke="#000000" points="586.9041,-593.4017 580.6014,-601.918 590.8393,-599.1909 586.9041,-593.4017"/>
</g>
<!-- AbelianGroup&#45;&gt;Group -->
<g id="edge7" class="edge">
<title>AbelianGroup&#45;&gt;Group</title>
<path fill="none" stroke="#000000" d="M707,-534.1154C707,-545.542 707,-560.8349 707,-575.3484"/>
<polygon fill="none" stroke="#000000" points="703.5001,-575.7123 707,-585.7124 710.5001,-575.7124 703.5001,-575.7123"/>
</g>
<!-- Semiring -->
<g id="node8" class="node">
<title>Semiring</title>
<polygon fill="none" stroke="#000000" points="379,-550 269,-550 269,-482 379,-482 379,-550"/>
<polyline fill="none" stroke="#000000" points="269,-516 379,-516 "/>
<text text-anchor="start" x="302.6543" y="-535.4" font-family="Helvetica,sans-Serif" font-size="12.00" fill="#000000">protocol</text>
<text text-anchor="start" x="300.3252" y="-523.4" font-family="Helvetica,sans-Serif" font-size="12.00" fill="#000000">Semiring</text>
<polyline fill="none" stroke="#000000" points="269,-482 379,-482 "/>
<text text-anchor="start" x="274" y="-502.4" font-family="Helvetica,sans-Serif" font-style="italic" text-decoration="underline" font-size="12.00" fill="#000000">*(Self, Self) → Self</text>
<text text-anchor="start" x="274" y="-490.4" font-family="Helvetica,sans-Serif" text-decoration="underline" font-size="12.00" fill="#000000">**(Self, Int) → Self</text>
</g>
<!-- Semiring&#45;&gt;CommutativeMonoid -->
<g id="edge27" class="edge">
<title>Semiring&#45;&gt;CommutativeMonoid</title>
<path fill="none" stroke="#000000" d="M379.0907,-540.9106C417.2754,-558.1767 467.6861,-580.9711 504.5755,-597.6516"/>
<polygon fill="none" stroke="#000000" points="503.5689,-601.0375 514.1228,-601.9686 506.453,-594.6593 503.5689,-601.0375"/>
</g>
<!-- Unital(Semiring) -->
<g id="node9" class="node">
<title>Unital(Semiring)</title>
<polygon fill="none" stroke="#000000" points="316,-428 220,-428 220,-372 316,-372 316,-428"/>
<polyline fill="none" stroke="#000000" points="220,-394 316,-394 "/>
<text text-anchor="start" x="246.6543" y="-413.4" font-family="Helvetica,sans-Serif" font-size="12.00" fill="#000000">protocol</text>
<text text-anchor="start" x="224.9893" y="-401.4" font-family="Helvetica,sans-Serif" font-size="12.00" fill="#000000">Unital(Semiring)</text>
<polyline fill="none" stroke="#000000" points="220,-372 316,-372 "/>
<text text-anchor="start" x="225" y="-380.4" font-family="Helvetica,sans-Serif" font-style="italic" text-decoration="underline" font-size="12.00" fill="#000000">unit: Self</text>
</g>
<!-- Unital(Semiring)&#45;&gt;Semiring -->
<g id="edge8" class="edge">
<title>Unital(Semiring)&#45;&gt;Semiring</title>
<path fill="none" stroke="#000000" d="M281.556,-428.0804C288.0432,-441.518 295.9547,-457.9061 303.1817,-472.8763"/>
<polygon fill="none" stroke="#000000" points="300.0747,-474.4912 307.5742,-481.9751 306.3786,-471.4479 300.0747,-474.4912"/>
</g>
<!-- Commutative(Semiring) -->
<g id="node10" class="node">
<title>Commutative(Semiring)</title>
<polygon fill="none" stroke="#000000" points="184,-418 48,-418 48,-382 184,-382 184,-418"/>
<polyline fill="none" stroke="#000000" points="48,-383 184,-383 "/>
<text text-anchor="start" x="94.6543" y="-402.4" font-family="Helvetica,sans-Serif" font-size="12.00" fill="#000000">protocol</text>
<text text-anchor="start" x="52.9854" y="-390.4" font-family="Helvetica,sans-Serif" font-size="12.00" fill="#000000">Commutative(Semiring)</text>
</g>
<!-- Commutative(Semiring)&#45;&gt;Semiring -->
<g id="edge9" class="edge">
<title>Commutative(Semiring)&#45;&gt;Semiring</title>
<path fill="none" stroke="#000000" d="M148.5,-418.125C178.0981,-434.6316 222.6715,-459.4899 259.4898,-480.0232"/>
<polygon fill="none" stroke="#000000" points="258.2311,-483.3287 268.6695,-485.1426 261.6406,-477.2151 258.2311,-483.3287"/>
</g>
<!-- Ring -->
<g id="node11" class="node">
<title>Ring</title>
<polygon fill="none" stroke="#000000" points="407.5,-418 352.5,-418 352.5,-382 407.5,-382 407.5,-418"/>
<polyline fill="none" stroke="#000000" points="353,-383 408,-383 "/>
<text text-anchor="start" x="359.1543" y="-402.4" font-family="Helvetica,sans-Serif" font-size="12.00" fill="#000000">protocol</text>
<text text-anchor="start" x="368.1602" y="-390.4" font-family="Helvetica,sans-Serif" font-size="12.00" fill="#000000">Ring</text>
</g>
<!-- Ring&#45;&gt;AbelianGroup -->
<g id="edge28" class="edge">
<title>Ring&#45;&gt;AbelianGroup</title>
<path fill="none" stroke="#000000" d="M407.598,-409.7901C462.4508,-429.2486 585.919,-473.0477 655.9633,-497.8952"/>
<polygon fill="none" stroke="#000000" points="654.8849,-501.2263 665.4796,-501.271 657.2252,-494.6291 654.8849,-501.2263"/>
</g>
<!-- Ring&#45;&gt;Semiring -->
<g id="edge10" class="edge">
<title>Ring&#45;&gt;Semiring</title>
<path fill="none" stroke="#000000" d="M371.25,-418.125C364.2181,-432.6912 354.0466,-453.7607 344.9407,-472.6229"/>
<polygon fill="none" stroke="#000000" points="341.7702,-471.1398 340.5745,-481.667 348.074,-474.1831 341.7702,-471.1398"/>
</g>
<!-- InvolutiveRing -->
<g id="node12" class="node">
<title>InvolutiveRing</title>
<polygon fill="none" stroke="#000000" points="470,-307 350,-307 350,-249 470,-249 470,-307"/>
<polyline fill="none" stroke="#000000" points="350,-273 470,-273 "/>
<text text-anchor="start" x="388.6543" y="-292.4" font-family="Helvetica,sans-Serif" font-size="12.00" fill="#000000">protocol</text>
<text text-anchor="start" x="372.3125" y="-280.4" font-family="Helvetica,sans-Serif" font-size="12.00" fill="#000000">InvolutiveRing</text>
<polyline fill="none" stroke="#000000" points="350,-249 470,-249 "/>
<text text-anchor="start" x="355" y="-259.4" font-family="Helvetica,sans-Serif" font-style="italic" text-decoration="underline" font-size="12.00" fill="#000000">postfix *(Self) → Self</text>
</g>
<!-- InvolutiveRing&#45;&gt;Ring -->
<g id="edge11" class="edge">
<title>InvolutiveRing&#45;&gt;Ring</title>
<path fill="none" stroke="#000000" d="M402.8143,-307.222C397.9653,-326.9409 391.605,-352.8065 386.832,-372.2165"/>
<polygon fill="none" stroke="#000000" points="383.4196,-371.4366 384.4304,-381.9831 390.2171,-373.1082 383.4196,-371.4366"/>
</g>
<!-- TriviallyInvolutiveRing -->
<g id="node13" class="node">
<title>TriviallyInvolutiveRing</title>
<polygon fill="none" stroke="#000000" points="469.5,-185 344.5,-185 344.5,-127 469.5,-127 469.5,-185"/>
<polyline fill="none" stroke="#000000" points="345,-151 470,-151 "/>
<text text-anchor="start" x="386.1543" y="-170.4" font-family="Helvetica,sans-Serif" font-size="12.00" fill="#000000">protocol</text>
<text text-anchor="start" x="349.7002" y="-158.4" font-family="Helvetica,sans-Serif" font-size="12.00" fill="#000000">TriviallyInvolutiveRing</text>
<polyline fill="none" stroke="#000000" points="345,-127 470,-127 "/>
<text text-anchor="start" x="350" y="-137.4" font-family="Helvetica,sans-Serif" text-decoration="underline" font-size="12.00" fill="#000000">postfix *(Self) → Self</text>
</g>
<!-- TriviallyInvolutiveRing&#45;&gt;InvolutiveRing -->
<g id="edge12" class="edge">
<title>TriviallyInvolutiveRing&#45;&gt;InvolutiveRing</title>
<path fill="none" stroke="#000000" d="M407.7186,-185.222C408.109,-201.1007 408.5975,-220.965 409.0222,-238.2348"/>
<polygon fill="none" stroke="#000000" points="405.532,-238.6827 409.2769,-248.5936 412.5299,-238.5105 405.532,-238.6827"/>
</g>
<!-- IntegralDomain -->
<g id="node14" class="node">
<title>IntegralDomain</title>
<polygon fill="none" stroke="#000000" points="169.5,-296 78.5,-296 78.5,-260 169.5,-260 169.5,-296"/>
<polyline fill="none" stroke="#000000" points="79,-261 170,-261 "/>
<text text-anchor="start" x="103.1543" y="-280.4" font-family="Helvetica,sans-Serif" font-size="12.00" fill="#000000">protocol</text>
<text text-anchor="start" x="83.8125" y="-268.4" font-family="Helvetica,sans-Serif" font-size="12.00" fill="#000000">IntegralDomain</text>
</g>
<!-- IntegralDomain&#45;&gt;Unital(Semiring) -->
<g id="edge18" class="edge">
<title>IntegralDomain&#45;&gt;Unital(Semiring)</title>
<path fill="none" stroke="#000000" d="M145.2477,-296.0015C166.7518,-314.2202 200.5451,-342.8507 227.2351,-365.463"/>
<polygon fill="none" stroke="#000000" points="225.0203,-368.1739 234.9127,-371.9677 229.5453,-362.833 225.0203,-368.1739"/>
</g>
<!-- IntegralDomain&#45;&gt;Commutative(Semiring) -->
<g id="edge19" class="edge">
<title>IntegralDomain&#45;&gt;Commutative(Semiring)</title>
<path fill="none" stroke="#000000" d="M122.8196,-296.0015C121.5079,-316.0042 119.3733,-348.5573 117.8415,-371.9169"/>
<polygon fill="none" stroke="#000000" points="114.3472,-371.717 117.1853,-381.9246 121.3322,-372.1751 114.3472,-371.717"/>
</g>
<!-- IntegralDomain&#45;&gt;Ring -->
<g id="edge20" class="edge">
<title>IntegralDomain&#45;&gt;Ring</title>
<path fill="none" stroke="#000000" d="M148.8346,-296.1001C160.296,-303.7623 174.3637,-312.2318 188,-318 249.5521,-344.0366 275.7894,-321.1656 334,-354 343.296,-359.2435 351.9971,-366.884 359.2759,-374.4374"/>
<polygon fill="none" stroke="#000000" points="356.7268,-376.8365 366.0498,-381.8697 361.9004,-372.1211 356.7268,-376.8365"/>
</g>
<!-- DivisionRing -->
<g id="node15" class="node">
<title>DivisionRing</title>
<polygon fill="none" stroke="#000000" points="314,-318 206,-318 206,-238 314,-238 314,-318"/>
<polyline fill="none" stroke="#000000" points="206,-284 314,-284 "/>
<text text-anchor="start" x="238.6543" y="-303.4" font-family="Helvetica,sans-Serif" font-size="12.00" fill="#000000">protocol</text>
<text text-anchor="start" x="226.6543" y="-291.4" font-family="Helvetica,sans-Serif" font-size="12.00" fill="#000000">DivisionRing</text>
<polyline fill="none" stroke="#000000" points="206,-262 314,-262 "/>
<text text-anchor="start" x="211" y="-269.4" font-family="Helvetica,sans-Serif" font-size="12.00" fill="#000000">inversed: Self</text>
<polyline fill="none" stroke="#000000" points="206,-238 314,-238 "/>
<text text-anchor="start" x="211" y="-248.4" font-family="Helvetica,sans-Serif" font-style="italic" text-decoration="underline" font-size="12.00" fill="#000000">/(Self, Self) → Self</text>
</g>
<!-- DivisionRing&#45;&gt;Unital(Semiring) -->
<g id="edge14" class="edge">
<title>DivisionRing&#45;&gt;Unital(Semiring)</title>
<path fill="none" stroke="#000000" d="M262.6417,-318.2855C263.5556,-332.2231 264.5769,-347.7979 265.4808,-361.5815"/>
<polygon fill="none" stroke="#000000" points="261.9984,-361.9666 266.1453,-371.7161 268.9834,-361.5085 261.9984,-361.9666"/>
</g>
<!-- DivisionRing&#45;&gt;Ring -->
<g id="edge15" class="edge">
<title>DivisionRing&#45;&gt;Ring</title>
<path fill="none" stroke="#000000" d="M299.6251,-318.2855C317.8121,-336.7757 338.8334,-358.1473 354.8155,-374.3957"/>
<polygon fill="none" stroke="#000000" points="352.7143,-377.2507 362.222,-381.9257 357.7048,-372.342 352.7143,-377.2507"/>
</g>
<!-- EuclideanDomain -->
<g id="node16" class="node">
<title>EuclideanDomain</title>
<polygon fill="none" stroke="#000000" points="270,-202 16,-202 16,-110 270,-110 270,-202"/>
<polyline fill="none" stroke="#000000" points="16,-168 270,-168 "/>
<text text-anchor="start" x="121.6543" y="-187.4" font-family="Helvetica,sans-Serif" font-size="12.00" fill="#000000">protocol</text>
<text text-anchor="start" x="95.9727" y="-175.4" font-family="Helvetica,sans-Serif" font-size="12.00" fill="#000000">EuclideanDomain</text>
<polyline fill="none" stroke="#000000" points="16,-110 270,-110 "/>
<text text-anchor="start" x="21" y="-154.4" font-family="Helvetica,sans-Serif" font-style="italic" text-decoration="underline" font-size="12.00" fill="#000000">divideWithRemainder(Self, Self) → (Self, Self)</text>
<text text-anchor="start" x="21" y="-142.4" font-family="Helvetica,sans-Serif" text-decoration="underline" font-size="12.00" fill="#000000">%(Self, Self) → Self</text>
<text text-anchor="start" x="21" y="-130.4" font-family="Helvetica,sans-Serif" text-decoration="underline" font-size="12.00" fill="#000000">/%(Self, Self) → Self</text>
<text text-anchor="start" x="21" y="-118.4" font-family="Helvetica,sans-Serif" text-decoration="underline" font-size="12.00" fill="#000000">greatestCommonDivisor(Self, Self) → Self</text>
</g>
<!-- EuclideanDomain&#45;&gt;IntegralDomain -->
<g id="edge17" class="edge">
<title>EuclideanDomain&#45;&gt;IntegralDomain</title>
<path fill="none" stroke="#000000" d="M135.8169,-202.123C133.3214,-218.1467 130.5988,-235.629 128.3965,-249.7699"/>
<polygon fill="none" stroke="#000000" points="124.9068,-249.4332 126.8262,-259.8527 131.8234,-250.5104 124.9068,-249.4332"/>
</g>
<!-- Field -->
<g id="node17" class="node">
<title>Field</title>
<polygon fill="none" stroke="#000000" points="352,-74 98,-74 98,-16 352,-16 352,-74"/>
<polyline fill="none" stroke="#000000" points="98,-40 352,-40 "/>
<text text-anchor="start" x="203.6543" y="-59.4" font-family="Helvetica,sans-Serif" font-size="12.00" fill="#000000">protocol</text>
<text text-anchor="start" x="211.9951" y="-47.4" font-family="Helvetica,sans-Serif" font-size="12.00" fill="#000000">Field</text>
<polyline fill="none" stroke="#000000" points="98,-16 352,-16 "/>
<text text-anchor="start" x="103" y="-26.4" font-family="Helvetica,sans-Serif" text-decoration="underline" font-size="12.00" fill="#000000">divideWithRemainder(Self, Self) → (Self, Self)</text>
</g>
<!-- Field&#45;&gt;DivisionRing -->
<g id="edge13" class="edge">
<title>Field&#45;&gt;DivisionRing</title>
<path fill="none" stroke="#000000" d="M267.2496,-74.098C275.6616,-82.0849 283.3332,-91.4842 288,-102 305.8574,-142.2383 295.2148,-192.1166 282.2365,-228.4889"/>
<polygon fill="none" stroke="#000000" points="278.9418,-227.3072 278.7199,-237.8997 285.4989,-229.7575 278.9418,-227.3072"/>
</g>
<!-- Field&#45;&gt;EuclideanDomain -->
<g id="edge16" class="edge">
<title>Field&#45;&gt;EuclideanDomain</title>
<path fill="none" stroke="#000000" d="M203.4555,-74.1639C197.2163,-82.6096 190.1947,-92.1145 183.2039,-101.5776"/>
<polygon fill="none" stroke="#000000" points="180.2157,-99.7323 177.0889,-109.8552 185.846,-103.8916 180.2157,-99.7323"/>
</g>
<!-- VectorSpace&lt;T: Field&gt; -->
<g id="node18" class="node">
<title>VectorSpace&lt;T: Field&gt;</title>
<polygon fill="none" stroke="#000000" points="918,-434 788,-434 788,-366 918,-366 918,-434"/>
<polyline fill="none" stroke="#000000" points="788,-400 918,-400 "/>
<text text-anchor="start" x="831.6543" y="-419.4" font-family="Helvetica,sans-Serif" font-size="12.00" fill="#000000">protocol</text>
<text text-anchor="start" x="792.6279" y="-407.4" font-family="Helvetica,sans-Serif" font-size="12.00" fill="#000000">VectorSpace&lt;T: Field&gt;</text>
<polyline fill="none" stroke="#000000" points="788,-366 918,-366 "/>
<text text-anchor="start" x="793" y="-386.4" font-family="Helvetica,sans-Serif" font-style="italic" text-decoration="underline" font-size="12.00" fill="#000000">*(Self, T) → Self</text>
<text text-anchor="start" x="793" y="-374.4" font-family="Helvetica,sans-Serif" font-style="italic" text-decoration="underline" font-size="12.00" fill="#000000">/(Self, T) → Self</text>
</g>
<!-- VectorSpace&lt;T: Field&gt;&#45;&gt;AbelianGroup -->
<g id="edge29" class="edge">
<title>VectorSpace&lt;T: Field&gt;&#45;&gt;AbelianGroup</title>
<path fill="none" stroke="#000000" d="M809.9848,-434.1764C786.8167,-452.584 758.7714,-474.8665 737.8015,-491.5276"/>
<polygon fill="none" stroke="#000000" points="735.5049,-488.882 729.8526,-497.8431 739.8595,-494.3627 735.5049,-488.882"/>
</g>
<!-- VectorSpace&lt;T: Field&gt;&#45;&gt;Field -->
<g id="edge30" class="edge">
<title>VectorSpace&lt;T: Field&gt;&#45;&gt;Field</title>
<path fill="none" stroke="#000000" stroke-dasharray="5,2" d="M822.0409,-365.7324C763.3588,-303.0225 629.126,-170.0075 488,-102 449.0359,-83.2235 403.8584,-70.573 362.0572,-62.0734"/>
<polygon fill="#000000" stroke="#000000" points="352.0738,-60.1082 362.7546,-57.6244 356.9796,-61.0739 361.8855,-62.0397 361.8855,-62.0397 361.8855,-62.0397 356.9796,-61.0739 361.0163,-66.4549 352.0738,-60.1082 352.0738,-60.1082"/>
</g>
<!-- MetricSpace -->
<g id="node19" class="node">
<title>MetricSpace</title>
<polygon fill="none" stroke="#000000" points="1109.5,-545 954.5,-545 954.5,-487 1109.5,-487 1109.5,-545"/>
<polyline fill="none" stroke="#000000" points="955,-511 1110,-511 "/>
<text text-anchor="start" x="1011.1543" y="-530.4" font-family="Helvetica,sans-Serif" font-size="12.00" fill="#000000">protocol</text>
<text text-anchor="start" x="999.1543" y="-518.4" font-family="Helvetica,sans-Serif" font-size="12.00" fill="#000000">MetricSpace</text>
<polyline fill="none" stroke="#000000" points="955,-487 1110,-487 "/>
<text text-anchor="start" x="960" y="-497.4" font-family="Helvetica,sans-Serif" font-style="italic" text-decoration="underline" font-size="12.00" fill="#000000">metric(Self, Self) → Double</text>
</g>
<!-- NormedSpace -->
<g id="node20" class="node">
<title>NormedSpace</title>
<polygon fill="none" stroke="#000000" points="1109.5,-446 954.5,-446 954.5,-354 1109.5,-354 1109.5,-446"/>
<polyline fill="none" stroke="#000000" points="955,-412 1110,-412 "/>
<text text-anchor="start" x="1011.1543" y="-431.4" font-family="Helvetica,sans-Serif" font-size="12.00" fill="#000000">protocol</text>
<text text-anchor="start" x="994.1475" y="-419.4" font-family="Helvetica,sans-Serif" font-size="12.00" fill="#000000">NormedSpace</text>
<polyline fill="none" stroke="#000000" points="955,-378 1110,-378 "/>
<text text-anchor="start" x="960" y="-398.4" font-family="Helvetica,sans-Serif" font-style="italic" font-size="12.00" fill="#000000">norm: Double</text>
<text text-anchor="start" x="960" y="-386.4" font-family="Helvetica,sans-Serif" font-style="italic" font-size="12.00" fill="#000000">squaredNorm: Double</text>
<polyline fill="none" stroke="#000000" points="955,-354 1110,-354 "/>
<text text-anchor="start" x="960" y="-364.4" font-family="Helvetica,sans-Serif" text-decoration="underline" font-size="12.00" fill="#000000">metric(Self, Self) → Double</text>
</g>
<!-- NormedSpace&#45;&gt;AbelianGroup -->
<g id="edge21" class="edge">
<title>NormedSpace&#45;&gt;AbelianGroup</title>
<path fill="none" stroke="#000000" d="M954.304,-439.0674C948.1787,-441.5806 942.0303,-443.9289 936,-446 865.0117,-470.381 841.4673,-456.1516 771,-482 762.5894,-485.0851 753.9064,-489.0843 745.753,-493.2505"/>
<polygon fill="none" stroke="#000000" points="744.0137,-490.2111 736.8156,-497.9853 747.2906,-496.3967 744.0137,-490.2111"/>
</g>
<!-- NormedSpace&#45;&gt;MetricSpace -->
<g id="edge22" class="edge">
<title>NormedSpace&#45;&gt;MetricSpace</title>
<path fill="none" stroke="#000000" d="M1032,-446.1796C1032,-456.2945 1032,-466.9102 1032,-476.7247"/>
<polygon fill="none" stroke="#000000" points="1028.5001,-476.9983 1032,-486.9983 1035.5001,-476.9984 1028.5001,-476.9983"/>
</g>
<!-- NormedVectorSpace -->
<g id="node21" class="node">
<title>NormedVectorSpace</title>
<polygon fill="none" stroke="#000000" points="1003,-296 883,-296 883,-260 1003,-260 1003,-296"/>
<polyline fill="none" stroke="#000000" points="883,-261 1003,-261 "/>
<text text-anchor="start" x="921.6543" y="-280.4" font-family="Helvetica,sans-Serif" font-size="12.00" fill="#000000">protocol</text>
<text text-anchor="start" x="887.6348" y="-268.4" font-family="Helvetica,sans-Serif" font-size="12.00" fill="#000000">NormedVectorSpace</text>
</g>
<!-- NormedVectorSpace&#45;&gt;VectorSpace&lt;T: Field&gt; -->
<g id="edge24" class="edge">
<title>NormedVectorSpace&#45;&gt;VectorSpace&lt;T: Field&gt;</title>
<path fill="none" stroke="#000000" d="M929.7202,-296.0015C917.8063,-312.1515 899.8568,-336.483 884.3145,-357.5515"/>
<polygon fill="none" stroke="#000000" points="881.392,-355.6173 878.2721,-365.7423 887.0251,-359.7728 881.392,-355.6173"/>
</g>
<!-- NormedVectorSpace&#45;&gt;NormedSpace -->
<g id="edge25" class="edge">
<title>NormedVectorSpace&#45;&gt;NormedSpace</title>
<path fill="none" stroke="#000000" d="M956.1323,-296.0015C965.7765,-309.2217 979.42,-327.924 992.4834,-345.8312"/>
<polygon fill="none" stroke="#000000" points="989.7071,-347.9642 998.4282,-353.9803 995.3622,-343.8387 989.7071,-347.9642"/>
</g>
<!-- EuclideanSpace -->
<g id="node22" class="node">
<title>EuclideanSpace</title>
<polygon fill="none" stroke="#000000" points="1009,-202 877,-202 877,-110 1009,-110 1009,-202"/>
<polyline fill="none" stroke="#000000" points="877,-168 1009,-168 "/>
<text text-anchor="start" x="921.6543" y="-187.4" font-family="Helvetica,sans-Serif" font-size="12.00" fill="#000000">protocol</text>
<text text-anchor="start" x="899.6348" y="-175.4" font-family="Helvetica,sans-Serif" font-size="12.00" fill="#000000">EuclideanSpace</text>
<polyline fill="none" stroke="#000000" points="877,-134 1009,-134 "/>
<text text-anchor="start" x="882" y="-153.4" font-family="Helvetica,sans-Serif" font-size="12.00" fill="#000000">norm: Double</text>
<text text-anchor="start" x="882" y="-141.4" font-family="Helvetica,sans-Serif" font-size="12.00" fill="#000000">squaredNorm: Double</text>
<polyline fill="none" stroke="#000000" points="877,-110 1009,-110 "/>
<text text-anchor="start" x="882" y="-120.4" font-family="Helvetica,sans-Serif" font-style="italic" text-decoration="underline" font-size="12.00" fill="#000000">**(Self, Self) → Double</text>
</g>
<!-- EuclideanSpace&#45;&gt;NormedVectorSpace -->
<g id="edge23" class="edge">
<title>EuclideanSpace&#45;&gt;NormedVectorSpace</title>
<path fill="none" stroke="#000000" d="M943,-202.123C943,-218.1467 943,-235.629 943,-249.7699"/>
<polygon fill="none" stroke="#000000" points="939.5001,-249.8527 943,-259.8527 946.5001,-249.8527 939.5001,-249.8527"/>
</g>
</g>
</svg>
