<?xml version="1.0" encoding="UTF-8" standalone="no"?>
<!DOCTYPE svg PUBLIC "-//W3C//DTD SVG 1.1//EN"
 "http://www.w3.org/Graphics/SVG/1.1/DTD/svg11.dtd">
<!-- Generated by graphviz version 2.40.1 (20161225.0304)
 -->
<!-- Title: %3 Pages: 1 -->
<svg width="1106pt" height="1114pt"
 viewBox="0.00 0.00 1106.00 1114.00" xmlns="http://www.w3.org/2000/svg" xmlns:xlink="http://www.w3.org/1999/xlink">
<g id="graph0" class="graph" transform="scale(1 1) rotate(0) translate(4 1110)">
<title>%3</title>
<polygon fill="#ffffff" stroke="transparent" points="-4,4 -4,-1110 1102,-1110 1102,4 -4,4"/>
<g id="clust1" class="cluster">
<title>cluster GroupLike</title>
<polygon fill="none" stroke="#000000" points="430,-640 430,-1062 744,-1062 744,-640 430,-640"/>
<text text-anchor="middle" x="708.3174" y="-1048.4" font-family="Helvetica,sans-Serif" font-size="12.00" fill="#000000">GroupLike</text>
</g>
<g id="clust5" class="cluster">
<title>cluster RingLike</title>
<polygon fill="none" stroke="#000000" points="8,-8 8,-728 422,-728 422,-8 8,-8"/>
<text text-anchor="middle" x="390.6533" y="-714.4" font-family="Helvetica,sans-Serif" font-size="12.00" fill="#000000">RingLike</text>
</g>
<g id="clust10" class="cluster">
<title>cluster Spaces</title>
<polygon fill="none" stroke="#000000" points="752,-274 752,-723 1090,-723 1090,-274 752,-274"/>
<text text-anchor="middle" x="1061.9873" y="-709.4" font-family="Helvetica,sans-Serif" font-size="12.00" fill="#000000">Spaces</text>
</g>
<!-- Equatable -->
<g id="node1" class="node">
<title>Equatable</title>
<polygon fill="none" stroke="#000000" points="622,-1106 558,-1106 558,-1070 622,-1070 622,-1106"/>
<polyline fill="none" stroke="#000000" points="558,-1071 622,-1071 "/>
<text text-anchor="start" x="568.6543" y="-1090.4" font-family="Helvetica,sans-Serif" font-size="12.00" fill="#000000">protocol</text>
<text text-anchor="start" x="562.9766" y="-1078.4" font-family="Helvetica,sans-Serif" font-size="12.00" fill="#000000">Equatable</text>
</g>
<!-- Semigroup -->
<g id="node2" class="node">
<title>Semigroup</title>
<polygon fill="none" stroke="#000000" points="646,-1034 534,-1034 534,-966 646,-966 646,-1034"/>
<polyline fill="none" stroke="#000000" points="534,-1000 646,-1000 "/>
<text text-anchor="start" x="568.6543" y="-1019.4" font-family="Helvetica,sans-Serif" font-size="12.00" fill="#000000">protocol</text>
<text text-anchor="start" x="560.9844" y="-1007.4" font-family="Helvetica,sans-Serif" font-size="12.00" fill="#000000">Semigroup</text>
<polyline fill="none" stroke="#000000" points="534,-966 646,-966 "/>
<text text-anchor="start" x="539" y="-986.4" font-family="Helvetica,sans-Serif" font-style="italic" text-decoration="underline" font-size="12.00" fill="#000000">+(Self, Self) → Self</text>
<text text-anchor="start" x="539" y="-974.4" font-family="Helvetica,sans-Serif" text-decoration="underline" font-size="12.00" fill="#000000">*(Self, Int) → Self</text>
</g>
<!-- Semigroup&#45;&gt;Equatable -->
<g id="edge28" class="edge">
<title>Semigroup&#45;&gt;Equatable</title>
<path fill="none" stroke="#000000" d="M590,-1034.0231C590,-1042.4977 590,-1051.4935 590,-1059.6612"/>
<polygon fill="none" stroke="#000000" points="586.5001,-1059.808 590,-1069.808 593.5001,-1059.8081 586.5001,-1059.808"/>
</g>
<!-- CommutativeSemigroup -->
<g id="node3" class="node">
<title>CommutativeSemigroup</title>
<polygon fill="none" stroke="#000000" points="576,-903 438,-903 438,-867 576,-867 576,-903"/>
<polyline fill="none" stroke="#000000" points="438,-868 576,-868 "/>
<text text-anchor="start" x="485.6543" y="-887.4" font-family="Helvetica,sans-Serif" font-size="12.00" fill="#000000">protocol</text>
<text text-anchor="start" x="442.6406" y="-875.4" font-family="Helvetica,sans-Serif" font-size="12.00" fill="#000000">CommutativeSemigroup</text>
</g>
<!-- CommutativeSemigroup&#45;&gt;Semigroup -->
<g id="edge3" class="edge">
<title>CommutativeSemigroup&#45;&gt;Semigroup</title>
<path fill="none" stroke="#000000" d="M520.1516,-903.2221C530.6636,-917.7869 545.8239,-938.7921 559.3361,-957.5139"/>
<polygon fill="none" stroke="#000000" points="556.5158,-959.5868 565.2062,-965.6471 562.1918,-955.4901 556.5158,-959.5868"/>
</g>
<!-- Monoid -->
<g id="node4" class="node">
<title>Monoid</title>
<polygon fill="none" stroke="#000000" points="736,-930 612,-930 612,-840 736,-840 736,-930"/>
<polyline fill="none" stroke="#000000" points="612,-896 736,-896 "/>
<text text-anchor="start" x="652.6543" y="-915.4" font-family="Helvetica,sans-Serif" font-size="12.00" fill="#000000">protocol</text>
<text text-anchor="start" x="654.3213" y="-903.4" font-family="Helvetica,sans-Serif" font-size="12.00" fill="#000000">Monoid</text>
<polyline fill="none" stroke="#000000" points="612,-862 736,-862 "/>
<text text-anchor="start" x="617" y="-882.4" font-family="Helvetica,sans-Serif" text-decoration="underline" font-size="12.00" fill="#000000">zero: Self</text>
<text text-anchor="start" x="617" y="-870.4" font-family="Helvetica,sans-Serif" font-style="italic" text-decoration="underline" font-size="12.00" fill="#000000">nonzeroElement: Self</text>
<polyline fill="none" stroke="#000000" points="612,-840 736,-840 "/>
<text text-anchor="start" x="617" y="-848.4" font-family="Helvetica,sans-Serif" font-style="italic" font-size="12.00" fill="#000000">init()</text>
</g>
<!-- Monoid&#45;&gt;Semigroup -->
<g id="edge4" class="edge">
<title>Monoid&#45;&gt;Semigroup</title>
<path fill="none" stroke="#000000" d="M641.0421,-930.121C634.4938,-939.0859 627.6376,-948.4723 621.152,-957.3515"/>
<polygon fill="none" stroke="#000000" points="618.1416,-955.5391 615.0694,-965.6787 623.7942,-959.668 618.1416,-955.5391"/>
</g>
<!-- CommutativeMonoid -->
<g id="node5" class="node">
<title>CommutativeMonoid</title>
<polygon fill="none" stroke="#000000" points="574,-788 454,-788 454,-752 574,-752 574,-788"/>
<polyline fill="none" stroke="#000000" points="454,-753 574,-753 "/>
<text text-anchor="start" x="492.6543" y="-772.4" font-family="Helvetica,sans-Serif" font-size="12.00" fill="#000000">protocol</text>
<text text-anchor="start" x="458.9775" y="-760.4" font-family="Helvetica,sans-Serif" font-size="12.00" fill="#000000">CommutativeMonoid</text>
</g>
<!-- CommutativeMonoid&#45;&gt;CommutativeSemigroup -->
<g id="edge1" class="edge">
<title>CommutativeMonoid&#45;&gt;CommutativeSemigroup</title>
<path fill="none" stroke="#000000" d="M512.8908,-788.2221C511.7695,-806.6433 510.0211,-835.3671 508.72,-856.7431"/>
<polygon fill="none" stroke="#000000" points="505.2181,-856.669 508.104,-866.8632 512.2052,-857.0943 505.2181,-856.669"/>
</g>
<!-- CommutativeMonoid&#45;&gt;Monoid -->
<g id="edge2" class="edge">
<title>CommutativeMonoid&#45;&gt;Monoid</title>
<path fill="none" stroke="#000000" d="M539.3525,-788.2221C556.6963,-800.688 580.6042,-817.8718 603.4662,-834.3038"/>
<polygon fill="none" stroke="#000000" points="601.6647,-837.3192 611.8276,-840.3136 605.7502,-831.6351 601.6647,-837.3192"/>
</g>
<!-- Group -->
<g id="node6" class="node">
<title>Group</title>
<polygon fill="none" stroke="#000000" points="731,-804 617,-804 617,-736 731,-736 731,-804"/>
<polyline fill="none" stroke="#000000" points="617,-770 731,-770 "/>
<text text-anchor="start" x="652.6543" y="-789.4" font-family="Helvetica,sans-Serif" font-size="12.00" fill="#000000">protocol</text>
<text text-anchor="start" x="657.3242" y="-777.4" font-family="Helvetica,sans-Serif" font-size="12.00" fill="#000000">Group</text>
<polyline fill="none" stroke="#000000" points="617,-736 731,-736 "/>
<text text-anchor="start" x="622" y="-756.4" font-family="Helvetica,sans-Serif" font-style="italic" text-decoration="underline" font-size="12.00" fill="#000000">prefix &#45;(Self) → Self</text>
<text text-anchor="start" x="622" y="-744.4" font-family="Helvetica,sans-Serif" text-decoration="underline" font-size="12.00" fill="#000000">&#45;(Self, Self) → Self</text>
</g>
<!-- Group&#45;&gt;Monoid -->
<g id="edge5" class="edge">
<title>Group&#45;&gt;Monoid</title>
<path fill="none" stroke="#000000" d="M674,-804.1924C674,-812.1871 674,-820.9054 674,-829.5614"/>
<polygon fill="none" stroke="#000000" points="670.5001,-829.6469 674,-839.647 677.5001,-829.647 670.5001,-829.6469"/>
</g>
<!-- AbelianGroup -->
<g id="node7" class="node">
<title>AbelianGroup</title>
<polygon fill="none" stroke="#000000" points="715.5,-684 632.5,-684 632.5,-648 715.5,-648 715.5,-684"/>
<polyline fill="none" stroke="#000000" points="633,-649 716,-649 "/>
<text text-anchor="start" x="653.1543" y="-668.4" font-family="Helvetica,sans-Serif" font-size="12.00" fill="#000000">protocol</text>
<text text-anchor="start" x="637.8086" y="-656.4" font-family="Helvetica,sans-Serif" font-size="12.00" fill="#000000">AbelianGroup</text>
</g>
<!-- AbelianGroup&#45;&gt;CommutativeMonoid -->
<g id="edge6" class="edge">
<title>AbelianGroup&#45;&gt;CommutativeMonoid</title>
<path fill="none" stroke="#000000" d="M646.1301,-684.1154C619.5975,-701.3616 579.5146,-727.4155 550.4556,-746.3038"/>
<polygon fill="none" stroke="#000000" points="548.2954,-743.5335 541.8185,-751.918 552.1104,-749.4026 548.2954,-743.5335"/>
</g>
<!-- AbelianGroup&#45;&gt;Group -->
<g id="edge7" class="edge">
<title>AbelianGroup&#45;&gt;Group</title>
<path fill="none" stroke="#000000" d="M674,-684.1154C674,-695.542 674,-710.8349 674,-725.3484"/>
<polygon fill="none" stroke="#000000" points="670.5001,-725.7123 674,-735.7124 677.5001,-725.7124 670.5001,-725.7123"/>
</g>
<!-- Semiring -->
<g id="node8" class="node">
<title>Semiring</title>
<polygon fill="none" stroke="#000000" points="354,-700 244,-700 244,-632 354,-632 354,-700"/>
<polyline fill="none" stroke="#000000" points="244,-666 354,-666 "/>
<text text-anchor="start" x="277.6543" y="-685.4" font-family="Helvetica,sans-Serif" font-size="12.00" fill="#000000">protocol</text>
<text text-anchor="start" x="275.3252" y="-673.4" font-family="Helvetica,sans-Serif" font-size="12.00" fill="#000000">Semiring</text>
<polyline fill="none" stroke="#000000" points="244,-632 354,-632 "/>
<text text-anchor="start" x="249" y="-652.4" font-family="Helvetica,sans-Serif" font-style="italic" text-decoration="underline" font-size="12.00" fill="#000000">*(Self, Self) → Self</text>
<text text-anchor="start" x="249" y="-640.4" font-family="Helvetica,sans-Serif" text-decoration="underline" font-size="12.00" fill="#000000">**(Self, Int) → Self</text>
</g>
<!-- Semiring&#45;&gt;CommutativeMonoid -->
<g id="edge29" class="edge">
<title>Semiring&#45;&gt;CommutativeMonoid</title>
<path fill="none" stroke="#000000" d="M354.3036,-694.7826C375.1094,-705.4318 399.042,-717.4691 421,-728 434.6277,-734.5358 449.5008,-741.3798 463.2758,-747.6008"/>
<polygon fill="none" stroke="#000000" points="462.0522,-750.8881 472.608,-751.7967 464.9227,-744.5038 462.0522,-750.8881"/>
</g>
<!-- UnitalSemiring -->
<g id="node9" class="node">
<title>UnitalSemiring</title>
<polygon fill="none" stroke="#000000" points="140,-584 16,-584 16,-516 140,-516 140,-584"/>
<polyline fill="none" stroke="#000000" points="16,-550 140,-550 "/>
<text text-anchor="start" x="56.6543" y="-569.4" font-family="Helvetica,sans-Serif" font-size="12.00" fill="#000000">protocol</text>
<text text-anchor="start" x="38.9854" y="-557.4" font-family="Helvetica,sans-Serif" font-size="12.00" fill="#000000">UnitalSemiring</text>
<polyline fill="none" stroke="#000000" points="16,-516 140,-516 "/>
<text text-anchor="start" x="21" y="-536.4" font-family="Helvetica,sans-Serif" font-style="italic" text-decoration="underline" font-size="12.00" fill="#000000">unit: Self</text>
<text text-anchor="start" x="21" y="-524.4" font-family="Helvetica,sans-Serif" text-decoration="underline" font-size="12.00" fill="#000000">nonzeroElement: Self</text>
</g>
<!-- UnitalSemiring&#45;&gt;Semiring -->
<g id="edge8" class="edge">
<title>UnitalSemiring&#45;&gt;Semiring</title>
<path fill="none" stroke="#000000" d="M136.3164,-584.0796C143.5812,-588.1629 150.937,-592.2207 158,-596 182.786,-609.2626 210.4171,-623.1683 234.6056,-635.0591"/>
<polygon fill="none" stroke="#000000" points="233.1744,-638.2554 243.6945,-639.5122 236.2543,-631.9693 233.1744,-638.2554"/>
</g>
<!-- CommutativeSemiring -->
<g id="node10" class="node">
<title>CommutativeSemiring</title>
<polygon fill="none" stroke="#000000" points="304,-568 176,-568 176,-532 304,-532 304,-568"/>
<polyline fill="none" stroke="#000000" points="176,-533 304,-533 "/>
<text text-anchor="start" x="218.6543" y="-552.4" font-family="Helvetica,sans-Serif" font-size="12.00" fill="#000000">protocol</text>
<text text-anchor="start" x="180.9814" y="-540.4" font-family="Helvetica,sans-Serif" font-size="12.00" fill="#000000">CommutativeSemiring</text>
</g>
<!-- CommutativeSemiring&#45;&gt;Semiring -->
<g id="edge9" class="edge">
<title>CommutativeSemiring&#45;&gt;Semiring</title>
<path fill="none" stroke="#000000" d="M249.2188,-568.125C256.6274,-582.6912 267.3438,-603.7607 276.9375,-622.6229"/>
<polygon fill="none" stroke="#000000" points="273.8843,-624.3404 281.5375,-631.667 280.1236,-621.1669 273.8843,-624.3404"/>
</g>
<!-- Ring -->
<g id="node11" class="node">
<title>Ring</title>
<polygon fill="none" stroke="#000000" points="395.5,-568 340.5,-568 340.5,-532 395.5,-532 395.5,-568"/>
<polyline fill="none" stroke="#000000" points="341,-533 396,-533 "/>
<text text-anchor="start" x="347.1543" y="-552.4" font-family="Helvetica,sans-Serif" font-size="12.00" fill="#000000">protocol</text>
<text text-anchor="start" x="356.1602" y="-540.4" font-family="Helvetica,sans-Serif" font-size="12.00" fill="#000000">Ring</text>
</g>
<!-- Ring&#45;&gt;AbelianGroup -->
<g id="edge30" class="edge">
<title>Ring&#45;&gt;AbelianGroup</title>
<path fill="none" stroke="#000000" d="M395.6952,-560.4988C446.9813,-579.9406 557.4462,-621.8162 622.7287,-646.5638"/>
<polygon fill="none" stroke="#000000" points="621.8198,-649.9623 632.4112,-650.2343 624.3011,-643.4168 621.8198,-649.9623"/>
</g>
<!-- Ring&#45;&gt;Semiring -->
<g id="edge10" class="edge">
<title>Ring&#45;&gt;Semiring</title>
<path fill="none" stroke="#000000" d="M357.2188,-568.125C348.515,-582.7574 335.9076,-603.9524 324.649,-622.8799"/>
<polygon fill="none" stroke="#000000" points="321.5264,-621.2832 319.4222,-631.667 327.5426,-624.8618 321.5264,-621.2832"/>
</g>
<!-- InvolutiveRing -->
<g id="node12" class="node">
<title>InvolutiveRing</title>
<polygon fill="none" stroke="#000000" points="414,-468 294,-468 294,-410 414,-410 414,-468"/>
<polyline fill="none" stroke="#000000" points="294,-434 414,-434 "/>
<text text-anchor="start" x="332.6543" y="-453.4" font-family="Helvetica,sans-Serif" font-size="12.00" fill="#000000">protocol</text>
<text text-anchor="start" x="316.3125" y="-441.4" font-family="Helvetica,sans-Serif" font-size="12.00" fill="#000000">InvolutiveRing</text>
<polyline fill="none" stroke="#000000" points="294,-410 414,-410 "/>
<text text-anchor="start" x="299" y="-420.4" font-family="Helvetica,sans-Serif" font-style="italic" text-decoration="underline" font-size="12.00" fill="#000000">postfix *(Self) → Self</text>
</g>
<!-- InvolutiveRing&#45;&gt;Ring -->
<g id="edge11" class="edge">
<title>InvolutiveRing&#45;&gt;Ring</title>
<path fill="none" stroke="#000000" d="M357.6783,-468.1639C359.7651,-484.709 362.3646,-505.319 364.4327,-521.7166"/>
<polygon fill="none" stroke="#000000" points="360.9804,-522.3154 365.7044,-531.7988 367.9254,-521.4394 360.9804,-522.3154"/>
</g>
<!-- TriviallyInvolutiveRing -->
<g id="node13" class="node">
<title>TriviallyInvolutiveRing</title>
<polygon fill="none" stroke="#000000" points="413.5,-357 288.5,-357 288.5,-299 413.5,-299 413.5,-357"/>
<polyline fill="none" stroke="#000000" points="289,-323 414,-323 "/>
<text text-anchor="start" x="330.1543" y="-342.4" font-family="Helvetica,sans-Serif" font-size="12.00" fill="#000000">protocol</text>
<text text-anchor="start" x="293.7002" y="-330.4" font-family="Helvetica,sans-Serif" font-size="12.00" fill="#000000">TriviallyInvolutiveRing</text>
<polyline fill="none" stroke="#000000" points="289,-299 414,-299 "/>
<text text-anchor="start" x="294" y="-309.4" font-family="Helvetica,sans-Serif" text-decoration="underline" font-size="12.00" fill="#000000">postfix *(Self) → Self</text>
</g>
<!-- TriviallyInvolutiveRing&#45;&gt;InvolutiveRing -->
<g id="edge14" class="edge">
<title>TriviallyInvolutiveRing&#45;&gt;InvolutiveRing</title>
<path fill="none" stroke="#000000" d="M351.7882,-357.1639C352.1368,-370.0628 352.5522,-385.4323 352.9284,-399.3502"/>
<polygon fill="none" stroke="#000000" points="349.4376,-399.7437 353.2066,-409.6454 356.4351,-399.5545 349.4376,-399.7437"/>
</g>
<!-- UnitalRing -->
<g id="node14" class="node">
<title>UnitalRing</title>
<polygon fill="none" stroke="#000000" points="113.5,-457 48.5,-457 48.5,-421 113.5,-421 113.5,-457"/>
<polyline fill="none" stroke="#000000" points="49,-422 114,-422 "/>
<text text-anchor="start" x="60.1543" y="-441.4" font-family="Helvetica,sans-Serif" font-size="12.00" fill="#000000">protocol</text>
<text text-anchor="start" x="53.8203" y="-429.4" font-family="Helvetica,sans-Serif" font-size="12.00" fill="#000000">UnitalRing</text>
</g>
<!-- UnitalRing&#45;&gt;UnitalSemiring -->
<g id="edge15" class="edge">
<title>UnitalRing&#45;&gt;UnitalSemiring</title>
<path fill="none" stroke="#000000" d="M80.5046,-457.3294C80.149,-470.4856 79.6541,-488.7991 79.198,-505.6746"/>
<polygon fill="none" stroke="#000000" points="75.6922,-505.8463 78.9206,-515.9373 82.6896,-506.0355 75.6922,-505.8463"/>
</g>
<!-- UnitalRing&#45;&gt;Ring -->
<g id="edge12" class="edge">
<title>UnitalRing&#45;&gt;Ring</title>
<path fill="none" stroke="#000000" d="M110.2309,-457.1001C117.7627,-461.1691 126.0045,-465.1273 134,-468 214.0627,-496.7663 246.8288,-464.165 322,-504 331.4306,-508.9975 340.1669,-516.5736 347.4365,-524.1436"/>
<polygon fill="none" stroke="#000000" points="344.8872,-526.5428 354.1886,-531.6159 350.0809,-521.8497 344.8872,-526.5428"/>
</g>
<!-- CommutativeRing -->
<g id="node15" class="node">
<title>CommutativeRing</title>
<polygon fill="none" stroke="#000000" points="257.5,-457 152.5,-457 152.5,-421 257.5,-421 257.5,-457"/>
<polyline fill="none" stroke="#000000" points="153,-422 258,-422 "/>
<text text-anchor="start" x="184.1543" y="-441.4" font-family="Helvetica,sans-Serif" font-size="12.00" fill="#000000">protocol</text>
<text text-anchor="start" x="157.8164" y="-429.4" font-family="Helvetica,sans-Serif" font-size="12.00" fill="#000000">CommutativeRing</text>
</g>
<!-- CommutativeRing&#45;&gt;CommutativeSemiring -->
<g id="edge16" class="edge">
<title>CommutativeRing&#45;&gt;CommutativeSemiring</title>
<path fill="none" stroke="#000000" d="M210.7795,-457.3294C216.3272,-474.9234 224.7832,-501.7409 231.1737,-522.008"/>
<polygon fill="none" stroke="#000000" points="227.8666,-523.1588 234.2119,-531.6434 234.5426,-521.0537 227.8666,-523.1588"/>
</g>
<!-- CommutativeRing&#45;&gt;Ring -->
<g id="edge13" class="edge">
<title>CommutativeRing&#45;&gt;Ring</title>
<path fill="none" stroke="#000000" d="M243.7922,-457.1111C267.401,-468.9515 297.6055,-485.5992 322,-504 329.9459,-509.9936 337.8722,-517.3117 344.8509,-524.3323"/>
<polygon fill="none" stroke="#000000" points="342.5476,-526.986 352.0076,-531.7567 347.5874,-522.128 342.5476,-526.986"/>
</g>
<!-- IntegralDomain -->
<g id="node16" class="node">
<title>IntegralDomain</title>
<polygon fill="none" stroke="#000000" points="250.5,-346 159.5,-346 159.5,-310 250.5,-310 250.5,-346"/>
<polyline fill="none" stroke="#000000" points="160,-311 251,-311 "/>
<text text-anchor="start" x="184.1543" y="-330.4" font-family="Helvetica,sans-Serif" font-size="12.00" fill="#000000">protocol</text>
<text text-anchor="start" x="164.8125" y="-318.4" font-family="Helvetica,sans-Serif" font-size="12.00" fill="#000000">IntegralDomain</text>
</g>
<!-- IntegralDomain&#45;&gt;UnitalRing -->
<g id="edge21" class="edge">
<title>IntegralDomain&#45;&gt;UnitalRing</title>
<path fill="none" stroke="#000000" d="M184.8013,-346.0811C164.1747,-364.5453 131.9941,-393.3521 108.9329,-413.9956"/>
<polygon fill="none" stroke="#000000" points="106.3065,-411.6491 101.1901,-420.9266 110.9753,-416.8647 106.3065,-411.6491"/>
</g>
<!-- IntegralDomain&#45;&gt;CommutativeRing -->
<g id="edge22" class="edge">
<title>IntegralDomain&#45;&gt;CommutativeRing</title>
<path fill="none" stroke="#000000" d="M205,-346.3294C205,-363.7627 205,-390.2518 205,-410.4511"/>
<polygon fill="none" stroke="#000000" points="201.5001,-410.6433 205,-420.6434 208.5001,-410.6434 201.5001,-410.6433"/>
</g>
<!-- DivisionRing -->
<g id="node17" class="node">
<title>DivisionRing</title>
<polygon fill="none" stroke="#000000" points="124,-229 16,-229 16,-149 124,-149 124,-229"/>
<polyline fill="none" stroke="#000000" points="16,-195 124,-195 "/>
<text text-anchor="start" x="48.6543" y="-214.4" font-family="Helvetica,sans-Serif" font-size="12.00" fill="#000000">protocol</text>
<text text-anchor="start" x="36.6543" y="-202.4" font-family="Helvetica,sans-Serif" font-size="12.00" fill="#000000">DivisionRing</text>
<polyline fill="none" stroke="#000000" points="16,-173 124,-173 "/>
<text text-anchor="start" x="21" y="-180.4" font-family="Helvetica,sans-Serif" font-size="12.00" fill="#000000">inversed: Self</text>
<polyline fill="none" stroke="#000000" points="16,-149 124,-149 "/>
<text text-anchor="start" x="21" y="-159.4" font-family="Helvetica,sans-Serif" font-style="italic" text-decoration="underline" font-size="12.00" fill="#000000">/(Self, Self) → Self</text>
</g>
<!-- DivisionRing&#45;&gt;UnitalRing -->
<g id="edge18" class="edge">
<title>DivisionRing&#45;&gt;UnitalRing</title>
<path fill="none" stroke="#000000" d="M71.7673,-229.1668C74.0059,-280.0442 77.8066,-366.4229 79.7599,-410.8154"/>
<polygon fill="none" stroke="#000000" points="76.2672,-411.06 80.2034,-420.8964 83.2604,-410.7522 76.2672,-411.06"/>
</g>
<!-- EuclideanDomain -->
<g id="node18" class="node">
<title>EuclideanDomain</title>
<polygon fill="none" stroke="#000000" points="414,-246 160,-246 160,-132 414,-132 414,-246"/>
<polyline fill="none" stroke="#000000" points="160,-212 414,-212 "/>
<text text-anchor="start" x="265.6543" y="-231.4" font-family="Helvetica,sans-Serif" font-size="12.00" fill="#000000">protocol</text>
<text text-anchor="start" x="239.9727" y="-219.4" font-family="Helvetica,sans-Serif" font-size="12.00" fill="#000000">EuclideanDomain</text>
<polyline fill="none" stroke="#000000" points="160,-190 414,-190 "/>
<text text-anchor="start" x="165" y="-198.4" font-family="Helvetica,sans-Serif" font-style="italic" font-size="12.00" fill="#000000">degree: Int</text>
<polyline fill="none" stroke="#000000" points="160,-132 414,-132 "/>
<text text-anchor="start" x="165" y="-176.4" font-family="Helvetica,sans-Serif" font-style="italic" text-decoration="underline" font-size="12.00" fill="#000000">divideWithRemainder(Self, Self) → (Self, Self)</text>
<text text-anchor="start" x="165" y="-164.4" font-family="Helvetica,sans-Serif" text-decoration="underline" font-size="12.00" fill="#000000">%(Self, Self) → Self</text>
<text text-anchor="start" x="165" y="-152.4" font-family="Helvetica,sans-Serif" text-decoration="underline" font-size="12.00" fill="#000000">/%(Self, Self) → Self</text>
<text text-anchor="start" x="165" y="-140.4" font-family="Helvetica,sans-Serif" text-decoration="underline" font-size="12.00" fill="#000000">greatestCommonDivisor(Self, Self) → Self</text>
</g>
<!-- EuclideanDomain&#45;&gt;IntegralDomain -->
<g id="edge20" class="edge">
<title>EuclideanDomain&#45;&gt;IntegralDomain</title>
<path fill="none" stroke="#000000" d="M253.174,-246.3391C242.0676,-265.1659 230.2363,-285.2214 221.0781,-300.7457"/>
<polygon fill="none" stroke="#000000" points="217.8182,-299.3833 215.7517,-309.7746 223.8473,-302.94 217.8182,-299.3833"/>
</g>
<!-- Field -->
<g id="node19" class="node">
<title>Field</title>
<polygon fill="none" stroke="#000000" points="342,-96 88,-96 88,-16 342,-16 342,-96"/>
<polyline fill="none" stroke="#000000" points="88,-62 342,-62 "/>
<text text-anchor="start" x="193.6543" y="-81.4" font-family="Helvetica,sans-Serif" font-size="12.00" fill="#000000">protocol</text>
<text text-anchor="start" x="201.9951" y="-69.4" font-family="Helvetica,sans-Serif" font-size="12.00" fill="#000000">Field</text>
<polyline fill="none" stroke="#000000" points="88,-40 342,-40 "/>
<text text-anchor="start" x="93" y="-47.4" font-family="Helvetica,sans-Serif" font-size="12.00" fill="#000000">degree: Int</text>
<polyline fill="none" stroke="#000000" points="88,-16 342,-16 "/>
<text text-anchor="start" x="93" y="-26.4" font-family="Helvetica,sans-Serif" text-decoration="underline" font-size="12.00" fill="#000000">divideWithRemainder(Self, Self) → (Self, Self)</text>
</g>
<!-- Field&#45;&gt;DivisionRing -->
<g id="edge17" class="edge">
<title>Field&#45;&gt;DivisionRing</title>
<path fill="none" stroke="#000000" d="M171.1017,-96.2653C155.3439,-110.719 137.4392,-127.1419 121.1214,-142.1093"/>
<polygon fill="none" stroke="#000000" points="118.7527,-139.5327 113.7491,-148.8715 123.4844,-144.6913 118.7527,-139.5327"/>
</g>
<!-- Field&#45;&gt;EuclideanDomain -->
<g id="edge19" class="edge">
<title>Field&#45;&gt;EuclideanDomain</title>
<path fill="none" stroke="#000000" d="M236.7978,-96.2653C241.3299,-104.6372 246.2197,-113.6698 251.1069,-122.6975"/>
<polygon fill="none" stroke="#000000" points="248.1412,-124.5711 255.9799,-131.6989 254.297,-121.2386 248.1412,-124.5711"/>
</g>
<!-- VectorSpace&lt;T: Field&gt; -->
<g id="node20" class="node">
<title>VectorSpace&lt;T: Field&gt;</title>
<polygon fill="none" stroke="#000000" points="890,-584 760,-584 760,-516 890,-516 890,-584"/>
<polyline fill="none" stroke="#000000" points="760,-550 890,-550 "/>
<text text-anchor="start" x="803.6543" y="-569.4" font-family="Helvetica,sans-Serif" font-size="12.00" fill="#000000">protocol</text>
<text text-anchor="start" x="764.6279" y="-557.4" font-family="Helvetica,sans-Serif" font-size="12.00" fill="#000000">VectorSpace&lt;T: Field&gt;</text>
<polyline fill="none" stroke="#000000" points="760,-516 890,-516 "/>
<text text-anchor="start" x="765" y="-536.4" font-family="Helvetica,sans-Serif" font-style="italic" text-decoration="underline" font-size="12.00" fill="#000000">*(Self, T) → Self</text>
<text text-anchor="start" x="765" y="-524.4" font-family="Helvetica,sans-Serif" font-style="italic" text-decoration="underline" font-size="12.00" fill="#000000">/(Self, T) → Self</text>
</g>
<!-- VectorSpace&lt;T: Field&gt;&#45;&gt;AbelianGroup -->
<g id="edge31" class="edge">
<title>VectorSpace&lt;T: Field&gt;&#45;&gt;AbelianGroup</title>
<path fill="none" stroke="#000000" d="M780.5117,-584.1764C756.4441,-602.6655 727.2877,-625.0638 705.5689,-641.7484"/>
<polygon fill="none" stroke="#000000" points="703.4332,-638.9755 697.6352,-647.8431 707.6976,-644.5266 703.4332,-638.9755"/>
</g>
<!-- VectorSpace&lt;T: Field&gt;&#45;&gt;Field -->
<g id="edge32" class="edge">
<title>VectorSpace&lt;T: Field&gt;&#45;&gt;Field</title>
<path fill="none" stroke="#000000" stroke-dasharray="5,2" d="M801.8223,-515.8156C746.7587,-437.0674 600.0547,-241.2767 432,-132 407.4963,-116.0666 379.257,-103.0303 351.4237,-92.5373"/>
<polygon fill="#000000" stroke="#000000" points="342.0062,-89.0758 352.9447,-88.3021 346.6992,-90.8008 351.3923,-92.5258 351.3923,-92.5258 351.3923,-92.5258 346.6992,-90.8008 349.8398,-96.7495 342.0062,-89.0758 342.0062,-89.0758"/>
</g>
<!-- MetricSpace -->
<g id="node21" class="node">
<title>MetricSpace</title>
<polygon fill="none" stroke="#000000" points="1081.5,-695 926.5,-695 926.5,-637 1081.5,-637 1081.5,-695"/>
<polyline fill="none" stroke="#000000" points="927,-661 1082,-661 "/>
<text text-anchor="start" x="983.1543" y="-680.4" font-family="Helvetica,sans-Serif" font-size="12.00" fill="#000000">protocol</text>
<text text-anchor="start" x="971.1543" y="-668.4" font-family="Helvetica,sans-Serif" font-size="12.00" fill="#000000">MetricSpace</text>
<polyline fill="none" stroke="#000000" points="927,-637 1082,-637 "/>
<text text-anchor="start" x="932" y="-647.4" font-family="Helvetica,sans-Serif" font-style="italic" text-decoration="underline" font-size="12.00" fill="#000000">metric(Self, Self) → Double</text>
</g>
<!-- NormedSpace -->
<g id="node22" class="node">
<title>NormedSpace</title>
<polygon fill="none" stroke="#000000" points="1081.5,-596 926.5,-596 926.5,-504 1081.5,-504 1081.5,-596"/>
<polyline fill="none" stroke="#000000" points="927,-562 1082,-562 "/>
<text text-anchor="start" x="983.1543" y="-581.4" font-family="Helvetica,sans-Serif" font-size="12.00" fill="#000000">protocol</text>
<text text-anchor="start" x="966.1475" y="-569.4" font-family="Helvetica,sans-Serif" font-size="12.00" fill="#000000">NormedSpace</text>
<polyline fill="none" stroke="#000000" points="927,-528 1082,-528 "/>
<text text-anchor="start" x="932" y="-548.4" font-family="Helvetica,sans-Serif" font-style="italic" font-size="12.00" fill="#000000">norm: Double</text>
<text text-anchor="start" x="932" y="-536.4" font-family="Helvetica,sans-Serif" font-style="italic" font-size="12.00" fill="#000000">squaredNorm: Double</text>
<polyline fill="none" stroke="#000000" points="927,-504 1082,-504 "/>
<text text-anchor="start" x="932" y="-514.4" font-family="Helvetica,sans-Serif" text-decoration="underline" font-size="12.00" fill="#000000">metric(Self, Self) → Double</text>
</g>
<!-- NormedSpace&#45;&gt;AbelianGroup -->
<g id="edge23" class="edge">
<title>NormedSpace&#45;&gt;AbelianGroup</title>
<path fill="none" stroke="#000000" d="M926.304,-589.0674C920.1787,-591.5806 914.0303,-593.9289 908,-596 837.0117,-620.381 813.8533,-607.2292 743,-632 733.9244,-635.1729 724.4965,-639.2501 715.6321,-643.472"/>
<polygon fill="none" stroke="#000000" points="714.0682,-640.3407 706.6369,-647.8923 717.1554,-646.6232 714.0682,-640.3407"/>
</g>
<!-- NormedSpace&#45;&gt;MetricSpace -->
<g id="edge24" class="edge">
<title>NormedSpace&#45;&gt;MetricSpace</title>
<path fill="none" stroke="#000000" d="M1004,-596.1796C1004,-606.2945 1004,-616.9102 1004,-626.7247"/>
<polygon fill="none" stroke="#000000" points="1000.5001,-626.9983 1004,-636.9983 1007.5001,-626.9984 1000.5001,-626.9983"/>
</g>
<!-- NormedVectorSpace -->
<g id="node23" class="node">
<title>NormedVectorSpace</title>
<polygon fill="none" stroke="#000000" points="975,-457 855,-457 855,-421 975,-421 975,-457"/>
<polyline fill="none" stroke="#000000" points="855,-422 975,-422 "/>
<text text-anchor="start" x="893.6543" y="-441.4" font-family="Helvetica,sans-Serif" font-size="12.00" fill="#000000">protocol</text>
<text text-anchor="start" x="859.6348" y="-429.4" font-family="Helvetica,sans-Serif" font-size="12.00" fill="#000000">NormedVectorSpace</text>
</g>
<!-- NormedVectorSpace&#45;&gt;VectorSpace&lt;T: Field&gt; -->
<g id="edge26" class="edge">
<title>NormedVectorSpace&#45;&gt;VectorSpace&lt;T: Field&gt;</title>
<path fill="none" stroke="#000000" d="M900.1383,-457.3294C888.968,-471.1061 873.2122,-490.5382 859.0116,-508.0524"/>
<polygon fill="none" stroke="#000000" points="856.1978,-505.9654 852.6184,-515.9373 861.6351,-510.374 856.1978,-505.9654"/>
</g>
<!-- NormedVectorSpace&#45;&gt;NormedSpace -->
<g id="edge27" class="edge">
<title>NormedVectorSpace&#45;&gt;NormedSpace</title>
<path fill="none" stroke="#000000" d="M929.6965,-457.3294C938.1986,-467.933 949.3868,-481.8869 960.4926,-495.7379"/>
<polygon fill="none" stroke="#000000" points="958.0148,-498.2428 967.001,-503.8552 963.4761,-493.8639 958.0148,-498.2428"/>
</g>
<!-- EuclideanSpace -->
<g id="node24" class="node">
<title>EuclideanSpace</title>
<polygon fill="none" stroke="#000000" points="981,-374 849,-374 849,-282 981,-282 981,-374"/>
<polyline fill="none" stroke="#000000" points="849,-340 981,-340 "/>
<text text-anchor="start" x="893.6543" y="-359.4" font-family="Helvetica,sans-Serif" font-size="12.00" fill="#000000">protocol</text>
<text text-anchor="start" x="871.6348" y="-347.4" font-family="Helvetica,sans-Serif" font-size="12.00" fill="#000000">EuclideanSpace</text>
<polyline fill="none" stroke="#000000" points="849,-306 981,-306 "/>
<text text-anchor="start" x="854" y="-325.4" font-family="Helvetica,sans-Serif" font-size="12.00" fill="#000000">norm: Double</text>
<text text-anchor="start" x="854" y="-313.4" font-family="Helvetica,sans-Serif" font-size="12.00" fill="#000000">squaredNorm: Double</text>
<polyline fill="none" stroke="#000000" points="849,-282 981,-282 "/>
<text text-anchor="start" x="854" y="-292.4" font-family="Helvetica,sans-Serif" font-style="italic" text-decoration="underline" font-size="12.00" fill="#000000">**(Self, Self) → Double</text>
</g>
<!-- EuclideanSpace&#45;&gt;NormedVectorSpace -->
<g id="edge25" class="edge">
<title>EuclideanSpace&#45;&gt;NormedVectorSpace</title>
<path fill="none" stroke="#000000" d="M915,-374.1097C915,-386.568 915,-399.6765 915,-410.8249"/>
<polygon fill="none" stroke="#000000" points="911.5001,-410.8278 915,-420.8279 918.5001,-410.8279 911.5001,-410.8278"/>
</g>
</g>
</svg>
