<?xml version="1.0" encoding="UTF-8" standalone="no"?>
<!DOCTYPE svg PUBLIC "-//W3C//DTD SVG 1.1//EN"
 "http://www.w3.org/Graphics/SVG/1.1/DTD/svg11.dtd">
<!-- Generated by graphviz version 2.40.1 (20161225.0304)
 -->
<!-- Pages: 1 -->
<svg width="938pt" height="962pt"
 viewBox="0.00 0.00 938.00 962.00" xmlns="http://www.w3.org/2000/svg" xmlns:xlink="http://www.w3.org/1999/xlink">
<g id="graph0" class="graph" transform="scale(1 1) rotate(0) translate(4 958)">
<polygon fill="#ffffff" stroke="transparent" points="-4,4 -4,-958 934,-958 934,4 -4,4"/>
<g id="clust1" class="cluster">
<title>cluster GroupLike</title>
<polygon fill="none" stroke="#000000" points="489,-500 489,-910 781,-910 781,-500 489,-500"/>
<text text-anchor="middle" x="745.3174" y="-896.4" font-family="Helvetica,sans" font-size="12.00" fill="#000000">GroupLike</text>
</g>
<g id="clust5" class="cluster">
<title>cluster RingLike</title>
<polygon fill="none" stroke="#000000" points="8,-19 8,-588 478,-588 478,-19 8,-19"/>
<text text-anchor="middle" x="446.6533" y="-574.4" font-family="Helvetica,sans" font-size="12.00" fill="#000000">RingLike</text>
</g>
<g id="clust10" class="cluster">
<title>cluster Spaces</title>
<polygon fill="none" stroke="#000000" points="556,-8 556,-484 922,-484 922,-8 556,-8"/>
<text text-anchor="middle" x="893.9873" y="-470.4" font-family="Helvetica,sans" font-size="12.00" fill="#000000">Spaces</text>
</g>
<!-- Equatable -->
<g id="node1" class="node">
<title>Equatable</title>
<polygon fill="none" stroke="#000000" points="808.0469,-954 737.9531,-954 737.9531,-918 808.0469,-918 808.0469,-954"/>
<text text-anchor="start" x="751.6543" y="-938.4" font-family="Helvetica,sans" font-size="12.00" fill="#000000">protocol</text>
<text text-anchor="start" x="745.9766" y="-926.4" font-family="Helvetica,sans" font-size="12.00" fill="#000000">Equatable</text>
</g>
<!-- Semigroup -->
<g id="node2" class="node">
<title>Semigroup</title>
<polygon fill="none" stroke="#000000" points="769,-882 657,-882 657,-814 769,-814 769,-882"/>
<polyline fill="none" stroke="#000000" points="657,-848 769,-848 "/>
<text text-anchor="start" x="691.6543" y="-867.4" font-family="Helvetica,sans" font-size="12.00" fill="#000000">protocol</text>
<text text-anchor="start" x="683.9844" y="-855.4" font-family="Helvetica,sans" font-size="12.00" fill="#000000">Semigroup</text>
<polyline fill="none" stroke="#000000" points="657,-814 769,-814 "/>
<text text-anchor="start" x="662" y="-834.4" font-family="Helvetica,sans" font-style="italic" text-decoration="underline" font-size="12.00" fill="#000000">+(Self, Self) → Self</text>
<text text-anchor="start" x="662" y="-822.4" font-family="Helvetica,sans" text-decoration="underline" font-size="12.00" fill="#000000">*(Self, Int) → Self</text>
</g>
<!-- Semigroup&#45;&gt;Equatable -->
<g id="edge27" class="edge">
<title>Semigroup&#45;&gt;Equatable</title>
<path fill="none" stroke="#000000" d="M736.1976,-882.0231C742.3652,-891.069 748.9378,-900.7087 754.7964,-909.3014"/>
<polygon fill="none" stroke="#000000" points="752.0712,-911.5175 760.5964,-917.808 757.8548,-907.5741 752.0712,-911.5175"/>
</g>
<!-- CommutativeSemigroup -->
<g id="node3" class="node">
<title>CommutativeSemigroup</title>
<polygon fill="none" stroke="#000000" points="645.219,-757 500.781,-757 500.781,-721 645.219,-721 645.219,-757"/>
<text text-anchor="start" x="551.6543" y="-741.4" font-family="Helvetica,sans" font-size="12.00" fill="#000000">protocol</text>
<text text-anchor="start" x="508.6406" y="-729.4" font-family="Helvetica,sans" font-size="12.00" fill="#000000">CommutativeSemigroup</text>
</g>
<!-- CommutativeSemigroup&#45;&gt;Semigroup -->
<g id="edge3" class="edge">
<title>CommutativeSemigroup&#45;&gt;Semigroup</title>
<path fill="none" stroke="#000000" d="M596.4329,-757.2441C614.0419,-770.9541 638.8463,-790.2661 661.0502,-807.5534"/>
<polygon fill="none" stroke="#000000" points="659.0541,-810.4349 669.0947,-813.8166 663.3544,-804.9116 659.0541,-810.4349"/>
</g>
<!-- Monoid -->
<g id="node4" class="node">
<title>Monoid</title>
<polygon fill="none" stroke="#000000" points="743,-778 683,-778 683,-700 743,-700 743,-778"/>
<polyline fill="none" stroke="#000000" points="683,-744 743,-744 "/>
<text text-anchor="start" x="691.6543" y="-763.4" font-family="Helvetica,sans" font-size="12.00" fill="#000000">protocol</text>
<text text-anchor="start" x="693.3213" y="-751.4" font-family="Helvetica,sans" font-size="12.00" fill="#000000">Monoid</text>
<polyline fill="none" stroke="#000000" points="683,-722 743,-722 "/>
<text text-anchor="start" x="688" y="-730.4" font-family="Helvetica,sans" text-decoration="underline" font-size="12.00" fill="#000000">zero: Self</text>
<polyline fill="none" stroke="#000000" points="683,-700 743,-700 "/>
<text text-anchor="start" x="688" y="-708.4" font-family="Helvetica,sans" font-style="italic" font-size="12.00" fill="#000000">init()</text>
</g>
<!-- Monoid&#45;&gt;Semigroup -->
<g id="edge4" class="edge">
<title>Monoid&#45;&gt;Semigroup</title>
<path fill="none" stroke="#000000" d="M713,-778.0436C713,-786.382 713,-795.2465 713,-803.7641"/>
<polygon fill="none" stroke="#000000" points="709.5001,-803.9227 713,-813.9228 716.5001,-803.9228 709.5001,-803.9227"/>
</g>
<!-- CommutativeMonoid -->
<g id="node5" class="node">
<title>CommutativeMonoid</title>
<polygon fill="none" stroke="#000000" points="623.0449,-648 496.9551,-648 496.9551,-612 623.0449,-612 623.0449,-648"/>
<text text-anchor="start" x="538.6543" y="-632.4" font-family="Helvetica,sans" font-size="12.00" fill="#000000">protocol</text>
<text text-anchor="start" x="504.9775" y="-620.4" font-family="Helvetica,sans" font-size="12.00" fill="#000000">CommutativeMonoid</text>
</g>
<!-- CommutativeMonoid&#45;&gt;CommutativeSemigroup -->
<g id="edge1" class="edge">
<title>CommutativeMonoid&#45;&gt;CommutativeSemigroup</title>
<path fill="none" stroke="#000000" d="M562.2053,-648.4904C564.2345,-665.5048 567.2746,-690.9945 569.6119,-710.5924"/>
<polygon fill="none" stroke="#000000" points="566.1676,-711.2676 570.8273,-720.7827 573.1183,-710.4386 566.1676,-711.2676"/>
</g>
<!-- CommutativeMonoid&#45;&gt;Monoid -->
<g id="edge2" class="edge">
<title>CommutativeMonoid&#45;&gt;Monoid</title>
<path fill="none" stroke="#000000" d="M587.8826,-648.2337C608.8012,-662.0851 638.0117,-681.7933 663,-700 666.8566,-702.8099 670.8405,-705.7863 674.7982,-708.7923"/>
<polygon fill="none" stroke="#000000" points="672.7716,-711.6489 682.8357,-714.9601 677.0331,-706.0955 672.7716,-711.6489"/>
</g>
<!-- Group -->
<g id="node6" class="node">
<title>Group</title>
<polygon fill="none" stroke="#000000" points="773,-664 659,-664 659,-596 773,-596 773,-664"/>
<polyline fill="none" stroke="#000000" points="659,-630 773,-630 "/>
<text text-anchor="start" x="694.6543" y="-649.4" font-family="Helvetica,sans" font-size="12.00" fill="#000000">protocol</text>
<text text-anchor="start" x="699.3242" y="-637.4" font-family="Helvetica,sans" font-size="12.00" fill="#000000">Group</text>
<polyline fill="none" stroke="#000000" points="659,-596 773,-596 "/>
<text text-anchor="start" x="664" y="-616.4" font-family="Helvetica,sans" font-style="italic" text-decoration="underline" font-size="12.00" fill="#000000">prefix &#45;(Self) → Self</text>
<text text-anchor="start" x="664" y="-604.4" font-family="Helvetica,sans" text-decoration="underline" font-size="12.00" fill="#000000">&#45;(Self, Self) → Self</text>
</g>
<!-- Group&#45;&gt;Monoid -->
<g id="edge5" class="edge">
<title>Group&#45;&gt;Monoid</title>
<path fill="none" stroke="#000000" d="M715.059,-664.1892C714.8342,-672.3563 714.5899,-681.2336 714.3507,-689.925"/>
<polygon fill="none" stroke="#000000" points="710.8502,-689.8963 714.0737,-699.9888 717.8476,-690.0889 710.8502,-689.8963"/>
</g>
<!-- AbelianGroup -->
<g id="node7" class="node">
<title>AbelianGroup</title>
<polygon fill="none" stroke="#000000" points="645.8836,-544 556.1164,-544 556.1164,-508 645.8836,-508 645.8836,-544"/>
<text text-anchor="start" x="579.6543" y="-528.4" font-family="Helvetica,sans" font-size="12.00" fill="#000000">protocol</text>
<text text-anchor="start" x="564.3086" y="-516.4" font-family="Helvetica,sans" font-size="12.00" fill="#000000">AbelianGroup</text>
</g>
<!-- AbelianGroup&#45;&gt;CommutativeMonoid -->
<g id="edge6" class="edge">
<title>AbelianGroup&#45;&gt;CommutativeMonoid</title>
<path fill="none" stroke="#000000" d="M593.8583,-544.1154C587.5184,-560.1972 578.1592,-583.9376 570.8867,-602.385"/>
<polygon fill="none" stroke="#000000" points="567.6089,-601.1564 567.1974,-611.7432 574.1211,-603.7237 567.6089,-601.1564"/>
</g>
<!-- AbelianGroup&#45;&gt;Group -->
<g id="edge7" class="edge">
<title>AbelianGroup&#45;&gt;Group</title>
<path fill="none" stroke="#000000" d="M621.0315,-544.1154C634.648,-556.4295 653.2297,-573.2338 670.3472,-588.7139"/>
<polygon fill="none" stroke="#000000" points="668.3213,-591.6008 678.0858,-595.7124 673.0165,-586.409 668.3213,-591.6008"/>
</g>
<!-- Semiring -->
<g id="node8" class="node">
<title>Semiring</title>
<polygon fill="none" stroke="#000000" points="379,-560 269,-560 269,-492 379,-492 379,-560"/>
<polyline fill="none" stroke="#000000" points="269,-526 379,-526 "/>
<text text-anchor="start" x="302.6543" y="-545.4" font-family="Helvetica,sans" font-size="12.00" fill="#000000">protocol</text>
<text text-anchor="start" x="300.3252" y="-533.4" font-family="Helvetica,sans" font-size="12.00" fill="#000000">Semiring</text>
<polyline fill="none" stroke="#000000" points="269,-492 379,-492 "/>
<text text-anchor="start" x="274" y="-512.4" font-family="Helvetica,sans" font-style="italic" text-decoration="underline" font-size="12.00" fill="#000000">*(Self, Self) → Self</text>
<text text-anchor="start" x="274" y="-500.4" font-family="Helvetica,sans" text-decoration="underline" font-size="12.00" fill="#000000">**(Self, Int) → Self</text>
</g>
<!-- Semiring&#45;&gt;CommutativeMonoid -->
<g id="edge29" class="edge">
<title>Semiring&#45;&gt;CommutativeMonoid</title>
<path fill="none" stroke="#000000" d="M379.0337,-550.2521C418.4603,-567.6266 471.1501,-590.8458 509.5036,-607.7474"/>
<polygon fill="none" stroke="#000000" points="508.3665,-611.071 518.9288,-611.9008 511.1894,-604.6654 508.3665,-611.071"/>
</g>
<!-- Unital(Semiring) -->
<g id="node9" class="node">
<title>Unital(Semiring)</title>
<polygon fill="none" stroke="#000000" points="316,-450 220,-450 220,-394 316,-394 316,-450"/>
<polyline fill="none" stroke="#000000" points="220,-416 316,-416 "/>
<text text-anchor="start" x="246.6543" y="-435.4" font-family="Helvetica,sans" font-size="12.00" fill="#000000">protocol</text>
<text text-anchor="start" x="224.9893" y="-423.4" font-family="Helvetica,sans" font-size="12.00" fill="#000000">Unital(Semiring)</text>
<polyline fill="none" stroke="#000000" points="220,-394 316,-394 "/>
<text text-anchor="start" x="225" y="-402.4" font-family="Helvetica,sans" font-style="italic" text-decoration="underline" font-size="12.00" fill="#000000">unit: Self</text>
</g>
<!-- Unital(Semiring)&#45;&gt;Semiring -->
<g id="edge8" class="edge">
<title>Unital(Semiring)&#45;&gt;Semiring</title>
<path fill="none" stroke="#000000" d="M283.1544,-450.1439C288.5699,-460.2013 294.8039,-471.7787 300.7445,-482.8112"/>
<polygon fill="none" stroke="#000000" points="297.8184,-484.7595 305.6411,-491.9049 303.9817,-481.4408 297.8184,-484.7595"/>
</g>
<!-- Commutative(Semiring) -->
<g id="node10" class="node">
<title>Commutative(Semiring)</title>
<polygon fill="none" stroke="#000000" points="184.0293,-440 41.9707,-440 41.9707,-404 184.0293,-404 184.0293,-440"/>
<text text-anchor="start" x="91.6543" y="-424.4" font-family="Helvetica,sans" font-size="12.00" fill="#000000">protocol</text>
<text text-anchor="start" x="49.9854" y="-412.4" font-family="Helvetica,sans" font-size="12.00" fill="#000000">Commutative(Semiring)</text>
</g>
<!-- Commutative(Semiring)&#45;&gt;Semiring -->
<g id="edge9" class="edge">
<title>Commutative(Semiring)&#45;&gt;Semiring</title>
<path fill="none" stroke="#000000" d="M135.3172,-440.1658C152.6856,-453.637 177.8237,-471.7191 202,-484 219.9424,-493.1143 240.3166,-501.0041 259.2061,-507.4063"/>
<polygon fill="none" stroke="#000000" points="258.3348,-510.8045 268.928,-510.6173 260.5302,-504.1576 258.3348,-510.8045"/>
</g>
<!-- Ring -->
<g id="node11" class="node">
<title>Ring</title>
<polygon fill="none" stroke="#000000" points="410.1922,-440 351.8078,-440 351.8078,-404 410.1922,-404 410.1922,-440"/>
<text text-anchor="start" x="359.6543" y="-424.4" font-family="Helvetica,sans" font-size="12.00" fill="#000000">protocol</text>
<text text-anchor="start" x="368.6602" y="-412.4" font-family="Helvetica,sans" font-size="12.00" fill="#000000">Ring</text>
</g>
<!-- Ring&#45;&gt;AbelianGroup -->
<g id="edge30" class="edge">
<title>Ring&#45;&gt;AbelianGroup</title>
<path fill="none" stroke="#000000" d="M410.2143,-435.8104C446.8025,-453.1066 509.9665,-482.966 553.5334,-503.5613"/>
<polygon fill="none" stroke="#000000" points="552.2523,-506.827 562.7889,-507.9366 555.244,-500.4985 552.2523,-506.827"/>
</g>
<!-- Ring&#45;&gt;Semiring -->
<g id="edge10" class="edge">
<title>Ring&#45;&gt;Semiring</title>
<path fill="none" stroke="#000000" d="M371.0714,-440.1154C364.6263,-451.8748 355.937,-467.729 347.7786,-482.6145"/>
<polygon fill="none" stroke="#000000" points="344.5293,-481.2609 342.7923,-491.7124 350.6678,-484.6253 344.5293,-481.2609"/>
</g>
<!-- InvolutiveRing -->
<g id="node12" class="node">
<title>InvolutiveRing</title>
<polygon fill="none" stroke="#000000" points="470,-335 350,-335 350,-277 470,-277 470,-335"/>
<polyline fill="none" stroke="#000000" points="350,-301 470,-301 "/>
<text text-anchor="start" x="388.6543" y="-320.4" font-family="Helvetica,sans" font-size="12.00" fill="#000000">protocol</text>
<text text-anchor="start" x="372.3125" y="-308.4" font-family="Helvetica,sans" font-size="12.00" fill="#000000">InvolutiveRing</text>
<polyline fill="none" stroke="#000000" points="350,-277 470,-277 "/>
<text text-anchor="start" x="355" y="-287.4" font-family="Helvetica,sans" font-style="italic" text-decoration="underline" font-size="12.00" fill="#000000">postfix *(Self) → Self</text>
</g>
<!-- InvolutiveRing&#45;&gt;Ring -->
<g id="edge11" class="edge">
<title>InvolutiveRing&#45;&gt;Ring</title>
<path fill="none" stroke="#000000" d="M402.6821,-335.2717C398.1656,-353.3378 392.4053,-376.3789 387.9573,-394.1708"/>
<polygon fill="none" stroke="#000000" points="384.5393,-393.4122 385.5094,-403.9625 391.3303,-395.11 384.5393,-393.4122"/>
</g>
<!-- TriviallyInvolutiveRing -->
<g id="node13" class="node">
<title>TriviallyInvolutiveRing</title>
<polygon fill="none" stroke="#000000" points="469.5,-207 344.5,-207 344.5,-149 469.5,-149 469.5,-207"/>
<polyline fill="none" stroke="#000000" points="345,-173 470,-173 "/>
<text text-anchor="start" x="386.1543" y="-192.4" font-family="Helvetica,sans" font-size="12.00" fill="#000000">protocol</text>
<text text-anchor="start" x="349.7002" y="-180.4" font-family="Helvetica,sans" font-size="12.00" fill="#000000">TriviallyInvolutiveRing</text>
<polyline fill="none" stroke="#000000" points="345,-149 470,-149 "/>
<text text-anchor="start" x="350" y="-159.4" font-family="Helvetica,sans" text-decoration="underline" font-size="12.00" fill="#000000">postfix *(Self) → Self</text>
</g>
<!-- TriviallyInvolutiveRing&#45;&gt;InvolutiveRing -->
<g id="edge12" class="edge">
<title>TriviallyInvolutiveRing&#45;&gt;InvolutiveRing</title>
<path fill="none" stroke="#000000" d="M407.6807,-207.0452C408.0921,-224.5956 408.622,-247.2048 409.0714,-266.3806"/>
<polygon fill="none" stroke="#000000" points="405.5781,-266.7115 409.3116,-276.6267 412.5762,-266.5474 405.5781,-266.7115"/>
</g>
<!-- IntegralDomain -->
<g id="node14" class="node">
<title>IntegralDomain</title>
<polygon fill="none" stroke="#000000" points="169.8757,-324 72.1243,-324 72.1243,-288 169.8757,-288 169.8757,-324"/>
<text text-anchor="start" x="99.6543" y="-308.4" font-family="Helvetica,sans" font-size="12.00" fill="#000000">protocol</text>
<text text-anchor="start" x="80.3125" y="-296.4" font-family="Helvetica,sans" font-size="12.00" fill="#000000">IntegralDomain</text>
</g>
<!-- IntegralDomain&#45;&gt;Unital(Semiring) -->
<g id="edge18" class="edge">
<title>IntegralDomain&#45;&gt;Unital(Semiring)</title>
<path fill="none" stroke="#000000" d="M143.9688,-324.125C165.4103,-341.0448 197.9717,-366.7396 224.3522,-387.5568"/>
<polygon fill="none" stroke="#000000" points="222.3032,-390.3984 232.3216,-393.8456 226.6395,-384.9033 222.3032,-390.3984"/>
</g>
<!-- IntegralDomain&#45;&gt;Commutative(Semiring) -->
<g id="edge19" class="edge">
<title>IntegralDomain&#45;&gt;Commutative(Semiring)</title>
<path fill="none" stroke="#000000" d="M119.75,-324.125C118.4718,-342.6588 116.4675,-371.7213 114.9746,-393.3689"/>
<polygon fill="none" stroke="#000000" points="111.464,-393.4023 114.2676,-403.6195 118.4474,-393.884 111.464,-393.4023"/>
</g>
<!-- IntegralDomain&#45;&gt;Ring -->
<g id="edge20" class="edge">
<title>IntegralDomain&#45;&gt;Ring</title>
<path fill="none" stroke="#000000" d="M143.0363,-324.1374C155.557,-333.6445 171.9082,-344.7809 188,-352 248.9774,-379.3555 273.3638,-359.8963 334,-388 339.8764,-390.7236 345.7665,-394.2245 351.2926,-397.9404"/>
<polygon fill="none" stroke="#000000" points="349.4473,-400.9231 359.6224,-403.8756 353.5093,-395.2222 349.4473,-400.9231"/>
</g>
<!-- DivisionRing -->
<g id="node15" class="node">
<title>DivisionRing</title>
<polygon fill="none" stroke="#000000" points="314,-346 206,-346 206,-266 314,-266 314,-346"/>
<polyline fill="none" stroke="#000000" points="206,-312 314,-312 "/>
<text text-anchor="start" x="238.6543" y="-331.4" font-family="Helvetica,sans" font-size="12.00" fill="#000000">protocol</text>
<text text-anchor="start" x="226.6543" y="-319.4" font-family="Helvetica,sans" font-size="12.00" fill="#000000">DivisionRing</text>
<polyline fill="none" stroke="#000000" points="206,-290 314,-290 "/>
<text text-anchor="start" x="211" y="-297.4" font-family="Helvetica,sans" font-size="12.00" fill="#000000">inversed: Self</text>
<polyline fill="none" stroke="#000000" points="206,-266 314,-266 "/>
<text text-anchor="start" x="211" y="-276.4" font-family="Helvetica,sans" font-style="italic" text-decoration="underline" font-size="12.00" fill="#000000">/(Self, Self) → Self</text>
</g>
<!-- DivisionRing&#45;&gt;Unital(Semiring) -->
<g id="edge14" class="edge">
<title>DivisionRing&#45;&gt;Unital(Semiring)</title>
<path fill="none" stroke="#000000" d="M262.7756,-346.2456C263.6133,-358.3923 264.5303,-371.6887 265.3589,-383.7047"/>
<polygon fill="none" stroke="#000000" points="261.8804,-384.1379 266.0602,-393.8734 268.8638,-383.6562 261.8804,-384.1379"/>
</g>
<!-- DivisionRing&#45;&gt;Ring -->
<g id="edge15" class="edge">
<title>DivisionRing&#45;&gt;Ring</title>
<path fill="none" stroke="#000000" d="M301.9803,-346.2456C319.4179,-362.9626 339.1271,-381.8574 354.4997,-396.5948"/>
<polygon fill="none" stroke="#000000" points="352.4675,-399.4951 362.1083,-403.8889 357.3118,-394.442 352.4675,-399.4951"/>
</g>
<!-- EuclideanDomain -->
<g id="node16" class="node">
<title>EuclideanDomain</title>
<polygon fill="none" stroke="#000000" points="270,-224 16,-224 16,-132 270,-132 270,-224"/>
<polyline fill="none" stroke="#000000" points="16,-190 270,-190 "/>
<text text-anchor="start" x="121.6543" y="-209.4" font-family="Helvetica,sans" font-size="12.00" fill="#000000">protocol</text>
<text text-anchor="start" x="95.9727" y="-197.4" font-family="Helvetica,sans" font-size="12.00" fill="#000000">EuclideanDomain</text>
<polyline fill="none" stroke="#000000" points="16,-132 270,-132 "/>
<text text-anchor="start" x="21" y="-176.4" font-family="Helvetica,sans" font-style="italic" text-decoration="underline" font-size="12.00" fill="#000000">divideWithRemainder(Self, Self) → (Self, Self)</text>
<text text-anchor="start" x="21" y="-164.4" font-family="Helvetica,sans" text-decoration="underline" font-size="12.00" fill="#000000">%(Self, Self) → Self</text>
<text text-anchor="start" x="21" y="-152.4" font-family="Helvetica,sans" text-decoration="underline" font-size="12.00" fill="#000000">/%(Self, Self) → Self</text>
<text text-anchor="start" x="21" y="-140.4" font-family="Helvetica,sans" text-decoration="underline" font-size="12.00" fill="#000000">greatestCommonDivisor(Self, Self) → Self</text>
</g>
<!-- EuclideanDomain&#45;&gt;IntegralDomain -->
<g id="edge17" class="edge">
<title>EuclideanDomain&#45;&gt;IntegralDomain</title>
<path fill="none" stroke="#000000" d="M135.0575,-224.2109C131.9774,-242.1312 128.55,-262.0728 125.8505,-277.7787"/>
<polygon fill="none" stroke="#000000" points="122.3558,-277.45 124.1112,-287.8984 129.2546,-278.6358 122.3558,-277.45"/>
</g>
<!-- Field -->
<g id="node17" class="node">
<title>Field</title>
<polygon fill="none" stroke="#000000" points="352,-85 98,-85 98,-27 352,-27 352,-85"/>
<polyline fill="none" stroke="#000000" points="98,-51 352,-51 "/>
<text text-anchor="start" x="203.6543" y="-70.4" font-family="Helvetica,sans" font-size="12.00" fill="#000000">protocol</text>
<text text-anchor="start" x="211.9951" y="-58.4" font-family="Helvetica,sans" font-size="12.00" fill="#000000">Field</text>
<polyline fill="none" stroke="#000000" points="98,-27 352,-27 "/>
<text text-anchor="start" x="103" y="-37.4" font-family="Helvetica,sans" text-decoration="underline" font-size="12.00" fill="#000000">divideWithRemainder(Self, Self) → (Self, Self)</text>
</g>
<!-- Field&#45;&gt;DivisionRing -->
<g id="edge13" class="edge">
<title>Field&#45;&gt;DivisionRing</title>
<path fill="none" stroke="#000000" d="M257.1941,-85.0157C269.3015,-98.0402 281.6634,-114.4268 288,-132 302.5621,-172.3849 292.7509,-220.7697 280.909,-256.2539"/>
<polygon fill="none" stroke="#000000" points="277.532,-255.308 277.5337,-265.9028 284.1394,-257.6194 277.532,-255.308"/>
</g>
<!-- Field&#45;&gt;EuclideanDomain -->
<g id="edge16" class="edge">
<title>Field&#45;&gt;EuclideanDomain</title>
<path fill="none" stroke="#000000" d="M205.359,-85.222C197.6633,-96.6717 188.5747,-110.1937 179.7514,-123.321"/>
<polygon fill="none" stroke="#000000" points="176.6825,-121.6128 174.0089,-131.8648 182.4921,-125.5177 176.6825,-121.6128"/>
</g>
<!-- VectorSpace&lt;Scalar: Field&gt; -->
<g id="node18" class="node">
<title>VectorSpace&lt;Scalar: Field&gt;</title>
<polygon fill="none" stroke="#000000" points="722,-456 564,-456 564,-388 722,-388 722,-456"/>
<polyline fill="none" stroke="#000000" points="564,-422 722,-422 "/>
<text text-anchor="start" x="621.6543" y="-441.4" font-family="Helvetica,sans" font-size="12.00" fill="#000000">protocol</text>
<text text-anchor="start" x="568.6211" y="-429.4" font-family="Helvetica,sans" font-size="12.00" fill="#000000">VectorSpace&lt;Scalar: Field&gt;</text>
<polyline fill="none" stroke="#000000" points="564,-388 722,-388 "/>
<text text-anchor="start" x="569" y="-408.4" font-family="Helvetica,sans" font-style="italic" text-decoration="underline" font-size="12.00" fill="#000000">*(Self, Scalar) → Self</text>
<text text-anchor="start" x="569" y="-396.4" font-family="Helvetica,sans" font-style="italic" text-decoration="underline" font-size="12.00" fill="#000000">/(Self, Scalar) → Self</text>
</g>
<!-- VectorSpace&lt;Scalar: Field&gt;&#45;&gt;AbelianGroup -->
<g id="edge31" class="edge">
<title>VectorSpace&lt;Scalar: Field&gt;&#45;&gt;AbelianGroup</title>
<path fill="none" stroke="#000000" d="M629.2476,-456.0535C623.6809,-469.8379 617.3396,-485.5399 612.0777,-498.5696"/>
<polygon fill="none" stroke="#000000" points="608.7942,-497.3535 608.2949,-507.9366 615.2849,-499.9748 608.7942,-497.3535"/>
</g>
<!-- VectorSpace&lt;Scalar: Field&gt;&#45;&gt;Field -->
<g id="edge32" class="edge">
<title>VectorSpace&lt;Scalar: Field&gt;&#45;&gt;Field</title>
<path fill="none" stroke="#000000" stroke-dasharray="5,2" d="M628.6024,-387.7444C599.0427,-318.8882 530.6271,-167.2649 487,-132 466.4986,-115.4282 414.2848,-98.8978 361.8154,-85.5063"/>
<polygon fill="#000000" stroke="#000000" points="352.0228,-83.0431 362.8185,-81.1185 356.8717,-84.2628 361.7207,-85.4826 361.7207,-85.4826 361.7207,-85.4826 356.8717,-84.2628 360.6229,-89.8466 352.0228,-83.0431 352.0228,-83.0431"/>
</g>
<!-- MetricSpace -->
<g id="node19" class="node">
<title>MetricSpace</title>
<polygon fill="none" stroke="#000000" points="913.5,-451 758.5,-451 758.5,-393 913.5,-393 913.5,-451"/>
<polyline fill="none" stroke="#000000" points="759,-417 914,-417 "/>
<text text-anchor="start" x="815.1543" y="-436.4" font-family="Helvetica,sans" font-size="12.00" fill="#000000">protocol</text>
<text text-anchor="start" x="803.1543" y="-424.4" font-family="Helvetica,sans" font-size="12.00" fill="#000000">MetricSpace</text>
<polyline fill="none" stroke="#000000" points="759,-393 914,-393 "/>
<text text-anchor="start" x="764" y="-403.4" font-family="Helvetica,sans" font-style="italic" text-decoration="underline" font-size="12.00" fill="#000000">metric(Self, Self) → Double</text>
</g>
<!-- MetricSpace&#45;&gt;Equatable -->
<g id="edge28" class="edge">
<title>MetricSpace&#45;&gt;Equatable</title>
<path fill="none" stroke="#000000" d="M835.3117,-451.2775C834.426,-491.5379 833,-566.2573 833,-630 833,-630 833,-630 833,-739 833,-814.1518 822.3618,-836.407 790.1239,-908.4416"/>
<polygon fill="none" stroke="#000000" points="786.7524,-907.4077 785.868,-917.9655 793.1433,-910.2635 786.7524,-907.4077"/>
</g>
<!-- NormedSpace -->
<g id="node20" class="node">
<title>NormedSpace</title>
<polygon fill="none" stroke="#000000" points="824.5,-352 669.5,-352 669.5,-260 824.5,-260 824.5,-352"/>
<polyline fill="none" stroke="#000000" points="670,-318 825,-318 "/>
<text text-anchor="start" x="726.1543" y="-337.4" font-family="Helvetica,sans" font-size="12.00" fill="#000000">protocol</text>
<text text-anchor="start" x="709.1475" y="-325.4" font-family="Helvetica,sans" font-size="12.00" fill="#000000">NormedSpace</text>
<polyline fill="none" stroke="#000000" points="670,-284 825,-284 "/>
<text text-anchor="start" x="675" y="-304.4" font-family="Helvetica,sans" font-size="12.00" fill="#000000">norm: Double</text>
<text text-anchor="start" x="675" y="-292.4" font-family="Helvetica,sans" font-style="italic" font-size="12.00" fill="#000000">squaredNorm: Double</text>
<polyline fill="none" stroke="#000000" points="670,-260 825,-260 "/>
<text text-anchor="start" x="675" y="-270.4" font-family="Helvetica,sans" text-decoration="underline" font-size="12.00" fill="#000000">metric(Self, Self) → Double</text>
</g>
<!-- NormedSpace&#45;&gt;VectorSpace&lt;Scalar: Field&gt; -->
<g id="edge21" class="edge">
<title>NormedSpace&#45;&gt;VectorSpace&lt;Scalar: Field&gt;</title>
<path fill="none" stroke="#000000" d="M705.5976,-352.1796C697.2779,-361.4593 688.5802,-371.1606 680.406,-380.2779"/>
<polygon fill="none" stroke="#000000" points="677.7521,-377.995 673.6826,-387.7771 682.9641,-382.6678 677.7521,-377.995"/>
</g>
<!-- NormedSpace&#45;&gt;MetricSpace -->
<g id="edge22" class="edge">
<title>NormedSpace&#45;&gt;MetricSpace</title>
<path fill="none" stroke="#000000" d="M782.4309,-352.1796C790.7694,-363.0477 799.5515,-374.4941 807.538,-384.9034"/>
<polygon fill="none" stroke="#000000" points="804.8846,-387.195 813.7487,-392.9983 810.4384,-382.9339 804.8846,-387.195"/>
</g>
<!-- NormedSpace&lt;Double&gt; -->
<g id="node21" class="node">
<title>NormedSpace&lt;Double&gt;</title>
<polygon fill="none" stroke="#000000" points="914.2483,-196 769.7517,-196 769.7517,-160 914.2483,-160 914.2483,-196"/>
<text text-anchor="start" x="820.6543" y="-180.4" font-family="Helvetica,sans" font-size="12.00" fill="#000000">protocol</text>
<text text-anchor="start" x="777.626" y="-168.4" font-family="Helvetica,sans" font-size="12.00" fill="#000000">NormedSpace&lt;Double&gt;</text>
</g>
<!-- NormedSpace&lt;Double&gt;&#45;&gt;NormedSpace -->
<g id="edge24" class="edge">
<title>NormedSpace&lt;Double&gt;&#45;&gt;NormedSpace</title>
<path fill="none" stroke="#000000" d="M828.5903,-196.0678C817.8017,-210.6041 802.054,-231.822 787.2646,-251.7488"/>
<polygon fill="none" stroke="#000000" points="784.371,-249.7748 781.2217,-259.8908 789.992,-253.9467 784.371,-249.7748"/>
</g>
<!-- NormedSpace&lt;Complex&gt; -->
<g id="node22" class="node">
<title>NormedSpace&lt;Complex&gt;</title>
<polygon fill="none" stroke="#000000" points="734.0703,-196 579.9297,-196 579.9297,-160 734.0703,-160 734.0703,-196"/>
<text text-anchor="start" x="635.6543" y="-180.4" font-family="Helvetica,sans" font-size="12.00" fill="#000000">protocol</text>
<text text-anchor="start" x="587.9648" y="-168.4" font-family="Helvetica,sans" font-size="12.00" fill="#000000">NormedSpace&lt;Complex&gt;</text>
</g>
<!-- NormedSpace&lt;Complex&gt;&#45;&gt;NormedSpace -->
<g id="edge26" class="edge">
<title>NormedSpace&lt;Complex&gt;&#45;&gt;NormedSpace</title>
<path fill="none" stroke="#000000" d="M669.7039,-196.0678C679.8793,-210.5395 694.7111,-231.6335 708.6677,-251.483"/>
<polygon fill="none" stroke="#000000" points="705.9646,-253.7236 714.5795,-259.8908 711.6908,-249.6974 705.9646,-253.7236"/>
</g>
<!-- EuclideanSpace -->
<g id="node23" class="node">
<title>EuclideanSpace</title>
<polygon fill="none" stroke="#000000" points="912.5,-96 771.5,-96 771.5,-16 912.5,-16 912.5,-96"/>
<polyline fill="none" stroke="#000000" points="772,-62 913,-62 "/>
<text text-anchor="start" x="821.1543" y="-81.4" font-family="Helvetica,sans" font-size="12.00" fill="#000000">protocol</text>
<text text-anchor="start" x="799.1348" y="-69.4" font-family="Helvetica,sans" font-size="12.00" fill="#000000">EuclideanSpace</text>
<polyline fill="none" stroke="#000000" points="772,-40 913,-40 "/>
<text text-anchor="start" x="777" y="-47.4" font-family="Helvetica,sans" font-size="12.00" fill="#000000">squaredNorm: Double</text>
<polyline fill="none" stroke="#000000" points="772,-16 913,-16 "/>
<text text-anchor="start" x="777" y="-26.4" font-family="Helvetica,sans" font-style="italic" text-decoration="underline" font-size="12.00" fill="#000000">&lt;*&gt;(Self, Self) → Double</text>
</g>
<!-- EuclideanSpace&#45;&gt;NormedSpace&lt;Double&gt; -->
<g id="edge23" class="edge">
<title>EuclideanSpace&#45;&gt;NormedSpace&lt;Double&gt;</title>
<path fill="none" stroke="#000000" d="M842,-96.2855C842,-113.7671 842,-133.8244 842,-149.6925"/>
<polygon fill="none" stroke="#000000" points="838.5001,-149.9256 842,-159.9257 845.5001,-149.9257 838.5001,-149.9256"/>
</g>
<!-- UnitarySpace -->
<g id="node24" class="node">
<title>UnitarySpace</title>
<polygon fill="none" stroke="#000000" points="732,-96 582,-96 582,-16 732,-16 732,-96"/>
<polyline fill="none" stroke="#000000" points="582,-62 732,-62 "/>
<text text-anchor="start" x="635.6543" y="-81.4" font-family="Helvetica,sans" font-size="12.00" fill="#000000">protocol</text>
<text text-anchor="start" x="620.9824" y="-69.4" font-family="Helvetica,sans" font-size="12.00" fill="#000000">UnitarySpace</text>
<polyline fill="none" stroke="#000000" points="582,-40 732,-40 "/>
<text text-anchor="start" x="587" y="-47.4" font-family="Helvetica,sans" font-size="12.00" fill="#000000">squaredNorm: Double</text>
<polyline fill="none" stroke="#000000" points="582,-16 732,-16 "/>
<text text-anchor="start" x="587" y="-26.4" font-family="Helvetica,sans" font-style="italic" text-decoration="underline" font-size="12.00" fill="#000000">&lt;*&gt;(Self, Self) → Complex</text>
</g>
<!-- UnitarySpace&#45;&gt;NormedSpace&lt;Complex&gt; -->
<g id="edge25" class="edge">
<title>UnitarySpace&#45;&gt;NormedSpace&lt;Complex&gt;</title>
<path fill="none" stroke="#000000" d="M657,-96.2855C657,-113.7671 657,-133.8244 657,-149.6925"/>
<polygon fill="none" stroke="#000000" points="653.5001,-149.9256 657,-159.9257 660.5001,-149.9257 653.5001,-149.9256"/>
</g>
</g>
</svg>
